<?xml version="1.0" encoding="utf-8"?>
<!-- Generator: Adobe Illustrator 21.0.0, SVG Export Plug-In . SVG Version: 6.00 Build 0)  -->
<svg version="1.1" id="Слой_1" xmlns="http://www.w3.org/2000/svg" xmlns:xlink="http://www.w3.org/1999/xlink" x="0px" y="0px"
	 viewBox="0 0 21.9 11.8" style="enable-background:new 0 0 21.9 11.8;" xml:space="preserve">
<style type="text/css">
	.st0{fill:#FFFFFF;}
</style>
<title>Монтажная область 1</title>
<path class="st0" d="M10.9,1.7l9.6,9.9c0.3,0.3,0.8,0.3,1.1,0c0,0,0,0,0,0c0.3-0.3,0.3-0.8,0-1.1c0,0,0,0,0,0l-10-10.2
	C11.4,0,11.2,0,10.9,0c-0.2-0.1-0.5,0-0.7,0.2l-10,10.3c-0.3,0.3-0.3,0.8,0,1.1c0,0,0,0,0,0c0.3,0.3,0.8,0.3,1.1,0c0,0,0,0,0,0
	L10.9,1.7z"/>
</svg>
