<svg id="Слой_1" data-name="Слой 1" xmlns="http://www.w3.org/2000/svg" viewBox="0 0 991.01 707.82"><defs><style>.cls-1{fill:#dfebf7;}</style></defs><title>Монтажная область 2 копия 3</title><rect class="cls-1" x="988.01" y="237.63" width="3" height="6"/><path class="cls-1" d="M988,255.51h3v8.78q0,1.58-.06,3.15l-3-.11q.05-1.52.05-3Zm-1.25,23.43,3,.51a88.29,88.29,0,0,1-2.87,11.73l-2.86-.91A85.41,85.41,0,0,0,986.76,278.94Zm-7.06,22.18,2.71,1.29a88.85,88.85,0,0,1-5.94,10.52L974,311.28A85.74,85.74,0,0,0,979.69,301.12Zm-12.8,19.45,2.26,2a89.76,89.76,0,0,1-8.54,8.54l-2-2.26A86.66,86.66,0,0,0,966.89,320.57Zm-17.53,15.31,1.65,2.5a89.18,89.18,0,0,1-10.5,5.94l-1.3-2.71A86.13,86.13,0,0,0,949.36,335.88Zm-21,10,.92,2.86a88.91,88.91,0,0,1-11.72,2.89l-.52-3A85.82,85.82,0,0,0,928.37,345.93Zm-22.92,4,.12,3c-1.16,0-2.35.07-3.53.07h-8.41v-3H902C903.17,350,904.32,350,905.45,350Zm-23.7.07v3H869.86v-3ZM858,350v3H846.1v-3Zm-23.76,0v3H822.34v-3Zm-23.76,0v3H798.58v-3Zm-23.76,0v3H774.82v-3Zm-23.76,0v3H751.05v-3Zm-23.76,0v3H727.29v-3Zm-23.76,0v3H703.53v-3Zm-23.76,0v3H679.77v-3Zm-23.76,0v3H656v-3Zm-23.76,0v3H632.24v-3Zm-23.76,0v3H608.48v-3Zm-23.76,0v3H584.72v-3Zm-23.76,0v3H561v-3Zm-23.76,0v3H537.19v-3Zm-23.76,0v3H513.43v-3Z"/><rect class="cls-1" x="495.5" y="350.13" width="6" height="3"/><rect class="cls-1" y="459.63" width="3" height="6"/><path class="cls-1" d="M477.57,350.14v3H465.69v-3Zm-23.76,0v3H441.93v-3Zm-23.76,0v3H418.17v-3Zm-23.76,0v3H394.41v-3Zm-23.76,0v3H370.64v-3Zm-23.76,0v3H346.88v-3Zm-23.76,0v3H323.12v-3Zm-23.76,0v3H299.36v-3Zm-23.76,0v3H275.6v-3Zm-23.76,0v3H251.83v-3Zm-23.76,0v3H228.07v-3Zm-23.76,0v3H204.31v-3Zm-23.76,0v3H180.55v-3Zm-23.76,0v3H156.79v-3Zm-23.76,0v3H133v-3Zm-23.76,0v3H109.26v-3Zm-23.76,0v3H89c-1.14,0-2.28,0-3.41.07l-.12-3c1.16,0,2.35-.07,3.53-.07Zm-23.94,1.35.52,3a85.78,85.78,0,0,0-11.33,2.79l-.92-2.86A88.81,88.81,0,0,1,73.44,351.59ZM50.5,358.94l1.29,2.71a86.22,86.22,0,0,0-10.15,5.74L40,364.88A89.11,89.11,0,0,1,50.5,358.94ZM30.39,372.18l2,2.26a86.65,86.65,0,0,0-8.25,8.25l-2.26-2A89.76,89.76,0,0,1,30.39,372.18ZM14.55,390.33,17.05,392a85.6,85.6,0,0,0-5.74,10.16l-2.71-1.29A88.72,88.72,0,0,1,14.55,390.33ZM4.16,412.08,7,413a85.14,85.14,0,0,0-2.77,11.33l-3-.51A88.37,88.37,0,0,1,4.16,412.08ZM.06,435.82l3,.11Q3,437.44,3,439v8.78H0V439Q0,437.39.06,435.82Z"/><rect class="cls-1" x="489.5" y="350.13" width="6" height="3"/><rect class="cls-1" x="0.05" y="464.19" width="3" height="6.01"/><rect class="cls-1" x="0.03" y="529.6" width="3" height="11.88"/><rect class="cls-1" x="0.04" y="482.08" width="3" height="11.88"/><rect class="cls-1" x="0.04" y="505.84" width="3" height="11.88"/><rect class="cls-1" x="-0.01" y="695.94" width="3" height="11.88"/><rect class="cls-1" y="648.41" width="3" height="11.88"/><rect class="cls-1" x="0.02" y="577.13" width="3" height="11.88"/><rect class="cls-1" x="-0.01" y="672.18" width="3" height="11.88"/><rect class="cls-1" x="0.01" y="600.89" width="3" height="11.88"/><rect class="cls-1" x="0.01" y="624.65" width="3" height="11.88"/><rect class="cls-1" x="0.03" y="553.36" width="3" height="11.88"/><rect class="cls-1" x="988.04" width="3" height="6.01"/><rect class="cls-1" x="988.02" y="65.42" width="3" height="11.88"/><rect class="cls-1" x="988.03" y="17.89" width="3" height="11.88"/><rect class="cls-1" x="988.03" y="41.65" width="3" height="11.88"/><rect class="cls-1" x="987.97" y="231.75" width="3" height="11.88"/><rect class="cls-1" x="987.99" y="184.23" width="3" height="11.88"/><rect class="cls-1" x="988.01" y="112.94" width="3" height="11.88"/><rect class="cls-1" x="987.98" y="207.99" width="3" height="11.88"/><rect class="cls-1" x="988" y="136.7" width="3" height="11.88"/><rect class="cls-1" x="987.99" y="160.46" width="3" height="11.88"/><rect class="cls-1" x="988.01" y="89.18" width="3" height="11.88"/></svg>