<svg id="Слой_1" data-name="Слой 1" xmlns="http://www.w3.org/2000/svg" viewBox="0 0 991.01 707.82"><defs><style>.cls-1{fill:#dfebf7;}</style></defs><title>Монтажная область 2 копия 2</title><rect class="cls-1" x="988.01" y="464.19" width="3" height="6"/><path class="cls-1" d="M988,443.53q0-1.53-.05-3l3-.11q.05,1.57.06,3.15v8.78h-3Zm-4-26,2.86-.91a88.29,88.29,0,0,1,2.87,11.73l-3,.51A85.41,85.41,0,0,0,984,417.55Zm-10-21,2.51-1.65a88.85,88.85,0,0,1,5.94,10.52l-2.71,1.29A85.74,85.74,0,0,0,974,396.54ZM958.64,379l2-2.26a89.76,89.76,0,0,1,8.54,8.54l-2.26,2A86.66,86.66,0,0,0,958.64,379Zm-19.43-12.8,1.3-2.71a89.18,89.18,0,0,1,10.5,5.94l-1.65,2.5A86.13,86.13,0,0,0,939.21,366.2ZM917,359.1l.52-3A88.91,88.91,0,0,1,929.29,359l-.92,2.86A85.82,85.82,0,0,0,917,359.1Zm-15-1.3h-8.41v-3H902c1.18,0,2.36,0,3.53.07l-.12,3C904.32,357.82,903.17,357.8,902,357.8Zm-32.17,0v-3h11.88v3Zm-23.76,0v-3H858v3Zm-23.76,0v-3h11.88v3Zm-23.76,0v-3h11.88v3Zm-23.76,0v-3H786.7v3Zm-23.76,0v-3h11.88v3Zm-23.76,0v-3h11.88v3Zm-23.76,0v-3h11.88v3Zm-23.76,0v-3h11.88v3Zm-23.76,0v-3h11.88v3Zm-23.76,0v-3h11.88v3Zm-23.76,0v-3h11.88v3Zm-23.76,0v-3H596.6v3Zm-23.76,0v-3h11.88v3Zm-23.76,0v-3h11.88v3Zm-23.76,0v-3h11.88v3Z"/><rect class="cls-1" x="495.5" y="354.69" width="6" height="3"/><rect class="cls-1" y="242.19" width="3" height="6"/><path class="cls-1" d="M465.69,357.68v-3h11.88v3Zm-23.76,0v-3h11.88v3Zm-23.76,0v-3H430v3Zm-23.76,0v-3h11.88v3Zm-23.76,0v-3h11.88v3Zm-23.76,0v-3h11.88v3Zm-23.76,0v-3H335v3Zm-23.76,0v-3h11.88v3Zm-23.76,0v-3h11.88v3Zm-23.76,0v-3h11.88v3Zm-23.76,0v-3H240v3Zm-23.76,0v-3h11.88v3Zm-23.76,0v-3h11.88v3Zm-23.76,0v-3h11.88v3Zm-23.76,0v-3H144.9v3Zm-23.76,0v-3h11.88v3Zm-20.29,0c-1.18,0-2.36,0-3.53-.07l.12-3c1.13,0,2.27.07,3.41.07h8.41v3Zm-27.25-4.24.92-2.86A85.78,85.78,0,0,0,74,353.28l-.52,3A88.81,88.81,0,0,1,61.72,353.34ZM40,342.94l1.65-2.5a86.22,86.22,0,0,0,10.15,5.74l-1.29,2.71A89.11,89.11,0,0,1,40,342.94ZM21.85,327.1l2.26-2a86.65,86.65,0,0,0,8.25,8.25l-2,2.26A89.76,89.76,0,0,1,21.85,327.1ZM8.61,307l2.71-1.29a85.6,85.6,0,0,0,5.74,10.16l-2.51,1.65A88.72,88.72,0,0,1,8.61,307ZM1.29,284l3-.51A85.14,85.14,0,0,0,7,294.83l-2.86.91A88.37,88.37,0,0,1,1.29,284ZM0,268.85v-8.78H3v8.78q0,1.53.05,3l-3,.11Q0,270.43,0,268.85Z"/><rect class="cls-1" x="489.5" y="354.69" width="6" height="3"/><rect class="cls-1" x="0.05" y="237.62" width="3" height="6.01"/><rect class="cls-1" x="0.03" y="166.33" width="3" height="11.88"/><rect class="cls-1" x="0.04" y="213.86" width="3" height="11.88"/><rect class="cls-1" x="0.04" y="190.1" width="3" height="11.88"/><rect class="cls-1" x="-0.01" width="3" height="11.88"/><rect class="cls-1" y="47.52" width="3" height="11.88"/><rect class="cls-1" x="0.02" y="118.81" width="3" height="11.88"/><rect class="cls-1" x="-0.01" y="23.76" width="3" height="11.88"/><rect class="cls-1" x="0.01" y="95.05" width="3" height="11.88"/><rect class="cls-1" x="0.01" y="71.29" width="3" height="11.88"/><rect class="cls-1" x="0.03" y="142.57" width="3" height="11.88"/><rect class="cls-1" x="988.04" y="701.81" width="3" height="6.01"/><rect class="cls-1" x="988.02" y="630.52" width="3" height="11.88"/><rect class="cls-1" x="988.03" y="678.04" width="3" height="11.88"/><rect class="cls-1" x="988.03" y="654.28" width="3" height="11.88"/><rect class="cls-1" x="987.97" y="464.19" width="3" height="11.88"/><rect class="cls-1" x="987.99" y="511.71" width="3" height="11.88"/><rect class="cls-1" x="988.01" y="583" width="3" height="11.88"/><rect class="cls-1" x="987.98" y="487.95" width="3" height="11.88"/><rect class="cls-1" x="988" y="559.23" width="3" height="11.88"/><rect class="cls-1" x="987.99" y="535.47" width="3" height="11.88"/><rect class="cls-1" x="988.01" y="606.76" width="3" height="11.88"/></svg>