<?xml version="1.0" encoding="utf-8"?>
<!-- Generator: Adobe Illustrator 21.0.0, SVG Export Plug-In . SVG Version: 6.00 Build 0)  -->
<svg version="1.1" id="Слой_1" xmlns="http://www.w3.org/2000/svg" xmlns:xlink="http://www.w3.org/1999/xlink" x="0px" y="0px"
	 viewBox="0 0 422.7 167.1" style="enable-background:new 0 0 422.7 167.1;" xml:space="preserve">
<style type="text/css">
	.st0{fill:#304350;}
	.st1{fill:#0097A7;}
	.st2{fill:url(#SVGID_1_);}
	.st3{fill:#00B9C1;}
	.st4{fill:url(#SVGID_2_);}
</style>
<g>
	<path class="st0" d="M119.6,114.3v15.6c0,6.5-1.9,11-5.8,13.8c-3.9,2.7-10.1,4.1-18.7,4.1c-9.1,0-15.3-1.4-18.8-4.3
		c-3.5-2.8-5.2-7.4-5.2-13.6V78.2h14.3V104c0.8-2.2,2.4-3.6,4.7-4.5c2.3-0.8,5.9-1.2,10.6-1.2c4,0,7.3,0.3,9.9,1
		c2.5,0.7,4.5,1.7,5.8,3.2c1.3,1.5,2.2,3.1,2.6,4.8C119.4,109.1,119.6,111.4,119.6,114.3z M105.3,131.7v-17.5c0-3.1-0.6-5-1.7-5.8
		c-1.1-0.8-4-1.2-8.5-1.2c-4,0-6.7,0.5-7.9,1.6c-1.2,1-1.9,2.9-1.9,5.5v17.5c0,2.8,0.6,4.7,1.8,5.6c1.2,0.9,3.9,1.4,8.1,1.4
		c4.2,0,6.9-0.5,8.2-1.4C104.7,136.4,105.3,134.5,105.3,131.7z"/>
	<path class="st0" d="M176,99.3l-25.9,67.7h-14.5l8.6-20.8l-18.9-47h15.6l10.7,33.5l9.7-33.5H176z"/>
	<path class="st0" d="M214.7,147.2c-2.7,0.3-5.4,0.5-7.9,0.5c-2.2,0-4.2-0.1-5.8-0.2c-1.7-0.2-3.4-0.6-5.2-1.2
		c-1.8-0.6-3.3-1.4-4.4-2.4c-1.1-1-2.1-2.4-2.8-4.3c-0.8-1.9-1.1-4.1-1.1-6.6v-24.8h-9.6v-8.8h9.6V85.6h14.3v13.7h13v8.8h-13v22.3
		c0,3.3,0.5,5.5,1.5,6.6c1,1.1,3.1,1.7,6.5,1.7c1.1,0,2.8-0.2,5.1-0.5V147.2z"/>
	<path class="st0" d="M266.7,126.8h-30.7v4.3c0,2.7,0.9,4.6,2.8,5.8c1.9,1.2,5.4,1.8,10.7,1.8c4.7,0,10-0.7,15.9-2.1v9.1
		c-6,1.2-12.2,1.9-18.6,1.9c-16.8,0-25.2-5.1-25.2-15.4v-17c0-6.1,2-10.4,5.9-13c3.9-2.6,9.8-3.9,17.5-3.9c7.3,0,12.8,1.2,16.3,3.7
		c3.6,2.5,5.4,6.9,5.4,13.2V126.8z M253.1,118.7v-6.9c0-1.5-0.6-2.7-1.8-3.5c-1.2-0.8-3.4-1.2-6.5-1.2c-3.5,0-5.8,0.4-7,1.2
		c-1.2,0.8-1.8,2-1.8,3.5v6.9H253.1z"/>
	<path class="st1" d="M320.3,146.7h-14v-4.3c-1,1.9-2.5,3.2-4.5,4.1s-5.5,1.2-10.8,1.2c-6.4,0-10.6-1-12.7-2.9
		c-2.1-2-3.1-6-3.1-12.2c0-5.6,1.1-9.5,3.2-11.7c2.2-2.2,6-3.3,11.6-3.3H306v-3.2c0-2.9-0.7-4.8-2-5.7c-1.3-0.9-4.2-1.4-8.5-1.4
		c-4,0-9.6,0.4-16.6,1.2v-9c5.4-0.7,11.5-1,18.1-1c8.7,0,14.8,1.1,18.2,3.2c3.4,2.1,5.1,6.3,5.1,12.6V146.7z M306,134.6v-9.2h-9.8
		c-3.1,0-5.1,0.4-5.9,1.1c-0.8,0.7-1.2,2.6-1.2,5.8c0,3.1,0.4,4.9,1.2,5.6c0.8,0.7,2.9,1,6.2,1c1.6,0,2.8,0,3.6,0
		c0.8,0,1.6-0.1,2.5-0.2c0.9-0.1,1.5-0.3,1.9-0.6c0.4-0.3,0.7-0.7,0.9-1.2C305.9,136.1,306,135.4,306,134.6z"/>
	<path class="st1" d="M378.6,146.7h-14.3v-32.9c0-2.6-0.4-4.4-1.3-5.3c-0.9-0.9-3-1.4-6.3-1.4c-4.1,0-6.7,0.4-7.8,1.3
		c-1.1,0.9-1.7,2.7-1.7,5.3v32.9h-14.3V99.3H347v5.8c1.1-4.5,6.2-6.8,15.2-6.8c6.3,0,10.6,1.1,12.9,3.4s3.5,5.7,3.5,10.2V146.7z"/>
	<path class="st1" d="M422.7,147.2c-2.7,0.3-5.4,0.5-7.9,0.5c-2.2,0-4.2-0.1-5.8-0.2c-1.7-0.2-3.4-0.6-5.2-1.2
		c-1.8-0.6-3.3-1.4-4.4-2.4c-1.1-1-2.1-2.4-2.8-4.3c-0.8-1.9-1.1-4.1-1.1-6.6v-24.8h-9.6v-8.8h9.6V85.6h14.3v13.7h13v8.8h-13v22.3
		c0,3.3,0.5,5.5,1.5,6.6c1,1.1,3.1,1.7,6.5,1.7c1.1,0,2.8-0.2,5.1-0.5V147.2z"/>
</g>
<g>
	<linearGradient id="SVGID_1_" gradientUnits="userSpaceOnUse" x1="0" y1="41.3287" x2="59.7991" y2="41.3287">
		<stop  offset="0" style="stop-color:#B6E2EB"/>
		<stop  offset="1" style="stop-color:#00B9C1"/>
	</linearGradient>
	<circle class="st2" cx="29.9" cy="41.3" r="29.9"/>
	<circle class="st3" cx="87.4" cy="34.1" r="22.6"/>
	<linearGradient id="SVGID_2_" gradientUnits="userSpaceOnUse" x1="108.7571" y1="15.8701" x2="146.8162" y2="15.8701">
		<stop  offset="0" style="stop-color:#00B9C1"/>
		<stop  offset="0.8602" style="stop-color:#009DCD"/>
	</linearGradient>
	<path class="st4" d="M145.4,27.1c-4,6.3-15.1,6.3-24.8,0.1s-14.3-16.3-10.3-22.6c4-6.3,15.1-6.3,24.8-0.1S149.4,20.9,145.4,27.1z"
		/>
</g>
</svg>
