<?xml version="1.0" encoding="utf-8"?>
<!-- Generator: Adobe Illustrator 21.0.0, SVG Export Plug-In . SVG Version: 6.00 Build 0)  -->
<svg version="1.1" id="Слой_1" xmlns="http://www.w3.org/2000/svg" xmlns:xlink="http://www.w3.org/1999/xlink" x="0px" y="0px"
	 viewBox="0 0 63 96" style="enable-background:new 0 0 63 96;" xml:space="preserve">
<style type="text/css">
	.st0{fill:#124E94;}
	.st1{fill:#0F447A;}
	.st2{fill:#2B6EAB;}
	.st3{fill:#155889;}
	.st4{fill:#E40134;}
	.st5{fill:#C10033;}
</style>
<path class="st0" d="M29.4,0H0.6C0.3,0,0,0.3,0,0.6v28.7C0,29.7,0.3,30,0.6,30h15.3V20h-3.2c-0.3,0-0.5-0.2-0.5-0.5v-4.1
	c0-0.3,0.2-0.5,0.5-0.5h3.2v-2.8c0-3.7,2.3-6.1,5.9-6.1L25,6c0.3,0,0.5,0.2,0.5,0.5v3.8c0,0.3-0.2,0.5-0.5,0.5l-2.2,0
	c-1.5,0-1.8,0.6-1.8,1.7v2.4h3.8c0.1,0,0.3,0.1,0.4,0.1c0.1,0.1,0.1,0.2,0.1,0.4l0,4.1c0,0.3-0.2,0.5-0.5,0.5h-3.8v10h8.3
	c0.3,0,0.6-0.3,0.6-0.6V0.6C30,0.3,29.7,0,29.4,0z"/>
<path class="st1" d="M62.4,0H33.6C33.3,0,33,0.3,33,0.6v28.7c0,0.3,0.3,0.6,0.6,0.6h15.3V20h-3.2c-0.3,0-0.5-0.2-0.5-0.5v-4.1
	c0-0.3,0.2-0.5,0.5-0.5h3.2v-2.8c0-3.7,2.3-6.1,5.9-6.1L58,6c0.3,0,0.5,0.2,0.5,0.5v3.8c0,0.3-0.2,0.5-0.5,0.5l-2.2,0
	c-1.5,0-1.8,0.6-1.8,1.7v2.4h3.8c0.1,0,0.3,0.1,0.4,0.1c0.1,0.1,0.1,0.2,0.1,0.4l0,4.1c0,0.3-0.2,0.5-0.5,0.5h-3.8v10h8.3
	c0.3,0,0.6-0.3,0.6-0.6V0.6C63,0.3,62.7,0,62.4,0z"/>
<g>
	<g>
		<path class="st2" d="M16.1,46.5L16.1,46.5C16.1,46.5,16.1,46.5,16.1,46.5L16.1,46.5z M27.8,33H2.2C1,33,0,34,0,35.2v25.7
			C0,62,1,63,2.2,63h25.6c1.2,0,2.2-1,2.2-2.1V35.2C30,34,29,33,27.8,33z M9.1,58.1H4.6V44.6h4.5V58.1z M6.8,42.7L6.8,42.7
			c-1.6,0-2.5-1-2.5-2.3c0-1.3,1-2.3,2.6-2.3c1.5,0,2.5,1,2.5,2.3C9.4,41.7,8.4,42.7,6.8,42.7z M25.4,58.1h-4.5v-7.2
			c0-1.8-0.7-3.1-2.3-3.1c-1.3,0-2,0.8-2.3,1.6c-0.1,0.3-0.1,0.7-0.1,1.1v7.6h-4.5c0,0,0.1-12.3,0-13.5h4.5v1.9
			c0.6-0.9,1.7-2.2,4.1-2.2c3,0,5.2,1.9,5.2,6.1V58.1z"/>
	</g>
</g>
<g>
	<g>
		<path class="st3" d="M49.1,46.5L49.1,46.5C49.1,46.5,49.1,46.5,49.1,46.5L49.1,46.5z M60.8,33H35.2C34,33,33,34,33,35.2v25.7
			c0,1.2,1,2.1,2.2,2.1h25.6c1.2,0,2.2-1,2.2-2.1V35.2C63,34,62,33,60.8,33z M42.1,58.1h-4.5V44.6h4.5V58.1z M39.8,42.7L39.8,42.7
			c-1.6,0-2.5-1-2.5-2.3c0-1.3,1-2.3,2.6-2.3c1.5,0,2.5,1,2.5,2.3C42.4,41.7,41.4,42.7,39.8,42.7z M58.4,58.1h-4.5v-7.2
			c0-1.8-0.7-3.1-2.3-3.1c-1.3,0-2,0.8-2.3,1.6c-0.1,0.3-0.1,0.7-0.1,1.1v7.6h-4.5c0,0,0.1-12.3,0-13.5h4.5v1.9
			c0.6-0.9,1.7-2.2,4.1-2.2c3,0,5.2,1.9,5.2,6.1V58.1z"/>
	</g>
</g>
<path class="st4" d="M0,67v28c0,0.6,0.4,1,1,1h28c0.6,0,1-0.4,1-1V67c0-0.6-0.4-1-1-1H1C0.4,66,0,66.4,0,67z M17.5,82.3
	c-0.5,3.4-3,5.3-6.3,5.3c-3.7,0-6.6-3-6.6-6.6c0-3.7,3-6.6,6.6-6.6c1.8,0,3.3,0.6,4.4,1.7l-1.9,1.9c-0.6-0.6-1.5-1-2.5-1
	c-2.2,0-3.9,1.8-3.9,4c0,2.2,1.7,3.9,3.9,3.9c1.8,0,3.2-0.9,3.6-2.6h-3.6v-2.7h6.3c0.1,0.4,0.1,0.9,0.1,1.3
	C17.6,81.4,17.6,81.8,17.5,82.3L17.5,82.3z M25.4,81.4h-2.3v2.3h-1.6v-2.3h-2.3v-1.6h2.3v-2.3h1.6v2.3h2.3V81.4z M25.4,81.4"/>
<path class="st5" d="M33,67v28c0,0.6,0.4,1,1,1h28c0.6,0,1-0.4,1-1V67c0-0.6-0.4-1-1-1H34C33.5,66,33,66.4,33,67z M50.5,82.3
	c-0.5,3.4-3,5.3-6.3,5.3c-3.7,0-6.6-3-6.6-6.6c0-3.7,3-6.6,6.6-6.6c1.8,0,3.3,0.6,4.4,1.7l-1.9,1.9c-0.6-0.6-1.5-1-2.5-1
	c-2.2,0-3.9,1.8-3.9,4c0,2.2,1.7,3.9,3.9,3.9c1.8,0,3.2-0.9,3.6-2.6h-3.6v-2.7h6.3c0.1,0.4,0.1,0.9,0.1,1.3
	C50.6,81.4,50.6,81.8,50.5,82.3L50.5,82.3z M58.4,81.4h-2.3v2.3h-1.6v-2.3h-2.3v-1.6h2.3v-2.3h1.6v2.3h2.3V81.4z M58.4,81.4"/>
</svg>
