<svg xmlns="http://www.w3.org/2000/svg" width="44" height="44" viewBox="0 0 44 44">
  <metadata><?xpacket begin="﻿" id="W5M0MpCehiHzreSzNTczkc9d"?>
<x:xmpmeta xmlns:x="adobe:ns:meta/" x:xmptk="Adobe XMP Core 5.6-c138 79.159824, 2016/09/14-01:09:01        ">
   <rdf:RDF xmlns:rdf="http://www.w3.org/1999/02/22-rdf-syntax-ns#">
      <rdf:Description rdf:about=""/>
   </rdf:RDF>
</x:xmpmeta>
                                                                                                    
                                                                                                    
                                                                                                    
                                                                                                    
                                                                                                    
                                                                                                    
                                                                                                    
                                                                                                    
                                                                                                    
                                                                                                    
                                                                                                    
                                                                                                    
                                                                                                    
                                                                                                    
                                                                                                    
                                                                                                    
                                                                                                    
                                                                                                    
                                                                                                    
                                                                                                    
                           
<?xpacket end="w"?></metadata>
<defs>
    <style>
      .cls-1 {
        fill: #91a0b1;
        fill-rule: evenodd;
      }
    </style>
  </defs>
  <path class="cls-1" d="M291.2,2014.55a0.8,0.8,0,0,1-.8-0.8v-5.16H285.25a0.8,0.8,0,0,1,0-1.6H291.2a0.8,0.8,0,0,1,.8.8v5.96A0.8,0.8,0,0,1,291.2,2014.55Zm-42.4,0a0.8,0.8,0,0,1-.8-0.8v-5.96a0.8,0.8,0,0,1,.8-0.8h5.953a0.8,0.8,0,0,1,0,1.6H249.6v5.16A0.8,0.8,0,0,1,248.8,2014.55Zm5.953,36.45H248.8a0.8,0.8,0,0,1-.8-0.8v-5.96a0.8,0.8,0,0,1,1.6,0v5.16h5.154A0.8,0.8,0,0,1,254.751,2051Zm36.451,0H285.25a0.8,0.8,0,1,1,0-1.6H290.4v-5.16a0.8,0.8,0,0,1,1.6,0v5.96A0.8,0.8,0,0,1,291.2,2051Zm-9.09-30.5H257.893a0.845,0.845,0,0,0-.844.84v18.03a0.845,0.845,0,0,0,.844.84h24.219a0.845,0.845,0,0,0,.845-0.84v-18.03A0.845,0.845,0,0,0,282.112,2020.5Zm-0.845,1.69v3.36H258.738v-3.36h22.529Zm-22.529,16.33v-11.28h22.529v11.28H258.738Zm20.756-13.64a1.125,1.125,0,1,0-1.126-1.13A1.132,1.132,0,0,0,279.494,2024.88Zm-3.068,0a1.125,1.125,0,1,0-1.127-1.13A1.131,1.131,0,0,0,276.426,2024.88Zm-3.069,0a1.125,1.125,0,1,0-1.126-1.13A1.131,1.131,0,0,0,273.357,2024.88Z" transform="translate(-248 -2007)"/>
</svg>
