<?xml version="1.0" encoding="utf-8"?>
<!-- Generator: Adobe Illustrator 21.0.0, SVG Export Plug-In . SVG Version: 6.00 Build 0)  -->
<svg version="1.1" id="Layer_1" xmlns="http://www.w3.org/2000/svg" xmlns:xlink="http://www.w3.org/1999/xlink" x="0px" y="0px"
	 viewBox="0 0 98.1 220.1" style="enable-background:new 0 0 98.1 220.1;" xml:space="preserve">
<style type="text/css">
	.st0{fill:#919FB1;}
</style>
<g>
	<g>
		<g>
			<path class="st0" d="M6.8,104h-6c-0.4,0-0.8-0.4-0.8-0.8v-6c0-0.4,0.4-0.8,0.8-0.8s0.8,0.4,0.8,0.8v5.2h5.2
				c0.4,0,0.8,0.4,0.8,0.8C7.6,103.6,7.2,104,6.8,104z"/>
			<path class="st0" d="M37.3,59.9h6c0.4,0,0.8,0.4,0.8,0.8v6c0,0.4-0.4,0.8-0.8,0.8s-0.8-0.4-0.8-0.8v-5.2h-5.2
				c-0.4,0-0.8-0.4-0.8-0.8S36.9,59.9,37.3,59.9z"/>
			<path class="st0" d="M44.1,100.1h-1.8v-2h1.8V100.1z M44.1,96.1h-1.8v-2h1.8V96.1z M44.1,92.1h-1.8v-2h1.8V92.1z M44.1,102.1
				h-1.8v0.1h-0.1v1.8h1.9V102.1z M40.4,104h-1.8v-1.8h1.8V104z M36.8,104h-1.8v-1.8h1.8V104z"/>
			<path class="st0" d="M0,63.8h1.8v2H0L0,63.8z M0,67.9h1.8v2H0V67.9z M0,71.9h1.8v2H0L0,71.9z M0,61.8h1.8v-0.1h0.1v-1.8H0L0,61.8
				z M3.7,59.9h1.8v1.8H3.7V59.9z M7.2,59.9H9v1.8H7.2V59.9z"/>
		</g>
	</g>
</g>
<g>
	<g>
		<g>
			<path class="st0" d="M60.8,44.1h-6c-0.4,0-0.8-0.4-0.8-0.8v-6c0-0.4,0.4-0.8,0.8-0.8s0.8,0.4,0.8,0.8v5.2h5.2
				c0.4,0,0.8,0.4,0.8,0.8C61.6,43.7,61.2,44.1,60.8,44.1z"/>
			<path class="st0" d="M91.3,0l6,0c0.4,0,0.8,0.4,0.8,0.8v6c0,0.4-0.4,0.8-0.8,0.8c-0.4,0-0.8-0.4-0.8-0.8V1.6h-5.2
				c-0.4,0-0.8-0.4-0.8-0.8S90.9,0,91.3,0z"/>
			<path class="st0" d="M98.1,40.2h-1.8v-2h1.8V40.2z M98.1,36.1h-1.8v-2h1.8V36.1z M98.1,32.1h-1.8v-2h1.8V32.1z M98.1,42.2h-1.8
				v0.1h-0.1v1.8h1.9V42.2z M94.4,44.1h-1.8v-1.8h1.8V44.1z M90.8,44.1h-1.8v-1.8h1.8V44.1z"/>
			<path class="st0" d="M54,3.9h1.8v2H54V3.9z M54,7.9h1.8v2H54V7.9z M54,11.9h1.8v2H54V11.9z M54,1.9h1.8V1.8h0.1V0L54,0V1.9z
				 M57.7,0h1.8v1.8h-1.8V0z M61.2,0H63v1.8h-1.8V0z"/>
		</g>
	</g>
</g>
<g>
	<g>
		<g>
			<path class="st0" d="M60.9,164.2h-6c-0.4,0-0.8-0.4-0.8-0.8v-6c0-0.4,0.4-0.8,0.8-0.8s0.8,0.4,0.8,0.8v5.2h5.2
				c0.4,0,0.8,0.4,0.8,0.8S61.3,164.2,60.9,164.2z"/>
			<path class="st0" d="M91.3,120.2h6c0.4,0,0.8,0.4,0.8,0.8v6c0,0.4-0.4,0.8-0.8,0.8c-0.4,0-0.8-0.4-0.8-0.8v-5.2h-5.2
				c-0.4,0-0.8-0.4-0.8-0.8S90.9,120.2,91.3,120.2z"/>
			<path class="st0" d="M98,160.4h-1.8v-2H98V160.4z M98,156.3h-1.8v-2H98V156.3z M98,152.3h-1.8v-2H98V152.3z M98,162.4h-1.8v0.1
				h-0.1v1.8H98V162.4z M94.3,164.3h-1.8v-1.8h1.8V164.3z M90.7,164.3H89v-1.8h1.8V164.3z"/>
			<path class="st0" d="M54,124h1.8v2H54V124z M54,128h1.8v2H54V128z M54,132.1h1.8v2H54V132.1z M54,122h1.8v-0.1h0.1v-1.8H54V122z
				 M57.7,120.1h1.8v1.8h-1.8V120.1z M61.2,120.1H63v1.8h-1.8V120.1z"/>
		</g>
	</g>
</g>
<g>
	<g>
		<g>
			<path class="st0" d="M6.8,220h-6c-0.4,0-0.8-0.4-0.8-0.8v-6c0-0.4,0.4-0.8,0.8-0.8s0.8,0.4,0.8,0.8v5.2h5.2
				c0.4,0,0.8,0.4,0.8,0.8S7.2,220,6.8,220z"/>
			<path class="st0" d="M37.3,175.9h6c0.4,0,0.8,0.4,0.8,0.8v6c0,0.4-0.4,0.8-0.8,0.8s-0.8-0.4-0.8-0.8v-5.2h-5.2
				c-0.4,0-0.8-0.4-0.8-0.8C36.5,176.3,36.9,175.9,37.3,175.9z"/>
			<path class="st0" d="M44.1,216.1h-1.8v-2h1.8V216.1z M44.1,212.1h-1.8v-2h1.8V212.1z M44.1,208.1h-1.8v-2h1.8V208.1z M44.1,218.2
				h-1.8v0.1h-0.1v1.8h1.9V218.2z M40.4,220.1h-1.8v-1.8h1.8V220.1z M36.8,220.1h-1.8v-1.8h1.8V220.1z"/>
			<path class="st0" d="M0,179.9h1.8v2H0L0,179.9z M0,183.9h1.8v2H0V183.9z M0,187.9h1.8v2H0L0,187.9z M0,177.8h1.8v-0.1h0.1v-1.8H0
				L0,177.8z M3.7,175.9h1.8v1.8H3.7V175.9z M7.2,175.9H9v1.8H7.2V175.9z"/>
		</g>
	</g>
</g>
<g>
	<g>
		<g>
			<path class="st0" d="M43.3,7.6c-0.4,0-0.8-0.4-0.8-0.8V1.6h-5.2c-0.4,0-0.8-0.4-0.8-0.8S36.9,0,37.3,0h6c0.4,0,0.8,0.4,0.8,0.8v6
				C44.1,7.2,43.7,7.6,43.3,7.6z"/>
			<path class="st0" d="M0.8,7.6C0.4,7.6,0,7.2,0,6.8v-6C0,0.4,0.4,0,0.8,0h6c0.4,0,0.8,0.4,0.8,0.8S7.2,1.6,6.8,1.6H1.6v5.2
				C1.6,7.2,1.2,7.6,0.8,7.6z"/>
			<path class="st0" d="M6.8,44.1h-6c-0.4,0-0.8-0.4-0.8-0.8v-6c0-0.4,0.4-0.8,0.8-0.8s0.8,0.4,0.8,0.8v5.2h5.2
				c0.4,0,0.8,0.4,0.8,0.8S7.2,44.1,6.8,44.1z"/>
			<path class="st0" d="M43.3,44.1h-6c-0.4,0-0.8-0.4-0.8-0.8s0.4-0.8,0.8-0.8h5.2v-5.2c0-0.4,0.4-0.8,0.8-0.8s0.8,0.4,0.8,0.8v6
				C44.1,43.7,43.7,44.1,43.3,44.1z"/>
		</g>
	</g>
</g>
<g>
	<g>
		<g>
			<path class="st0" d="M97.3,67.5c-0.4,0-0.8-0.4-0.8-0.8v-5.2h-5.2c-0.4,0-0.8-0.4-0.8-0.8s0.4-0.8,0.8-0.8h6
				c0.4,0,0.8,0.4,0.8,0.8v6C98.1,67.1,97.8,67.5,97.3,67.5z"/>
			<path class="st0" d="M54.9,67.5c-0.4,0-0.8-0.4-0.8-0.8v-6c0-0.4,0.4-0.8,0.8-0.8h6c0.4,0,0.8,0.4,0.8,0.8s-0.4,0.8-0.8,0.8h-5.2
				v5.2C55.7,67.1,55.3,67.5,54.9,67.5z"/>
			<path class="st0" d="M60.8,104h-6c-0.4,0-0.8-0.4-0.8-0.8v-6c0-0.4,0.4-0.8,0.8-0.8s0.8,0.4,0.8,0.8v5.2h5.2
				c0.4,0,0.8,0.4,0.8,0.8C61.6,103.6,61.3,104,60.8,104z"/>
			<path class="st0" d="M97.3,104h-6c-0.4,0-0.8-0.4-0.8-0.8c0-0.4,0.4-0.8,0.8-0.8h5.2v-5.2c0-0.4,0.4-0.8,0.8-0.8
				c0.4,0,0.8,0.4,0.8,0.8v6C98.1,103.6,97.8,104,97.3,104z"/>
		</g>
	</g>
</g>
<g>
	<g>
		<g>
			<path class="st0" d="M97.3,183.5c-0.4,0-0.8-0.4-0.8-0.8v-5.2h-5.2c-0.4,0-0.8-0.4-0.8-0.8c0-0.4,0.4-0.8,0.8-0.8h6
				c0.4,0,0.8,0.4,0.8,0.8v6C98.1,183.1,97.7,183.5,97.3,183.5z"/>
			<path class="st0" d="M54.8,183.5c-0.4,0-0.8-0.4-0.8-0.8v-6c0-0.4,0.4-0.8,0.8-0.8h6c0.4,0,0.8,0.4,0.8,0.8
				c0,0.4-0.4,0.8-0.8,0.8h-5.2v5.2C55.6,183.1,55.2,183.5,54.8,183.5z"/>
			<path class="st0" d="M60.8,220h-6c-0.4,0-0.8-0.4-0.8-0.8v-6c0-0.4,0.4-0.8,0.8-0.8s0.8,0.4,0.8,0.8v5.2h5.2
				c0.4,0,0.8,0.4,0.8,0.8S61.2,220,60.8,220z"/>
			<path class="st0" d="M97.3,220h-6c-0.4,0-0.8-0.4-0.8-0.8s0.4-0.8,0.8-0.8h5.2v-5.2c0-0.4,0.4-0.8,0.8-0.8c0.4,0,0.8,0.4,0.8,0.8
				v6C98.1,219.6,97.7,220,97.3,220z"/>
		</g>
	</g>
</g>
<g>
	<g>
		<path class="st0" d="M59.2,205.6v3.3H57v-3.3H59.2z"/>
		<path class="st0" d="M71.8,188.5h-1.5v20.4h-1.6l-4.9-17.6l0.3,7.4v8.8h1.5v1.4h-4.7v-1.4h1.5v-18.9h-1.5v-1.4H64l4.9,17.6
			l-0.3-7.2v-8.9h-1.5v-1.4h4.7V188.5z"/>
		<path class="st0" d="M79.4,188.5h-3.6v8.8h3.1v1.4h-3.1v8.7h3.6v-6.4h1.7v7.8h-8.5v-1.4h1.5v-18.9h-1.5v-1.4h8.5v7.8h-1.7V188.5z"
			/>
		<path class="st0" d="M91.1,208.9h-5.8v-1.4h2.1v-18.9h-3.3v6.3h-1.7v-7.7H94v7.7h-1.7v-6.3h-3.3v18.9h2.1V208.9z"/>
	</g>
</g>
<g>
	<g>
		<g>
			<path class="st0" d="M43.3,120.2h-6c-0.4,0-0.8,0.4-0.8,0.8s0.4,0.8,0.8,0.8h5.2v5.2c0,0.4,0.4,0.8,0.8,0.8s0.8-0.4,0.8-0.8v-6
				C44.1,120.5,43.7,120.2,43.3,120.2z"/>
		</g>
		<g>
			<path class="st0" d="M0.8,127.7c0.4,0,0.8-0.4,0.8-0.8v-5.2h5.2c0.4,0,0.8-0.4,0.8-0.8s-0.4-0.8-0.8-0.8h-6
				c-0.4,0-0.8,0.4-0.8,0.8v6C0,127.4,0.4,127.7,0.8,127.7z"/>
		</g>
		<g>
			<path class="st0" d="M6.8,162.6H1.6v-5.2c0-0.4-0.4-0.8-0.8-0.8S0,157,0,157.5v6c0,0.4,0.4,0.8,0.8,0.8h6c0.4,0,0.8-0.4,0.8-0.8
				S7.2,162.6,6.8,162.6z"/>
		</g>
		<g>
			<path class="st0" d="M43.3,156.7c-0.4,0-0.8,0.4-0.8,0.8v5.2h-5.2c-0.4,0-0.8,0.4-0.8,0.8s0.4,0.8,0.8,0.8h6
				c0.4,0,0.8-0.4,0.8-0.8v-6C44.1,157,43.7,156.7,43.3,156.7z"/>
		</g>
		<path class="st0" d="M93,143.6c0-3.1-2.1-5.9-5-6.8c-0.4-5.1-4.6-9.1-9.7-9.1c-3,0-6,1.4-7.9,3.8c-0.1,0-0.2-0.1-0.3-0.1l-0.2-0.1
			c-0.1,0-0.2-0.1-0.4-0.1l-0.1,0c0,0-0.1,0-0.1,0c-0.1,0-0.3-0.1-0.4-0.1c-0.1,0-0.1,0-0.2,0c-0.2,0-0.4,0-0.6,0
			c-2.9,0-5.3,2.4-5.3,5.3c0,0,0,0,0,0.1c-2.3,1.3-3.9,4-3.9,6.7c0,4.1,3.3,7.4,7.4,7.4h2.9c0.4,0,0.8-0.4,0.8-0.8
			c0-0.4-0.4-0.8-0.8-0.8h-2.9c-3.2,0-5.8-2.6-5.8-5.8c0-2.2,1.4-4.5,3.4-5.5l0.5-0.2v-0.5c0,0,0-0.1,0-0.1l0-0.2l0-0.2
			c0-2,1.6-3.7,3.7-3.7c0.2,0,0.3,0,0.5,0l0.1,0c0.1,0,0.3,0.1,0.4,0.1l0.1,0c0.1,0,0.3,0.1,0.5,0.2l0.1,0c0.1,0.1,0.2,0.1,0.4,0.2
			c1,0.7,1.7,1.8,1.7,3.1c0,0.4,0.4,0.8,0.8,0.8s0.8-0.4,0.8-0.8c0-1.5-0.6-2.9-1.7-3.9c1.6-1.9,4-3.1,6.5-3.1c4,0,7.5,3.1,8,7.2
			c-0.6,0-1.3,0-2,0.1c-0.2,0-0.4,0.1-0.5,0.3c-0.1,0.2-0.2,0.4-0.1,0.6c0.1,0.4,0.5,0.8,0.9,0.7c1.2-0.2,2.5,0,2.5,0
			c2.5,0.5,4.3,2.8,4.3,5.3c0,2.9-2.4,5.3-5.3,5.3h-2.2c-0.4,0-0.8,0.4-0.8,0.8c0,0.4,0.4,0.8,0.8,0.8h2.2
			C89.9,150.5,93,147.4,93,143.6z"/>
		<path class="st0" d="M80.5,146.6c0.3,0.3,0.8,0.3,1.1,0c0.2-0.2,0.2-0.4,0.2-0.6c0-0.2-0.1-0.4-0.2-0.6l-4.5-4.5
			c-0.1-0.1-0.2-0.1-0.3-0.2c-0.2-0.1-0.4-0.1-0.6,0c-0.1,0-0.2,0.1-0.3,0.2l-4.5,4.5c-0.3,0.3-0.3,0.8,0,1.1c0.3,0.3,0.8,0.3,1.1,0
			l3.1-3.1v6.9c0,0,0,0,0,0v5l-3.1-3.1c-0.3-0.3-0.8-0.3-1.1,0c-0.3,0.3-0.3,0.8,0,1.1L76,158c0.1,0.1,0.2,0.1,0.3,0.2
			c0.1,0,0.2,0.1,0.3,0.1c0.1,0,0.2,0,0.3-0.1c0.1,0,0.2-0.1,0.3-0.2l4.5-4.5c0.3-0.3,0.3-0.8,0-1.1c-0.3-0.3-0.8-0.3-1.1,0
			l-3.1,3.1v-6.9c0,0,0,0,0,0v-5L80.5,146.6z"/>
	</g>
</g>
<g>
	<g>
		<path class="st0" d="M90.1,75.7l-8.9-10.3c-0.2-0.2-0.4-0.3-0.7-0.3H68.1c-2.8,0-5,2.3-5,5v23.9c0,2.8,2.3,5,5,5h17.2
			c2.8,0,5-2.3,5-5V76.3C90.3,76.1,90.2,75.9,90.1,75.7z M84.7,75.4c-1.8,0-3.2-1.5-3.2-3.2v-3.7l6,7H84.7z M85.3,97.3H68.1
			c-1.8,0-3.2-1.5-3.2-3.2V70.2c0-1.8,1.5-3.2,3.2-3.2h11.6v5.2c0,2.8,2.3,5,5,5h3.8V94C88.5,95.8,87.1,97.3,85.3,97.3z"/>
		<path class="st0" d="M80.9,79.1c-0.2-0.2-0.4-0.3-0.6-0.3h0c-0.2,0-0.5,0.1-0.6,0.3c-0.2,0.2-0.3,0.4-0.3,0.6s0.1,0.5,0.3,0.6
			l3.1,3.1l-3.1,3.1c-0.2,0.2-0.3,0.4-0.3,0.6c0,0.2,0.1,0.5,0.3,0.6c0.2,0.2,0.4,0.3,0.6,0.3c0.2,0,0.5-0.1,0.6-0.3l3.7-3.7
			c0.2-0.2,0.3-0.4,0.3-0.6c0-0.2-0.1-0.5-0.3-0.6L80.9,79.1z"/>
		<path class="st0" d="M73.7,80.3c0.2-0.2,0.3-0.4,0.3-0.6s-0.1-0.5-0.3-0.6c-0.2-0.2-0.4-0.3-0.6-0.3h0c-0.2,0-0.5,0.1-0.6,0.3
			l-3.7,3.7c-0.2,0.2-0.3,0.4-0.3,0.6c0,0.2,0.1,0.5,0.3,0.6l3.7,3.7c0.2,0.2,0.4,0.3,0.6,0.3c0.2,0,0.5-0.1,0.6-0.3
			c0.2-0.2,0.3-0.4,0.3-0.6c0-0.2-0.1-0.5-0.3-0.6l-3.1-3.1L73.7,80.3L73.7,80.3z"/>
	</g>
</g>
<g>
	<g>
		<path class="st0" d="M87.3,25.4l-1,1l-7.2-7.2l1-1L87.3,25.4z M79.1,17.2l-1,1l-1.3-1.3l1-1L79.1,17.2z M76.8,14.9l-1,1l-2.6-2.6
			l1-1L76.8,14.9z"/>
		<g>
			<path class="st0" d="M85.6,30.4l7.6,2l-2-7.6c-6.2-6.2-12.4-12.4-18.6-18.6c-1.6-1.6-4.1-1.6-5.7,0c-1.6,1.6-1.6,4.1,0,5.7
				C73.2,18,79.4,24.2,85.6,30.4z M91.3,30.4l-4-1l2.9-2.9L91.3,30.4z M68,10.8c-1-1-1-2.7,0-3.7c1-1,2.7-1,3.7,0l1.8,1.8l-3.7,3.7
				L68,10.8z M70.8,13.6l3.7-3.7l15.2,15.2L86,28.8L70.8,13.6z"/>
		</g>
	</g>
</g>
<g>
	<g>
		<path class="st0" d="M61.4,37.2h24.8L61.4,12.5V37.2z M82.7,35.8h-5.4v-2.1h-1.4v2.1h-2.1v-2.1h-1.4v2.1h-2.1v-2.1h-1.4v2.1h-2.1
			v-2.1h-1.4v2.1h-2.7v-2.7h2.1v-1.4h-2.1v-2.1h2.1v-1.4h-2.1v-2.1h2.1v-1.4h-2.1v-2.1h2.1v-1.4h-2.1v-5.3L82.7,35.8z"/>
		<path class="st0" d="M66.6,23v8.9h8.9L66.6,23z M68,26.4l4.1,4.1H68V26.4z"/>
	</g>
</g>
<path class="st0" d="M9,132.2v20h27.2v-20H9z M10.6,150.6v-11.2h24v11.2H10.6z M10.6,133.8h24v4.1h-24V133.8z"/>
<rect x="11.9" y="135" class="st0" width="1.6" height="1.6"/>
<rect x="14.5" y="135" class="st0" width="1.6" height="1.6"/>
<rect x="17.1" y="135" class="st0" width="1.6" height="1.6"/>
<path class="st0" d="M19,145c-0.1-0.1-0.3-0.2-0.5-0.3c-0.2-0.1-0.4-0.2-0.7-0.3c-0.2-0.1-0.3-0.1-0.4-0.1c-0.1,0-0.2-0.1-0.3-0.1
	c-0.1,0-0.2-0.1-0.2-0.1c0,0-0.1-0.1-0.1-0.2c0-0.1,0-0.2,0.1-0.2c0.1,0,0.2-0.1,0.3-0.1c0.2,0,0.3,0,0.5,0.1
	c0.2,0.1,0.3,0.1,0.5,0.2c0.2,0.1,0.3,0.2,0.5,0.3l0.7-1.3c-0.1-0.1-0.3-0.1-0.4-0.2c-0.2-0.1-0.3-0.1-0.5-0.2
	c-0.2-0.1-0.4-0.1-0.6-0.2c-0.2,0-0.4-0.1-0.6-0.1c-0.3,0-0.5,0-0.8,0.1c-0.3,0.1-0.5,0.2-0.7,0.4c-0.2,0.2-0.4,0.4-0.5,0.6
	c-0.1,0.2-0.2,0.5-0.2,0.8c0,0.2,0,0.4,0.1,0.5c0.1,0.2,0.1,0.3,0.3,0.4c0.1,0.1,0.3,0.2,0.4,0.3c0.2,0.1,0.4,0.2,0.6,0.3
	c0.2,0.1,0.3,0.1,0.5,0.2c0.2,0,0.3,0.1,0.4,0.1c0.1,0,0.2,0.1,0.3,0.1c0.1,0.1,0.1,0.1,0.1,0.2c0,0.1,0,0.1-0.1,0.2
	c-0.1,0-0.2,0.1-0.4,0.1c-0.2,0-0.4,0-0.7-0.1c-0.2-0.1-0.4-0.1-0.6-0.2c-0.2-0.1-0.4-0.2-0.6-0.3l-0.7,1.4c0.2,0.1,0.4,0.2,0.6,0.3
	c0.2,0.1,0.4,0.1,0.6,0.2c0.2,0.1,0.4,0.1,0.6,0.1c0.2,0,0.4,0,0.6,0c0.3,0,0.5,0,0.8-0.1c0.3-0.1,0.5-0.2,0.7-0.3
	c0.2-0.1,0.4-0.3,0.5-0.6c0.1-0.2,0.2-0.5,0.2-0.9c0-0.3,0-0.5-0.1-0.7C19.3,145.3,19.2,145.1,19,145z"/>
<path class="st0" d="M25.4,146.1c0.1-0.3,0.2-0.7,0.2-1c0-0.4-0.1-0.7-0.2-1.1c-0.1-0.3-0.3-0.7-0.6-0.9c-0.2-0.3-0.5-0.5-0.9-0.7
	c-0.4-0.2-0.7-0.3-1.2-0.3c-0.4,0-0.8,0.1-1.2,0.2c-0.4,0.2-0.7,0.4-0.9,0.6c-0.3,0.3-0.5,0.6-0.6,0.9c-0.1,0.3-0.2,0.7-0.2,1.1
	c0,0.4,0.1,0.7,0.2,1.1c0.1,0.3,0.3,0.7,0.6,0.9s0.5,0.5,0.9,0.6c0.4,0.2,0.7,0.2,1.2,0.2c0.2,0,0.5,0,0.7-0.1
	c0.2-0.1,0.4-0.1,0.6-0.2l0.3,0.3h1.5l-0.9-0.9C25.1,146.7,25.3,146.4,25.4,146.1z M24,145.4c0,0.1-0.1,0.3-0.1,0.4l-0.3-0.3h-1.5
	l0.9,1c-0.1,0-0.2,0-0.3,0c-0.2,0-0.4,0-0.6-0.1c-0.2-0.1-0.3-0.2-0.4-0.3c-0.1-0.1-0.2-0.3-0.2-0.5c-0.1-0.2-0.1-0.4-0.1-0.6
	c0-0.2,0-0.4,0.1-0.5c0.1-0.2,0.1-0.3,0.2-0.5c0.1-0.1,0.2-0.3,0.4-0.3c0.2-0.1,0.4-0.1,0.6-0.1c0.2,0,0.4,0,0.6,0.1
	c0.2,0.1,0.3,0.2,0.4,0.3c0.1,0.1,0.2,0.3,0.2,0.5c0.1,0.2,0.1,0.4,0.1,0.6C24,145.1,24,145.3,24,145.4z"/>
<polygon class="st0" points="27.8,142.2 26.3,142.2 26.3,147.8 30.4,147.8 30.4,146.5 27.8,146.5 "/>
<path class="st0" d="M24.4,190.9l11.2,9.1l-5.4,1.3l3.3,6.8c0.1,0.2,0.1,0.4,0,0.6c-0.1,0.2-0.2,0.3-0.4,0.4c-0.1,0-0.2,0.1-0.3,0.1
	c-0.1,0-0.2,0-0.3,0c-0.2-0.1-0.3-0.2-0.4-0.4l-3.3-6.8l-4.4,3.4L24.4,190.9 M22.9,187.7l0,3.2l0.1,14.4l0,3l2.4-1.9l2.9-2.2
	l2.5,5.2c0.3,0.5,0.7,1,1.3,1.2c0.2,0.1,0.5,0.1,0.7,0.1c0.3,0,0.7-0.1,1-0.2c0.5-0.3,1-0.7,1.2-1.3c0.2-0.6,0.2-1.2-0.1-1.7
	l-2.5-5.2l3.6-0.9l3-0.7l-2.4-1.9l-11.2-9.1L22.9,187.7L22.9,187.7z"/>
<g>
	<g>
		<path class="st0" d="M13.2,207.2h-1.3v-9.8h1.3V207.2z M13.2,196.1h-1.3v-1.8h1.3V196.1z M13.2,193h-1.3v-3.6h1.3V193z"/>
		<g>
			<path class="st0" d="M8.7,209.4l3.8,6.5l3.8-6.5c0-8.3,0-16.7,0-25c0-2.1-1.7-3.8-3.8-3.8c-2.1,0-3.8,1.7-3.8,3.8
				C8.7,192.8,8.7,201.1,8.7,209.4z M12.5,213.3l-2-3.4h4L12.5,213.3z M10,184.4c0-1.4,1.1-2.5,2.5-2.5c1.4,0,2.5,1.1,2.5,2.5v2.4
				h-5V184.4z M10,188.2h5v20.4h-5V188.2z"/>
		</g>
	</g>
</g>
<g>
	<g>
		<path class="st0" d="M32.2,67.9H11.8c-0.9,0-1.6,0.7-1.6,1.6v24.8c0,0.9,0.7,1.6,1.6,1.6h20.4c0.9,0,1.6-0.7,1.6-1.6V69.6
			C33.9,68.7,33.1,67.9,32.2,67.9z M32.2,94.8H11.8c-0.2,0-0.4-0.2-0.4-0.4V69.6c0-0.2,0.2-0.4,0.4-0.4h20.4c0.2,0,0.4,0.2,0.4,0.4
			v24.8C32.6,94.6,32.5,94.8,32.2,94.8z"/>
		<path class="st0" d="M12.8,78.4c0,0.1,0.1,0.2,0.2,0.3l0,0c0,0,0.1,0,0.1,0c0,0,0.1,0,0.1,0.1c0.1,0,0.1,0,0.2,0h6.1
			c0.1,0,0.2,0,0.2-0.1l0.2-0.1l0,0c0,0,0.1-0.1,0.1-0.1c0.1-0.1,0.1-0.1,0.1-0.2c0,0,0-0.1,0-0.1l0-7.2l0,0l0,0c0,0,0-0.1,0-0.1
			c0,0,0-0.1,0-0.1c0,0,0-0.1-0.1-0.1c0,0-0.1-0.1-0.1-0.1l0,0c0,0-0.1,0-0.1,0c-0.1-0.1-0.2-0.1-0.2-0.1c0,0-0.1,0-0.1,0l-6.1,0
			c0,0-0.1,0-0.1,0c-0.1,0-0.2,0-0.2,0.1c0,0,0,0-0.1,0l0,0c0,0-0.1,0.1-0.1,0.1c0,0,0,0.1-0.1,0.1c0,0,0,0.1,0,0.1c0,0,0,0.1,0,0.1
			l0,7.2l0,0C12.8,78.3,12.8,78.3,12.8,78.4z M14,76.6v-3.8l1.6,1.9L14,76.6z M14.7,71.7h3.5l-1.7,2L14.7,71.7z M18.2,77.6h-3.5
			l1.7-2L18.2,77.6z M17.2,74.7l1.6-1.9v3.8L17.2,74.7z"/>
		<path class="st0" d="M30.7,73h-9.2c-0.3,0-0.6,0.3-0.6,0.6c0,0.3,0.3,0.6,0.6,0.6h9.2c0.3,0,0.6-0.3,0.6-0.6
			C31.3,73.3,31,73,30.7,73z"/>
		<path class="st0" d="M30.7,75.6h-9.2c-0.3,0-0.6,0.3-0.6,0.6s0.3,0.6,0.6,0.6h9.2c0.3,0,0.6-0.3,0.6-0.6S31,75.6,30.7,75.6z"/>
		<path class="st0" d="M30.7,80.2H13.4c-0.3,0-0.6,0.3-0.6,0.6s0.3,0.6,0.6,0.6h17.3c0.3,0,0.6-0.3,0.6-0.6S31,80.2,30.7,80.2z"/>
		<path class="st0" d="M30.7,82.7H13.4c-0.3,0-0.6,0.3-0.6,0.6c0,0.3,0.3,0.6,0.6,0.6h17.3c0.3,0,0.6-0.3,0.6-0.6
			C31.3,83,31,82.7,30.7,82.7z"/>
		<path class="st0" d="M30.7,85.3H13.4c-0.3,0-0.6,0.3-0.6,0.6c0,0.3,0.3,0.6,0.6,0.6h17.3c0.3,0,0.6-0.3,0.6-0.6
			C31.3,85.5,31,85.3,30.7,85.3z"/>
		<path class="st0" d="M31.3,88.1L31.3,88.1C31.3,88.1,31.3,88.1,31.3,88.1c0-0.1-0.1-0.1-0.1-0.2c0-0.1-0.1-0.1-0.2-0.2
			c-0.1-0.1-0.1-0.1-0.2-0.1c0,0-0.1,0-0.1,0l-17.4,0c0,0,0,0,0,0c-0.2,0-0.4,0.1-0.5,0.3c0,0,0,0.1-0.1,0.1l0,0l0,0
			c0,0,0,0.1,0,0.1l0,4.6l0,0c0,0,0,0.1,0,0.1l0,0c0,0,0,0,0,0c0,0,0,0.1,0,0.1c0.1,0.1,0.1,0.2,0.2,0.3c0,0,0,0,0.1,0
			c0.1,0,0.1,0,0.2,0h17.3c0.1,0,0.1,0,0.2,0c0,0,0,0,0.1,0c0,0,0.1-0.1,0.1-0.1c0.1,0,0.1-0.1,0.1-0.2c0,0,0-0.1,0-0.1l0,0l0,0
			c0,0,0-0.1,0-0.1l0-4.6l0,0C31.3,88.2,31.3,88.2,31.3,88.1z M30.1,89.1v3l-5.7-1.5L30.1,89.1z M18.1,88.9h8l-4,1.1L18.1,88.9z
			 M26,92.2h-8l4-1.1L26,92.2z M19.6,90.6L14,92.1v-3L19.6,90.6z"/>
	</g>
</g>
<path class="st0" d="M34.2,13.5H9.9c-0.5,0-0.8,0.4-0.8,0.8v18c0,0.5,0.4,0.8,0.8,0.8h24.3c0.5,0,0.8-0.4,0.8-0.8v-18
	C35,13.9,34.6,13.5,34.2,13.5z M33.3,15.2v3.4H10.8v-3.4H33.3z M10.8,31.6V20.3h22.6v11.3H10.8z"/>
<path class="st0" d="M31.5,17.9c0.6,0,1.1-0.5,1.1-1.1c0-0.6-0.5-1.1-1.1-1.1s-1.1,0.5-1.1,1.1C30.4,17.4,30.9,17.9,31.5,17.9z"/>
<path class="st0" d="M28.5,17.9c0.6,0,1.1-0.5,1.1-1.1c0-0.6-0.5-1.1-1.1-1.1c-0.6,0-1.1,0.5-1.1,1.1C27.3,17.4,27.8,17.9,28.5,17.9
	z"/>
<path class="st0" d="M25.4,17.9c0.6,0,1.1-0.5,1.1-1.1c0-0.6-0.5-1.1-1.1-1.1s-1.1,0.5-1.1,1.1C24.3,17.4,24.8,17.9,25.4,17.9z"/>
</svg>
