<svg id="Layer_1" data-name="Layer 1" xmlns="http://www.w3.org/2000/svg" viewBox="0 0 380.15 259.03"><defs><style>.cls-1,.cls-6{fill:#17bcd3;}.cls-1,.cls-10,.cls-11,.cls-2,.cls-3,.cls-5,.cls-6,.cls-7,.cls-9{stroke:#0f3846;stroke-width:1.8px;}.cls-1,.cls-10,.cls-11,.cls-12,.cls-2,.cls-3,.cls-5,.cls-6,.cls-7,.cls-8,.cls-9{stroke-linejoin:round;}.cls-1{fill-rule:evenodd;}.cls-2,.cls-7{fill:#0b98a8;}.cls-10,.cls-12,.cls-2,.cls-8{stroke-linecap:round;}.cls-3{fill:#fdfefd;}.cls-4{fill:#0f3846;}.cls-5{fill:#f9a024;}.cls-11,.cls-8{fill:#fff;}.cls-8{stroke:#0fbcd4;}.cls-12,.cls-8{stroke-width:1.5px;}.cls-9{fill:#e42238;}.cls-10,.cls-12{fill:none;}.cls-12{stroke:#0d3847;stroke-dasharray:3.52;}</style></defs><title>map</title><path class="cls-1" d="M290.13,223.65a59.87,59.87,0,0,1,4.88,6c-2.09-.49-3-1.2-4.88-1.63v-4.34ZM246.37,27.81A7.26,7.26,0,0,0,244.65,29c-3.82,3.41-2.32,3.76-8.14,2-2-.62-3.34-.45-6-.45a19.11,19.11,0,0,1-1.37,5.69c-.87,2.23.19,1.11-1.91,1.88-1.87.7-.6-.29-2.69,1.11C222.78,36,222.33,37,217.42,37a10.31,10.31,0,0,0-4,.35c-2.67,1.05.09,1.35-2.83.61-4.49-1.14-5.76,2.32-8.22,5.1-1.32,1.49-1.18.82-1.9,3s0,1.29-1.18,3.17a8.2,8.2,0,0,1-2.33,2.55c-3,2.41-2,2.85-6,3.2-2.36.2-2.38.63-3.47.72-2.15.19-3.5-2.1-6.44.19-1.94,1.51-1,.74-3.13,1.77-.61-2.61-2.05-4.72-2.72-7.59h-3.25c-.66,2.44-3,1.54-4.33,3.8l-.72,1.46-.19.35a2.52,2.52,0,0,1-.19.35,14.68,14.68,0,0,0-1.08-4.34c-6.2,0-4.45,1.58-6.51-2.71-2.26.53-2.68,1-3.8,2.71-3.72-2-2.1-1.24-6-1.38-1.21,0-1.9-.62-3.28-.69-1.94-.11-1.34.39-3.78.45,0-.08,0-.32,0-.26s-.05-.23-.06-.27-.06-.21-.08-.26l-1-1.82-.18-.36c-1.35-2.46-.89-2.25-3.69-2.07-3.16.21-2.95-.89-5.85-1.45s-7.13-1.44-9.47-3c-.58-.39-.85-.53-1.33-.84-1-.64-1.23-.95-2.2-1.6-2.9.68-2.9,1.75-7.29.79-2.27-.5-5.52-1.81-7.38-1.88-3.42-.13-3.63,1.65-7.56,1.69-4.28,0-3.62-1.11-8.15-.06,0,.25-.51,2.16-.52,2.19-.56,1.24-.12.7-1.33,1.39-1.81,1-2.23-.11-2.49,2.93-2.45-.2-4.72-1.39-7.59-1.62a8.7,8.7,0,0,0-1.5,2.91c-1,3,.62,2.62.09,6.54-.56,4.21,2.6,4.84,3.53,9,.76,3.4,1.74,3.58,3.3,5.92C79.12,68,79.6,68,78.56,69c.61,2.29,1.26,1.34,2.71,7.6-1.9,1-2.1.35-2.17,3.25-1.66,0-3.71-.34-5.2.22-2.24.85-.38,0-1.47,1.25l-5.81,5c-3.71,2.65-6.55,6.06-9.63,9.36l-3.59,4c-2.16,2.24-2.25,1.83-2.08,4.6.13,2.13,1,5.16.12,7s-2.41,1.67-3.63,4a48.05,48.05,0,0,1-3,4.59c-1.4,2.21-1.2,3.18-2.25,5.34a6.69,6.69,0,0,1-4.13,3.47v6c1.21.49,1.18,1.13,1.8,2.54a7.23,7.23,0,0,0,.73,1.44c2.15,2.76,4.94.35,5.06,5.79,2,0,3.52-.66,4.28.16,1.52,1.63-1.77,4.66,2.32,3.91,2.36-.42,3.62-.27,4.25-3,4.78,3.21,3.34,3.34,9.23,4.34,3.26.55,1.08.55,3.28,1.6,1.13.54,8.22,2,10.43,1.26,5.41-1.71,4.21.92,5.47,2.37s1.81.86,2.67,2.21a24.06,24.06,0,0,1,.93,2.33l3.67-.29c2-.3,2.13-.73,3.16-2.11,4.06-5.45,12.85-.51,18.4-3.3,1.91-1,4.4-3.73,4.6-6.24,2.84,0,3.82.41,5.53-1,3-2.53-.83-1.26,4.24-1.15v-2.17c2.48.21,5.29,1.2,8.31.18l4.16-1.86c3.39-1.2,5.48,2.49,8,4l2.08,2.25a3.71,3.71,0,0,0,.23.32c.74.82,2,1.06,3.78,1.1.06,2.57-.48,1.57,1,2.76,2.84,2.24,3.43.38,5-.58.71-.43.13-.33,1.08-.41,2.88-.26.62-.19,1.54.4,2.42,1.24.84,2.55,3,4.62s3,1.4,5.14.26c.46,5.6-.28,3.37,1.63,6-1.64,1.2-2.52,6-2.38,6.84.63,3.55,3.87,0,4,6.18,2.35,0,2.67.26,4.34-.54-.2,2.48-.37,1.27-.79,2.84l-1.38,3.12c1.74,1.17.38.89,2.72,1.09-.72,2.68-1,.36-1.09,3.8,3.53.29,4.36,3,7.6,3.25l-.5,6.59c-.66,2.84,0,3.37,2.12,5.35a13.94,13.94,0,0,0-3.25,1.08v-2.71a11.85,11.85,0,0,1-3.26-.54c-1.66,1.22-.87-.35-1.08,2.17-2.37-1.26-1.35.41-1.63-2.17a13.18,13.18,0,0,0-6,1.08c0-2.2.18-1.75-.54-3.25-2.6.6-3,1.9-6.51,2.71,0,1.76.16,3.2.23,4.2.17,2.38.19,1.58,1.4,3.39-1.81,1.33-1.63,1.91-1.63,4.89l-3.77,1.16c-.69,2.76-.27.85,0,3.72l-5.42,3.25a27.34,27.34,0,0,0,.29,2.92c.14,2-.11.83-.29,3-2.53-1.21-6.88-.62-5.5,2.68l.4.74c1.88,3.95,2.92,3.79,7.33,5.23,2,.64,5,1.6,4.28-1.6a11,11,0,0,0,3.8.54c.67-2.5.74-1.59,3-2.45,1.82-.71,2-1.55,4.54-1.33,3.88.33,5.25,2.5,6.06,6h2.17c0-2.71.54-4.19.54-7.59-1.44-.69-.58-.5-2.71-.54,1.23-2.33-.15-1,1.63-1.63l-2.15-.48,0-3.86c1,1.12.92.82,1.08,2.71a3.77,3.77,0,0,0,1.92-.27c2.71-.87,2-1.71,1.34-3.52a12.49,12.49,0,0,0,2.71.54v-2.71c5.22,2.5,7.17-3.68,10.23-6.59l5.32-8.24c1.85-3.45.07-4.82,2.2-5.9a15.67,15.67,0,0,1,6.1-1.78c.6,0,1.86.17,3.2.15,2.26-.05.83-1,2.68.73a16.58,16.58,0,0,1,3.9,4.81c1.44-.58,1,1.11,1.09-2.17,2.18.51,2.78,1.41,5.42,1.63-1.12,4.21-4.24-.64-5.42,3.79,3.3,1.59,5.74-.29,9.36,3.66,4.54,5,8,2,14,1.78l3.42-.63.32-.08c4.2-.84,6,2.51,10.34,2.87.55,1.32.36.44,0,2.17h1.63c-.75,1.84.64.48-2.27,1.47l-2.58.74c-1.42.72-1.09,1.24-2.54,1.74s-1.07-.1-3.46-.15c-.25,2.25.31,1-1.23,2-2.35,1.64-2.82,1.26-5.09,3.59L240.43,226c-3.47,1.73-3.78,2.5-3.46,6.3,1.7.14,2.22.81,4.14.38,3.47-.77,2.8-2.8,8.57,2.1l1.21,1c1.34.84,1.91.8,3.75.66,4.44-.34,5.65,4.43,5.65,8.37-3,.79-1.41,3.93-1.62,6.51a14.34,14.34,0,0,1-3.26,1.08V254c3.72,1,5.38,4.69,9.19,4.92,2.66.16,4.45.14,6.22-.91l2.68-2.2c1.94-2.07,2.82-2.34,4-5.24s1.21-2.14,3.95-3.1l2.93-1.42c.14-.05.29-.07.44-.11.62-.15,1.15-.17,1.9-.34,1.33-.3-.07-.91,1.93-.26,1,.33-.1.84,2.58,1.06,1.36-2.82,2.33-5.73,6-4.88l.73-2.36c.43-2.05.72-2.39,2.53-3.61l2.9,1.44c3.16,1.91,1.4,3.15,6,1.49,1.88-.67,2.73.15,4.95-.41l1.16-.48.37-.18a19.87,19.87,0,0,1,3.58-1.31c-.72-2.7-2.54-3.08-.62-6,.94-1.45,1.64-1.3,3.34-2.11-.34-4.06-3.1-3-6.26-3.51s-7-.58-7.31,3c-4.81-.4-.32-1.79-3.79-2.71-1.87,1.36-.46,1.54-2.54,3.43-1.33,1.2-2.71,1.45-5.06,1.45-2.85-5.39-7.32-9-10-14.45-1.35-2.78-3-5.71-2.4-8.55s-.47-1.22,2.64-2.44a4.44,4.44,0,0,0,3.21-3.31c3,.7,2.69,1.9,5.27-1.24,1.74-2.13,2.94-2.16,4.64-4,1.86-2.06,1.41-3,4.63-4.07,4.5-1.45,3.6.59,7.16.67.72-2.71,1.94-3.16,4.56-4.16,5.29-2,3.65-.25,3.58,3.07h1.63c.57-6.85,3.77-6.66,7.59-9.22,2.11,1.55,0,.85,2.17,1.63,1.93-1.84,2.32-6.53,5.23-6.59l4.68-.86c2.86-.59,5,.47,7.45-.69,1.44-3.11-.82-.1.32-3.47.75-2.18,1.23,0,1.31-3.58h-2.17c.1-.15.33-.54.37-.62l.64-1.4s.35-.93.36-1c.45-2-.24-2.54-.29-4.6l6.65-2.57c3.29-1.79,1.58-2.9,3.12-6.11a29,29,0,0,0,5.13-.33c2.9-.43,2.9.21,4.65.19s2.16-.75,4.36-.9c3.69-.24,5,.08,4.13-3.66-.66-2.92-.09-1.32.43-4.86s4.23-6.06-.8-6.17c1.8-1.71.52-3.54-.42-5.55-.69-1.49.28-.9-1.21-1.5l1.2-1.1s1-.47.21-1.87c-.92-1.59-3.07-.79-4.12-.29,1.12-4.79,2.36-1.52,6-3.25,1.47-3.07.87-3.89-2.38-3.5-2.2.26-3.83-.15-4.68-2.47,1.19-.57,3.4-.74,4.89-1.08,0-4.63,3.25-4.07,3.22-8.2,0-2.76-1.29-1.9-2.27-3.69-1.16-2.13.2-2.32,1.22-3.85-5.69-3-5.76,2.52-10.09-.2-1.75-1.11-1-1.31-1.85-3.05h-5.42c-.7-1.33-1-2.49-1.63-3.8a4.45,4.45,0,0,0-3.62,1.26,5.12,5.12,0,0,1-1.26.91c-.69-2.59-1.28-2.17-4.34-2.17-.46-2-.3-1.74-1.63-2.71-2,.53-1.14.57-2.71,1.63-2-2.68-1.81.68-2.71-2.72a14.38,14.38,0,0,0-4.89.55,10.73,10.73,0,0,0,.55,3.79c-.95.22-1.84.55-2.72,0-.07-.11-.13-.46-.15-.38l-1.4-2.4c-2.52-2-5.5-1.65-5.5-7.52-3.89-.91-1.82-.3-3.8-3.26-3.44.29-5.08,1.79-7.86,3-3.92,1.7-4.31.37-6.78,4.06-3.12-1.12-.73-2.3-6-1.08-1.13-2.14-1.17-2.88-4.08-3.54-5.06-1.15-6.36,3.12-9.12,1.37l-.3-.27s-.13-.17-.17-.22l-.18-.27c-1.5-2-1.84-3.62-3-5.75,2.53-.68,1.9-2.26.5-4.27-.07-.1-.18-.21-.25-.31a7.89,7.89,0,0,1-1.62-5.52c.39-3.17-2.51-.55-4.06-2.91-.84-1.28-.06-2.42-1.53-3.4-1.27-.86-6,.83-7.68,1.22-2.43-3.62-3.44-2-7.6-1.63.76-.72,1.35-.8.93-2.52s-1-.66-1-2.54c-.16-4.58-.39-3.17-2.06-6.33a27.6,27.6,0,0,1,5.43-1.63c-.07-2.8-.66-3.8-2.6-5-1.56-1,.42.38-1-.61-.22-.15-1-.81-1.21-1-2.71-2.37-1.62-5.77-4-8.48l-2.78-3.18c-.63-.84-.44-.14-.86-1.31-3.74.09-1.73,1.18-4.39,1.39-1.45.12-2.45-.86-3.62-1.39Zm43.76,195.84-.54-.54.54.54Zm-.54-.54Zm-1.09-1.63,0,0-.54-.54.54.54Zm-.54-.54-.54-.54.54.54Zm-.54-.54-.55-.55.55.55Zm-.55-.55-.54-.54.54.54Zm-7.59-3.79.16.16s-.21-.11-.16-.16Zm-18.44-1.63Zm21.69-7.05c.58-.58,2.06.86.61.28,0,0-1.51.62-.61-.28Zm3.8,11.93a5.9,5.9,0,0,0-3.25-1.08c-.08-3.37-.79-1.52,0-4.89-1.74.15-1.11-.44-2.8,1.55l-.46.62c.28-3.3,1.56-4.34-3.25-4.34.19,2.3,1.77,3,.34,3.46s-.08.87-1.84-2.49c-.83-1.59-.78-1-1.21-2.59,2.6,1.24,2.87.21,5.42,0-.63-1.58,0-.24-2.17-1.63,3.4,0,2.38-.51,4.88-1.09,0,.13-.16.16-.19.35-.18,1.3-.59-.39-.89,2.37,3.35,1.77,2,.67,2.94,4.65.85,3.79,2.2,1.66,2.48,5.11Zm86.26-92.76.16.16s-.22-.11-.16-.16ZM291.76,84.77l.16.17S291.7,84.83,291.76,84.77Z"/><path class="cls-2" d="M219.65,37a34.72,34.72,0,0,0-69.43,0V71.73h35A34.71,34.71,0,0,0,219.65,37Z"/><path class="cls-2" d="M202.19,47.2H167.68v-.7c0-1.26.92-3.06,5.33-4.51a44.44,44.44,0,0,1,23.85,0c4.4,1.45,5.33,3.25,5.33,4.51Z"/><path class="cls-3" d="M184.93,45.11c-3.41,0-6.16-1.5-6.53-3.57l-.14-.73.74-.09a49,49,0,0,1,11.86,0l.74.09-.13.73c-.38,2.07-3.13,3.57-6.54,3.57"/><path class="cls-3" d="M184.93,19.09A11.93,11.93,0,1,0,196.86,31a11.94,11.94,0,0,0-11.93-11.93"/><path class="cls-4" d="M181.18,32.38a.88.88,0,1,0-1.76,0,.88.88,0,1,0,1.76,0"/><path class="cls-4" d="M190.13,32.38a.89.89,0,1,0-.89.88.88.88,0,0,0,.89-.88"/><path class="cls-5" d="M187.94,52.16l1.18-2.27c4.63-8.86,4.37-17.72,3.62-23.89a13.82,13.82,0,0,1-4.68.87A10.94,10.94,0,0,1,180.63,24a13.11,13.11,0,0,1-1.87-2.13c-1.34,1.75-2.22,5.62-2.38,10.67-.25,7.55,1.17,15.44,3.11,17.21l-.48.63v0l-.37.49c-1.75-1.08-5-3.82-7-10.15a36.05,36.05,0,0,1-1.61-9,54.8,54.8,0,0,1,.62-11.6V20a14,14,0,0,1,4.12-6.86,14.1,14.1,0,0,1,9.64-3.3,15.53,15.53,0,0,1,10.43,3.8,13.33,13.33,0,0,1,4.55,8.15c2.95,19.23-5.48,26.69-9.25,29Z"/><path class="cls-3" d="M166.63,71.77h-7.72a.71.71,0,0,1-.7-.71,4.57,4.57,0,0,1,9.13,0,.71.71,0,0,1-.71.71"/><path class="cls-6" d="M206,48.86A3.06,3.06,0,0,0,203,45.8h-36.1a3.07,3.07,0,0,0-3.06,3.06V68.7a3.07,3.07,0,0,0,2.69,3h18.67A34.48,34.48,0,0,0,206,64.56Z"/><path class="cls-3" d="M188.44,57.88a3.65,3.65,0,1,0-3.65,3.65,3.65,3.65,0,0,0,3.65-3.65"/><path class="cls-2" d="M0,34.71a34.72,34.72,0,0,1,69.43,0V69.43h-35A34.71,34.71,0,0,1,0,34.71Z"/><path class="cls-3" d="M61.24,69.43H53.52a.7.7,0,0,1-.7-.71,4.56,4.56,0,1,1,9.12,0,.7.7,0,0,1-.7.71"/><path class="cls-7" d="M53,44.86H18.49v-.7c0-1.26.92-3.06,5.33-4.51A39.71,39.71,0,0,1,35.74,38a39.71,39.71,0,0,1,11.92,1.62C52.07,41.1,53,42.9,53,44.16Z"/><path class="cls-8" d="M41.58,39.08a48.9,48.9,0,0,0-11.68,0c.3,1.68,2.8,3,5.84,3s5.54-1.31,5.84-3"/><path class="cls-3" d="M35.74,42.77c-3.41,0-6.16-1.5-6.54-3.57l-.13-.73.74-.09a50.41,50.41,0,0,1,11.86,0l.74.09-.13.73c-.38,2.07-3.13,3.57-6.54,3.57"/><path class="cls-3" d="M35.74,40.14A12.84,12.84,0,1,1,48.58,27.3,12.85,12.85,0,0,1,35.74,40.14"/><path class="cls-6" d="M53.79,69.43a3.07,3.07,0,0,0,3.06-3.06V46.52a3.06,3.06,0,0,0-3.06-3.06H17.69a3.06,3.06,0,0,0-3.06,3.06V63a34.59,34.59,0,0,0,19.84,6.4H53.79Z"/><path class="cls-3" d="M39.25,55.55A3.65,3.65,0,1,0,35.6,59.2a3.66,3.66,0,0,0,3.65-3.65"/><path class="cls-9" d="M34.74,17.86a12,12,0,0,0-6.88,2.75,12.64,12.64,0,0,0-4.2,9.58l-5.07-3.65A15.15,15.15,0,0,1,20.49,16,15.62,15.62,0,0,1,35,9.1C34.89,12,34.82,14.94,34.74,17.86Z"/><path class="cls-9" d="M35,9.1a16.36,16.36,0,0,1,18.52,8.59,16.31,16.31,0,0,1-3.33,18.5L44,33.73a13.16,13.16,0,0,0,.87-6.87c-.46-3.06-2.38-7.9-6.5-9a7.19,7.19,0,0,0-3.62,0C34.82,14.94,34.89,12,35,9.1Z"/><rect class="cls-3" x="28.18" y="25.73" width="5.5" height="3.75" rx="1.87"/><rect class="cls-3" x="37.51" y="25.73" width="5.5" height="3.75" rx="1.87"/><line class="cls-10" x1="32.93" y1="27.61" x2="38.26" y2="27.61"/><path class="cls-2" d="M328.29,129.8a34.72,34.72,0,1,0-69.43,0v34.71h35A34.7,34.7,0,0,0,328.29,129.8Z"/><path class="cls-3" d="M276.33,164.51h-7.72a.7.7,0,0,1-.7-.7,4.56,4.56,0,1,1,9.12,0,.7.7,0,0,1-.7.7"/><path class="cls-5" d="M310.83,140H276.32v-.7c0-1.26.93-3.07,5.33-4.51a44.44,44.44,0,0,1,23.85,0c4.41,1.44,5.33,3.25,5.33,4.51Z"/><path class="cls-8" d="M299.42,134.16a49,49,0,0,0-11.69,0c.31,1.68,2.81,3,5.85,3s5.53-1.31,5.84-3"/><path class="cls-3" d="M293.58,137.86c-3.41,0-6.16-1.5-6.54-3.57l-.13-.74.74-.09a50.41,50.41,0,0,1,11.86,0l.74.09-.14.74c-.37,2.07-3.12,3.57-6.53,3.57"/><path class="cls-8" d="M305.71,122.38a12.14,12.14,0,1,0-12.13,12.14,12.13,12.13,0,0,0,12.13-12.14"/><path class="cls-3" d="M293.58,135.22a12.84,12.84,0,1,1,12.84-12.84,12.85,12.85,0,0,1-12.84,12.84"/><path class="cls-4" d="M289.83,125.12a.88.88,0,1,0-.88.88.88.88,0,0,0,.88-.88"/><path class="cls-6" d="M293.82,164.5a34.55,34.55,0,0,0,20.87-7.15V141.6a3.07,3.07,0,0,0-3.06-3.06h-36.1a3.06,3.06,0,0,0-3.06,3.06v19.85a3.06,3.06,0,0,0,3.06,3.06h18.29Z"/><path class="cls-3" d="M297.09,150.63a3.66,3.66,0,1,0-3.66,3.65,3.65,3.65,0,0,0,3.66-3.65"/><path class="cls-6" d="M310.55,108.91a5.57,5.57,0,1,1-5.57-5.27,5.42,5.42,0,0,1,5.57,5.27"/><path class="cls-6" d="M288,108.91a5.57,5.57,0,1,1-5.56-5.27,5.42,5.42,0,0,1,5.56,5.27"/><path class="cls-6" d="M295.8,105.42c-4.36-.54-9,.2-12.43,2.81a10.25,10.25,0,0,0-3,3.67,17,17,0,0,0-2,8.38,39.35,39.35,0,0,0,.65,4.39c1.46-.3,2,3.37,2,3.37a32.56,32.56,0,0,1-.07-5.14h13.05l.77-6,1.2,6h4.32v-5.19l1.81,5.19h3.77a20.28,20.28,0,0,1,.67,4.34s.94-3.32,1.93-3c0,0,3-16.89-12.73-18.84"/><path class="cls-4" d="M297.89,124.24a.88.88,0,1,0,.88.88.88.88,0,0,0-.88-.88"/><circle class="cls-11" cx="98.85" cy="95.08" r="18.84"/><path class="cls-12" d="M69.43,69.43l-.05,19.38A6.18,6.18,0,0,0,75.55,95h23.3v71.8a6.78,6.78,0,0,1-6.78,6.78H89"/><path class="cls-2" d="M20.32,208a34.71,34.71,0,1,0,69.42,0V173.31H54.79A34.7,34.7,0,0,0,20.32,208Z"/><path class="cls-8" d="M55.17,213.45c-9.14,0-16.55,2.43-16.55,5.43h33.1c0-3-7.41-5.43-16.55-5.43"/><path class="cls-6" d="M72.43,219.58H37.92v-.7c0-1.26.92-3.06,5.33-4.51a39.69,39.69,0,0,1,11.92-1.63,39.76,39.76,0,0,1,11.93,1.63c4.4,1.45,5.33,3.25,5.33,4.51Z"/><path class="cls-3" d="M55.17,189.52A12.5,12.5,0,1,0,67.67,202a12.51,12.51,0,0,0-12.5-12.5"/><path class="cls-4" d="M60.74,203.51a1.5,1.5,0,1,0-1.5,1.46,1.49,1.49,0,0,0,1.5-1.46"/><path class="cls-4" d="M52.24,203.51a1.5,1.5,0,1,0-1.5,1.46,1.49,1.49,0,0,0,1.5-1.46"/><path class="cls-6" d="M73.22,218.18H37.12a3.07,3.07,0,0,0-3.06,3.06v14.45l.89.65.3.21.88.59.34.21c.3.2.61.39.92.57l.25.14a33.61,33.61,0,0,0,3.27,1.68l.25.11,1,.41.39.16,1,.37.37.12a33.72,33.72,0,0,0,3.57,1l.23.05,1.05.21.48.08,1,.16.51.06,1,.12.43,0c.84.06,1.68.11,2.54.11H55a34.52,34.52,0,0,0,21.25-7.28V221.24A3.06,3.06,0,0,0,73.22,218.18Z"/><path class="cls-3" d="M58.68,230.26A3.65,3.65,0,1,0,55,233.91a3.65,3.65,0,0,0,3.65-3.65"/><path class="cls-5" d="M55.17,199.32h0c-1.08,0-2.16,0-3.2-.1l-.43,0L51,197.4l-.42,1.71L50,199c-.88-.1-1.7-.23-2.44-.38l-.43-.08-.2-2.35-1,2.06-.57-.2c-1.84-.65-2.77-1.5-2.77-2.53,0-2.25,1.32-4.37,3.72-5.95a15.25,15.25,0,0,1,4.89-2,18.49,18.49,0,0,1,2.2-.33l1.7.68,1.51-.7.57.05s1,.11,1.88.32a14.32,14.32,0,0,1,4.82,2c.48.33,4.67,3.23,3.71,5.95-.6,1.71-2.92,2.51-4.15,2.93C61.1,199.32,58.07,199.32,55.17,199.32Z"/><path class="cls-12" d="M258.86,164.51H124.17a3.69,3.69,0,0,1-3.69-3.69c0-4.11,0-7.59,0-10.7,0-10.69-.09-20.35-.1-23.39,0-3.3,0-16.75,0-25.29a6.13,6.13,0,0,0-6.13-6.12H98.85"/><path class="cls-12" d="M150.22,71.73H106a7,7,0,0,0-7,7V94.32"/><circle class="cls-9" cx="98.85" cy="95.08" r="8.99"/></svg>