<svg id="Слой_1" data-name="Слой 1" xmlns="http://www.w3.org/2000/svg" viewBox="0 0 185 185"><defs><style>.cls-1{fill:#fff;}.cls-2{fill:#dfebf7;}.cls-3,.cls-8{fill:#28b8d4;}.cls-3{fill-rule:evenodd;}.cls-4{fill:#1a3946;}.cls-5{fill:#0094a8;}.cls-6{fill:#fefffe;}.cls-7{fill:#f6a006;}.cls-9{fill:#23b8d4;}.cls-10{fill:#df132b;}.cls-11{fill:#193847;}</style></defs><title>Монтажная область 2</title><path class="cls-1" d="M92.5,183.5a91,91,0,1,1,91-91A91.1,91.1,0,0,1,92.5,183.5Z"/><path class="cls-2" d="M92.5,3A89.5,89.5,0,1,1,3,92.5,89.6,89.6,0,0,1,92.5,3m0-3A92.5,92.5,0,1,0,185,92.5,92.5,92.5,0,0,0,92.5,0Z"/><path class="cls-3" d="M134.85,136.44a24.31,24.31,0,0,1,2,2.39c-.84-.19-1.22-.48-2-.65v-1.74ZM117.36,58.15a2.79,2.79,0,0,0-.69.47c-1.53,1.36-.93,1.5-3.25.79a7.41,7.41,0,0,0-2.42-.18,7.6,7.6,0,0,1-.54,2.27c-.35.89.07.44-.76.75s-.24-.12-1.08.44c-.68-1.29-.86-.86-2.83-.88a4.13,4.13,0,0,0-1.62.14c-1.07.42,0,.54-1.13.24-1.8-.46-2.3.93-3.29,2-.53.6-.47.33-.76,1.19s0,.51-.47,1.27a3.33,3.33,0,0,1-.93,1c-1.21,1-.8,1.14-2.41,1.28a10,10,0,0,0-1.38.29c-.86.07-1.4-.84-2.57.07-.78.61-.39.3-1.25.71-.24-1-.82-1.89-1.08-3h-1.3c-.26,1-1.19.62-1.73,1.52l-.29.58-.08.14a1.26,1.26,0,0,1-.08.14A5.77,5.77,0,0,0,85,67.69c-2.48,0-1.78.63-2.6-1.08a1.94,1.94,0,0,0-1.52,1.08c-1.49-.79-.84-.5-2.38-.55-.48,0-.76-.25-1.31-.28-.77,0-.53.16-1.51.18,0,0,0-.13,0-.1s0-.09,0-.1l0-.11L75.18,66l-.07-.15c-.54-1-.35-.9-1.47-.83s-1.18-.36-2.34-.58a11.56,11.56,0,0,1-3.78-1.2L67,62.91c-.39-.25-.49-.38-.88-.64-1.16.27-1.16.7-2.91.31a24.52,24.52,0,0,0-3-.75c-1.37,0-1.45.66-3,.67s-1.45-.44-3.26,0c0,.1-.2.86-.21.87-.22.5,0,.28-.53.55-.72.41-.89,0-1,1.17-1-.08-1.89-.56-3-.65a3.53,3.53,0,0,0-.6,1.17c-.41,1.19.25,1,0,2.62s1,1.93,1.41,3.61c.3,1.36.7,1.43,1.32,2.37-.86,0-.67,0-1.08.43a13.92,13.92,0,0,1,1.08,3c-.76.4-.84.14-.87,1.3a6.34,6.34,0,0,0-2.08.09c-.89.34-.15,0-.59.5l-2.32,2a26.29,26.29,0,0,0-3.85,3.74l-1.44,1.6c-.86.9-.9.73-.83,1.84.05.85.41,2.06,0,2.8s-1,.67-1.45,1.59A19.21,19.21,0,0,1,36.77,95a14.67,14.67,0,0,0-.9,2.13,2.66,2.66,0,0,1-1.65,1.39v2.39c.49.2.47.45.72,1a2.94,2.94,0,0,0,.29.58c.86,1.1,2,.14,2,2.31.8,0,1.41-.26,1.71.06.61.65-.7,1.86.93,1.57.94-.17,1.45-.11,1.7-1.2,1.91,1.28,1.34,1.33,3.69,1.73,1.3.22.43.22,1.31.64a10.89,10.89,0,0,0,4.17.5c2.16-.68,1.68.37,2.19.95s.72.35,1.07.89a8.53,8.53,0,0,1,.37.93l1.47-.11c.79-.12.85-.29,1.26-.84,1.62-2.18,5.14-.2,7.36-1.32a3.67,3.67,0,0,0,1.84-2.49c1.13,0,1.53.16,2.21-.41,1.21-1-.33-.5,1.69-.46v-.87a7.5,7.5,0,0,0,3.32.07l1.66-.74c1.36-.48,2.19,1,3.21,1.59l.83.9s.06.09.09.13a2.06,2.06,0,0,0,1.51.44c0,1-.19.63.41,1.11,1.14.89,1.37.15,2-.23.28-.17.06-.13.43-.16,1.15-.1.25-.07.62.16,1,.5.34,1,1.2,1.85s1.2.56,2.06.11c.19,2.24-.11,1.34.65,2.39a4.58,4.58,0,0,0-1,2.73c.25,1.42,1.55,0,1.6,2.47.94,0,1.07.1,1.73-.22-.08,1-.15.51-.32,1.14l-.55,1.25c.69.46.15.36,1.08.43-.29,1.07-.4.14-.43,1.52,1.41.12,1.74,1.19,3,1.3l-.2,2.64c-.26,1.13,0,1.35.85,2.14a5.72,5.72,0,0,0-1.3.43v-1.08a4.55,4.55,0,0,1-1.3-.22c-.67.49-.35-.14-.43.87-.95-.5-.54.17-.65-.87a5.29,5.29,0,0,0-2.39.43c0-.88.07-.7-.22-1.3-1,.24-1.21.76-2.6,1.08,0,.7.06,1.28.09,1.68.07,1,.07.63.56,1.36-.72.53-.65.76-.65,2l-1.51.46c-.27,1.1-.11.34,0,1.49l-2.17,1.3a10.92,10.92,0,0,0,.12,1.17c.06.81,0,.33-.12,1.22-1-.48-2.75-.25-2.2,1.07l.16.29c.75,1.58,1.17,1.52,2.93,2.09.79.26,2,.64,1.71-.64a4.4,4.4,0,0,0,1.52.22c.27-1,.3-.64,1.19-1,.73-.28.81-.62,1.82-.53,1.55.13,2.1,1,2.42,2.38h.87c0-1.09.22-1.68.22-3-.58-.28-.23-.2-1.08-.22.49-.93-.06-.39.65-.65l-.86-.19v-1.54c.39.45.37.33.43,1.08a1.48,1.48,0,0,0,.77-.11c1.09-.35.8-.69.53-1.41a4.91,4.91,0,0,0,1.08.22v-1.08c2.09,1,2.87-1.47,4.09-2.63l2.13-3.29c.74-1.38,0-1.93.88-2.36a6.25,6.25,0,0,1,2.44-.71c.24,0,.74.07,1.28.06.9,0,.33-.38,1.07.29a6.69,6.69,0,0,1,1.56,1.92c.57-.23.4.45.43-.87a10.45,10.45,0,0,0,2.17.65c-.45,1.69-1.7-.25-2.17,1.52,1.32.63,2.3-.12,3.74,1.46,1.82,2,3.2.79,5.59.71l1.37-.25.13,0c1.68-.34,2.4,1,4.13,1.14.22.53.15.18,0,.87h.65c-.3.74.26.19-.91.59l-1,.29c-.57.29-.44.5-1,.7s-.43,0-1.39-.06c-.1.9.12.38-.49.81a8.43,8.43,0,0,0-2,1.44l-1.29.87c-1.39.69-1.51,1-1.39,2.52.68.06.89.33,1.66.15,1.38-.31,1.12-1.12,3.42.84l.49.39a1.9,1.9,0,0,0,1.5.26c1.77-.14,2.26,1.77,2.26,3.34-1.19.32-.57,1.57-.65,2.6a5.72,5.72,0,0,1-1.3.43v.65c1.49.4,2.15,1.88,3.67,2a4,4,0,0,0,2.48-.36l1.07-.88a5.21,5.21,0,0,0,1.59-2.1c.47-1.17.49-.85,1.58-1.24l1.17-.57.18,0c.25-.06.46-.07.76-.14.53-.12,0-.37.77-.11.41.13,0,.34,1,.43.54-1.13.93-2.29,2.39-2l.29-.95a1.72,1.72,0,0,1,1-1.44l1.16.57c1.27.76.56,1.26,2.41.59.75-.27,1.09.06,2-.16L145,142l.15-.07a8,8,0,0,1,1.43-.52c-.29-1.08-1-1.23-.25-2.41.38-.58.66-.52,1.33-.85-.14-1.62-1.24-1.18-2.5-1.4s-2.8-.23-2.92,1.18c-1.93-.16-.13-.71-1.52-1.08-.75.55-.18.62-1,1.37a2.65,2.65,0,0,1-2,.58c-1.14-2.15-2.93-3.61-4-5.78-.54-1.11-1.21-2.28-1-3.42s-.19-.49,1.05-1a1.79,1.79,0,0,0,1.29-1.33c1.2.28,1.07.76,2.1-.5.7-.85,1.18-.86,1.86-1.61s.56-1.21,1.85-1.63c1.8-.58,1.44.23,2.86.27.29-1.08.78-1.26,1.82-1.66,2.12-.81,1.46-.1,1.43,1.23h.65c.23-2.74,1.51-2.66,3-3.69.84.62,0,.34.87.65.77-.73.93-2.61,2.09-2.63l1.87-.34c1.14-.24,2,.19,3-.28.58-1.24-.33,0,.13-1.39.3-.87.49,0,.52-1.43h-.87l.15-.25.26-.56.14-.39c.18-.8-.1-1-.11-1.84l2.66-1c1.32-.71.63-1.16,1.25-2.44a11.45,11.45,0,0,0,2.05-.13,6.14,6.14,0,0,1,1.86.08c.66,0,.86-.3,1.74-.36,1.47-.1,2,0,1.65-1.46-.26-1.17,0-.53.17-1.94s1.69-2.42-.32-2.47c.72-.68.21-1.41-.17-2.22-.28-.59.11-.36-.48-.6l.48-.44s.41-.19.08-.75-1.23-.32-1.65-.11c.45-1.92.94-.61,2.39-1.3.59-1.23.35-1.56-1-1.4-.88.11-1.53-.06-1.87-1a11.8,11.8,0,0,1,2-.43c0-1.85,1.3-1.63,1.29-3.28,0-1.1-.52-.76-.91-1.48s.08-.93.49-1.54c-2.27-1.2-2.3,1-4-.08-.7-.44-.41-.52-.74-1.22h-2.17c-.28-.53-.4-1-.65-1.52a1.78,1.78,0,0,0-1.45.5,2,2,0,0,1-.5.36c-.28-1-.51-.87-1.74-.87-.18-.79-.12-.7-.65-1.08-.79.21-.45.23-1.08.65-.78-1.07-.72.27-1.08-1.08a5.82,5.82,0,0,0-2,.22,4.4,4.4,0,0,0,.22,1.52,1.34,1.34,0,0,1-1.08,0s-.05-.19-.06-.15l-.56-1c-1-.8-2.2-.66-2.2-3-1.55-.36-.73-.12-1.52-1.3a8.69,8.69,0,0,0-3.14,1.2c-1.57.68-1.72.15-2.71,1.62-1.25-.45-.29-.92-2.39-.43-.45-.85-.47-1.15-1.63-1.42-2-.46-2.54,1.25-3.64.55l-.12-.11-.07-.09-.07-.11a14,14,0,0,1-1.19-2.3c1-.27.76-.9.2-1.71l-.1-.12a3.15,3.15,0,0,1-.65-2.21c.15-1.27-1-.22-1.62-1.17-.34-.51,0-1-.61-1.36s-2.4.33-3.07.49c-1-1.45-1.37-.79-3-.65.3-.29.54-.32.37-1s-.39-.27-.42-1c-.06-1.83-.15-1.27-.82-2.53a11,11,0,0,1,2.17-.65,1.93,1.93,0,0,0-1-2c-.62-.38.17.15-.41-.24l-.48-.38c-1.08-.95-.65-2.31-1.6-3.39L122,58.67c-.25-.34-.18-.06-.34-.52-1.49,0-.69.47-1.75.56-.58,0-1-.35-1.45-.56Zm17.49,78.29-.22-.22.22.22Zm-.22-.22Zm-.43-.65,0,0-.22-.22.22.22Zm-.22-.22-.22-.22.22.22Zm-.22-.22-.22-.22.22.22Zm-.22-.22-.22-.22.22.22Zm-3-1.52.06.06s-.09,0-.06-.06Zm-7.37-.65Zm8.68-2.82c.23-.23.82.34.24.11,0,0-.6.25-.24-.11Zm1.52,4.77a2.37,2.37,0,0,0-1.3-.43c0-1.35-.31-.61,0-2-.69.06-.44-.18-1.12.62l-.18.25c.11-1.32.62-1.73-1.3-1.73.08.92.71,1.18.14,1.38s0,.35-.73-1c-.33-.63-.31-.39-.49-1,1,.5,1.15.08,2.17,0-.25-.63,0-.09-.87-.65,1.36,0,1-.2,2-.43,0,0-.07.06-.08.14-.07.52-.24-.15-.36.95,1.34.71.82.27,1.18,1.86s.88.66,1,2Zm34.48-37.09.06.06s-.09,0-.06-.06ZM135.5,80.92l.06.06S135.48,80.94,135.5,80.92Z"/><path class="cls-4" d="M125.43,150.94l-.81,0a3.81,3.81,0,0,1-2.2-1.06,4.26,4.26,0,0,0-1.55-.92.36.36,0,0,1-.27-.35v-.65a.36.36,0,0,1,.28-.35,5.69,5.69,0,0,0,1-.32c0-.21,0-.42,0-.64-.07-.68-.17-1.6.69-2a3.48,3.48,0,0,0-.79-2.39,1.35,1.35,0,0,0-1.08-.34,2.23,2.23,0,0,1-1.72-.32l0,0-.49-.39c-1.59-1.35-1.77-1.28-2.29-1.05a4.3,4.3,0,0,1-.83.28,2.23,2.23,0,0,1-1.22,0,3,3,0,0,0-.54-.1.36.36,0,0,1-.33-.33c-.14-1.69.09-2.12,1.56-2.86l1.25-.84a4.52,4.52,0,0,1,1.29-1,7.11,7.11,0,0,0,.77-.47,2.12,2.12,0,0,1,.31-.18c0-.09,0-.21,0-.37a.36.36,0,0,1,.36-.32h0a3.32,3.32,0,0,1,.86.11.51.51,0,0,0,.4,0,.78.78,0,0,0,.4-.25,1.92,1.92,0,0,1,.57-.43l.07,0,1-.29.07,0a.36.36,0,0,1-.07-.29,3.33,3.33,0,0,1,.12-.43v0h0a5.36,5.36,0,0,1-1.79-.66,2.83,2.83,0,0,0-2-.47l-.12,0-1.38.26h-.05a11.27,11.27,0,0,0-1.78.24c-1.42.27-2.66.5-4.09-1.06a2.78,2.78,0,0,0-2.14-1,4.19,4.19,0,0,1-1.49-.36.36.36,0,0,1-.19-.42c.32-1.2,1.06-1.11,1.5-1.05.26,0,.4.05.51-.08a4.23,4.23,0,0,1-1-.32l-.35-.14c0,.06,0,.11,0,.15,0,.2,0,.36-.15.49a.39.39,0,0,1-.37.06s0,0-.14,0a.36.36,0,0,1-.45-.17,6.31,6.31,0,0,0-1.49-1.83l-.29-.27a1.93,1.93,0,0,1-.53.07c-.36,0-.71,0-1,0l-.33,0a5.92,5.92,0,0,0-2.27.67c-.26.13-.27.21-.29.59a3.47,3.47,0,0,1-.44,1.62L98,131.83l-.05.07a8.07,8.07,0,0,0-.87,1.07c-.73,1-1.62,2.22-3.11,1.82v.57a.36.36,0,0,1-.39.36l-.49-.06a.85.85,0,0,1,0,.6c-.13.28-.42.47-1,.64l-.09,0-.2.06a.36.36,0,0,1,0,.66l.21.1.23.12a.36.36,0,0,1,.2.32,13.4,13.4,0,0,1-.12,1.74,10.2,10.2,0,0,0-.1,1.3.36.36,0,0,1-.36.36H91a.36.36,0,0,1-.35-.28c-.29-1.24-.73-2-2.1-2.11a1.49,1.49,0,0,0-1.08.23,4.25,4.25,0,0,1-.58.28,4,4,0,0,1-.63.19l-.17,0a1.83,1.83,0,0,0-.17.51.36.36,0,0,1-.35.27,4,4,0,0,1-1.13-.11.85.85,0,0,1-.27.56c-.48.43-1.32.15-1.95-.05l-.6-.19a3.17,3.17,0,0,1-2.55-2.09l-.15-.28a1.18,1.18,0,0,1,.18-1.42,2.25,2.25,0,0,1,2-.32,2,2,0,0,1,.06-.22c0-.07,0-.1,0-.48,0-.1,0-.2,0-.32a5.75,5.75,0,0,1-.08-.87.36.36,0,0,1,.17-.31l2-1.18a1.88,1.88,0,0,0-.08-.4c-.07-.22-.05-.29.08-.82l0-.16a.36.36,0,0,1,.24-.26l1.25-.39v0c0-.84,0-1.25.52-1.73l-.09-.12c-.26-.33-.29-.44-.34-1.15l0-.28c0-.38-.07-.86-.07-1.43a.36.36,0,0,1,.28-.35,4.5,4.5,0,0,0,1.41-.58,4,4,0,0,1,1.2-.51.36.36,0,0,1,.41.19l0,.06a1.48,1.48,0,0,1,.23.86,6.46,6.46,0,0,1,2-.26.36.36,0,0,1,.36.32v.06a.43.43,0,0,1,.22-.14.93.93,0,0,0,.29-.17.36.36,0,0,1,.29-.06l.32.08a3.14,3.14,0,0,0,.91.13h.05a2.39,2.39,0,0,1,0-1.18l.17-2.28a3.44,3.44,0,0,1-1.27-.64,2.66,2.66,0,0,0-1.41-.61.36.36,0,0,1-.33-.37c0-.79.06-1,.26-1.15l0,0a.61.61,0,0,1-.45-.2,2,2,0,0,0-.33-.26.36.36,0,0,1-.13-.44l.54-1.22a1.36,1.36,0,0,1,.2-.47,3,3,0,0,1-.76,0h-.52a.36.36,0,0,1-.36-.35c0-1.16-.29-1.24-.64-1.35a1.2,1.2,0,0,1-1-1.07,5.45,5.45,0,0,1,.83-2.83l-.16-.19c-.27-.32-.28-.42-.3-.94,0-.16,0-.37,0-.67a1.54,1.54,0,0,1-2-.41,2.1,2.1,0,0,1-.65-1.17.71.71,0,0,0-.46-.61.78.78,0,0,1-.18-.15l-.24,0h-.13l-.15.1a2.63,2.63,0,0,0-.34.26c-.53.45-1.05.76-2.08-.05l-.25-.18a.59.59,0,0,1-.31-.66c0-.05,0-.12,0-.2a2.07,2.07,0,0,1-1.42-.54l-.09-.12-.8-.87a6.51,6.51,0,0,1-.9-.71c-.76-.68-1.27-1.07-2-.82l-1.64.73a5.35,5.35,0,0,1-2.72.07l-.39-.06v.46a.36.36,0,0,1-.11.26.37.37,0,0,1-.26.1,5.38,5.38,0,0,1-1-.09,3.38,3.38,0,0,1-.47.47,2.26,2.26,0,0,1-1.85.5h-.29a4.2,4.2,0,0,1-2,2.45,6.68,6.68,0,0,1-3.49.34c-1.5-.11-2.92-.22-3.74.87l-.09.12a1.68,1.68,0,0,1-1.4.86l-1.49.12a.36.36,0,0,1-.35-.2,3.48,3.48,0,0,1-.18-.47,1.78,1.78,0,0,0-.18-.43.8.8,0,0,0-.38-.34,2,2,0,0,1-.65-.5,1.83,1.83,0,0,1-.33-.63c-.14-.39-.22-.61-1.48-.21a11,11,0,0,1-4.43-.52,1.24,1.24,0,0,1-.62-.48,4.2,4.2,0,0,0-.6-.13c-1.77-.3-2-.42-2.76-1l-.67-.5c-.33.74-.88.83-1.51.93l-.31.05a1.23,1.23,0,0,1-1.1-.16,1,1,0,0,1-.13-.9c.06-.29.09-.5,0-.62s-.37,0-.65,0a6.4,6.4,0,0,1-.79.06.36.36,0,0,1-.36-.35c0-1.09-.28-1.18-.76-1.33a2.21,2.21,0,0,1-1.19-.77,2.44,2.44,0,0,1-.29-.54l0-.11c-.06-.13-.1-.24-.14-.34-.13-.32-.15-.39-.39-.48a.36.36,0,0,1-.23-.33V98.49a.36.36,0,0,1,.27-.35,2.3,2.3,0,0,0,1.42-1.2,5.66,5.66,0,0,0,.33-.86,4.86,4.86,0,0,1,.59-1.31c.2-.32.36-.53.5-.72A7.72,7.72,0,0,0,37.65,93a2.71,2.71,0,0,1,.9-1,1.47,1.47,0,0,0,.54-.58,3.6,3.6,0,0,0,0-1.81c0-.28-.08-.55-.1-.8-.06-1,0-1.16.61-1.78l.32-.33,1.43-1.59.63-.68a21.31,21.31,0,0,1,3.28-3.11l2.28-2,0,0a.34.34,0,0,1,0-.11c0-.21.19-.26.39-.33l.31-.11a4.13,4.13,0,0,1,1.66-.13h.2c0-.65.16-.86.68-1.08l.11,0a6.69,6.69,0,0,0-.69-2,2.88,2.88,0,0,1-.32-.77.36.36,0,0,1,.09-.34l.16-.17a.82.82,0,0,1,.5-.33l-.08-.1a3.7,3.7,0,0,1-.9-1.86,3.8,3.8,0,0,0-.73-1.48,2.82,2.82,0,0,1-.68-2.26,2.68,2.68,0,0,0-.07-1.27,2,2,0,0,1,.06-1.41,3.55,3.55,0,0,1,.54-1.1l.1-.15a.37.37,0,0,1,.33-.16,8.68,8.68,0,0,1,1.71.36,9.85,9.85,0,0,0,1,.24c.09-.6.26-.79.7-.91A1.66,1.66,0,0,0,53,63.6l.28-.15v0l.08-.19.2-.84a.36.36,0,0,1,.27-.27,4,4,0,0,1,2-.1,5.57,5.57,0,0,0,1.29.12,3.16,3.16,0,0,0,1.46-.34,3.16,3.16,0,0,1,1.58-.34,8.51,8.51,0,0,1,1.87.44c.42.13.81.25,1.14.32a2.65,2.65,0,0,0,1.92,0,5.88,5.88,0,0,1,.83-.26.36.36,0,0,1,.28.05c.19.13.32.23.44.32s.24.19.43.31l.2.13.33.21a11.67,11.67,0,0,0,3.65,1.15,3.9,3.9,0,0,1,1.07.36,1.89,1.89,0,0,0,1.18.21l.26,0c.88-.07,1,0,1.41.75l.15.28,0,.09,0,.05.39.73,0,0,0,.07a1.87,1.87,0,0,0,.44-.08,2,2,0,0,1,.8-.08,2.93,2.93,0,0,1,.78.16,1.89,1.89,0,0,0,.52.11c.41,0,.65,0,.83,0,.54,0,.61,0,1.42.45a2.15,2.15,0,0,1,1.55-1,.36.36,0,0,1,.41.19c.12.25.21.46.28.62a2.42,2.42,0,0,0,.19.39l.32,0A12.1,12.1,0,0,1,85,67.33a.36.36,0,0,1,.32.2,4.65,4.65,0,0,1,.28.79,2.09,2.09,0,0,1,1-.79c.34-.15.52-.23.62-.58a.36.36,0,0,1,.35-.27h1.3a.36.36,0,0,1,.35.28,9.09,9.09,0,0,0,.55,1.53c.15.35.3.71.42,1.09l.18-.07c.15-.06.15-.06.61-.42a1.87,1.87,0,0,1,2.09-.29,1.59,1.59,0,0,0,.67.14,1.12,1.12,0,0,0,.32-.08,3.76,3.76,0,0,1,1.07-.21c1-.09,1.09-.15,1.46-.52a8.57,8.57,0,0,1,.76-.68,3,3,0,0,0,.85-.93c.24-.4.25-.44.27-.55a3.68,3.68,0,0,1,.17-.64c.22-.64.27-.74.53-1,.07-.07.17-.16.3-.32s.37-.45.54-.67c.71-.94,1.45-1.9,3.11-1.48l.34.09a1.78,1.78,0,0,1,.57-.32,3.49,3.49,0,0,1,1.43-.17h.32c.45,0,.82,0,1.1,0,.95-.06,1.35,0,1.84.76a.81.81,0,0,1,.48-.18h0a1,1,0,0,0,.34-.09,3.14,3.14,0,0,1,.41-.12,4.37,4.37,0,0,1,.14-.42,7.3,7.3,0,0,0,.52-2.15.36.36,0,0,1,.36-.35h.55a5.79,5.79,0,0,1,2,.2l.15,0c1.51.46,1.51.46,2.05-.09.18-.18.4-.4.71-.68a3.12,3.12,0,0,1,.78-.53.36.36,0,0,1,.15,0h1.06a.36.36,0,0,1,.15,0,4.34,4.34,0,0,1,.43.23,1.46,1.46,0,0,0,.84.29c.34,0,.38-.08.45-.15.2-.22.43-.39,1.33-.41h0A.36.36,0,0,1,122,58l.07.19a1.28,1.28,0,0,1,.22.24l1.1,1.25a3.93,3.93,0,0,1,.81,1.8,2.68,2.68,0,0,0,.76,1.55l.45.36.11.07a2.17,2.17,0,0,1,.29.16,2.28,2.28,0,0,1,1.21,2.3.36.36,0,0,1-.28.36l-.12,0a13.46,13.46,0,0,0-1.62.45c.09.15.17.26.23.36.34.49.39.67.44,2a.76.76,0,0,0,0,.29l0,0a1.11,1.11,0,0,1,.34.62,1.65,1.65,0,0,1,.05.62l.22,0a1.75,1.75,0,0,1,2.19.76l.32-.09c1.28-.37,2.3-.62,2.8-.28a1.27,1.27,0,0,1,.57,1,1,1,0,0,0,.14.46c.17.27.39.29.73.3a1,1,0,0,1,.78.27,1.09,1.09,0,0,1,.17.84,2.79,2.79,0,0,0,.59,2l0,0,.07.09a1.87,1.87,0,0,1,.51,1.58,1,1,0,0,1-.5.53c.09.18.16.36.23.53a5.91,5.91,0,0,0,.74,1.36l.11.15.09.08c.32.19.53.09,1-.17a3.22,3.22,0,0,1,2.49-.44,2,2,0,0,1,1.73,1.33v0c1.09-.24,1.37-.2,1.72.15a1.21,1.21,0,0,0,.35.26,2.33,2.33,0,0,1,1.61-1.14,6.83,6.83,0,0,0,1.09-.37c.31-.14.59-.28.87-.43a5.67,5.67,0,0,1,2.39-.8.36.36,0,0,1,.33.16,3.4,3.4,0,0,1,.45.88l0,.06a6.12,6.12,0,0,0,.62.16l.21,0a.36.36,0,0,1,.28.35c0,1.55.52,1.83,1.24,2.22a5.3,5.3,0,0,1,.82.51.36.36,0,0,1,.09.1l.53.91a.49.49,0,0,1,.07.12.73.73,0,0,0,.36,0,4,4,0,0,1-.14-1.25.36.36,0,0,1,.28-.35l.14,0a5.91,5.91,0,0,1,1.9-.19.36.36,0,0,1,.35.27c0,.18.09.3.11.37a.85.85,0,0,1,.68.32l.1-.1a1.45,1.45,0,0,1,.84-.41.36.36,0,0,1,.31.06l.1.07a1.19,1.19,0,0,1,.63.94h.15c.77,0,1.19,0,1.48.67l.09-.08a2.13,2.13,0,0,1,1.67-.58.36.36,0,0,1,.32.2c.12.25.21.48.29.7s.16.41.25.61h1.95a.36.36,0,0,1,.32.2,2.82,2.82,0,0,1,.21.61c0,.2.06.24.39.46a1.1,1.1,0,0,0,1.38,0,2.38,2.38,0,0,1,2.62,0,.36.36,0,0,1,.13.52,3.26,3.26,0,0,1-.38.45c-.27.28-.31.32-.09.71a1,1,0,0,0,.37.38A1.27,1.27,0,0,1,171.2,90a2.39,2.39,0,0,1-.7,1.77,2,2,0,0,0-.59,1.51.36.36,0,0,1-.28.35l-.71.13c-.28,0-.58.1-.83.16.25.39.64.5,1.33.42s1.22-.09,1.52.32.08,1-.2,1.59a.36.36,0,0,1-.17.17,2.61,2.61,0,0,1-1.5.24c-.25,0-.37,0-.48.16a1.2,1.2,0,0,1,1.4.51.84.84,0,0,1-.17,1.21l-.08.07a.44.44,0,0,1,.1.27.7.7,0,0,0,.09.27l.14.29a2.26,2.26,0,0,1,.34,1.78,1,1,0,0,1,.66.4c.23.38,0,.83-.21,1.29a4,4,0,0,0-.41,1.13,4.64,4.64,0,0,1-.24,1c-.06.16-.07.18.07.78a1.78,1.78,0,0,1-.08,1.43c-.29.38-.77.41-1.51.45l-.39,0a3.07,3.07,0,0,0-.88.19,2.59,2.59,0,0,1-.89.17,2.47,2.47,0,0,1-.67-.08,2.68,2.68,0,0,0-1.14,0,11,11,0,0,1-1.87.14,3.21,3.21,0,0,0-.2.84,1.74,1.74,0,0,1-1.11,1.56l0,0-2.41.93a4.08,4.08,0,0,0,.08.46,2.51,2.51,0,0,1,0,1.22s-.06.18-.16.44l-.15.32h.27a.36.36,0,0,1,.36.37c0,.86-.09,1.08-.39,1.26,0,0-.07,0-.15.28a3.14,3.14,0,0,0-.1.34.41.41,0,0,1,.14.16c.11.21,0,.46-.19.92a.36.36,0,0,1-.17.17,3.49,3.49,0,0,1-1.8.25,4.87,4.87,0,0,0-1.26.05l-1.88.35h-.06c-.46,0-.71.48-1.07,1.25a4.11,4.11,0,0,1-.78,1.28.36.36,0,0,1-.37.08c-.45-.16-.62-.22-.67-.46l-.1-.09c-.28.17-.55.31-.79.44a2.81,2.81,0,0,0-1.87,2.83.36.36,0,0,1-.36.33H147a.36.36,0,0,1-.36-.37,6.76,6.76,0,0,1,.08-.81,3.93,3.93,0,0,0,0-.39,4.42,4.42,0,0,0-1.06.32c-1,.39-1.36.52-1.6,1.42a.36.36,0,0,1-.35.27h0a2.65,2.65,0,0,1-1.26-.32c-.33-.16-.55-.27-1.48,0a1.71,1.71,0,0,0-1.18.84,5.59,5.59,0,0,1-.52.68,4.76,4.76,0,0,1-.93.79,3.92,3.92,0,0,0-.92.82c-.8,1-1.07,1.1-1.83.82l-.32-.11a2.16,2.16,0,0,1-1.39,1.22,3.64,3.64,0,0,1-.74.22c0,.11,0,.27-.09.5a4.7,4.7,0,0,0,.77,2.85l.16.33a15.7,15.7,0,0,0,2,2.94,19.23,19.23,0,0,1,1.87,2.64,2.09,2.09,0,0,0,1.57-.48,1.18,1.18,0,0,0,.44-.61,1.36,1.36,0,0,1,.6-.79.36.36,0,0,1,.31-.06c.67.18.92.47.83,1a1.77,1.77,0,0,0,.3.06,1.53,1.53,0,0,1,.55-.84,3.5,3.5,0,0,1,2.73-.31,6.8,6.8,0,0,0,.81.08c.87,0,1.86.1,2,1.65a.36.36,0,0,1-.2.35c-.2.1-.37.16-.51.22a1.08,1.08,0,0,0-.68.5c-.41.63-.32.79-.08,1.24a3.82,3.82,0,0,1,.37.88.36.36,0,0,1-.27.44,7.7,7.7,0,0,0-1.37.5l-.05,0-.1,0-.47.2-.05,0a3.23,3.23,0,0,1-1.13.08,1.74,1.74,0,0,0-.82.08c-1.27.46-1.56.45-2-.06a2.86,2.86,0,0,0-.68-.56l-.95-.47a1.29,1.29,0,0,0-.68,1.1l-.3,1a.36.36,0,0,1-.43.24c-1-.23-1.32.34-1.84,1.46l-.14.3a.35.35,0,0,1-.35.2c-.66-.05-.92-.16-1.09-.43h0l-.2-.06a.82.82,0,0,1-.38.18l-.42.07-.33.06-.08,0h-.05l-1.14.55,0,0c-.27.1-.48.15-.64.19-.44.11-.44.11-.72.84a4.08,4.08,0,0,1-1.17,1.71c-.14.14-.31.3-.5.5l0,0-1.07.88,0,0A3.52,3.52,0,0,1,125.43,150.94Zm-4.1-2.62a5.4,5.4,0,0,1,1.55,1,3.16,3.16,0,0,0,1.79.9,3.71,3.71,0,0,0,2.26-.3l1-.85c.19-.2.36-.36.5-.51a3.38,3.38,0,0,0,1-1.46c.39-1,.56-1.1,1.21-1.27.15,0,.33-.09.57-.17l1.15-.56.05,0,.14,0h.06l.4-.07.37-.06h0c.17-.33.52-.21.92-.09a.69.69,0,0,1,.42.32.77.77,0,0,0,.29.07l0-.06c.45-1,1-2.06,2.32-1.91l.2-.64a2,2,0,0,1,1.15-1.63.36.36,0,0,1,.36,0l1.16.57a3.61,3.61,0,0,1,.86.7c.21.22.23.25,1.26-.12a2.42,2.42,0,0,1,1.11-.12,2.53,2.53,0,0,0,.87,0l.44-.18.05,0,.09,0a10.9,10.9,0,0,1,1.11-.44c-.06-.14-.13-.27-.19-.39a1.59,1.59,0,0,1,.11-2,1.76,1.76,0,0,1,1-.78l.22-.09c-.12-.68-.49-.7-1.27-.74a7.45,7.45,0,0,1-.9-.09,3,3,0,0,0-2.17.17.92.92,0,0,0-.33.69.36.36,0,0,1-.39.33c-.68-.06-1-.17-1.18-.39a.64.64,0,0,1-.09-.54v0l-.15-.07a.55.55,0,0,0-.2.31,1.88,1.88,0,0,1-.64.93,3,3,0,0,1-2.26.67.36.36,0,0,1-.32-.19,17.63,17.63,0,0,0-1.9-2.72,16.49,16.49,0,0,1-2.09-3.07l-.16-.33a7.39,7.39,0,0,1-.87-2.42.71.71,0,0,1-.27,0,.73.73,0,0,1-.48,0l0,.14.15.08c.65.33.77.41.84,1a7.57,7.57,0,0,0,.14.87c.14.63.29.74.45.86a1.34,1.34,0,0,1,.54,1.09l.34.34h0l.43.43a.36.36,0,1,1-.51.51l-.43-.43h0l-.4-.4-.19-.1a1.71,1.71,0,0,0-.93-.27.36.36,0,0,1-.33-.35,2.83,2.83,0,0,0-.09-.81,1.36,1.36,0,0,1,0-.75l-.25.28-.14.17-.17.23-.08.08a.36.36,0,0,1-.55.29.43.43,0,0,1-.23-.31.38.38,0,0,1,.11-.31.36.36,0,0,1,.12-.08c0-.22.05-.42.08-.59a1.65,1.65,0,0,0,0-.53s-.1-.09-.63-.12a2.66,2.66,0,0,0,.15.33.77.77,0,0,1,.11.65.69.69,0,0,1-.44.36l-.16.08a.41.41,0,0,1-.39,0,.44.44,0,0,1-.24-.33,3.93,3.93,0,0,0-.39-1,4.48,4.48,0,0,0-.23-.4,1.94,1.94,0,0,1-.28-.71.36.36,0,0,1,.5-.42,1.27,1.27,0,0,0,1.14.12h0l-.23-.14a.36.36,0,0,1,.19-.66,2,2,0,0,0,1.1-.16,3.35,3.35,0,0,1,.77-.27.36.36,0,0,1,.35.11l0,0a.78.78,0,0,1,.46.12l0-.08a5.14,5.14,0,0,0,.09-.51c0-.26.09-.48.48-.53a2.64,2.64,0,0,0,.7-.19,1.43,1.43,0,0,0,1.07-1.08.36.36,0,0,1,.43-.26,5.52,5.52,0,0,1,.72.23c.4.15.4.15,1-.6a4.57,4.57,0,0,1,1.07-1,4.1,4.1,0,0,0,.8-.68,4.87,4.87,0,0,0,.45-.6,2.4,2.4,0,0,1,1.55-1.13,2.24,2.24,0,0,1,2,0,1.9,1.9,0,0,0,.69.22c.35-1,1-1.24,1.93-1.61s1.53-.47,1.83-.24a.71.71,0,0,1,.23.64,3.32,3.32,0,0,1,2.07-2.28,10.21,10.21,0,0,0,.94-.55.36.36,0,0,1,.41,0,1.65,1.65,0,0,1,.52.51h0a5.16,5.16,0,0,0,.48-.9c.35-.77.75-1.63,1.68-1.67l1.84-.34a5.56,5.56,0,0,1,1.43-.07,3.07,3.07,0,0,0,1.34-.13l.06-.15a.45.45,0,0,1-.09-.11c-.11-.2-.09-.46.09-1a1.07,1.07,0,0,1,.45-.66,1.84,1.84,0,0,0,0-.3h-.49a.36.36,0,0,1-.3-.56l.13-.21.25-.54h0l.12-.35a1.78,1.78,0,0,0,0-.89,4.16,4.16,0,0,1-.11-.84.36.36,0,0,1,.23-.34l2.64-1c.64-.35.66-.54.72-1a3.74,3.74,0,0,1,.35-1.26.36.36,0,0,1,.32-.2,11.15,11.15,0,0,0,2-.13,3.37,3.37,0,0,1,1.39,0,2.14,2.14,0,0,0,.52.06,1.91,1.91,0,0,0,.66-.14,3.78,3.78,0,0,1,1.06-.22l.39,0c.46,0,.9,0,1-.16s.09-.23,0-.84-.16-.85,0-1.19a4,4,0,0,0,.21-.89,4.58,4.58,0,0,1,.48-1.34,2.07,2.07,0,0,0,.24-.62,2,2,0,0,0-.69-.1.36.36,0,0,1-.24-.62c.4-.38.29-.71-.1-1.5l-.15-.31a1.74,1.74,0,0,1-.13-.35L169,99a.36.36,0,0,1-.11-.6l.48-.44h0l.06,0s.08,0,0-.26-.77-.16-1.13,0a.36.36,0,0,1-.55.29.43.43,0,0,1-.23-.31.38.38,0,0,1,.11-.31.36.36,0,0,1,.13-.08c.29-1.22.68-1.4,1.44-1.33a1.94,1.94,0,0,0,1-.12c.28-.61.21-.74.21-.74s-.11-.12-.84,0a1.87,1.87,0,0,1-2.25-1.22.36.36,0,0,1,.18-.45,5.48,5.48,0,0,1,1.36-.34l.39-.07a2.66,2.66,0,0,1,.75-1.68,1.7,1.7,0,0,0,.53-1.3c0-.48-.08-.54-.28-.68a1.69,1.69,0,0,1-.59-.63,1.11,1.11,0,0,1,.2-1.55l0,0a1.57,1.57,0,0,0-1.55.14,1.8,1.8,0,0,1-2.1,0,1.24,1.24,0,0,1-.71-.9,2.36,2.36,0,0,0-.08-.27h-1.93a.36.36,0,0,1-.32-.19,7.92,7.92,0,0,1-.38-.88c-.06-.15-.11-.29-.18-.44a1.35,1.35,0,0,0-1,.42l-.18.15a1.59,1.59,0,0,1-.38.25.36.36,0,0,1-.52-.23c-.17-.62-.16-.62-.94-.61h-.45a.36.36,0,0,1-.35-.28l0-.19c-.09-.39-.09-.41-.33-.58-.24.07-.27.1-.34.17a2.67,2.67,0,0,1-.47.38.36.36,0,0,1-.49-.09c-.2-.28-.3-.31-.3-.31-.47.13-.64-.21-.77-.63a4.53,4.53,0,0,0-1.32.14,2.82,2.82,0,0,0,.12.8l.09.35a.36.36,0,0,1-.27.43l-.13,0a1.49,1.49,0,0,1-1.23-.08.36.36,0,0,1-.11-.11.69.69,0,0,1-.07-.17l-.52-.9a5,5,0,0,0-.66-.4,2.55,2.55,0,0,1-1.62-2.56c-.78-.18-.95-.23-1.1-.68a2.46,2.46,0,0,0-.25-.53,5.21,5.21,0,0,0-1.9.69c-.28.15-.58.3-.92.45a7.49,7.49,0,0,1-1.2.4c-.57.15-.76.2-1.36,1.09a.36.36,0,0,1-.42.14,2.07,2.07,0,0,1-.86-.53c-.11-.1-.16-.16-1.32.11a.36.36,0,0,1-.4-.18l-.14-.28c-.31-.61-.38-.76-1.25-1a2.51,2.51,0,0,0-2,.37,1.87,1.87,0,0,1-1.3.33.36.36,0,0,1-.55.3.43.43,0,0,1-.23-.31.38.38,0,0,1,.11-.31l0,0-.08-.1-.08-.11,0,0a6.59,6.59,0,0,1-.82-1.51c-.12-.27-.23-.54-.39-.84a.36.36,0,0,1,.23-.52c.23-.06.38-.15.41-.23s0-.34-.42-.92l0,0-.08-.1a3.51,3.51,0,0,1-.71-2.45.61.61,0,0,0,0-.29H133a1.43,1.43,0,0,1-1.31-.62,1.68,1.68,0,0,1-.25-.75c0-.25-.05-.36-.26-.51A6.17,6.17,0,0,0,129,72l-.59.16A.36.36,0,0,1,128,72c-.58-.87-.8-.83-1.59-.66a9,9,0,0,1-1.11.17.36.36,0,0,1-.28-.62l.16-.14c.18-.15.2-.16.11-.52,0-.19-.08-.22-.13-.27a1,1,0,0,1-.29-.82c0-1.2-.08-1.25-.31-1.6a7.36,7.36,0,0,1-.47-.77.36.36,0,0,1,.16-.49,9.72,9.72,0,0,1,2-.61,1.46,1.46,0,0,0-.86-1.41l-.09-.06-.12-.06h0l-.09-.06L125,64c-.11-.07-.45-.35-.52-.41a3.32,3.32,0,0,1-1-1.93,3.26,3.26,0,0,0-.65-1.5l-1.11-1.27a.66.66,0,0,0-.13-.14.56.56,0,0,1-.19-.25c-.44,0-.51.1-.56.17a1.17,1.17,0,0,1-.92.38,2.08,2.08,0,0,1-1.26-.39l-.3-.16h-.9a2.64,2.64,0,0,0-.53.38c-.29.26-.5.47-.67.65-.85.86-1,.8-2.78.27l-.15,0a5.16,5.16,0,0,0-1.76-.17h-.22a8.83,8.83,0,0,1-.54,2,3.26,3.26,0,0,0-.15.45.46.46,0,0,1-.42.4,2,2,0,0,0-.41.11,1.6,1.6,0,0,1-.58.14c-.09,0-.33.21-.42.27a.36.36,0,0,1-.52-.13c-.41-.78-.45-.78-1.36-.72-.3,0-.67,0-1.15,0h-.33a2.84,2.84,0,0,0-1.15.12,1.48,1.48,0,0,0-.32.16.4.4,0,0,1-.14.21.43.43,0,0,1-.41,0l-.48-.13c-1.2-.31-1.69.33-2.36,1.22-.18.23-.36.48-.57.71s-.26.28-.34.35-.17.17-.35.71a3,3,0,0,0-.14.53,1.92,1.92,0,0,1-.36.81,3.68,3.68,0,0,1-1,1.11,7.88,7.88,0,0,0-.7.63c-.48.48-.68.62-1.91.73a3.06,3.06,0,0,0-.89.18,1.8,1.8,0,0,1-.5.12,2.22,2.22,0,0,1-1-.18,1.19,1.19,0,0,0-1.41.18,2.55,2.55,0,0,1-.8.52c-.09,0-.24.09-.52.22a.36.36,0,0,1-.51-.24,8.35,8.35,0,0,0-.5-1.39,11,11,0,0,1-.51-1.37h-.77a1.58,1.58,0,0,1-.93.79,1.37,1.37,0,0,0-.74.56l-.35.7a1.44,1.44,0,0,1-.1.18.36.36,0,0,1-.65-.18,5.88,5.88,0,0,0-.31-1.4,11.34,11.34,0,0,0-1.17.08c-.8.09-.93,0-1.25-.77L82.17,67c-.55.16-.67.34-1,.86a.36.36,0,0,1-.47.12l-.27-.14c-.72-.39-.72-.39-1.07-.37-.18,0-.45,0-.89,0a2.53,2.53,0,0,1-.71-.15,2.27,2.27,0,0,0-.6-.13,1.3,1.3,0,0,0-.56.05,3,3,0,0,1-.92.13h0a.36.36,0,0,1-.33-.21.53.53,0,0,1,0-.18l0-.07v-.07L74.79,66l-.15-.29a2,2,0,0,0-.23-.38,2.32,2.32,0,0,0-.49,0l-.27,0a2.57,2.57,0,0,1-1.54-.28,3.19,3.19,0,0,0-.89-.3,11.49,11.49,0,0,1-3.92-1.26l-.31-.2-.22-.14c-.22-.14-.35-.24-.48-.35l-.27-.2a5.67,5.67,0,0,0-.59.2,3.34,3.34,0,0,1-2.33.08c-.36-.08-.79-.21-1.2-.34a8.21,8.21,0,0,0-1.69-.41,2.42,2.42,0,0,0-1.26.28,3.86,3.86,0,0,1-1.74.4,6.45,6.45,0,0,1-1.44-.13,3.12,3.12,0,0,0-1.53,0,6.1,6.1,0,0,1-.18.73l-.08.2a.59.59,0,0,1-.36.4l-.24.12a2.35,2.35,0,0,1-.6.24l-.13,0a2.3,2.3,0,0,0-.09.61.36.36,0,0,1-.39.33,7.57,7.57,0,0,1-1.47-.32,9.1,9.1,0,0,0-1.36-.31,2.84,2.84,0,0,0-.43.9,1.3,1.3,0,0,0,0,1A3.36,3.36,0,0,1,49,68.27,2.12,2.12,0,0,0,49.53,70a4.47,4.47,0,0,1,.85,1.74,3,3,0,0,0,.76,1.57,8.4,8.4,0,0,1,.51.68.36.36,0,0,1-.29.56h-.1a3.07,3.07,0,0,0-.47,0l-.09.1,0,0a2.28,2.28,0,0,0,.2.42,8,8,0,0,1,.83,2.44.36.36,0,0,1-.18.4l-.42.2a1.14,1.14,0,0,0-.2.1,3,3,0,0,0-.06.7.36.36,0,0,1-.36.35l-.58,0a3.66,3.66,0,0,0-1.37.09l-.24.09a1.09,1.09,0,0,1-.2.31l0,0-2.32,2a20.55,20.55,0,0,0-3.19,3l-.63.68-1.43,1.59-.34.35c-.45.45-.45.45-.4,1.23,0,.22.05.48.09.75a4,4,0,0,1-.08,2.23,2.17,2.17,0,0,1-.77.85,2,2,0,0,0-.69.75,8.42,8.42,0,0,1-.74,1.17c-.14.19-.28.39-.47.69a4.14,4.14,0,0,0-.51,1.14,6.38,6.38,0,0,1-.37,1,3.08,3.08,0,0,1-1.61,1.49v1.9a1.34,1.34,0,0,1,.56.78l.13.31.05.13a2,2,0,0,0,.19.38,1.54,1.54,0,0,0,.85.53,1.56,1.56,0,0,1,1.23,1.63l.37,0c.48-.06.94-.11,1.26.23a1.33,1.33,0,0,1,.21,1.25,2.48,2.48,0,0,0,0,.25,1.61,1.61,0,0,0,.43,0l.33-.06c.72-.12.92-.15,1.09-.87a.36.36,0,0,1,.55-.22c.51.34.84.59,1.1.79.69.52.79.6,2.45.89.73.12.94.19,1.09.46,0,0,0,.08.32.21a10.87,10.87,0,0,0,3.91.48c1.62-.51,2.08-.16,2.37.66a1.21,1.21,0,0,0,.19.39,1.32,1.32,0,0,0,.45.34,1.5,1.5,0,0,1,.65.59,2.4,2.4,0,0,1,.25.59l0,.15,1.21-.09a1,1,0,0,0,.91-.57l.09-.13c1-1.41,2.74-1.28,4.37-1.16a6.2,6.2,0,0,0,3.12-.27A3.31,3.31,0,0,0,66,106a.36.36,0,0,1,.36-.33h.62c.67,0,.92,0,1.36-.34a1.69,1.69,0,0,0,.42-.43.32.32,0,0,1,.2-.25.38.38,0,0,1,.35,0,1.89,1.89,0,0,0,.59.09v-.49a.36.36,0,0,1,.39-.36c.27,0,.55.07.84.11a4.71,4.71,0,0,0,2.34,0l1.63-.73c1.18-.42,2,.31,2.71,1a5.58,5.58,0,0,0,.83.66l.08.07.83.9.07.1,0,0c.19.2.57.3,1.25.32a.36.36,0,0,1,.35.35c0,.3,0,.48,0,.6v0l.29.21c.65.51.79.39,1.17.07a3.26,3.26,0,0,1,.43-.33l.1-.07a.52.52,0,0,1,.38-.14h.11l.45,0c.18,0,.44,0,.54.23a.33.33,0,0,1,0,.12,1.36,1.36,0,0,1,.65,1,1.4,1.4,0,0,0,.45.81c.62.59.79.5,1.63.05a.37.37,0,0,1,.34,0,.36.36,0,0,1,.19.28c.05.6.07,1,.08,1.23s0,.36.13.5.2.24.37.47a.36.36,0,0,1-.08.5,4.47,4.47,0,0,0-.81,2.38c.07.38.18.42.46.51.54.17,1,.42,1.12,1.67h.2a1.68,1.68,0,0,0,1-.19A.36.36,0,0,1,91,117c-.05.63-.1.76-.22.93a.72.72,0,0,0-.11.27l0,.05-.43,1,.18.16h.16l.32,0a.36.36,0,0,1,.32.45,1.45,1.45,0,0,1-.38.78,2.19,2.19,0,0,0,0,.33,3.57,3.57,0,0,1,1.43.69,2.42,2.42,0,0,0,1.27.56.36.36,0,0,1,.33.39l-.2,2.64a.37.37,0,0,1,0,.05c-.21.89-.09,1,.66,1.71l.09.08a.36.36,0,0,1-.17.61,5.37,5.37,0,0,0-1.23.41.36.36,0,0,1-.52-.32V127a3.63,3.63,0,0,1-.72-.13l-.15,0-.13.08a3.9,3.9,0,0,1,0,.43.36.36,0,0,1-.53.29,1.41,1.41,0,0,0-.48-.18A.39.39,0,0,1,90,127a1.3,1.3,0,0,0,0-.16,4.48,4.48,0,0,0-1.89.39.36.36,0,0,1-.52-.32c0-.18,0-.32,0-.43a.85.85,0,0,0-.06-.45,3.76,3.76,0,0,0-.72.35,5.18,5.18,0,0,1-1.32.58c0,.42,0,.78.06,1.09l0,.29c0,.58,0,.58.18.75s.18.22.32.43A.36.36,0,0,1,86,130c-.51.37-.51.45-.5,1.37v.3a.36.36,0,0,1-.25.34l-1.31.4c-.05.21-.09.35-.09.39a2.88,2.88,0,0,1,.14.78.36.36,0,0,1-.17.34l-2,1.19c0,.21,0,.4.06.57s0,.26,0,.37a1.72,1.72,0,0,1,0,.74,2.3,2.3,0,0,0-.08.54.36.36,0,0,1-.51.29,1.77,1.77,0,0,0-1.68,0s-.2.19,0,.59l.14.26c.6,1.25.89,1.35,2.12,1.73l.61.19c.27.09,1.08.35,1.24.2s.07-.15,0-.42a.36.36,0,0,1,.43-.43l.35.09a2.83,2.83,0,0,0,.81.12c.17-.55.34-.7.8-.8a3.26,3.26,0,0,0,.52-.15,3.52,3.52,0,0,0,.48-.24,2.18,2.18,0,0,1,1.49-.32,2.78,2.78,0,0,1,2.67,2.38h.23c0-.37.05-.69.09-1a13,13,0,0,0,.11-1.43l0,0-.1,0H91a.36.36,0,0,1-.31-.53c0-.09.1-.2.14-.3l-.11,0a.36.36,0,0,1-.28-.35v-1.54a.36.36,0,0,1,.63-.24l.13.14a1.11,1.11,0,0,1,.36.82.81.81,0,0,0,.23-.06l.1,0c.46-.15.52-.25.52-.26a1.25,1.25,0,0,0-.13-.44l-.09-.24a.36.36,0,0,1,.42-.47l.37.09.28.07v-.68a.36.36,0,0,1,.52-.32c1.2.58,1.82-.16,2.73-1.4a9,9,0,0,1,.93-1.14l2.11-3.26a2.75,2.75,0,0,0,.34-1.3,1.17,1.17,0,0,1,.68-1.19,7,7,0,0,1,2.61-.75l.38,0a8.92,8.92,0,0,0,.89,0,.94.94,0,0,0,.4-.06c.3-.13.47,0,.64.19l.28.26a7.51,7.51,0,0,1,1.39,1.59c0-.08,0-.17,0-.28a.36.36,0,0,1,.44-.34,5,5,0,0,1,.91.32,3.31,3.31,0,0,0,1.21.33.36.36,0,0,1,.32.45c-.3,1.14-1,1-1.45,1s-.48-.06-.62.23a4.27,4.27,0,0,0,1,.17,3.49,3.49,0,0,1,2.6,1.25c1.16,1.27,2.06,1.1,3.42.84a12.11,12.11,0,0,1,1.87-.25l1.34-.25.12,0a3.49,3.49,0,0,1,2.5.54,4.42,4.42,0,0,0,1.74.6.36.36,0,0,1,.3.22l.08.18a.58.58,0,0,1,.06.46h.18a.36.36,0,0,1,.33.49,1,1,0,0,0-.08.28.38.38,0,0,1-.41.37h0a2.28,2.28,0,0,0-.63.15l-1,.29a1.21,1.21,0,0,0-.35.27,1.48,1.48,0,0,1-.68.43,1.17,1.17,0,0,1-.81,0,2.27,2.27,0,0,0-.36-.07v.08a.45.45,0,0,1-.32.49,1,1,0,0,0-.29.15,7.79,7.79,0,0,1-.84.51,3.88,3.88,0,0,0-1.14.88l-.06,0-1.3.87,0,0c-1.14.57-1.29.73-1.21,1.88l.36.08a1.54,1.54,0,0,0,.88,0,3.67,3.67,0,0,0,.7-.24c.84-.36,1.26-.35,3,1.16l.46.37c.42.26.56.25,1.26.2a2.05,2.05,0,0,1,1.62.53,4.51,4.51,0,0,1,1,3.17.36.36,0,0,1-.27.35c-.48.13-.53.39-.43,1.31a5.17,5.17,0,0,1,0,1,.36.36,0,0,1-.2.29,5.53,5.53,0,0,1-1.1.39Zm12.15-3.47Zm-1.1-10.91.3.06a1.55,1.55,0,0,1-.33-.34C132.36,133.75,132.37,133.84,132.38,133.95Zm-1.73-.41.12.12Zm-.18-2.37a1,1,0,0,1,.59.31.84.84,0,0,1,.18.59.75.75,0,0,1,.46-.1h.16l0-.18a1.5,1.5,0,0,0,0-.24,2.92,2.92,0,0,0-.42-.23l-.38-.2a.36.36,0,0,1-.16-.16l0,0a.36.36,0,0,1-.28.17Zm-1.47.22.08.14v-.05a.35.35,0,0,1,0-.08Zm1.75-1,.06.14,0,.06c0-.09,0-.17,0-.24Zm1.2-.34a.33.33,0,0,0,0,.17l0-.09Zm0,0,.07.07,0-.09a.33.33,0,0,0,0-.12l0,0v0A.33.33,0,0,0,131.94,130.06Zm-38.81-3.18v.34l.23-.08Zm74.81-29.13.12.12ZM135.56,81l.19.19Zm0,0Zm.08-.09h0Zm1.15,58.29h-.08a6.91,6.91,0,0,1-1.09-.36,5.59,5.59,0,0,0-.86-.29.36.36,0,0,1-.28-.35v-1.59l-.11-.11a.36.36,0,0,1,.51-.51l.22.22h0l.37.43a19.25,19.25,0,0,1,1.6,2,.36.36,0,0,1-.3.56Zm-1.59-1.29c.23.07.43.14.62.22-.2-.24-.41-.48-.62-.72Z"/><path class="cls-5" d="M106.67,61.83a13.88,13.88,0,0,0-27.76,0V75.7h14A13.88,13.88,0,0,0,106.67,61.83Z"/><path class="cls-4" d="M92.89,76.06h-14a.36.36,0,0,1-.36-.36V61.83A14.24,14.24,0,1,1,92.94,76.06Zm-13.62-.72H92.89A13.52,13.52,0,1,0,79.28,61.83Z"/><path class="cls-5" d="M99.69,65.9H85.89v-.28c0-.5.37-1.22,2.13-1.8a17.8,17.8,0,0,1,9.53,0c1.76.58,2.13,1.3,2.13,1.8Z"/><path class="cls-4" d="M99.69,66.26H85.89a.36.36,0,0,1-.36-.36v-.28c0-.62.41-1.5,2.38-2.14a18.15,18.15,0,0,1,9.76,0c2,.65,2.38,1.52,2.38,2.14v.28A.36.36,0,0,1,99.69,66.26Zm-13.43-.72H99.33c-.06-.51-.72-1-1.88-1.38a17.45,17.45,0,0,0-9.31,0C87,64.54,86.32,65,86.26,65.54Z"/><path class="cls-6" d="M92.79,65.06c-1.36,0-2.46-.6-2.61-1.43l-.05-.29.3,0a19.92,19.92,0,0,1,4.74,0l.3,0-.05.29c-.15.83-1.25,1.43-2.61,1.43"/><path class="cls-4" d="M92.79,65.42c-1.56,0-2.78-.71-3-1.72l-.05-.29a.36.36,0,0,1,.31-.42l.3,0a20.35,20.35,0,0,1,4.83,0l.3,0a.36.36,0,0,1,.31.42l-.05.29C95.57,64.72,94.35,65.42,92.79,65.42Zm-2.24-1.77c.18.6,1.12,1.05,2.24,1.05s2.06-.45,2.24-1.05A19.65,19.65,0,0,0,90.55,63.65Z"/><path class="cls-6" d="M92.79,54.66a4.77,4.77,0,1,0,4.77,4.77,4.77,4.77,0,0,0-4.77-4.77"/><path class="cls-4" d="M92.79,64.56a5.13,5.13,0,1,1,5.13-5.13A5.13,5.13,0,0,1,92.79,64.56Zm0-9.53a4.41,4.41,0,1,0,4.41,4.41A4.41,4.41,0,0,0,92.79,55Z"/><path class="cls-4" d="M91.29,60a.35.35,0,1,0-.35.35.35.35,0,0,0,.35-.35"/><path class="cls-4" d="M94.87,60a.35.35,0,1,0-.35.35.35.35,0,0,0,.35-.35"/><path class="cls-7" d="M94,67.88l.47-.9a16,16,0,0,0,1.45-9.55,5.55,5.55,0,0,1-1.87.35,4.36,4.36,0,0,1-3-1.17,5.1,5.1,0,0,1-.75-.85,8.35,8.35,0,0,0-1,4.27c-.1,3,.47,6.17,1.24,6.88l-.19.25v0l-.15.2a7.11,7.11,0,0,1-2.82-4.06,14.39,14.39,0,0,1-.65-3.58,22.06,22.06,0,0,1,.25-4.64v0A5.31,5.31,0,0,1,92.57,51a6.21,6.21,0,0,1,4.17,1.52,5.33,5.33,0,0,1,1.82,3.26c1.18,7.69-2.19,10.67-3.7,11.59Z"/><path class="cls-4" d="M94,68.24a.36.36,0,0,1-.32-.53l.47-.9a15.34,15.34,0,0,0,1.46-8.91,4.85,4.85,0,0,1-4.78-1,5.53,5.53,0,0,1-.47-.48A10.38,10.38,0,0,0,89.73,60c-.1,3.1.51,6,1.13,6.61a.36.36,0,0,1,0,.48l-.12.15v.12a.36.36,0,0,1-.36.36,2.85,2.85,0,0,1-.34-.1,7.46,7.46,0,0,1-3-4.25,14.75,14.75,0,0,1-.66-3.67A22.43,22.43,0,0,1,86.71,55V55a5.67,5.67,0,0,1,5.85-4.34A6.56,6.56,0,0,1,97,52.22a5.7,5.7,0,0,1,1.94,3.49c1.21,7.89-2.3,11-3.86,11.95l-.87.53A.36.36,0,0,1,94,68.24Zm1.92-11.18a.36.36,0,0,1,.36.32,16.4,16.4,0,0,1-1.35,9.5c1.53-1,4.37-4,3.28-11.07a5,5,0,0,0-1.7-3,5.85,5.85,0,0,0-3.93-1.43A5.28,5.28,0,0,0,89,52.56a5.23,5.23,0,0,0-1.54,2.57,21.71,21.71,0,0,0-.24,4.55,14,14,0,0,0,.63,3.49,7.31,7.31,0,0,0,2.25,3.57c-.74-1.28-1.12-4.31-1-6.74a8.53,8.53,0,0,1,1-4.47.35.35,0,0,1,.29-.14.36.36,0,0,1,.29.15,4.78,4.78,0,0,0,.7.79,4.22,4.22,0,0,0,4.48.75Z"/><path class="cls-6" d="M85.48,75.72H82.39a.28.28,0,0,1-.28-.28,1.82,1.82,0,0,1,3.65,0,.28.28,0,0,1-.28.28"/><path class="cls-4" d="M85.48,76.08H82.39a.64.64,0,0,1-.64-.64,2.18,2.18,0,0,1,4.37,0A.64.64,0,0,1,85.48,76.08Zm-3-.72H85.4a1.46,1.46,0,0,0-2.92,0Z"/><path class="cls-8" d="M101.23,66.56A1.23,1.23,0,0,0,100,65.34H85.58a1.23,1.23,0,0,0-1.22,1.22V74.5a1.22,1.22,0,0,0,1.07,1.21h7.46a13.82,13.82,0,0,0,8.34-2.86Z"/><path class="cls-4" d="M92.89,76.06H85.38A1.58,1.58,0,0,1,84,74.5V66.56A1.59,1.59,0,0,1,85.58,65H100a1.59,1.59,0,0,1,1.58,1.58v6.28a.36.36,0,0,1-.14.29,14.11,14.11,0,0,1-8.51,2.94Zm-7.44-.72h7.44a13.4,13.4,0,0,0,8-2.68v-6.1a.86.86,0,0,0-.86-.86H85.58a.86.86,0,0,0-.86.86V74.5A.86.86,0,0,0,85.45,75.34Z"/><path class="cls-6" d="M94.2,70.17a1.46,1.46,0,1,0-1.46,1.46,1.46,1.46,0,0,0,1.46-1.46"/><path class="cls-4" d="M92.74,72a1.82,1.82,0,1,1,1.82-1.82A1.82,1.82,0,0,1,92.74,72Zm0-2.92a1.1,1.1,0,1,0,1.1,1.1A1.1,1.1,0,0,0,92.74,69.07Z"/><path class="cls-5" d="M18.86,60.91a13.88,13.88,0,1,1,27.76,0V74.78h-14A13.88,13.88,0,0,1,18.86,60.91Z"/><path class="cls-4" d="M46.62,75.14h-14A14.24,14.24,0,1,1,47,60.91V74.78A.36.36,0,0,1,46.62,75.14Zm-13.93-.72H46.26V60.91A13.52,13.52,0,1,0,32.64,74.42Z"/><path class="cls-6" d="M43.34,74.78H40.26A.28.28,0,0,1,40,74.5a1.82,1.82,0,0,1,3.65,0,.28.28,0,0,1-.28.28"/><path class="cls-4" d="M43.34,75.14H40.25a.64.64,0,0,1-.64-.64,2.18,2.18,0,0,1,4.37,0A.64.64,0,0,1,43.34,75.14Zm-3-.72h2.92a1.46,1.46,0,0,0-2.92,0Z"/><path class="cls-5" d="M40,65H26.25v-.28c0-.5.37-1.22,2.13-1.8a15.9,15.9,0,0,1,4.77-.65,15.9,15.9,0,0,1,4.77.65c1.76.58,2.13,1.3,2.13,1.8Z"/><path class="cls-4" d="M40,65.32H26.25a.36.36,0,0,1-.36-.36v-.28c0-.62.41-1.5,2.38-2.14a16.26,16.26,0,0,1,4.88-.67,16.25,16.25,0,0,1,4.88.67c2,.65,2.38,1.52,2.38,2.14V65A.36.36,0,0,1,40,65.32ZM26.61,64.6H39.68c-.06-.51-.72-1-1.88-1.38a15.53,15.53,0,0,0-4.65-.63,15.54,15.54,0,0,0-4.65.63C27.34,63.6,26.67,64.09,26.61,64.6Z"/><path class="cls-1" d="M35.48,62.65a19.65,19.65,0,0,0-4.67,0c.12.67,1.12,1.2,2.34,1.2s2.21-.52,2.34-1.2"/><path class="cls-9" d="M33.15,64.15c-1.37,0-2.48-.61-2.63-1.44a.3.3,0,0,1,.26-.35,20,20,0,0,1,4.75,0,.3.3,0,0,1,.26.35C35.63,63.54,34.52,64.15,33.15,64.15ZM31.26,62.9a2.56,2.56,0,0,0,1.88.65A2.56,2.56,0,0,0,35,62.9,19.63,19.63,0,0,0,31.26,62.9Z"/><path class="cls-6" d="M33.15,64.13c-1.36,0-2.46-.6-2.61-1.43l-.05-.29.3,0a19.93,19.93,0,0,1,4.74,0l.3,0-.05.29c-.15.83-1.25,1.43-2.61,1.43"/><path class="cls-4" d="M33.15,64.49c-1.56,0-2.78-.71-3-1.72l-.05-.29a.36.36,0,0,1,.31-.42l.3,0a20.39,20.39,0,0,1,4.83,0l.3,0a.36.36,0,0,1,.31.42l-.05.29C35.93,63.78,34.71,64.49,33.15,64.49Zm-2.24-1.77c.18.6,1.12,1.05,2.24,1.05s2.06-.45,2.24-1.05A19.74,19.74,0,0,0,30.91,62.72Z"/><path class="cls-6" d="M33.15,63.07a5.13,5.13,0,1,1,5.13-5.13,5.14,5.14,0,0,1-5.13,5.13"/><path class="cls-4" d="M33.15,63.43a5.49,5.49,0,1,1,5.49-5.49A5.5,5.5,0,0,1,33.15,63.43Zm0-10.27a4.77,4.77,0,1,0,4.77,4.77A4.78,4.78,0,0,0,33.15,53.17Z"/><path class="cls-8" d="M40.36,74.78a1.23,1.23,0,0,0,1.22-1.22V65.63a1.23,1.23,0,0,0-1.22-1.22H25.93a1.23,1.23,0,0,0-1.22,1.22v6.6a13.81,13.81,0,0,0,7.93,2.56h7.72Z"/><path class="cls-4" d="M40.36,75.14H32.59a14.15,14.15,0,0,1-8.09-2.63.36.36,0,0,1-.15-.29v-6.6A1.59,1.59,0,0,1,25.93,64H40.36a1.59,1.59,0,0,1,1.58,1.58v7.93A1.58,1.58,0,0,1,40.36,75.14Zm-7.68-.72h7.68a.86.86,0,0,0,.86-.86V65.63a.86.86,0,0,0-.86-.86H25.93a.86.86,0,0,0-.86.86V72a13.43,13.43,0,0,0,7.57,2.39Z"/><path class="cls-6" d="M34.55,69.23a1.46,1.46,0,1,0-1.46,1.46,1.46,1.46,0,0,0,1.46-1.46"/><path class="cls-4" d="M33.09,71.05a1.82,1.82,0,1,1,1.82-1.82A1.82,1.82,0,0,1,33.09,71.05Zm0-2.92a1.1,1.1,0,1,0,1.1,1.1A1.1,1.1,0,0,0,33.09,68.13Z"/><path class="cls-10" d="M32.75,54.17A4.81,4.81,0,0,0,30,55.27a5.07,5.07,0,0,0-1.68,3.83l-2-1.46a6.07,6.07,0,0,1,.76-4.2,6.24,6.24,0,0,1,5.79-2.77Z"/><path class="cls-4" d="M28.32,59.46a.36.36,0,0,1-.21-.07l-2-1.46a.36.36,0,0,1-.14-.23,6.37,6.37,0,0,1,.81-4.46,6.58,6.58,0,0,1,6.12-2.94.36.36,0,0,1,.33.37l-.09,3.5a.36.36,0,0,1-.33.35,4.47,4.47,0,0,0-2.54,1,4.73,4.73,0,0,0-1.56,3.55.36.36,0,0,1-.36.37Zm-1.7-2,1.37,1A5.23,5.23,0,0,1,29.77,55a5.15,5.15,0,0,1,2.63-1.15L32.47,51a5.82,5.82,0,0,0-5.11,2.61A5.62,5.62,0,0,0,26.62,57.43Z"/><path class="cls-10" d="M32.84,50.67A6.42,6.42,0,0,1,38.91,61.5l-2.47-1a5.24,5.24,0,0,0,.35-2.75c-.19-1.22-1-3.15-2.6-3.6a2.93,2.93,0,0,0-1.45,0Z"/><path class="cls-4" d="M38.91,61.86l-.13,0-2.47-1a.36.36,0,0,1-.2-.47,4.83,4.83,0,0,0,.33-2.56c-.16-1-.83-2.9-2.34-3.3a2.55,2.55,0,0,0-1.27,0,.36.36,0,0,1-.44-.36l.09-3.5a.36.36,0,0,1,.28-.34,6.78,6.78,0,0,1,6.41,11.43A.36.36,0,0,1,38.91,61.86Zm-2-1.55,1.91.76A6,6,0,0,0,33.19,51l-.07,2.78a3.12,3.12,0,0,1,1.17.08c1.87.5,2.68,2.68,2.86,3.89A5.54,5.54,0,0,1,36.9,60.31Z"/><rect class="cls-6" x="30.13" y="57.31" width="2.2" height="1.5" rx="0.68" ry="0.68"/><path class="cls-4" d="M31.57,59.17h-.7a1.11,1.11,0,1,1,0-2.22h.7a1.11,1.11,0,1,1,0,2.22Zm-.7-1.5a.39.39,0,0,0,0,.78h.7a.39.39,0,0,0,0-.78Z"/><rect class="cls-6" x="33.86" y="57.31" width="2.2" height="1.5" rx="0.68" ry="0.68"/><path class="cls-4" d="M35.31,59.17h-.7a1.11,1.11,0,1,1,0-2.22h.7a1.11,1.11,0,1,1,0,2.22Zm-.7-1.5a.39.39,0,0,0,0,.78h.7a.39.39,0,0,0,0-.78Z"/><path class="cls-4" d="M34.16,58.42H32a.36.36,0,1,1,0-.72h2.13a.36.36,0,1,1,0,.72Z"/><path class="cls-5" d="M150.11,98.92a13.88,13.88,0,0,0-27.76,0V112.8h14A13.88,13.88,0,0,0,150.11,98.92Z"/><path class="cls-4" d="M136.33,113.16h-14a.36.36,0,0,1-.36-.36V98.92a14.24,14.24,0,1,1,14.38,14.24Zm-13.62-.72h13.61a13.52,13.52,0,1,0-13.61-13.52Z"/><path class="cls-6" d="M129.33,112.8h-3.09a.28.28,0,0,1-.28-.28,1.82,1.82,0,1,1,3.65,0,.28.28,0,0,1-.28.28"/><path class="cls-4" d="M129.33,113.16h-3.09a.64.64,0,0,1-.64-.64,2.18,2.18,0,0,1,4.37,0A.64.64,0,0,1,129.33,113.16Zm-3-.72h2.92a1.46,1.46,0,0,0-2.92,0Z"/><path class="cls-7" d="M143.13,103h-13.8v-.28c0-.5.37-1.22,2.13-1.8a17.8,17.8,0,0,1,9.53,0c1.76.58,2.13,1.3,2.13,1.8Z"/><path class="cls-4" d="M143.13,103.34h-13.8A.36.36,0,0,1,129,103v-.28c0-.62.41-1.5,2.38-2.14a18.15,18.15,0,0,1,9.76,0c2,.65,2.38,1.52,2.38,2.14V103A.36.36,0,0,1,143.13,103.34Zm-13.43-.72h13.07c-.06-.51-.72-1-1.88-1.38a17.45,17.45,0,0,0-9.31,0C130.42,101.61,129.75,102.1,129.69,102.62Z"/><path class="cls-1" d="M138.56,100.66a19.64,19.64,0,0,0-4.67,0c.12.67,1.12,1.2,2.34,1.2s2.21-.52,2.34-1.2"/><path class="cls-9" d="M136.23,102.16c-1.37,0-2.48-.61-2.63-1.44a.3.3,0,0,1,.26-.35,20,20,0,0,1,4.75,0,.3.3,0,0,1,.26.35C138.71,101.55,137.6,102.16,136.23,102.16Zm-1.88-1.25a3.07,3.07,0,0,0,3.76,0A19.6,19.6,0,0,0,134.35,100.92Z"/><path class="cls-6" d="M136.23,102.14c-1.36,0-2.46-.6-2.61-1.43l-.05-.29.3,0a19.93,19.93,0,0,1,4.74,0l.3,0-.05.29c-.15.83-1.25,1.43-2.61,1.43"/><path class="cls-4" d="M136.23,102.5c-1.56,0-2.78-.71-3-1.72l-.05-.29a.36.36,0,0,1,.31-.42l.3,0a20.36,20.36,0,0,1,4.83,0l.3,0a.36.36,0,0,1,.31.42l-.05.29C139,101.79,137.79,102.5,136.23,102.5ZM134,100.73c.18.6,1.12,1.05,2.24,1.05s2.06-.45,2.24-1.05A19.68,19.68,0,0,0,134,100.73Z"/><path class="cls-1" d="M141.08,96a4.85,4.85,0,1,0-4.85,4.85A4.85,4.85,0,0,0,141.08,96"/><path class="cls-9" d="M136.23,101.11A5.15,5.15,0,1,1,141.38,96,5.16,5.16,0,0,1,136.23,101.11Zm0-9.7A4.55,4.55,0,1,0,140.78,96,4.56,4.56,0,0,0,136.23,91.4Z"/><path class="cls-6" d="M136.23,101.09A5.13,5.13,0,1,1,141.36,96a5.14,5.14,0,0,1-5.13,5.13"/><path class="cls-4" d="M136.23,101.45A5.49,5.49,0,1,1,141.72,96,5.5,5.5,0,0,1,136.23,101.45Zm0-10.27A4.77,4.77,0,1,0,141,96,4.78,4.78,0,0,0,136.23,91.18Z"/><path class="cls-4" d="M134.73,97.05a.35.35,0,1,0-.35.35.35.35,0,0,0,.35-.35"/><path class="cls-8" d="M136.32,112.79a13.82,13.82,0,0,0,8.34-2.86v-6.29a1.23,1.23,0,0,0-1.22-1.22H129a1.23,1.23,0,0,0-1.22,1.22v7.93A1.23,1.23,0,0,0,129,112.8h7.31Z"/><path class="cls-4" d="M136.33,113.16H129a1.59,1.59,0,0,1-1.58-1.58v-7.93a1.59,1.59,0,0,1,1.58-1.58h14.43a1.59,1.59,0,0,1,1.58,1.58v6.29a.36.36,0,0,1-.14.29,14.11,14.11,0,0,1-8.51,2.94ZM129,102.78a.86.86,0,0,0-.86.86v7.93a.86.86,0,0,0,.86.86h7.31a13.4,13.4,0,0,0,8-2.68v-6.12a.86.86,0,0,0-.86-.86Z"/><path class="cls-6" d="M137.63,107.25a1.46,1.46,0,1,0-1.46,1.46,1.46,1.46,0,0,0,1.46-1.46"/><path class="cls-4" d="M136.17,109.07a1.82,1.82,0,1,1,1.82-1.82A1.82,1.82,0,0,1,136.17,109.07Zm0-2.92a1.1,1.1,0,1,0,1.1,1.1A1.1,1.1,0,0,0,136.17,106.15Z"/><path class="cls-8" d="M143,90.57a2.23,2.23,0,1,1-2.22-2.11A2.17,2.17,0,0,1,143,90.57"/><path class="cls-4" d="M140.79,93a2.47,2.47,0,1,1,2.58-2.47A2.53,2.53,0,0,1,140.79,93Zm0-4.21a1.75,1.75,0,1,0,1.86,1.75A1.81,1.81,0,0,0,140.79,88.82Z"/><path class="cls-8" d="M134,90.57a2.23,2.23,0,1,1-2.22-2.11A2.17,2.17,0,0,1,134,90.57"/><path class="cls-4" d="M131.78,93a2.47,2.47,0,1,1,2.58-2.47A2.53,2.53,0,0,1,131.78,93Zm0-4.21a1.75,1.75,0,1,0,1.86,1.75A1.81,1.81,0,0,0,131.78,88.82Z"/><path class="cls-8" d="M137.11,89.17a6.82,6.82,0,0,0-5,1.12,4.15,4.15,0,0,0-1.2,1.47,6.81,6.81,0,0,0-.78,3.35,16,16,0,0,0,.26,1.75c.58-.12.81,1.35.81,1.35a12.77,12.77,0,0,1,0-2.05h5.22l.31-2.39.48,2.39h1.73V94.09l.72,2.08h1.51a8.19,8.19,0,0,1,.27,1.73s.37-1.33.77-1.19c0,0,1.19-6.75-5.09-7.53"/><path class="cls-4" d="M131.23,98.58a.37.37,0,0,1-.35-.29h0v-.08a1.83,1.83,0,0,0-.39-1,.32.32,0,0,1-.28-.07c-.27-.21-.39-2-.4-2a7.14,7.14,0,0,1,.82-3.52,4.51,4.51,0,0,1,1.3-1.59,7.16,7.16,0,0,1,5.23-1.2h0a5.91,5.91,0,0,1,4.23,2.27,8.16,8.16,0,0,1,1.17,5.68.36.36,0,0,1-.17.25.35.35,0,0,1-.2,0,3,3,0,0,0-.41.93.36.36,0,0,1-.71-.07,10.67,10.67,0,0,0-.18-1.4h-1.24a.36.36,0,0,1-.34-.24l0-.08a.36.36,0,0,1-.36.32h-1.73a.36.36,0,0,1-.35-.29l0-.24,0,.22a.36.36,0,0,1-.36.31h-4.87a11.18,11.18,0,0,0,0,1.56v.07a.36.36,0,0,1-.35.42Zm8.68-2.77h1.25a.36.36,0,0,1,.33.23,3.11,3.11,0,0,1,.14.57.84.84,0,0,1,.24-.2h0a7.35,7.35,0,0,0-1.07-4.89,5.22,5.22,0,0,0-3.74-2h0a6.44,6.44,0,0,0-4.7,1.05,3.8,3.8,0,0,0-1.09,1.34,6.44,6.44,0,0,0-.75,3.17c0,.12.12,1,.19,1.44l.11.05v-.44a.36.36,0,0,1,.36-.35h4.9l.27-2.07a.36.36,0,0,1,.34-.31.34.34,0,0,1,.37.29l.42,2.1h1.07V94.09a.36.36,0,0,1,.7-.12Z"/><path class="cls-4" d="M138,96.7a.35.35,0,1,0,.35.35.35.35,0,0,0-.35-.35"/><circle class="cls-1" cx="58.38" cy="85.04" r="7.53"/><path class="cls-4" d="M58.38,92.93A7.89,7.89,0,1,1,66.27,85,7.9,7.9,0,0,1,58.38,92.93Zm0-15.06A7.17,7.17,0,1,0,65.55,85,7.18,7.18,0,0,0,58.38,77.87Z"/><path class="cls-11" d="M55.67,116.72h-1a.3.3,0,0,1,0-.6h1a2.44,2.44,0,0,0,.4,0,.3.3,0,1,1,.1.59A3,3,0,0,1,55.67,116.72Zm1.71-.61a.3.3,0,0,1-.19-.53,2.42,2.42,0,0,0,.73-1,.3.3,0,0,1,.56.22,3,3,0,0,1-.91,1.25A.3.3,0,0,1,57.38,116.11Zm1-2.51a.3.3,0,0,1-.3-.3v-1.41a.3.3,0,1,1,.6,0v1.41A.3.3,0,0,1,58.38,113.6Zm0-2.81a.3.3,0,0,1-.3-.3v-1.41a.3.3,0,1,1,.6,0v1.41A.3.3,0,0,1,58.38,110.79Zm0-2.81a.3.3,0,0,1-.3-.3v-1.41a.3.3,0,1,1,.6,0v1.41A.3.3,0,0,1,58.38,108Zm0-2.81a.3.3,0,0,1-.3-.3v-1.41a.3.3,0,1,1,.6,0v1.41A.3.3,0,0,1,58.38,105.16Zm0-2.81a.3.3,0,0,1-.3-.3v-1.41a.3.3,0,1,1,.6,0V102A.3.3,0,0,1,58.38,102.35Zm0-2.81a.3.3,0,0,1-.3-.3V97.82a.3.3,0,1,1,.6,0v1.41A.3.3,0,0,1,58.38,99.53Zm0-2.81a.3.3,0,0,1-.3-.3V95a.3.3,0,0,1,.6,0v1.41A.3.3,0,0,1,58.38,96.72Zm0-2.81a.3.3,0,0,1-.3-.3V92.2a.3.3,0,0,1,.6,0V93.6A.3.3,0,0,1,58.38,93.9Zm0-2.81a.3.3,0,0,1-.3-.3V89.38a.3.3,0,0,1,.6,0v1.41A.3.3,0,0,1,58.38,91.09Zm0-2.81a.3.3,0,0,1-.3-.3V86.57a.3.3,0,1,1,.6,0V88A.3.3,0,0,1,58.38,88.28Zm0-2.81a.3.3,0,0,1-.27-.16h-1a.3.3,0,0,1,0-.6h1.25a.3.3,0,0,1,.3.3v.16A.3.3,0,0,1,58.38,85.46Zm-2.65-.16H54.32a.3.3,0,0,1,0-.6h1.41a.3.3,0,1,1,0,.6Zm-2.81,0H51.5a.3.3,0,1,1,0-.6h1.41a.3.3,0,1,1,0,.6Zm-2.81,0h-1a2.79,2.79,0,0,1-.41,0,.3.3,0,0,1,.09-.59l.33,0h1a.3.3,0,1,1,0,.6Zm-2.66-.61a.3.3,0,0,1-.2-.07,2.76,2.76,0,0,1-.83-1.32.3.3,0,0,1,.58-.16,2.16,2.16,0,0,0,.65,1,.3.3,0,0,1-.2.52Zm-.83-2.57h0a.3.3,0,0,1-.3-.3V80.41a.3.3,0,0,1,.3-.3h0a.3.3,0,0,1,.3.3v1.41A.3.3,0,0,1,46.6,82.12Zm0-2.81h0a.3.3,0,0,1-.3-.3V77.6a.3.3,0,0,1,.3-.3h0a.3.3,0,0,1,.3.3V79A.3.3,0,0,1,46.61,79.3Zm0-2.81h0a.3.3,0,0,1-.3-.3V74.78a.3.3,0,0,1,.3-.3h0a.3.3,0,0,1,.3.3v1.41A.3.3,0,0,1,46.61,76.49Z"/><path class="cls-5" d="M27,130.19a13.88,13.88,0,0,0,27.76,0V116.32h-14A13.88,13.88,0,0,0,27,130.19Z"/><path class="cls-4" d="M40.86,144.43A14.24,14.24,0,0,1,40.71,116h14a.36.36,0,0,1,.36.36v13.88A14.25,14.25,0,0,1,40.86,144.43Zm-.05-27.76h0a13.52,13.52,0,1,0,13.61,13.52V116.68Z"/><path class="cls-1" d="M40.92,132.36c-3.65,0-6.62,1-6.62,2.17H47.53c0-1.2-3-2.17-6.62-2.17"/><path class="cls-9" d="M47.53,134.83H34.3a.3.3,0,0,1-.3-.3c0-1.61,3.56-2.47,6.92-2.47s6.92.87,6.92,2.47A.3.3,0,0,1,47.53,134.83Zm-12.83-.6H47.13c-.52-.79-3-1.57-6.22-1.57S35.22,133.44,34.7,134.23Z"/><path class="cls-8" d="M47.81,134.81H34v-.28c0-.5.37-1.22,2.13-1.8a15.9,15.9,0,0,1,4.77-.65,15.9,15.9,0,0,1,4.77.65c1.76.58,2.13,1.3,2.13,1.8Z"/><path class="cls-4" d="M47.81,135.17H34a.36.36,0,0,1-.36-.36v-.28c0-.62.41-1.5,2.38-2.14a16.25,16.25,0,0,1,4.88-.67,16.26,16.26,0,0,1,4.88.67c2,.65,2.38,1.52,2.38,2.14v.28A.36.36,0,0,1,47.81,135.17Zm-13.43-.72H47.45c-.06-.51-.72-1-1.88-1.38a15.54,15.54,0,0,0-4.65-.63,15.54,15.54,0,0,0-4.65.63C35.11,133.45,34.44,133.94,34.38,134.45Z"/><path class="cls-6" d="M40.92,122.79a5,5,0,1,0,5,5,5,5,0,0,0-5-5"/><path class="cls-4" d="M40.92,133.15a5.36,5.36,0,1,1,5.36-5.36A5.36,5.36,0,0,1,40.92,133.15Zm0-10a4.64,4.64,0,1,0,4.64,4.64A4.64,4.64,0,0,0,40.92,123.15Z"/><path class="cls-4" d="M43.14,128.39a.6.6,0,1,0-.6.58.59.59,0,0,0,.6-.58"/><path class="cls-4" d="M39.74,128.39a.6.6,0,1,0-.6.58.59.59,0,0,0,.6-.58"/><path class="cls-8" d="M48.13,134.25H33.7a1.23,1.23,0,0,0-1.22,1.22v5.78l.36.26.12.08.35.24.13.09.37.23.1.06a13.85,13.85,0,0,0,1.31.67l.1,0,.4.17.15.06.4.15.15.05a13.78,13.78,0,0,0,1.43.4l.09,0,.42.08.19,0,.41.06.2,0,.42,0h.17c.34,0,.67,0,1,0h.1a13.81,13.81,0,0,0,8.49-2.91v-5.69A1.23,1.23,0,0,0,48.13,134.25Z"/><path class="cls-4" d="M40.86,144.43h-.07c-.36,0-.7,0-1.07,0h-.17l-.43,0-.21,0-.42-.06-.2,0-.43-.08h-.09a14.34,14.34,0,0,1-1.47-.41l-.15-.05-.41-.15-.16-.06-.41-.17-.1,0a14.21,14.21,0,0,1-1.34-.69l-.1-.06-.38-.23-.14-.09-.36-.24-.09-.07-.39-.29a.36.36,0,0,1-.14-.29v-5.78a1.59,1.59,0,0,1,1.58-1.58H48.13a1.59,1.59,0,0,1,1.58,1.58v5.69a.36.36,0,0,1-.14.28A14.1,14.1,0,0,1,40.86,144.43Zm-8-3.36.2.15.11.08.34.23.13.08.36.22.1.05a13.55,13.55,0,0,0,1.27.65l.09,0,.39.16.15.06.39.14.15,0a13.52,13.52,0,0,0,1.39.39l.09,0,.41.08.19,0,.4.06.2,0,.41,0h.17c.35,0,.67,0,1,0h.09A13.38,13.38,0,0,0,49,141v-5.51a.86.86,0,0,0-.86-.86H33.7a.87.87,0,0,0-.86.86Z"/><path class="cls-6" d="M42.32,139.08a1.46,1.46,0,1,0-1.46,1.46,1.46,1.46,0,0,0,1.46-1.46"/><path class="cls-4" d="M40.86,140.9a1.82,1.82,0,1,1,1.82-1.82A1.82,1.82,0,0,1,40.86,140.9Zm0-2.92a1.1,1.1,0,1,0,1.1,1.1A1.1,1.1,0,0,0,40.86,138Z"/><path class="cls-7" d="M40.92,126.72h0c-.43,0-.86,0-1.28,0h-.17l-.21-.71-.17.68-.22,0c-.35,0-.68-.09-1-.15l-.17,0-.08-.94-.39.82-.23-.08c-.73-.26-1.11-.6-1.11-1a2.91,2.91,0,0,1,1.49-2.38,6.06,6.06,0,0,1,2-.8,6.58,6.58,0,0,1,.88-.13l.68.27.6-.28.23,0a7.54,7.54,0,0,1,.75.13,5.68,5.68,0,0,1,1.93.79c.19.13,1.87,1.29,1.49,2.38-.24.68-1.17,1-1.66,1.17A10.75,10.75,0,0,1,40.92,126.72Z"/><path class="cls-4" d="M40.92,127.08c-.44,0-.88,0-1.3,0h-.17a.36.36,0,0,1-.19-.07.37.37,0,0,1-.2,0l-.22,0c-.36,0-.7-.09-1-.16l-.17,0a.36.36,0,0,1-.23-.15.36.36,0,0,1-.29,0l-.23-.08c-.89-.31-1.35-.77-1.35-1.35a3.26,3.26,0,0,1,1.65-2.68,6.35,6.35,0,0,1,2.08-.85,7,7,0,0,1,.93-.14.37.37,0,0,1,.16,0l.53.21.46-.21a.35.35,0,0,1,.18,0l.25,0a7.89,7.89,0,0,1,.79.13,6,6,0,0,1,2.05.85c.49.34,2.06,1.54,1.62,2.79-.3.85-1.33,1.2-1.88,1.39A11,11,0,0,1,40.92,127.08Zm-1.18-.76c.38,0,.78,0,1.18,0h0a10.49,10.49,0,0,0,3.22-.31c.44-.15,1.26-.43,1.44-.95s-.59-1.44-1.35-2a5.32,5.32,0,0,0-1.8-.74,7.16,7.16,0,0,0-.71-.12h-.13l-.52.24a.36.36,0,0,1-.29,0l-.6-.24a6.26,6.26,0,0,0-.75.12,5.62,5.62,0,0,0-1.84.75,2.57,2.57,0,0,0-1.32,2.08c0,.29.46.52.79.64l.25-.53a.36.36,0,0,1,.68.12l.05.67.76.12.09-.37a.36.36,0,0,1,.34-.27.36.36,0,0,1,.35.26Z"/><path class="cls-11" d="M122.35,113.1h-1.41a.3.3,0,1,1,0-.6h1.41a.3.3,0,0,1,0,.6Zm-2.81,0h-1.41a.3.3,0,1,1,0-.6h1.41a.3.3,0,1,1,0,.6Zm-2.81,0h-1.41a.3.3,0,1,1,0-.6h1.41a.3.3,0,1,1,0,.6Zm-2.81,0H112.5a.3.3,0,1,1,0-.6h1.41a.3.3,0,1,1,0,.6Zm-2.81,0h-1.41a.3.3,0,1,1,0-.6h1.41a.3.3,0,1,1,0,.6Zm-2.81,0h-1.41a.3.3,0,1,1,0-.6h1.41a.3.3,0,1,1,0,.6Zm-2.81,0h-1.41a.3.3,0,1,1,0-.6h1.41a.3.3,0,1,1,0,.6Zm-2.81,0h-1.41a.3.3,0,1,1,0-.6h1.41a.3.3,0,0,1,0,.6Zm-2.81,0H98.43a.3.3,0,0,1,0-.6h1.41a.3.3,0,0,1,0,.6Zm-2.81,0H95.62a.3.3,0,0,1,0-.6H97a.3.3,0,0,1,0,.6Zm-2.81,0H92.81a.3.3,0,0,1,0-.6h1.41a.3.3,0,0,1,0,.6Zm-2.81,0H90a.3.3,0,0,1,0-.6H91.4a.3.3,0,0,1,0,.6Zm-2.81,0H87.18a.3.3,0,0,1,0-.6h1.41a.3.3,0,0,1,0,.6Zm-2.81,0H84.36a.3.3,0,0,1,0-.6h1.41a.3.3,0,0,1,0,.6Zm-2.81,0H81.55a.3.3,0,0,1,0-.6H83a.3.3,0,0,1,0,.6Zm-2.81,0H78.74a.3.3,0,0,1,0-.6h1.41a.3.3,0,0,1,0,.6Zm-2.81,0H75.92a.3.3,0,0,1,0-.6h1.41a.3.3,0,0,1,0,.6Zm-2.81,0H73.11a.3.3,0,0,1,0-.6h1.41a.3.3,0,0,1,0,.6Zm-2.81,0H70.3a.3.3,0,0,1,0-.6H71.7a.3.3,0,0,1,0,.6Zm-2.81,0H68.5a1.78,1.78,0,0,1-1.13-.41.3.3,0,0,1,.38-.46,1.18,1.18,0,0,0,.75.27h.39a.3.3,0,0,1,0,.6ZM67,111.51a.3.3,0,0,1-.3-.3v-1.41a.3.3,0,0,1,.3-.3h0a.3.3,0,0,1,.3.3v1.41a.3.3,0,0,1-.3.3Zm0-2.81a.3.3,0,0,1-.3-.3V107a.3.3,0,1,1,.6,0v1.41a.3.3,0,0,1-.3.3Zm0-2.81a.3.3,0,0,1-.3-.3v-1.41a.3.3,0,0,1,.3-.3h0a.3.3,0,0,1,.3.3v1.41a.3.3,0,0,1-.3.3Zm0-2.81a.3.3,0,0,1-.3-.3v-1.41a.3.3,0,0,1,.3-.3h0a.3.3,0,0,1,.3.3v1.41a.3.3,0,0,1-.3.3Zm0-2.82a.3.3,0,0,1-.3-.3V98.55a.3.3,0,0,1,.3-.3h0a.3.3,0,0,1,.3.3V100a.3.3,0,0,1-.3.3Zm0-2.82a.3.3,0,0,1-.3-.3V95.73a.3.3,0,0,1,.3-.3h0a.3.3,0,0,1,.3.3v1.41a.3.3,0,0,1-.3.3Zm0-2.82a.3.3,0,0,1-.3-.3V92.91a.3.3,0,0,1,.3-.3h0a.3.3,0,0,1,.3.3v1.41a.3.3,0,0,1-.3.3Zm0-2.82a.3.3,0,0,1-.3-.3V90.1a.3.3,0,0,1,.3-.3h0a.3.3,0,0,1,.3.3V91.5a.3.3,0,0,1-.3.3ZM67,89a.3.3,0,0,1-.3-.3V87.58a2.15,2.15,0,0,0,0-.26.3.3,0,0,1,.59-.07,2.72,2.72,0,0,1,0,.34v1.11a.3.3,0,0,1-.3.3Zm-.57-2.68a.3.3,0,0,1-.23-.11,2.15,2.15,0,0,0-1-.67.3.3,0,0,1,.18-.57,2.75,2.75,0,0,1,1.3.86.3.3,0,0,1-.23.49Zm-2.55-.88H62.42a.3.3,0,0,1,0-.6h1.41a.3.3,0,0,1,0,.6Zm-2.81,0H59.61a.3.3,0,0,1,0-.6H61a.3.3,0,0,1,0,.6Z"/><path class="cls-11" d="M58.45,85a.3.3,0,0,1-.3-.3v-.17a.3.3,0,1,1,.6,0v.17A.3.3,0,0,1,58.45,85Zm0-1.58a.3.3,0,0,1-.3-.3V81.75a.3.3,0,1,1,.6,0v1.41A.3.3,0,0,1,58.45,83.46Zm0-2.81a.3.3,0,0,1-.3-.3V78.94a.3.3,0,1,1,.6,0v1.41A.3.3,0,0,1,58.45,80.65Zm.16-2.79-.1,0a.3.3,0,0,1-.18-.38,3.11,3.11,0,0,1,.87-1.27.3.3,0,1,1,.4.45,2.5,2.5,0,0,0-.7,1A.3.3,0,0,1,58.61,77.85Zm2-1.78a.3.3,0,0,1-.06-.59,3.1,3.1,0,0,1,.67-.07H62a.3.3,0,1,1,0,.6h-.8a2.5,2.5,0,0,0-.54.06ZM78.92,76H77.51a.3.3,0,0,1,0-.6h1.41a.3.3,0,1,1,0,.6ZM76.1,76H74.69a.3.3,0,0,1,0-.6H76.1a.3.3,0,0,1,0,.6Zm-2.81,0H71.88a.3.3,0,0,1,0-.6h1.41a.3.3,0,0,1,0,.6Zm-2.81,0H69.07a.3.3,0,0,1,0-.6h1.41a.3.3,0,0,1,0,.6Zm-2.81,0H66.25a.3.3,0,0,1,0-.6h1.41a.3.3,0,0,1,0,.6Zm-2.81,0H63.44a.3.3,0,0,1,0-.6h1.41a.3.3,0,0,1,0,.6Z"/><circle class="cls-10" cx="58.38" cy="85.04" r="3.59"/><path class="cls-4" d="M58.38,89a4,4,0,1,1,4-4A4,4,0,0,1,58.38,89Zm0-7.19A3.23,3.23,0,1,0,61.61,85,3.24,3.24,0,0,0,58.38,81.81Z"/><path class="cls-1" d="M77.29,104.76c-2.71,0-5.34-1-5.34-3.68V99.27h.12A7.44,7.44,0,0,0,77.21,101c2.06,0,2.76-.7,2.76-1.57,0-1.34-.57-1.86-3.11-2-1.27-.07-2.06-.62-2.06-1.79v-1l2.36-.2c2.58-.22,2.71-.94,2.71-1.84s-.72-1.86-3.18-1.86a6.41,6.41,0,0,0-4.55,1.74H72V90.45c0-1.76,1.84-3.63,6-3.63,3.4,0,6.34,1.89,6.34,5.07a4.17,4.17,0,0,1-2.53,3.83,3.8,3.8,0,0,1,2.63,3.43C84.44,102.8,81.81,104.76,77.29,104.76Z"/><path class="cls-4" d="M77.29,105.12c-3.57,0-5.7-1.51-5.7-4V99.27a.36.36,0,0,1,.36-.36h.12a.36.36,0,0,1,.26.11,7.09,7.09,0,0,0,4.89,1.58c1.59,0,2.4-.41,2.4-1.21,0-1-.13-1.5-2.77-1.68-1.54-.09-2.4-.85-2.4-2.15v-1a.36.36,0,0,1,.33-.36l2.36-.2c2.38-.21,2.38-.77,2.38-1.48,0-.37,0-1.5-2.82-1.5a6.06,6.06,0,0,0-4.29,1.63.36.36,0,0,1-.25.11H72a.36.36,0,0,1-.36-.36V90.45c0-2,2-4,6.35-4,3.88,0,6.7,2.28,6.7,5.43a4.43,4.43,0,0,1-2.08,3.78,4.12,4.12,0,0,1,2.18,3.48C84.8,102.94,82.06,105.12,77.29,105.12Zm-5-5.17v1.14c0,3.08,3.81,3.32,5,3.32,4.38,0,6.8-1.87,6.8-5.26a3.44,3.44,0,0,0-2.37-3.08.36.36,0,0,1-.06-.67A3.83,3.83,0,0,0,84,91.89c0-3.24-3.1-4.71-6-4.71-3.87,0-5.63,1.69-5.63,3.27v1.22a7,7,0,0,1,4.31-1.41c2.93,0,3.54,1.21,3.54,2.22,0,1.25-.48,2-3,2.2l-2,.17v.71c0,.33,0,1.33,1.72,1.43,2.61.18,3.44.76,3.44,2.4,0,.72-.41,1.92-3.12,1.92A8.49,8.49,0,0,1,72.31,100Z"/><path class="cls-1" d="M93.49,104.76c-3.48,0-6.86-2.83-6.86-8.67,0-6.49,2.73-9.27,7.16-9.27,3.88,0,6.78,2.34,6.78,8.62C100.57,101.26,98.73,104.76,93.49,104.76Zm.12-3.93c1.57,0,2.24-.92,2.24-5.14,0-3.88-.77-4.92-2.24-4.92s-2.26.89-2.26,4.92S92.32,100.84,93.61,100.84Z"/><path class="cls-4" d="M93.49,105.12c-3.48,0-7.22-2.83-7.22-9,0-8,4.09-9.63,7.52-9.63,2.67,0,7.14,1.17,7.14,9C100.93,102,98.57,105.12,93.49,105.12Zm.3-17.94c-4.51,0-6.8,3-6.8,8.91,0,5.74,3.26,8.31,6.5,8.31,4.65,0,6.72-2.76,6.72-9C100.21,90,98,87.18,93.79,87.18Zm-.17,14c-2.35,0-2.62-3.14-2.62-5.5,0-3.75.76-5.28,2.62-5.28s2.6,1.48,2.6,5.28C96.21,99.86,95.58,101.2,93.61,101.2Zm0-10.06c-.92,0-1.9.35-1.9,4.56s1.08,4.78,1.9,4.78c1.1,0,1.88-.34,1.88-4.78C95.49,91.49,94.56,91.13,93.61,91.13Z"/><path class="cls-1" d="M112.72,99.12h-2.11v4.94h-1.71a2.24,2.24,0,0,1-2.16-2.39V99.12H102V97.28a2,2,0,0,1,2.14-1.89h2.61V90.87h1.91a2,2,0,0,1,2,2.06V95.4h4.65v1.66A2.26,2.26,0,0,1,112.72,99.12Z"/><path class="cls-4" d="M110.61,104.43h-1.71a2.61,2.61,0,0,1-2.52-2.74v-2.2H102a.36.36,0,0,1-.36-.36V97.28a2.39,2.39,0,0,1,2.5-2.25h2.25V90.87a.36.36,0,0,1,.36-.36h1.91A2.38,2.38,0,0,1,111,92.94V95h4.29a.36.36,0,0,1,.36.36v1.66a2.63,2.63,0,0,1-2.89,2.42H111v4.58A.36.36,0,0,1,110.61,104.43Zm-8.26-5.66h4.39a.36.36,0,0,1,.36.36v2.56a1.88,1.88,0,0,0,1.8,2h1.35V99.12a.36.36,0,0,1,.36-.36h2.11c1.26,0,2.17-.72,2.17-1.7v-1.3h-4.29a.36.36,0,0,1-.36-.36V92.94a1.66,1.66,0,0,0-1.6-1.7h-1.55V95.4a.36.36,0,0,1-.36.36h-2.61a1.66,1.66,0,0,0-1.78,1.53Z"/></svg>