<svg id="Слой_1" data-name="Слой 1" xmlns="http://www.w3.org/2000/svg" viewBox="0 0 185 185"><defs><style>.cls-1{fill:#fff;}.cls-2{fill:#dfebf7;}.cls-3{fill:#e4f3f7;}.cls-4{fill:#1a3946;}.cls-5{fill:#193847;}.cls-6{fill:#fefffe;}.cls-7{fill:#e5f3f6;}.cls-8{fill:#c6e6f0;}.cls-9{fill:#0094a8;}.cls-10{fill:#28b8d4;}.cls-11{fill:#df132b;}</style></defs><title>Монтажная область 4</title><path class="cls-1" d="M92.5,183.5a91,91,0,1,1,91-91A91.1,91.1,0,0,1,92.5,183.5Z"/><path class="cls-2" d="M92.5,3A89.5,89.5,0,1,1,3,92.5,89.6,89.6,0,0,1,92.5,3m0-3A92.5,92.5,0,1,0,185,92.5,92.5,92.5,0,0,0,92.5,0Z"/><path class="cls-3" d="M141.25,107.39v-.87a5.58,5.58,0,0,0-5.58-5.58H122.84a5.58,5.58,0,0,1-5.58-5.58V94.5a5.58,5.58,0,0,1,5.58-5.58H144a5.58,5.58,0,0,0,5.58-5.58v-.87A5.58,5.58,0,0,0,144,76.89H118.43a5.58,5.58,0,0,1-5.58-5.58v-.87a5.58,5.58,0,0,1,5.58-5.58h1A5.58,5.58,0,0,0,125,59.27v-.87a5.58,5.58,0,0,1,5.58-5.58h6.27a5.58,5.58,0,0,0,5.58-5.58v-.87a5.58,5.58,0,0,0-5.58-5.58h-31.6a5.58,5.58,0,0,0-5.58,5.58v.87a5.58,5.58,0,0,1-5.58,5.58H86.57A5.58,5.58,0,0,1,81,47.24v-.87a5.58,5.58,0,0,0-5.58-5.58H67.06a5.58,5.58,0,0,0-5.58,5.58v.87a5.58,5.58,0,0,0,5.58,5.58H70a5.58,5.58,0,0,1,5.58,5.58v.87a5.58,5.58,0,0,0,5.58,5.58h-.54a5.58,5.58,0,0,1,5.58,5.58v.87a5.58,5.58,0,0,1-5.58,5.58H62.72a5.58,5.58,0,0,0-5.58,5.58v.87a5.58,5.58,0,0,0,5.58,5.58H63a5.58,5.58,0,0,1,5.58,5.58v.87A5.58,5.58,0,0,1,63,100.95H34.11a5.58,5.58,0,0,0-5.58,5.58v.87A5.58,5.58,0,0,0,34.11,113h3a5.58,5.58,0,0,1,5.58,5.58v.87A5.58,5.58,0,0,0,48.31,125H57a5.58,5.58,0,0,1,5.58,5.58v.87A5.58,5.58,0,0,0,68.14,137h30a5.58,5.58,0,0,0,5.58-5.58v-.87a5.58,5.58,0,0,1,5.58-5.58h0a5.58,5.58,0,0,0,5.58-5.58v-.87a5.58,5.58,0,0,1,5.58-5.58h2.38a5.58,5.58,0,0,1,5.58,5.58v.87A5.58,5.58,0,0,0,134,125h14.85a5.58,5.58,0,0,0,5.58-5.58v-.87a5.58,5.58,0,0,0-5.58-5.58h-2.06A5.58,5.58,0,0,1,141.25,107.39Z"/><circle class="cls-3" cx="68.62" cy="58.98" r="3.65"/><circle class="cls-3" cx="54.25" cy="94.8" r="2.2"/><circle class="cls-3" cx="138.44" cy="62.63" r="3.76"/><circle class="cls-3" cx="47.29" cy="138.22" r="3.52"/><circle class="cls-3" cx="46.22" cy="47.25" r="5.83"/><path class="cls-4" d="M92.73,142.43A49.93,49.93,0,1,1,142.67,92.5,50,50,0,0,1,92.73,142.43Zm0-99a49,49,0,1,0,49,49A49.07,49.07,0,0,0,92.73,43.48Z"/><path class="cls-5" d="M93.67,134.55a.38.38,0,0,1,0-.76h.5a.39.39,0,0,1,.39.37.38.38,0,0,1-.37.39h-.52Zm-2.54,0h0l-.51,0a.38.38,0,0,1-.36-.4.38.38,0,0,1,.4-.36l.5,0a.38.38,0,0,1,0,.76Zm5.58-.16a.38.38,0,0,1,0-.76l.5-.05a.38.38,0,0,1,.08.76l-.51.05Zm-8.62-.07h0l-.51-.06a.38.38,0,0,1,.09-.76l.5.06a.38.38,0,0,1,0,.76ZM99.73,134a.38.38,0,0,1-.06-.76l.5-.09a.38.38,0,1,1,.14.75l-.51.09Zm-14.66-.12H85l-.51-.1a.38.38,0,0,1,.15-.75l.49.09a.38.38,0,0,1-.07.76Zm17.65-.5a.38.38,0,0,1-.09-.75l.49-.12a.38.38,0,1,1,.19.74l-.5.12Zm-20.62-.17H82l-.5-.13a.38.38,0,0,1,.2-.73l.49.13a.38.38,0,0,1-.1.75Zm23.55-.67a.38.38,0,0,1-.12-.74l.48-.16a.38.38,0,0,1,.25.72l-.49.16Zm-26.47-.21-.12,0-.49-.17a.38.38,0,1,1,.26-.72l.48.17a.38.38,0,0,1-.12.74Zm29.33-.84a.38.38,0,0,1-.14-.73l.46-.19a.38.38,0,0,1,.3.7l-.47.2A.38.38,0,0,1,108.51,131.47Zm-32.18-.26a.38.38,0,0,1-.15,0L75.7,131a.38.38,0,0,1,.31-.7l.46.2a.38.38,0,0,1-.15.73Zm35-1a.38.38,0,0,1-.17-.72l.45-.23a.38.38,0,0,1,.35.68l-.45.23A.38.38,0,0,1,111.28,130.22Zm-37.72-.31a.38.38,0,0,1-.18,0l-.45-.24a.38.38,0,1,1,.36-.67l.45.24a.38.38,0,0,1-.18.72ZM114,128.76a.38.38,0,0,1-.2-.71l.43-.26a.38.38,0,1,1,.4.65l-.44.26A.38.38,0,0,1,114,128.76Zm-43-.36a.38.38,0,0,1-.2-.06l-.44-.27a.38.38,0,1,1,.41-.64l.43.27a.38.38,0,0,1-.2.71Zm45.61-1.28a.38.38,0,0,1-.22-.69l.41-.29a.38.38,0,1,1,.44.62l-.42.3A.38.38,0,0,1,116.52,127.12Zm-48.14-.41a.38.38,0,0,1-.22-.07l-.41-.3a.38.38,0,1,1,.45-.61l.41.3a.38.38,0,0,1-.22.69ZM119,125.28a.38.38,0,0,1-.24-.68l.39-.32a.38.38,0,1,1,.49.59l-.4.33A.38.38,0,0,1,119,125.28Zm-53-.45a.38.38,0,0,1-.24-.09l-.39-.33a.38.38,0,0,1,.5-.58l.38.33a.38.38,0,0,1-.24.67Zm55.28-1.55a.38.38,0,0,1-.26-.66l.37-.35a.38.38,0,0,1,.53.55l-.37.35A.38.38,0,0,1,121.25,123.28Zm-57.55-.49a.38.38,0,0,1-.27-.11l-.37-.36a.38.38,0,0,1,.54-.54l.36.35a.38.38,0,0,1-.27.65Zm59.69-1.67a.38.38,0,0,1-.28-.64l.34-.37a.38.38,0,1,1,.57.51l-.35.38A.38.38,0,0,1,123.39,121.12Zm-61.8-.53a.38.38,0,0,1-.28-.13l-.34-.38a.38.38,0,0,1,.57-.5l.33.38a.38.38,0,0,1-.28.63Zm63.78-1.79a.38.38,0,0,1-.3-.62l.31-.4a.38.38,0,1,1,.6.47l-.32.4A.38.38,0,0,1,125.38,118.8Zm-65.73-.56a.38.38,0,0,1-.3-.15l-.31-.41a.38.38,0,0,1,.61-.46l.3.4a.38.38,0,0,1-.3.61Zm67.54-1.9a.38.38,0,0,1-.31-.6l.28-.42a.38.38,0,0,1,.64.42l-.29.43A.38.38,0,0,1,127.19,116.34Zm-69.3-.59a.38.38,0,0,1-.32-.17l-.28-.43a.38.38,0,1,1,.64-.41l.27.42a.38.38,0,0,1-.32.59Zm70.93-2a.38.38,0,0,1-.33-.57l.25-.44a.38.38,0,0,1,.66.37l-.25.45A.38.38,0,0,1,128.81,113.76Zm-72.51-.61A.38.38,0,0,1,56,113l-.25-.45a.38.38,0,0,1,.67-.36l.24.44a.38.38,0,0,1-.33.57Zm73.94-2.09a.38.38,0,0,1-.34-.55l.22-.46a.38.38,0,0,1,.69.32l-.22.46A.38.38,0,0,1,130.25,111.07Zm-75.33-.63a.38.38,0,0,1-.35-.22l-.21-.46a.38.38,0,0,1,.7-.31l.21.46a.38.38,0,0,1-.35.54Zm76.56-2.17-.14,0a.38.38,0,0,1-.21-.49l.18-.47a.38.38,0,1,1,.71.27l-.19.48A.38.38,0,0,1,131.48,108.27Zm-77.74-.63a.38.38,0,0,1-.36-.25l-.18-.48a.38.38,0,1,1,.72-.26l.18.47a.38.38,0,0,1-.22.49Zm78.76-2.24-.11,0a.38.38,0,0,1-.25-.48l.15-.48a.38.38,0,0,1,.73.22l-.15.49A.38.38,0,0,1,132.5,105.39Zm-79.74-.64a.38.38,0,0,1-.37-.27l-.14-.49a.38.38,0,1,1,.73-.21l.14.48a.38.38,0,0,1-.26.47Zm80.55-2.3h-.09a.38.38,0,0,1-.28-.46l.11-.49a.38.38,0,1,1,.74.17l-.11.5A.38.38,0,0,1,133.31,102.45ZM52,101.8a.38.38,0,0,1-.37-.3l-.11-.5a.38.38,0,0,1,.75-.15l.1.49a.38.38,0,0,1-.29.45Zm81.89-2.34h-.06a.38.38,0,0,1-.32-.44l.08-.5a.39.39,0,0,1,.43-.32.38.38,0,0,1,.32.43q0,.25-.08.51A.38.38,0,0,1,133.9,99.46ZM51.47,98.8a.38.38,0,0,1-.38-.33L51,98a.38.38,0,1,1,.76-.1l.07.5a.38.38,0,0,1-.32.43Zm82.8-2.36h0a.38.38,0,0,1-.35-.41l0-.5a.39.39,0,0,1,.41-.35.38.38,0,0,1,.35.41l0,.51A.38.38,0,0,1,134.27,96.43Zm-83.12-.67a.38.38,0,0,1-.38-.36q0-.26,0-.51a.38.38,0,0,1,.36-.4.38.38,0,0,1,.4.36c0,.17,0,.34,0,.5a.38.38,0,0,1-.35.41Zm83.26-2.38h0A.38.38,0,0,1,134,93q0-.25,0-.5a.38.38,0,1,1,.76,0q0,.26,0,.51A.38.38,0,0,1,134.41,93.39Zm-83.36-.67h0a.38.38,0,0,1-.38-.38q0-.26,0-.51a.38.38,0,0,1,.38-.38h0a.38.38,0,0,1,.38.39c0,.17,0,.34,0,.5A.38.38,0,0,1,51.05,92.72Zm83.3-2a.38.38,0,0,1-.38-.36c0-.17,0-.34,0-.5a.38.38,0,0,1,.36-.41.38.38,0,0,1,.41.36c0,.17,0,.34,0,.51a.38.38,0,0,1-.36.4Zm-83.18-1h0a.38.38,0,0,1-.35-.41c0-.17,0-.34,0-.51a.38.38,0,0,1,.76.07c0,.17,0,.33,0,.5A.38.38,0,0,1,51.17,89.67Zm82.91-2a.38.38,0,0,1-.38-.33q0-.25-.07-.5a.38.38,0,1,1,.76-.11c0,.17,0,.34.07.51a.38.38,0,0,1-.33.42Zm-82.57-1h-.06a.38.38,0,0,1-.32-.43l.08-.51a.38.38,0,0,1,.75.12l-.08.5A.38.38,0,0,1,51.52,86.64Zm82.08-2a.38.38,0,0,1-.37-.31l-.1-.49a.38.38,0,1,1,.75-.16l.1.5a.38.38,0,0,1-.3.45Zm-81.52-1H52a.38.38,0,0,1-.29-.46l.12-.5a.38.38,0,0,1,.74.18l-.11.49A.38.38,0,0,1,52.08,83.65Zm80.81-2a.38.38,0,0,1-.37-.28l-.14-.48a.38.38,0,0,1,.73-.21l.14.49a.38.38,0,0,1-.27.47Zm-80-1-.11,0a.38.38,0,0,1-.25-.48l.15-.49a.38.38,0,0,1,.73.23l-.15.48A.38.38,0,0,1,52.86,80.7ZM132,78.75a.38.38,0,0,1-.36-.25l-.17-.47a.38.38,0,1,1,.71-.27l.18.48a.38.38,0,0,1-.23.49Zm-78.1-.94-.14,0a.38.38,0,0,1-.22-.49l.19-.48a.38.38,0,1,1,.71.28l-.19.47A.38.38,0,0,1,53.86,77.81Zm77-1.88a.38.38,0,0,1-.35-.23l-.21-.46a.38.38,0,0,1,.69-.32l.21.46a.38.38,0,0,1-.35.54ZM55.07,75a.38.38,0,0,1-.34-.55l.22-.46a.38.38,0,1,1,.69.33l-.22.46A.38.38,0,0,1,55.07,75Zm74.42-1.81a.38.38,0,0,1-.34-.2l-.24-.44a.38.38,0,1,1,.67-.37l.24.45a.38.38,0,0,1-.15.52A.38.38,0,0,1,129.48,73.2Zm-73-.9a.38.38,0,0,1-.19-.05.38.38,0,0,1-.14-.52l.26-.45a.38.38,0,0,1,.66.39l-.25.44A.38.38,0,0,1,56.48,72.3Zm71.47-1.73a.38.38,0,0,1-.32-.18l-.27-.42a.38.38,0,1,1,.64-.42l.28.43a.38.38,0,0,1-.32.59ZM58.08,69.7a.38.38,0,0,1-.32-.59l.29-.42a.38.38,0,1,1,.63.43l-.28.42A.38.38,0,0,1,58.08,69.7Zm68.14-1.65a.38.38,0,0,1-.31-.15l-.3-.4a.38.38,0,0,1,.61-.46l.31.41a.38.38,0,0,1-.31.61Zm-66.35-.83a.38.38,0,0,1-.3-.62l.32-.4a.38.38,0,0,1,.59.48l-.31.39A.38.38,0,0,1,59.87,67.23Zm64.44-1.55a.38.38,0,0,1-.29-.13l-.33-.38a.38.38,0,0,1,.57-.5l.34.39a.38.38,0,0,1-.29.63ZM61.84,64.9a.38.38,0,0,1-.28-.64l.35-.38a.38.38,0,0,1,.56.52l-.34.37A.38.38,0,0,1,61.84,64.9Zm60.4-1.46a.38.38,0,0,1-.27-.11l-.36-.35a.38.38,0,1,1,.53-.55l.36.36a.38.38,0,0,1-.27.65ZM64,62.72a.38.38,0,0,1-.26-.66l.37-.35a.38.38,0,1,1,.52.56l-.37.35A.38.38,0,0,1,64,62.72Zm56-1.35a.38.38,0,0,1-.25-.09l-.38-.33a.38.38,0,0,1,.49-.58l.39.33a.38.38,0,0,1-.25.67Zm-53.76-.67A.38.38,0,0,1,66,60l.4-.32a.38.38,0,1,1,.48.59l-.39.32A.38.38,0,0,1,66.25,60.69Zm51.39-1.24a.38.38,0,0,1-.23-.08l-.41-.3a.38.38,0,1,1,.45-.62l.41.3a.38.38,0,0,1-.23.69Zm-49-.61a.38.38,0,0,1-.22-.69l.42-.29a.38.38,0,0,1,.43.63l-.41.29A.38.38,0,0,1,68.67,58.84Zm46.46-1.12a.38.38,0,0,1-.2-.06l-.43-.27a.38.38,0,0,1,.4-.65l.43.27a.38.38,0,0,1-.21.7Zm-43.91-.54a.38.38,0,0,1-.2-.71l.44-.26a.38.38,0,1,1,.39.66l-.43.26A.38.38,0,0,1,71.22,57.18Zm41.28-1a.38.38,0,0,1-.18,0l-.45-.24a.38.38,0,1,1,.35-.68l.45.24a.38.38,0,0,1-.18.72ZM73.88,55.7a.38.38,0,0,1-.17-.72l.46-.23a.38.38,0,1,1,.34.68l-.45.22A.38.38,0,0,1,73.88,55.7Zm35.88-.87a.38.38,0,0,1-.16,0l-.46-.2a.38.38,0,1,1,.3-.7l.47.21a.38.38,0,0,1-.16.73Zm-33.12-.4a.38.38,0,0,1-.15-.73l.47-.19a.38.38,0,1,1,.28.71l-.46.19A.38.38,0,0,1,76.64,54.42Zm30.28-.74-.13,0-.48-.17a.38.38,0,1,1,.25-.72l.49.17a.38.38,0,0,1-.13.74Zm-27.43-.33a.38.38,0,0,1-.12-.74l.49-.16a.38.38,0,0,1,.23.73l-.48.16Zm24.53-.6h-.1l-.49-.13a.38.38,0,1,1,.2-.74l.5.14a.38.38,0,0,1-.1.75Zm-21.6-.26a.38.38,0,0,1-.09-.75l.5-.12a.38.38,0,0,1,.18.74l-.49.12ZM101.06,52H101l-.49-.1a.38.38,0,0,1-.3-.45.38.38,0,0,1,.45-.3l.5.1a.38.38,0,0,1-.08.75ZM85.4,51.84a.38.38,0,0,1-.07-.76l.5-.09a.38.38,0,1,1,.13.75l-.5.09ZM98,51.54h0l-.5-.06a.38.38,0,1,1,.09-.76l.51.06a.38.38,0,0,1,0,.76Zm-9.63-.12a.38.38,0,0,1,0-.76l.51,0a.38.38,0,0,1,.07.76l-.5,0Zm6.6-.16h0l-.5,0a.38.38,0,0,1,0-.76l.51,0a.38.38,0,0,1,0,.76Zm-3.56,0a.38.38,0,0,1,0-.76H92a.38.38,0,0,1,0,.76h-.51Z"/><path class="cls-6" d="M111.23,92.5c0,27.32-18.5,49.48-18.5,49.48s-18.5-22.15-18.5-49.48S92.73,43,92.73,43,111.23,65.18,111.23,92.5Z"/><path class="cls-4" d="M92.73,142.43a.46.46,0,0,1-.35-.16C92.2,142,73.78,119.68,73.78,92.5S92.2,43,92.38,42.73a.47.47,0,0,1,.7,0c.19.22,18.61,22.59,18.61,49.77S93.27,142,93.08,142.27A.46.46,0,0,1,92.73,142.43Zm0-98.68c-2.55,3.24-18,24-18,48.74s15.49,45.5,18,48.74c2.55-3.24,18-24,18-48.74S95.28,47,92.73,43.76Z"/><path class="cls-7" d="M92.73,74c27.32,0,49.48,18.5,49.48,18.5S120.06,111,92.73,111,43.26,92.5,43.26,92.5,65.41,74,92.73,74Z"/><path class="cls-4" d="M92.73,111.46C65.56,111.46,43.19,93,43,92.85a.46.46,0,0,1,0-.7c.22-.19,22.59-18.61,49.77-18.61S142.28,92,142.5,92.15a.46.46,0,0,1,0,.7C142.28,93,119.91,111.46,92.73,111.46ZM44,92.5c3.24,2.55,24,18,48.74,18s45.5-15.49,48.74-18c-3.24-2.55-24-18-48.74-18S47.23,90,44,92.5Z"/><path class="cls-8" d="M43.26,92.5h99S120.06,74,92.73,74,43.26,92.5,43.26,92.5Z"/><path class="cls-4" d="M92.73,111.46C65.56,111.46,43.19,93,43,92.85a.46.46,0,0,1,0-.7c.22-.19,22.59-18.61,49.77-18.61S142.28,92,142.5,92.15a.46.46,0,0,1,0,.7C142.28,93,119.91,111.46,92.73,111.46ZM44,92.5c3.24,2.55,24,18,48.74,18s45.5-15.49,48.74-18c-3.24-2.55-24-18-48.74-18S47.23,90,44,92.5Z"/><circle class="cls-4" cx="92.73" cy="92.5" r="14.76"/><path class="cls-4" d="M92.73,107.72A15.22,15.22,0,1,1,108,92.5,15.24,15.24,0,0,1,92.73,107.72Zm0-29.53A14.31,14.31,0,1,0,107,92.5,14.32,14.32,0,0,0,92.73,78.19Z"/><path class="cls-9" d="M92.73,107.26A14.76,14.76,0,0,0,107.5,92.5H78A14.76,14.76,0,0,0,92.73,107.26Z"/><path class="cls-4" d="M92.73,107.72A15.24,15.24,0,0,1,77.51,92.5.46.46,0,0,1,78,92H107.5a.46.46,0,0,1,.46.46A15.24,15.24,0,0,1,92.73,107.72ZM78.44,93A14.31,14.31,0,0,0,107,93Z"/><circle class="cls-4" cx="92.73" cy="92.5" r="7.91"/><circle class="cls-6" cx="88.38" cy="88.15" r="3.12"/><circle class="cls-10" cx="43.26" cy="92.5" r="4.91"/><path class="cls-4" d="M43.26,97.87a5.37,5.37,0,1,1,5.37-5.37A5.38,5.38,0,0,1,43.26,97.87Zm0-9.83a4.46,4.46,0,1,0,4.46,4.46A4.46,4.46,0,0,0,43.26,88Z"/><circle class="cls-10" cx="142.21" cy="92.5" r="4.91"/><path class="cls-4" d="M142.21,97.87a5.37,5.37,0,1,1,5.37-5.37A5.38,5.38,0,0,1,142.21,97.87Zm0-9.83a4.46,4.46,0,1,0,4.46,4.46A4.46,4.46,0,0,0,142.21,88Z"/><circle class="cls-10" cx="92.73" cy="141.98" r="4.91"/><path class="cls-4" d="M92.73,147.35A5.37,5.37,0,1,1,98.11,142,5.38,5.38,0,0,1,92.73,147.35Zm0-9.83A4.46,4.46,0,1,0,97.19,142,4.46,4.46,0,0,0,92.73,137.52Z"/><circle class="cls-10" cx="92.73" cy="43.02" r="4.91"/><path class="cls-4" d="M92.73,48.4A5.37,5.37,0,1,1,98.11,43,5.38,5.38,0,0,1,92.73,48.4Zm0-9.83A4.46,4.46,0,1,0,97.19,43,4.46,4.46,0,0,0,92.73,38.57Z"/><circle class="cls-11" cx="57.75" cy="127.48" r="7.63" transform="translate(-73.23 78.17) rotate(-45)"/><path class="cls-4" d="M57.75,135.56a8.08,8.08,0,1,1,5.72-13.79h0a8.08,8.08,0,0,1-5.72,13.79Zm0-15.25a7.17,7.17,0,1,0,5.07,2.1h0A7.12,7.12,0,0,0,57.75,120.32Z"/><circle class="cls-11" cx="127.72" cy="57.52" r="7.63" transform="translate(-3.26 107.16) rotate(-45)"/><path class="cls-4" d="M127.72,65.6a8.08,8.08,0,1,1,5.72-13.8h0a8.08,8.08,0,0,1-5.72,13.8Zm0-15.25a7.17,7.17,0,1,0,5.07,2.1h0A7.12,7.12,0,0,0,127.72,50.35Z"/><circle class="cls-11" cx="127.72" cy="127.48" r="7.63" transform="translate(-52.74 127.65) rotate(-45)"/><path class="cls-4" d="M127.72,135.56A8.08,8.08,0,0,1,122,121.77h0a8.08,8.08,0,1,1,5.72,13.79Zm0-15.25a7.12,7.12,0,0,0-5.07,2.1h0a7.17,7.17,0,1,0,5.07-2.1Z"/><circle class="cls-11" cx="57.75" cy="57.52" r="7.63" transform="translate(-23.76 57.68) rotate(-45)"/><path class="cls-4" d="M57.75,65.6A8.08,8.08,0,0,1,52,51.8h0a8.08,8.08,0,1,1,5.72,13.8Zm0-15.25a7.15,7.15,0,0,0-5.07,2.1h0a7.18,7.18,0,1,0,5.07-2.1Z"/></svg>