<svg id="Слой_1" data-name="Слой 1" xmlns="http://www.w3.org/2000/svg" viewBox="0 0 185 185"><defs><style>.cls-1{fill:#fff;}.cls-2{fill:#dfebf7;}.cls-3{fill:#e5f3f7;}.cls-4{fill:#1a3946;}.cls-5{fill:#0094a8;}.cls-6{fill:#e5f3f6;}.cls-7{fill:#28b8d4;}.cls-8{fill:#fefffe;}.cls-9{fill:#df132b;}.cls-10{fill:#e94b4d;}</style></defs><title>Монтажная область 3</title><path class="cls-1" d="M92.5,183.5a91,91,0,1,1,91-91A91.1,91.1,0,0,1,92.5,183.5Z"/><path class="cls-2" d="M92.5,3A89.5,89.5,0,1,1,3,92.5,89.6,89.6,0,0,1,92.5,3m0-3A92.5,92.5,0,1,0,185,92.5,92.5,92.5,0,0,0,92.5,0Z"/><path class="cls-3" d="M63.55,132.68H63a6.61,6.61,0,0,0-6.61,6.61v.09A6.61,6.61,0,0,0,63,146h62.52a6.61,6.61,0,0,0,6.61-6.61h0a6.61,6.61,0,0,0-6.61-6.61h-1.48a6.61,6.61,0,0,1-6.61-6.61v-.38a6.61,6.61,0,0,1,6.61-6.61h2.29a6.61,6.61,0,0,0,6.61-6.61h0a6.93,6.93,0,0,0-6.93-6.93h-1.94A6.61,6.61,0,0,1,117.48,99v-.23a6.61,6.61,0,0,1,6.61-6.61h10.15a6.61,6.61,0,0,0,6.61-6.61v-.38a6.61,6.61,0,0,0-6.61-6.61h-18a6.61,6.61,0,0,0-6.61,6.61v.32A6.61,6.61,0,0,1,103,92.1H84.36a6.61,6.61,0,0,1-6.61-6.61v-.32a6.61,6.61,0,0,0-6.61-6.61H56.41a6.61,6.61,0,0,0-6.61,6.61v.38a6.61,6.61,0,0,0,6.61,6.61h7.14a6.61,6.61,0,0,1,6.61,6.61V99a6.61,6.61,0,0,1-6.61,6.61h-18A6.61,6.61,0,0,0,39,112.23v.38a6.61,6.61,0,0,0,6.61,6.61h18a6.61,6.61,0,0,1,6.61,6.61v.23A6.61,6.61,0,0,1,63.55,132.68ZM94.2,119.22h9.63a6.73,6.73,0,0,1,6.73,6.73h0a6.73,6.73,0,0,1-6.73,6.73H94.2a6.61,6.61,0,0,1-6.61-6.61v-.23A6.61,6.61,0,0,1,94.2,119.22Z"/><circle class="cls-3" cx="42.76" cy="98.06" r="5.48"/><circle class="cls-3" cx="153.28" cy="85.2" r="5.48"/><circle class="cls-3" cx="126.26" cy="86.6" r="2.92"/><circle class="cls-3" cx="134.64" cy="100.21" r="2.92"/><circle class="cls-3" cx="153.28" cy="112.27" r="4"/><circle class="cls-3" cx="133.33" cy="126.7" r="4"/><circle class="cls-3" cx="41.48" cy="142.08" r="2.73"/><circle class="cls-3" cx="50.97" cy="61.44" r="2.73"/><path class="cls-3" d="M142,58.7h0a6.78,6.78,0,0,0-6.78-6.78h-3.75a6.78,6.78,0,0,0-6.78,6.78v0a6.78,6.78,0,0,0,6.79,6.78l3.75,0A6.78,6.78,0,0,0,142,58.7Z"/><path class="cls-3" d="M115.66,58.7h0a6.78,6.78,0,0,0-6.78-6.78H79.47a6.78,6.78,0,0,0-6.78,6.78v0a6.78,6.78,0,0,0,6.79,6.78l29.42,0A6.78,6.78,0,0,0,115.66,58.7Z"/><path class="cls-4" d="M110.95,59.36l-.27-1-3.42.9-.09-.35-.31.08,1.23,4.67-.22,0,0,.56-1.75,1.34L102.8,64.3l-.52.11-.17-.57.6-.23-.5-1.81-.88-.62-1.23.54a1.94,1.94,0,0,0-.13.65,2.12,2.12,0,0,0,.5,1.39l-1-.17-.49.58.3,1.34L98,69.2l3,1.62,2.05,9.85,1.21-1.77-.92-7.08,2.86-.32.94,4.69,1-1.16-.41-4.83-3.61-.57-.51-2.85,2.34.05,2.47-1.8,1.93,7.36.31-.08-2-7.48.36-.26-.22-1-.46,0-.34-1.28,3.42-.9.27,1,1.73-.45-.81-3.08Z"/><polygon class="cls-5" points="63.16 96.34 34.22 146.47 92.1 146.47 63.16 96.34"/><path class="cls-4" d="M92.1,146.85H34.22a.39.39,0,0,1-.33-.58L62.83,96.15a.4.4,0,0,1,.67,0l28.94,50.12a.39.39,0,0,1-.33.58Zm-57.21-.77H91.43l-28.27-49Z"/><path class="cls-6" d="M50.82,127.41h.25a2.17,2.17,0,0,0,2.17-2.17v-1.35a2.17,2.17,0,0,1,2.17-2.17h.25a2.17,2.17,0,0,0,2.17-2.17v-.13a2.17,2.17,0,1,1,4.35,0v4.88a2.17,2.17,0,0,0,2.17,2.17h.25a2.17,2.17,0,0,0,2.17-2.17v-8.07A2.17,2.17,0,0,1,69,114h.22a2.17,2.17,0,0,1,2.17,2.17v.42a2.17,2.17,0,0,0,2.17,2.17h.25a2.17,2.17,0,0,0,1.79-.94L63.16,96.34,48.65,121.48v3.75A2.17,2.17,0,0,0,50.82,127.41Z"/><path class="cls-4" d="M51.07,127.79h-.25a2.56,2.56,0,0,1-2.56-2.56v-3.75a.38.38,0,0,1,.05-.19L62.83,96.15a.4.4,0,0,1,.67,0l12.43,21.53a.39.39,0,0,1,0,.41,2.56,2.56,0,0,1-2.1,1.11h-.25A2.56,2.56,0,0,1,71,116.64v-.42a1.79,1.79,0,0,0-1.79-1.79H69a1.79,1.79,0,0,0-1.79,1.79v8.07a2.56,2.56,0,0,1-2.56,2.56h-.25a2.56,2.56,0,0,1-2.56-2.56v-4.88a1.79,1.79,0,0,0-3.58,0v.13a2.56,2.56,0,0,1-2.56,2.56h-.25a1.79,1.79,0,0,0-1.79,1.79v1.35A2.56,2.56,0,0,1,51.07,127.79Zm-2-6.21v3.65A1.79,1.79,0,0,0,50.82,127h.25a1.79,1.79,0,0,0,1.79-1.79v-1.35a2.56,2.56,0,0,1,2.56-2.56h.25a1.79,1.79,0,0,0,1.79-1.79v-.13a2.56,2.56,0,1,1,5.12,0v4.88a1.79,1.79,0,0,0,1.79,1.79h.25a1.79,1.79,0,0,0,1.79-1.79v-8.07A2.56,2.56,0,0,1,69,113.66h.22a2.56,2.56,0,0,1,2.56,2.56v.42a1.79,1.79,0,0,0,1.79,1.79h.25a1.79,1.79,0,0,0,1.32-.59l-12-20.73Z"/><polygon class="cls-7" points="109.55 70.42 153.46 146.47 65.64 146.47 109.55 70.42"/><path class="cls-4" d="M153.45,146.85H65.64a.39.39,0,0,1-.33-.58l43.91-76.05a.4.4,0,0,1,.67,0l43.91,76.05a.39.39,0,0,1-.33.58Zm-87.15-.77h86.48L109.55,71.19Z"/><path class="cls-8" d="M128.27,117.55h-.38a3.3,3.3,0,0,1-3.3-3.3v-2a3.3,3.3,0,0,0-3.3-3.3h-.38a3.3,3.3,0,0,1-3.3-3.3v-.19a3.3,3.3,0,1,0-6.6,0v7.41a3.3,3.3,0,0,1-3.3,3.3h-.38a3.3,3.3,0,0,1-3.3-3.3V100.57a3.3,3.3,0,0,0-3.3-3.3h-.34a3.3,3.3,0,0,0-3.3,3.3v.64a3.3,3.3,0,0,1-3.3,3.3H93.4a3.29,3.29,0,0,1-2.71-1.43l18.86-32.67,22,38.14v5.69A3.3,3.3,0,0,1,128.27,117.55Z"/><path class="cls-4" d="M128.27,117.93h-.38a3.69,3.69,0,0,1-3.69-3.68v-2a2.92,2.92,0,0,0-2.91-2.91h-.38a3.69,3.69,0,0,1-3.68-3.69v-.19a2.91,2.91,0,1,0-5.83,0v7.41a3.69,3.69,0,0,1-3.69,3.68h-.38a3.69,3.69,0,0,1-3.69-3.68V100.57a2.92,2.92,0,0,0-2.91-2.91h-.34a2.92,2.92,0,0,0-2.91,2.91v.64a3.69,3.69,0,0,1-3.68,3.69H93.4a3.69,3.69,0,0,1-3-1.59.39.39,0,0,1,0-.41l18.86-32.67a.4.4,0,0,1,.67,0l22,38.14a.38.38,0,0,1,.05.19v5.69A3.69,3.69,0,0,1,128.27,117.93Zm-14-16.21a3.69,3.69,0,0,1,3.69,3.69v.19a2.92,2.92,0,0,0,2.91,2.91h.38A3.69,3.69,0,0,1,125,112.2v2a2.92,2.92,0,0,0,2.91,2.91h.38a2.92,2.92,0,0,0,2.91-2.91v-5.59L109.55,71.19l-18.4,31.87a2.91,2.91,0,0,0,2.25,1.07h.38a2.92,2.92,0,0,0,2.91-2.91v-.64a3.69,3.69,0,0,1,3.68-3.68h.34a3.69,3.69,0,0,1,3.68,3.68v12.24a2.92,2.92,0,0,0,2.91,2.91h.38a2.92,2.92,0,0,0,2.91-2.91v-7.41A3.69,3.69,0,0,1,114.3,101.72Z"/><g id="дно"><path class="cls-4" d="M157.64,146.85h-131a.39.39,0,0,1,0-.77h131a.39.39,0,1,1,0,.77Z"/><path class="cls-4" d="M118.23,152H53a.39.39,0,0,1,0-.77h65.18a.39.39,0,1,1,0,.77Z"/><path class="cls-4" d="M64.85,149.42H45.62a.39.39,0,0,1,0-.77H64.85a.39.39,0,0,1,0,.77Z"/><path class="cls-4" d="M137.46,149.42H79.78a.39.39,0,0,1,0-.77h57.68a.39.39,0,0,1,0,.77Z"/></g><circle class="cls-9" cx="61.13" cy="47.3" r="8.12"/><path class="cls-4" d="M61.13,39.18A8.12,8.12,0,1,1,53,47.3a8.12,8.12,0,0,1,8.12-8.12m0-.77A8.89,8.89,0,1,0,70,47.3a8.9,8.9,0,0,0-8.89-8.89Z"/><path class="cls-10" d="M53,47.3a8.08,8.08,0,0,0,1,3.92,8.12,8.12,0,0,0,11-11A8.12,8.12,0,0,0,53,47.3Z"/><path class="cls-4" d="M61.13,34.29a.39.39,0,0,1-.39-.39V25.4a.39.39,0,1,1,.77,0v8.5A.39.39,0,0,1,61.13,34.29Z"/><path class="cls-4" d="M61.13,69.58a.39.39,0,0,1-.39-.39V60.7a.39.39,0,1,1,.77,0v8.5A.39.39,0,0,1,61.13,69.58Z"/><path class="cls-4" d="M47.73,47.69h-8.5a.39.39,0,1,1,0-.77h8.5a.39.39,0,1,1,0,.77Z"/><path class="cls-4" d="M83,47.69h-8.5a.39.39,0,0,1,0-.77H83a.39.39,0,1,1,0,.77Z"/><path class="cls-4" d="M51.66,38.21a.38.38,0,0,1-.27-.11l-6-6a.38.38,0,0,1,.54-.54l6,6a.39.39,0,0,1-.27.66Z"/><path class="cls-4" d="M76.61,63.17a.38.38,0,0,1-.27-.11l-6-6a.38.38,0,0,1,.54-.54l6,6a.39.39,0,0,1-.27.66Z"/><path class="cls-4" d="M45.65,63.17a.39.39,0,0,1-.27-.66l6-6a.38.38,0,0,1,.54.54l-6,6A.38.38,0,0,1,45.65,63.17Z"/><path class="cls-4" d="M70.6,38.21a.39.39,0,0,1-.27-.66l6-6a.38.38,0,1,1,.54.54l-6,6A.38.38,0,0,1,70.6,38.21Z"/><path class="cls-4" d="M56.91,37.23a.39.39,0,0,1-.36-.24l-2.68-6.63a.39.39,0,0,1,.71-.29l2.68,6.63a.39.39,0,0,1-.21.5Z"/><path class="cls-4" d="M68,64.77a.39.39,0,0,1-.36-.24L65,57.9a.39.39,0,0,1,.71-.29l2.68,6.63a.38.38,0,0,1-.21.5Z"/><path class="cls-4" d="M44,54.59a.39.39,0,0,1-.14-.74l6.63-2.68a.39.39,0,1,1,.29.71l-6.63,2.68Z"/><path class="cls-4" d="M71.59,43.46a.39.39,0,0,1-.14-.74L78.07,40a.39.39,0,1,1,.29.71l-6.63,2.68Z"/><path class="cls-4" d="M50.75,43.28a.39.39,0,0,1-.15,0L44,40.45a.39.39,0,1,1,.3-.71l6.59,2.8a.39.39,0,0,1-.15.74Z"/><path class="cls-4" d="M78.09,54.89a.39.39,0,0,1-.15,0l-6.59-2.8a.39.39,0,1,1,.3-.71l6.59,2.8a.39.39,0,0,1-.15.74Z"/><path class="cls-4" d="M53.93,64.65a.39.39,0,0,1-.35-.54l2.8-6.59a.39.39,0,0,1,.71.3l-2.8,6.59A.39.39,0,0,1,53.93,64.65Z"/><path class="cls-4" d="M65.54,37.31a.39.39,0,0,1-.35-.54L68,30.19a.39.39,0,0,1,.71.3l-2.8,6.59A.39.39,0,0,1,65.54,37.31Z"/></svg>