<svg id="Слой_1" data-name="Слой 1" xmlns="http://www.w3.org/2000/svg" viewBox="0 0 185 185"><defs><style>.cls-1{fill:#fff;}.cls-2{fill:#dfebf7;}.cls-3{fill:#e5f3f6;}.cls-4{fill:#193847;}.cls-5{fill:#e94b4d;}.cls-6{fill:#df132b;}.cls-7{fill:#1a3946;}.cls-8{fill:#28b8d4;}.cls-9{fill:#0094a8;}.cls-10{fill:#e4f3f7;}.cls-11{fill:#dadada;}.cls-12{fill:#c5e6f0;}.cls-13{fill:#13110c;}.cls-14{fill:#f6a006;}</style></defs><title>Монтажная область 1</title><path class="cls-1" d="M92.5,183.5a91,91,0,1,1,91-91A91.1,91.1,0,0,1,92.5,183.5Z"/><path class="cls-2" d="M92.5,3A89.5,89.5,0,1,1,3,92.5,89.6,89.6,0,0,1,92.5,3m0-3A92.5,92.5,0,1,0,185,92.5,92.5,92.5,0,0,0,92.5,0Z"/><path class="cls-3" d="M65.66,57.74v1.15a6.88,6.88,0,0,1-6.88,6.88H42.34a6.88,6.88,0,0,0-6.88,6.88v1.3a6.88,6.88,0,0,0,6.88,6.88H58.78a6.88,6.88,0,0,1,6.88,6.88v1.13a6.88,6.88,0,0,1-6.88,6.88H47.63a6.88,6.88,0,0,0-6.88,6.88v1.12a6.88,6.88,0,0,1-6.88,6.88H32.19a6.88,6.88,0,0,0-6.88,6.88v1.3a6.88,6.88,0,0,0,6.88,6.88H48a6.88,6.88,0,0,1,6.88,6.88v1.25a6.88,6.88,0,0,0,6.88,6.88h58.09a6.88,6.88,0,0,0,6.88-6.88v-1.25a6.88,6.88,0,0,1,6.88-6.88h8.9a6.88,6.88,0,0,0,6.88-6.88v-1.3a6.88,6.88,0,0,0-6.88-6.88H130.63a6.88,6.88,0,0,1-6.88-6.88v-1.05a6.88,6.88,0,0,1,6.88-6.88h0a6.88,6.88,0,0,0,6.88-6.88V87.7a6.88,6.88,0,0,1,6.88-6.88h3.13a6.88,6.88,0,0,0,6.88-6.88v-1.3a6.88,6.88,0,0,0-6.88-6.88H113.13a6.88,6.88,0,0,1-6.88-6.88V57.74a6.88,6.88,0,0,0-6.88-6.88H72.53A6.88,6.88,0,0,0,65.66,57.74Zm30.2,59.9v1.07A6.88,6.88,0,0,1,89,125.58H84.16a6.88,6.88,0,0,1-6.88-6.88v-1.07a6.88,6.88,0,0,1,6.88-6.88H89A6.88,6.88,0,0,1,95.86,117.64Z"/><circle class="cls-3" cx="56.63" cy="57.1" r="4.45"/><circle class="cls-3" cx="126.44" cy="52.77" r="2.66"/><circle class="cls-3" cx="114.59" cy="35.63" r="2.63"/><circle class="cls-3" cx="151" cy="101.33" r="2.12"/><circle class="cls-3" cx="144.2" cy="149.41" r="3.07"/><circle class="cls-3" cx="41.87" cy="146.09" r="2.56"/><path class="cls-4" d="M132.19,147h-1.7a.38.38,0,0,1,0-.77h1.8a.38.38,0,0,1,0,.77Zm-3.5,0h-1.8a.38.38,0,1,1,0-.77h1.8a.38.38,0,0,1,0,.77Zm-3.6,0h-1.8a.38.38,0,1,1,0-.77h1.8a.38.38,0,1,1,0,.77Zm-3.6,0h-1.8a.38.38,0,1,1,0-.77h1.8a.38.38,0,0,1,0,.77Zm-3.6,0h-1.8a.38.38,0,1,1,0-.77h1.8a.38.38,0,0,1,0,.77Zm-3.6,0h-1.8a.38.38,0,0,1,0-.77h1.8a.38.38,0,1,1,0,.77Zm-3.6,0h-1.8a.38.38,0,1,1,0-.77h1.8a.38.38,0,1,1,0,.77Zm-3.59,0h-.17a.38.38,0,0,1-.38-.37h0a.38.38,0,0,1,.38-.37h.17a.38.38,0,1,1,0,.77Zm27-.1a.38.38,0,0,1,0-.77,16.94,16.94,0,0,0,1.74-.28.38.38,0,1,1,.16.75,17.73,17.73,0,0,1-1.82.3Zm3.51-.76a.38.38,0,0,1-.12-.75,16.92,16.92,0,0,0,1.64-.64.38.38,0,0,1,.32.7,17.61,17.61,0,0,1-1.71.67Zm3.28-1.48a.38.38,0,0,1-.19-.72,17.1,17.1,0,0,0,1.47-1,.38.38,0,1,1,.45.62,17.76,17.76,0,0,1-1.54,1A.38.38,0,0,1,140.88,144.71Zm2.9-2.13a.38.38,0,0,1-.26-.67,17,17,0,0,0,1.24-1.25.38.38,0,1,1,.57.51,17.7,17.7,0,0,1-1.3,1.31A.38.38,0,0,1,143.77,142.58Zm2.4-2.68a.38.38,0,0,1-.31-.61,17,17,0,0,0,1-1.48.38.38,0,0,1,.67.38,17.92,17.92,0,0,1-1,1.54A.38.38,0,0,1,146.17,139.9Zm1.79-3.12a.38.38,0,0,1-.35-.54,16.91,16.91,0,0,0,.63-1.64.38.38,0,1,1,.73.24,17.59,17.59,0,0,1-.66,1.72A.38.38,0,0,1,148,136.79Zm1.11-3.42H149a.38.38,0,0,1-.3-.45,16.76,16.76,0,0,0,.27-1.74.38.38,0,1,1,.76.08,17.61,17.61,0,0,1-.28,1.82A.38.38,0,0,1,149.07,133.37Zm.37-3.58a.38.38,0,0,1-.38-.38,17.24,17.24,0,0,0-.09-1.76.38.38,0,1,1,.76-.08,17.93,17.93,0,0,1,.1,1.84.38.38,0,0,1-.38.38Zm-.37-3.57a.38.38,0,0,1-.38-.3,16.64,16.64,0,0,0-.45-1.7A.38.38,0,0,1,149,124a17.6,17.6,0,0,1,.47,1.78.38.38,0,0,1-.3.45ZM148,122.8a.38.38,0,0,1-.35-.23,16.73,16.73,0,0,0-.8-1.57.38.38,0,0,1,.66-.38,17.52,17.52,0,0,1,.83,1.64.38.38,0,0,1-.35.54Zm-1.8-3.11a.38.38,0,0,1-.31-.16,16.92,16.92,0,0,0-1.11-1.37.38.38,0,0,1,.57-.51,18,18,0,0,1,1.16,1.43.38.38,0,0,1-.31.61Zm-2.4-2.68a.38.38,0,0,1-.26-.1,17,17,0,0,0-1.36-1.11.38.38,0,1,1,.45-.62,17.89,17.89,0,0,1,1.43,1.16.38.38,0,0,1-.26.67Zm-2.9-2.12a.38.38,0,0,1-.19-.05,16.85,16.85,0,0,0-1.56-.81.38.38,0,1,1,.31-.7,17.66,17.66,0,0,1,1.64.84.38.38,0,0,1-.19.72Zm-3.28-1.48-.12,0a16.91,16.91,0,0,0-1.7-.46.38.38,0,1,1,.16-.75,17.62,17.62,0,0,1,1.78.48.38.38,0,0,1-.12.75Zm-3.51-.76h0a17.12,17.12,0,0,0-1.76-.1.38.38,0,0,1,0-.77h0a17.89,17.89,0,0,1,1.84.1.38.38,0,0,1,0,.77Zm-3.6-.1h-1.8a.38.38,0,0,1,0-.77h1.8a.38.38,0,0,1,0,.77Zm-3.6,0h-1.8a.38.38,0,0,1,0-.77h1.8a.38.38,0,1,1,0,.77Zm-3.6,0h-1.8a.38.38,0,1,1,0-.77h1.8a.38.38,0,1,1,0,.77Zm-3.6,0h-1.8a.38.38,0,1,1,0-.77h1.8a.38.38,0,0,1,0,.77Zm-3.6,0h-1.8a.38.38,0,1,1,0-.77h1.8a.38.38,0,1,1,0,.77Zm-3.6,0h-1.8a.38.38,0,1,1,0-.77h1.8a.38.38,0,0,1,0,.77Zm-3.6,0h-1.8a.38.38,0,1,1,0-.77h1.8a.38.38,0,1,1,0,.77Zm-3.6,0h-1.8a.38.38,0,1,1,0-.77h1.8a.38.38,0,1,1,0,.77Zm-3.6,0h-1.8a.38.38,0,1,1,0-.77h1.8a.38.38,0,1,1,0,.77Zm-3.6,0h-1.8a.38.38,0,1,1,0-.77h1.8a.38.38,0,1,1,0,.77Zm-3.6,0h-1.8a.38.38,0,1,1,0-.77h1.8a.38.38,0,1,1,0,.77Zm-3.6,0h-1.8a.38.38,0,1,1,0-.77h1.8a.38.38,0,1,1,0,.77Zm-3.6,0h-1.8a.38.38,0,1,1,0-.77h1.8a.38.38,0,1,1,0,.77Zm-3.6,0h-1.8a.38.38,0,1,1,0-.77h1.8a.38.38,0,1,1,0,.77Zm-3.6,0h-1.8a.38.38,0,1,1,0-.77h1.8a.38.38,0,1,1,0,.77Zm-3.6,0h-1.8a.38.38,0,1,1,0-.77h1.8a.38.38,0,1,1,0,.77Zm-3.6,0H71a.38.38,0,1,1,0-.77h1.8a.38.38,0,1,1,0,.77Zm-3.6,0h-1.8a.38.38,0,1,1,0-.77h1.8a.38.38,0,1,1,0,.77Zm-3.6-.09h0a14.49,14.49,0,0,1-1.82-.32.38.38,0,1,1,.18-.75,13.7,13.7,0,0,0,1.72.3.38.38,0,0,1,0,.77Zm-3.49-.85-.14,0a14.48,14.48,0,0,1-1.68-.77.38.38,0,1,1,.37-.68,13.66,13.66,0,0,0,1.59.73.38.38,0,0,1-.14.74ZM59,109.9a.38.38,0,0,1-.22-.07,14.61,14.61,0,0,1-1.43-1.17.38.38,0,0,1,.52-.56,13.83,13.83,0,0,0,1.35,1.11.38.38,0,0,1-.22.7Zm-2.62-2.45a.38.38,0,0,1-.3-.14A14.59,14.59,0,0,1,55,105.82a.38.38,0,0,1,.65-.41,13.81,13.81,0,0,0,1,1.42.38.38,0,0,1-.3.63Zm-1.92-3a.38.38,0,0,1-.35-.22,14.36,14.36,0,0,1-.67-1.72.38.38,0,0,1,.73-.23,13.64,13.64,0,0,0,.64,1.63.38.38,0,0,1-.35.55ZM53.36,101a.38.38,0,0,1-.38-.32,14.64,14.64,0,0,1-.21-1.83.38.38,0,1,1,.77,0,13.85,13.85,0,0,0,.2,1.74.38.38,0,0,1-.31.45Zm-.19-3.59h0a.38.38,0,0,1-.35-.41A14.09,14.09,0,0,1,53,95.17a.38.38,0,0,1,.75.16,13.3,13.3,0,0,0-.24,1.73A.38.38,0,0,1,53.17,97.41Zm.73-3.51-.13,0a.38.38,0,0,1-.24-.49,14.17,14.17,0,0,1,.72-1.7.38.38,0,0,1,.69.35,13.36,13.36,0,0,0-.69,1.61A.38.38,0,0,1,53.9,93.9Zm1.62-3.2a.38.38,0,0,1-.32-.6,14.67,14.67,0,0,1,1.13-1.46.38.38,0,0,1,.58.51,13.83,13.83,0,0,0-1.07,1.38A.38.38,0,0,1,55.52,90.69ZM57.9,88a.38.38,0,0,1-.25-.67A15,15,0,0,1,59.1,86.2a.38.38,0,0,1,.43.63,14.29,14.29,0,0,0-1.38,1.07A.38.38,0,0,1,57.9,88Zm3-2a.38.38,0,0,1-.18-.73,15.09,15.09,0,0,1,1.69-.74.38.38,0,0,1,.27.72,14.35,14.35,0,0,0-1.6.71A.38.38,0,0,1,60.87,86Zm3.37-1.24a.38.38,0,0,1-.09-.76A15.1,15.1,0,0,1,66,83.67a.39.39,0,0,1,.42.34.38.38,0,0,1-.34.42,14.3,14.3,0,0,0-1.73.29Zm55.51-.38h-1.51a.38.38,0,1,1,0-.77H120a.38.38,0,0,1,0,.77Zm-3.31,0h-1.8a.38.38,0,1,1,0-.77h1.8a.38.38,0,0,1,0,.77Zm-3.6,0H111a.38.38,0,1,1,0-.77h1.8a.38.38,0,0,1,0,.77Zm-3.6,0h-1.8a.38.38,0,1,1,0-.77h1.8a.38.38,0,1,1,0,.77Zm-3.6,0h-1.8a.38.38,0,1,1,0-.77h1.8a.38.38,0,1,1,0,.77Zm-3.6,0h-1.8a.38.38,0,0,1,0-.77H102a.38.38,0,1,1,0,.77Zm-3.6,0h-1.8a.38.38,0,0,1,0-.77h1.8a.38.38,0,0,1,0,.77Zm-3.6,0H93a.38.38,0,0,1,0-.77h1.8a.38.38,0,0,1,0,.77Zm-3.6,0h-1.8a.38.38,0,0,1,0-.77h1.8a.38.38,0,1,1,0,.77Zm-3.6,0h-1.8a.38.38,0,0,1,0-.77h1.8a.38.38,0,0,1,0,.77Zm-3.6,0h-1.8a.38.38,0,0,1,0-.77H84a.38.38,0,0,1,0,.77Zm-3.6,0h-1.8a.38.38,0,0,1,0-.77h1.8a.38.38,0,0,1,0,.77Zm-3.6,0H75a.38.38,0,0,1,0-.77h1.8a.38.38,0,1,1,0,.77Zm-3.6,0h-1.8a.38.38,0,0,1,0-.77h1.8a.38.38,0,0,1,0,.77Zm-3.6,0h-1.8a.38.38,0,0,1,0-.77h1.8a.38.38,0,1,1,0,.77Zm52.22-.13a.38.38,0,0,1,0-.76,16.34,16.34,0,0,0,1.73-.31.38.38,0,1,1,.18.75,17.1,17.1,0,0,1-1.81.32Zm3.5-.82a.38.38,0,0,1-.13-.75,16.31,16.31,0,0,0,1.62-.67.38.38,0,0,1,.33.69,17,17,0,0,1-1.7.71Zm3.24-1.56a.38.38,0,0,1-.2-.71,16.4,16.4,0,0,0,1.44-1,.38.38,0,0,1,.47.61,17.31,17.31,0,0,1-1.51,1.05A.38.38,0,0,1,128.57,81.85Zm2.83-2.21a.38.38,0,0,1-.27-.66,16.6,16.6,0,0,0,1.2-1.29.38.38,0,0,1,.59.49,17.38,17.38,0,0,1-1.25,1.35A.38.38,0,0,1,131.4,79.63Zm2.3-2.76a.38.38,0,0,1-.32-.6,16.5,16.5,0,0,0,.89-1.51.38.38,0,1,1,.68.35A17.26,17.26,0,0,1,134,76.7.38.38,0,0,1,133.7,76.87Zm1.66-3.19-.14,0a.38.38,0,0,1-.22-.5,16.41,16.41,0,0,0,.55-1.67.38.38,0,0,1,.74.2,17.4,17.4,0,0,1-.57,1.75A.38.38,0,0,1,135.36,73.68Zm.93-3.47h-.06a.38.38,0,0,1-.32-.44,16.6,16.6,0,0,0,.18-1.75.39.39,0,0,1,.4-.37.38.38,0,0,1,.36.4,17.33,17.33,0,0,1-.19,1.83A.38.38,0,0,1,136.29,70.21Zm.17-3.59a.38.38,0,0,1-.38-.36,16.24,16.24,0,0,0-.2-1.75.38.38,0,0,1,.76-.13,17.13,17.13,0,0,1,.21,1.83.38.38,0,0,1-.36.41Zm-.59-3.54a.38.38,0,0,1-.37-.28,16.18,16.18,0,0,0-.57-1.66.38.38,0,0,1,.71-.29,17.16,17.16,0,0,1,.59,1.74.38.38,0,0,1-.27.47Zm-1.34-3.34a.38.38,0,0,1-.34-.2,16.35,16.35,0,0,0-.91-1.5.38.38,0,1,1,.63-.43,17.07,17.07,0,0,1,1,1.58.38.38,0,0,1-.34.56Zm-2-3a.38.38,0,0,1-.29-.14A16.5,16.5,0,0,0,131,55.36a.38.38,0,0,1,.53-.56,17.24,17.24,0,0,1,1.26,1.34.38.38,0,0,1-.29.63ZM129.9,54.3a.38.38,0,0,1-.23-.08,16.39,16.39,0,0,0-1.45-1,.38.38,0,1,1,.4-.66,17.13,17.13,0,0,1,1.52,1,.38.38,0,0,1-.23.69Zm-3.07-1.86a.38.38,0,0,1-.16,0,16.26,16.26,0,0,0-1.63-.66.38.38,0,1,1,.25-.73,17,17,0,0,1,1.71.69.38.38,0,0,1-.16.73Zm-3.4-1.16h-.08a16.45,16.45,0,0,0-1.73-.29.38.38,0,0,1,.09-.76,17.21,17.21,0,0,1,1.82.31.38.38,0,0,1-.08.76Zm-3.57-.41h-1.8a.38.38,0,1,1,0-.77h1.8a.38.38,0,0,1,0,.77Zm-3.6,0h-1.8a.38.38,0,1,1,0-.77h1.8a.38.38,0,1,1,0,.77Zm-3.6,0h-1.8a.38.38,0,1,1,0-.77h1.8a.38.38,0,1,1,0,.77Zm-3.6,0h-1.8a.38.38,0,1,1,0-.77h1.8a.38.38,0,1,1,0,.77Zm-3.6,0h-1.8a.38.38,0,0,1,0-.77h1.8a.38.38,0,1,1,0,.77Zm-3.6,0H100a.38.38,0,0,1,0-.77h1.8a.38.38,0,1,1,0,.77Zm-3.6,0h-1.8a.38.38,0,0,1,0-.77h1.8a.38.38,0,1,1,0,.77Zm-3.6,0h-1.8a.38.38,0,1,1,0-.77h1.8a.38.38,0,1,1,0,.77Zm-3.6,0h-1.8a.38.38,0,0,1,0-.77H91a.38.38,0,1,1,0,.77Zm-3.6,0h-1.8a.38.38,0,0,1,0-.77h1.8a.38.38,0,1,1,0,.77Zm-3.6,0H82a.38.38,0,1,1,0-.77h1.8a.38.38,0,0,1,0,.77Zm-3.6,0h-1.8a.38.38,0,1,1,0-.77h1.8a.38.38,0,0,1,0,.77Zm-3.6,0h-1.8a.38.38,0,1,1,0-.77h1.8a.38.38,0,0,1,0,.77Zm-3.6,0h-1.8a.38.38,0,1,1,0-.77H73a.38.38,0,1,1,0,.77Zm-3.6,0h-1.8a.38.38,0,1,1,0-.77h1.8a.38.38,0,0,1,0,.77Zm-3.6,0H64a.38.38,0,0,1,0-.77h1.8a.38.38,0,0,1,0,.77Zm-3.6,0h-1.8a.38.38,0,1,1,0-.77h1.8a.38.38,0,1,1,0,.77Zm-3.6,0h-1.8a.38.38,0,0,1,0-.77h1.8a.38.38,0,0,1,0,.77Zm-3.6,0h-1.8a.38.38,0,1,1,0-.77H55a.38.38,0,1,1,0,.77Zm-3.6,0h-1.8a.38.38,0,0,1,0-.77h1.8a.38.38,0,0,1,0,.77Zm-3.6,0H46a.38.38,0,0,1,0-.77h1.8a.38.38,0,1,1,0,.77Z"/><path class="cls-5" d="M113.79,94.67l3.78.77a5.22,5.22,0,0,1,4.08,6.17l-4.93,23.95a6.19,6.19,0,0,0-.15,2.18,4.7,4.7,0,0,0,2,3.24,5,5,0,1,0,5.55-8.39,4.84,4.84,0,0,0-3.26-.64h0a.91.91,0,0,1-1-1.13l2.91-11.18a2.71,2.71,0,0,1,3.48-1.89,25.74,25.74,0,0,1,9.67,5.4,17.49,17.49,0,0,1,5,10.52,19.42,19.42,0,0,1-16.67,22.25A18.84,18.84,0,0,1,110,142.16a18.14,18.14,0,0,1-7.63-12.42q-.49-3.49,1.17-11.37l4.16-19.66A5.22,5.22,0,0,1,113.79,94.67Z"/><path class="cls-6" d="M110,142.16a19.48,19.48,0,0,0,30.88-12,3.59,3.59,0,0,1-3.31,2.2h-.63a3.59,3.59,0,0,0-3.59,3.59v.94a3.59,3.59,0,0,1-3.59,3.59h-.6a3.59,3.59,0,0,1-3.59-3.59V130a5,5,0,0,1-7,1,5.32,5.32,0,0,1-.85-.77v6.69a3.59,3.59,0,0,1-3.59,3.59h-.59a3.59,3.59,0,0,1-3.59-3.59v-5.82a3.59,3.59,0,0,0-3.59-3.59h-.68a3.58,3.58,0,0,1-3.32-2.22,19.53,19.53,0,0,0,0,4.46A18.14,18.14,0,0,0,110,142.16Z"/><path class="cls-7" d="M121.48,146.58a19.53,19.53,0,0,1-11.8-4.05,21.21,21.21,0,0,1-4.2-4,.46.46,0,1,1,.73-.56,20.28,20.28,0,0,0,4,3.87,19,19,0,0,0,26.64-3.72c.29-.38.56-.77.82-1.17l.39-.62q.22-.37.42-.74l.25-.48q.16-.32.31-.64t.33-.77q.15-.37.28-.75t.28-.86q.1-.33.18-.66t.16-.7a20.12,20.12,0,0,0,.17-6.94,17.11,17.11,0,0,0-4.88-10.25,19.27,19.27,0,0,0-3.86-2.82l-.48-.26-.7-.37a35.38,35.38,0,0,0-4.46-1.85,2.21,2.21,0,0,0-1.77.15,2.26,2.26,0,0,0-1.12,1.42l-2.91,11.18a.45.45,0,0,0,.5.56,5.73,5.73,0,0,1,1.36,0,5,5,0,0,1,2.2.74,6,6,0,0,1,1.31,1.11,5.22,5.22,0,0,1,.54.73,5.56,5.56,0,0,1,.74,2.12c0,.21,0,.41.06.61a5.36,5.36,0,0,1-1.08,3.48,5.37,5.37,0,0,1-.9,1,.46.46,0,0,1-.59-.71,4.45,4.45,0,0,0,.74-.79,4.44,4.44,0,0,0,.9-2.9c0-.17,0-.34,0-.52a4.64,4.64,0,0,0-.61-1.77,4.26,4.26,0,0,0-.44-.6,5.05,5.05,0,0,0-1.11-.93,4.1,4.1,0,0,0-1.8-.6,4.82,4.82,0,0,0-1.14,0,1.37,1.37,0,0,1-1.52-1.7l2.91-11.18a3.19,3.19,0,0,1,1.57-2,3.16,3.16,0,0,1,2.51-.21,36.34,36.34,0,0,1,4.58,1.89l.73.38.5.27a20.2,20.2,0,0,1,4,3,18,18,0,0,1,5.15,10.78,21,21,0,0,1-.19,7.26q-.08.37-.17.74t-.19.69q-.13.46-.29.91t-.29.79q-.16.41-.35.81t-.32.67l-.26.51q-.21.39-.44.78l-.4.65c-.27.41-.56.82-.85,1.22a19.43,19.43,0,0,1-13.3,7.76A20.3,20.3,0,0,1,121.48,146.58ZM105,137.44a.46.46,0,0,1-.39-.21,18.2,18.2,0,0,1-2.73-7.43c-.33-2.37.06-6.25,1.17-11.53l4.16-19.66a5.7,5.7,0,0,1,6.69-4.39l3.78.77a5.69,5.69,0,0,1,4.44,6.72l-1.75,8.5a.46.46,0,0,1-.9-.19l1.75-8.5a4.76,4.76,0,0,0-3.72-5.63l-3.78-.77a4.78,4.78,0,0,0-5.61,3.68l-4.16,19.66c-1.09,5.17-1.48,8.94-1.16,11.21a17.3,17.3,0,0,0,2.59,7.06.46.46,0,0,1-.39.71Zm16.54-5a5.3,5.3,0,0,1-1.48-.21,5.68,5.68,0,0,1-1.77-.89,5.79,5.79,0,0,1-1-.89.46.46,0,0,1,.7-.6,4.87,4.87,0,0,0,.81.74,4.76,4.76,0,0,0,1.48.74,4.44,4.44,0,0,0,1.36.17,5.08,5.08,0,0,0,.55,0,4.44,4.44,0,0,0,1.23-.36.46.46,0,1,1,.38.84,5.34,5.34,0,0,1-1.48.43,6,6,0,0,1-.65.06Zm-4.8-6.43h-.09a.46.46,0,0,1-.36-.54l2.93-14.22a.46.46,0,0,1,.9.19l-2.93,14.22A.46.46,0,0,1,116.72,126Z"/><path class="cls-5" d="M64,78.5v6.08a4.36,4.36,0,0,1-4.36,4.36H36.56a3.34,3.34,0,0,1-3-4.92L47.4,58.14l.56-1a5.06,5.06,0,0,0,.67-2.44q0-3-3.56-3a3.52,3.52,0,0,0-3.45,3.45,3.45,3.45,0,0,0,.27,1.34,4.17,4.17,0,0,1-.13,3.66l-2.93,5.22a4.15,4.15,0,0,1-6.76.67,17.07,17.07,0,0,1-2-2.84,18.05,18.05,0,0,1,3-21.35,17.07,17.07,0,0,1,12.59-5.27,18.09,18.09,0,0,1,6,1l.63.24a17.49,17.49,0,0,1,6,4,17.28,17.28,0,0,1,5.19,12.67,17,17,0,0,1-1.91,7.95L55.5,74.14h4.19A4.36,4.36,0,0,1,64,78.5Z"/><path class="cls-6" d="M34,65.23a3.59,3.59,0,0,0-3.59-3.59h-.68l-.39,0c.22.49.45,1,.72,1.46a17.08,17.08,0,0,0,2,2.84A4.14,4.14,0,0,0,34,67.21Z"/><path class="cls-6" d="M61.1,79a3.59,3.59,0,0,1-3.59-3.59V74.14h-2l2-3.92V66.84a3.59,3.59,0,0,0-3.59-3.59h-.68a3.59,3.59,0,0,0-3.59,3.59V81.47a3.59,3.59,0,0,1-3.59,3.59h-.63a3.59,3.59,0,0,1-3.59-3.59V79.63A3.59,3.59,0,0,0,38.29,76h-.43l-4.25,8a3.34,3.34,0,0,0,3,4.92H59.68A4.36,4.36,0,0,0,64,84.58V78.5c0-.12,0-.24,0-.36A3.57,3.57,0,0,1,61.7,79Z"/><path class="cls-7" d="M59.68,89.4a.46.46,0,1,1,0-.92,3.9,3.9,0,0,0,3.9-3.9V78.5a3.9,3.9,0,0,0-3.9-3.9H55.5a.46.46,0,0,1-.41-.67l6.07-11.81A16.58,16.58,0,0,0,63,54.39a17.43,17.43,0,0,0-12.4-16.76.46.46,0,1,1,.25-.89A18.35,18.35,0,0,1,63.94,54.39a17.49,17.49,0,0,1-2,8.16L56.25,73.68h3.43A4.83,4.83,0,0,1,64.5,78.5v6.08a4.82,4.82,0,0,1-4.82,4.82Zm-1.86,0H36.56a3.8,3.8,0,0,1-3.36-5.59L47.56,56.87a4.64,4.64,0,0,0,.62-2.22c0-1.11-.32-2.58-3.1-2.58a3.06,3.06,0,0,0-3,3,3,3,0,0,0,.23,1.16.46.46,0,1,1-.85.35,3.93,3.93,0,0,1-.3-1.52,4,4,0,0,1,3.91-3.91c3.32,0,4,1.9,4,3.5a5.54,5.54,0,0,1-.73,2.66l-.56,1L34,84.24a2.88,2.88,0,0,0,2.54,4.24H57.83a.46.46,0,0,1,0,.92ZM35.22,67.86a4.57,4.57,0,0,1-3.48-1.6,17.62,17.62,0,0,1-2-2.91,18.51,18.51,0,0,1,3.07-21.89,20.07,20.07,0,0,1,1.74-1.57.46.46,0,1,1,.57.72,19.11,19.11,0,0,0-1.66,1.5,17.59,17.59,0,0,0-2.92,20.8,16.69,16.69,0,0,0,1.94,2.76,3.69,3.69,0,0,0,6-.6l2.93-5.22a.46.46,0,1,1,.8.45l-2.93,5.22a4.54,4.54,0,0,1-3.54,2.32ZM35.73,40a.46.46,0,0,1-.26-.84l.76-.5a.46.46,0,1,1,.49.78l-.72.47A.46.46,0,0,1,35.73,40Zm2-1.18a.46.46,0,0,1-.21-.87,16.94,16.94,0,0,1,2.9-1.16l.37-.1A18.78,18.78,0,0,1,45.68,36a.46.46,0,0,1,0,.92,17.87,17.87,0,0,0-4.68.6l-.35.1a16,16,0,0,0-2.74,1.09A.46.46,0,0,1,37.7,38.81Z"/><path class="cls-8" d="M66.74,70.81,65.18,59.68q-1.37-9.72,2.68-16t12.4-7.5q8.35-1.17,14,3.78t7,14.68l1.56,11.13q1.37,9.72-2.7,16.07T87.74,89.32q-8.35,1.17-14-3.81T66.74,70.81ZM79.2,54.68l2.4,17.07q.65,4.64,4.25,4.13t3-5.15l-2.4-17.07q-.65-4.64-4.29-4.13T79.2,54.68Z"/><path class="cls-9" d="M101.1,59.24a3.59,3.59,0,0,0-3.59,3.59V77.47a3.59,3.59,0,0,1-3.59,3.59H93.3a3.59,3.59,0,0,1-3.59-3.59V75.62a3.57,3.57,0,0,0-.9-2.36,3.18,3.18,0,0,1-3,2.63q-3.6.51-4.25-4.13L79.65,57.91a3.57,3.57,0,0,0-1.37-.27H77.6A3.59,3.59,0,0,0,74,61.22V63.3a3.59,3.59,0,0,1-3.59,3.59H69.8a3.59,3.59,0,0,0-3.3,2.19l.24,1.74q1.37,9.72,7,14.7t14,3.81q8.35-1.17,12.42-7.52t2.7-16.07l-.91-6.48h-.85Z"/><path class="cls-7" d="M84.68,90a16.44,16.44,0,0,1-11.23-4.14c-3.83-3.38-6.23-8.42-7.16-15L64.72,59.74c-.92-6.56,0-12.07,2.75-16.36a16.17,16.17,0,0,1,5.33-5.22.46.46,0,1,1,.47.79,15.26,15.26,0,0,0-5,4.92c-2.63,4.1-3.51,9.39-2.62,15.73L67.2,70.75c.89,6.34,3.2,11.19,6.85,14.42s8.22,4.45,13.62,3.7,9.47-3.22,12.09-7.31,3.52-9.41,2.63-15.75l-1.56-11.13a34.31,34.31,0,0,0-.71-3.65A20.65,20.65,0,0,0,94,40.26a15.59,15.59,0,0,0-4.24-2.67.46.46,0,0,1,.36-.85,16.5,16.5,0,0,1,4.49,2.83A21.55,21.55,0,0,1,101,50.79a35.25,35.25,0,0,1,.73,3.75l1.56,11.13c.92,6.57,0,12.08-2.77,16.38S93.48,89,87.8,89.78A22.48,22.48,0,0,1,84.68,90Zm.51-13.61c-1.69,0-3.53-.91-4-4.58l-1.27-9a.46.46,0,1,1,.91-.13l1.27,9c.53,3.75,2.38,3.93,3.73,3.74a3.58,3.58,0,0,0,1.44-.49.46.46,0,1,1,.5.78,4.48,4.48,0,0,1-1.81.63A5.24,5.24,0,0,1,85.18,76.39Zm3.31-1.73a.46.46,0,0,1-.41-.67,3.31,3.31,0,0,0,.28-.79,6.89,6.89,0,0,0,0-2.4L86,53.72C85.45,50,83.58,49.8,82.21,50A2.78,2.78,0,0,0,80,51.3a5.28,5.28,0,0,0-.35,3.31l.69,4.92a.46.46,0,1,1-.91.13l-.69-4.92a6.13,6.13,0,0,1,.47-3.9,3.69,3.69,0,0,1,2.87-1.77c1.87-.26,4.22.31,4.81,4.52l2.4,17.07a7.79,7.79,0,0,1,0,2.73,4.23,4.23,0,0,1-.36,1A.46.46,0,0,1,88.49,74.66ZM74.74,38.14a.46.46,0,0,1-.19-.88,20.83,20.83,0,0,1,5.65-1.58,21.74,21.74,0,0,1,4.66-.17,17.77,17.77,0,0,1,2.19.3.46.46,0,1,1-.18.9,16.85,16.85,0,0,0-2.08-.29,20.8,20.8,0,0,0-4.46.17,19.91,19.91,0,0,0-5.4,1.51A.46.46,0,0,1,74.74,38.14Z"/><path class="cls-8" d="M63.69,120.68l.81-3,.12-.46L65,116l1.65-6.16q2.54-9.48,8.74-13.72a15.81,15.81,0,0,1,5.18-2.34l.5-.11q.74-.16,1.5-.24a19.32,19.32,0,0,1,7.16.64q8.15,2.18,11.41,9t.73,16.26l-2.91,10.86q-2.54,9.49-8.76,13.74t-14.37,2.07a18.74,18.74,0,0,1-7.25-3.6q-.46-.38-.88-.79t-.75-.78l-.47-.56a16.22,16.22,0,0,1-2-3.24Q61.15,130.17,63.69,120.68Zm17.77-10L77,127.35q-1.21,4.53,2.3,5.47t4.76-3.57l4.46-16.65q1.21-4.53-2.34-5.48T81.46,110.7Z"/><path class="cls-9" d="M90.15,143.86q5.46-3.73,8.08-11.48H98A3.59,3.59,0,0,0,94.39,136v.94a3.59,3.59,0,0,1-3.59,3.59h-.6a3.59,3.59,0,0,1-3.59-3.59v-8.57a3.58,3.58,0,0,0-1.53-2.94l-1,3.85q-1.21,4.53-4.76,3.57a5,5,0,0,1-.53-.18v4.26a3.59,3.59,0,0,1-3.59,3.59H74.6A3.59,3.59,0,0,1,71,136.9v-5.82a3.59,3.59,0,0,0-3.59-3.59h-.68a3.59,3.59,0,0,1-3.59-3.59v-1Q61.54,131,64.4,137a16.22,16.22,0,0,0,2,3.24l.47.56q.36.4.75.78t.88.79a18.74,18.74,0,0,0,7.25,3.6Q83.93,148.11,90.15,143.86Z"/><path class="cls-7" d="M81.1,147.13a21,21,0,0,1-5.43-.75c-5.54-1.48-9.47-4.59-11.69-9.22s-2.45-10.19-.73-16.59l2.91-10.86c1.72-6.4,4.72-11.11,8.93-14s9.18-3.6,14.72-2.12,9.48,4.58,11.71,9.2,2.47,10.18.76,16.58l-2.91,10.86c-1.72,6.4-4.73,11.11-8.95,14a16.79,16.79,0,0,1-3.67,1.9l-.46.16-.61.19a.46.46,0,0,1-.26-.89l.57-.18.44-.15a15.87,15.87,0,0,0,3.46-1.8c4-2.76,6.92-7.29,8.58-13.47l2.91-10.86c1.66-6.18,1.42-11.55-.7-15.94s-5.85-7.3-11.12-8.71-10-.74-14,2-6.9,7.28-8.56,13.46L64.14,120.8c-1.66,6.19-1.43,11.55.67,16s5.83,7.31,11.09,8.72a18.43,18.43,0,0,0,7.84.51.46.46,0,1,1,.15.91A16.84,16.84,0,0,1,81.1,147.13Z"/><path class="cls-7" d="M80.18,133.47a3.54,3.54,0,0,1-2.69-1.09,5.67,5.67,0,0,1-.94-5.16c.53-2.19,1.14-4.39,1.73-6.53.3-1.08.6-2.16.89-3.25.17-.62.32-1.39.49-2.21.58-2.8,1.29-6.28,3.1-7.91a.46.46,0,1,1,.61.69c-1.59,1.42-2.27,4.74-2.82,7.41-.17.83-.33,1.62-.51,2.26-.29,1.09-.59,2.17-.89,3.26-.59,2.13-1.2,4.32-1.72,6.5a4.83,4.83,0,0,0,.72,4.31,2.94,2.94,0,0,0,2.81.73.46.46,0,0,1,.16.91A5.58,5.58,0,0,1,80.18,133.47Z"/><path class="cls-7" d="M85.54,124.19l-.12,0a.46.46,0,0,1-.33-.56l3-11.14a5.23,5.23,0,0,0,0-3.33,2.83,2.83,0,0,0-2.05-1.58,3.45,3.45,0,0,0-1.56-.09.46.46,0,1,1-.18-.9,4.35,4.35,0,0,1,2,.11A3.74,3.74,0,0,1,89,108.78a6.09,6.09,0,0,1,0,3.93l-3,11.14A.46.46,0,0,1,85.54,124.19Z"/><path class="cls-7" d="M82.51,132.65a.46.46,0,0,1-.31-.8A6.28,6.28,0,0,0,83.83,129a.46.46,0,0,1,.88.27,7.17,7.17,0,0,1-1.88,3.25A.46.46,0,0,1,82.51,132.65Z"/><path class="cls-10" d="M52.23,115.19,41.62,104.58a1.27,1.27,0,0,1,0-1.8l8.71-8.71a1.27,1.27,0,0,1,1.8,0l10.61,10.61a1.27,1.27,0,0,1,0,1.8L54,115.19A1.27,1.27,0,0,1,52.23,115.19Z"/><path class="cls-5" d="M61.78,107.44,49.37,95l1.12-1.12a1,1,0,0,1,1.47,0L62.9,104.85a1,1,0,0,1,0,1.47l-1.12,1.12Z"/><path class="cls-11" d="M51.9,95.61l-.08-.08a.43.43,0,0,1,0-.61L53,93.72a.43.43,0,0,1,.61,0l.08.08a.43.43,0,0,1,0,.61L52.5,95.61A.43.43,0,0,1,51.9,95.61Z"/><path class="cls-12" d="M52.54,94.89a.48.48,0,0,1,0-.68l-.68.68a.48.48,0,1,0,.68.68l.68-.68A.48.48,0,0,1,52.54,94.89Z"/><path class="cls-11" d="M61.21,104.92l-.08-.08a.43.43,0,0,1,0-.61L62.34,103a.43.43,0,0,1,.61,0l.08.08a.43.43,0,0,1,0,.61l-1.21,1.21A.43.43,0,0,1,61.21,104.92Z"/><path class="cls-12" d="M61.85,104.2a.48.48,0,0,1,0-.68l-.68.68a.48.48,0,1,0,.68.68l.68-.68A.48.48,0,0,1,61.85,104.2Z"/><circle class="cls-1" cx="48.73" cy="108.1" r="4" transform="translate(-62.16 66.12) rotate(-45)"/><circle class="cls-10" cx="48.73" cy="108.1" r="2.39" transform="translate(-62.16 66.12) rotate(-45)"/><circle class="cls-5" cx="48.73" cy="108.1" r="0.57" transform="translate(-62.16 66.12) rotate(-45)"/><path class="cls-7" d="M63.06,106.64a1.41,1.41,0,0,0,0-2h0l-.22-.21.42-.42a.84.84,0,1,0-1.19-1.19l-.42.42-8.12-8.09.42-.42a.84.84,0,1,0-1.19-1.19l-.42.42-.22-.21a1.41,1.41,0,0,0-2,0l-8.88,8.91a1.41,1.41,0,0,0,0,2h0l2.23,2.22a.27.27,0,0,0,.38-.38h0l-2.23-2.22h0a.88.88,0,0,1,0-1.24l7.68-7.71L59,105a.27.27,0,0,0,.38-.38h0L49.69,95l.82-.82a.88.88,0,0,1,1.24,0l.22.21-.42.42a.84.84,0,0,0,0,1.19h0a.84.84,0,0,0,1.19,0l.42-.42,8.12,8.09-.42.42a.84.84,0,0,0,0,1.19h0a.84.84,0,0,0,1.19,0l.42-.42.22.21h0a.88.88,0,0,1,0,1.24l-.82.82-.42-.42a.27.27,0,0,0-.38.38h0l.42.42-7.68,7.71a.88.88,0,0,1-1.24,0L50.34,113a.27.27,0,0,0-.38.38h0l2.23,2.22a1.41,1.41,0,0,0,2,0Zm-10.92-11a.3.3,0,0,1-.21-.09l-.19.19.19-.19a.3.3,0,0,1,0-.43l.6-.61h0l.6-.61a.3.3,0,0,1,.43.43l-1.21,1.21A.3.3,0,0,1,52.14,95.66Zm9.31,9.28a.3.3,0,0,1-.21-.09l-.19.19.19-.19a.3.3,0,0,1,0-.43l1.21-1.21a.3.3,0,0,1,.43.43l-.6.61h0l-.6.61A.3.3,0,0,1,61.46,104.94Z"/><path class="cls-7" d="M53.19,116.09a1.53,1.53,0,0,1-1.09-.45l-2.23-2.22a.4.4,0,0,1,.28-.68h0a.39.39,0,0,1,.28.12l2.23,2.22a.74.74,0,0,0,.53.22h0a.74.74,0,0,0,.53-.22l7.59-7.62-.33-.33a.4.4,0,1,1,.56-.56l.33.33.73-.73a.75.75,0,0,0,0-1.05h0l-.12-.12-.33.33A1,1,0,1,1,60.77,104l.33-.33-7.94-7.91-.33.33a1,1,0,0,1-.68.28h0a1,1,0,0,1-.69-1.65l.33-.33-.12-.12a.74.74,0,0,0-.53-.22h0a.74.74,0,0,0-.53.22l-.73.73,9.64,9.6a.4.4,0,0,1-.56.56l-9.64-9.6-7.59,7.62a.75.75,0,0,0,0,1.06h0l2.21,2.2a.4.4,0,0,1-.56.56l-2.23-2.22a1.54,1.54,0,0,1,0-2.18L50,93.67a1.53,1.53,0,0,1,1.09-.45h0a1.53,1.53,0,0,1,1.09.45l.12.12.33-.33a1,1,0,0,1,.69-.28A1,1,0,0,1,54,94.83l-.33.33,7.94,7.91.33-.33a1,1,0,0,1,.68-.28.9.9,0,0,1,.68.28,1,1,0,0,1,0,1.37l-.33.33.12.12a1.54,1.54,0,0,1,0,2.18l-8.87,8.91A1.53,1.53,0,0,1,53.19,116.09Zm-3-3.09h0a.14.14,0,0,0-.1.24l2.23,2.22a1.29,1.29,0,0,0,1.81,0L63,106.55h0a1.29,1.29,0,0,0,0-1.81l-.22-.22a.13.13,0,0,1,0-.18l.42-.42a.71.71,0,0,0,0-1,.71.71,0,0,0-.5-.21h0a.71.71,0,0,0-.5.21l-.42.42a.13.13,0,0,1-.18,0l-8.12-8.09a.13.13,0,0,1,0-.18l.42-.42a.71.71,0,0,0-.5-1.21h0a.71.71,0,0,0-.5.21l-.42.42a.13.13,0,0,1-.18,0L52,93.84a1.27,1.27,0,0,0-.91-.37h0a1.27,1.27,0,0,0-.91.38l-8.88,8.91a1.29,1.29,0,0,0,0,1.81l2.23,2.22a.14.14,0,0,0,.2-.2l-2.23-2.22h0a1,1,0,0,1,0-1.42l7.68-7.71a.13.13,0,0,1,.09,0h0a.13.13,0,0,1,.09,0l9.73,9.69a.14.14,0,0,0,.2-.2L49.6,95a.13.13,0,0,1,0-.18l.82-.82a1,1,0,0,1,.71-.29h0a1,1,0,0,1,.71.29l.22.21a.13.13,0,0,1,0,.18l-.42.42a.71.71,0,0,0,.5,1.21h0a.71.71,0,0,0,.5-.21l.42-.42a.13.13,0,0,1,.09,0h0a.13.13,0,0,1,.09,0l8.12,8.09a.13.13,0,0,1,0,.18l-.42.42a.71.71,0,0,0,1,1l.42-.42a.13.13,0,0,1,.09,0h0a.13.13,0,0,1,.09,0l.21.21h0a1,1,0,0,1,0,1.42l-.82.82a.13.13,0,0,1-.09,0h0a.13.13,0,0,1-.09,0l-.42-.42a.14.14,0,0,0-.2.2l.42.42a.13.13,0,0,1,0,.18l-7.68,7.71a1,1,0,0,1-.71.29h0a1,1,0,0,1-.71-.29L50.25,113A.14.14,0,0,0,50.15,113Zm10.9-7.84A.13.13,0,0,1,61,105l.11-.11a.43.43,0,0,1,.08-.51l1.21-1.21a.43.43,0,0,1,.3-.13h0a.43.43,0,0,1,.31.74l-1.21,1.21a.43.43,0,0,1-.3.13h0a.43.43,0,0,1-.2,0l-.11.11A.13.13,0,0,1,61.05,105.17Zm.28-.41h0a.18.18,0,0,0,.25,0l1.21-1.21a.18.18,0,0,0-.12-.3h0a.18.18,0,0,0-.12.05l-1.21,1.21A.18.18,0,0,0,61.33,104.76Zm-9.59-8.87a.13.13,0,0,1-.09-.22l.11-.11a.43.43,0,0,1,.08-.51L53,93.84a.44.44,0,0,1,.61,0,.43.43,0,0,1,0,.61l-1.21,1.21a.43.43,0,0,1-.3.13h0a.43.43,0,0,1-.2,0l-.11.11A.13.13,0,0,1,51.74,95.89Zm.28-.41a.17.17,0,0,0,.12.05h0a.17.17,0,0,0,.12-.05l1.21-1.21a.18.18,0,0,0,0-.25.18.18,0,0,0-.25,0L52,95.23a.18.18,0,0,0,0,.25Z"/><path class="cls-13" d="M60.64,106.24a.27.27,0,0,0,0-.38h0l-.4-.4a.27.27,0,0,0-.38.38h0l.4.4A.27.27,0,0,0,60.64,106.24Z"/><path class="cls-4" d="M54.16,103h0l-.4-.4a.27.27,0,0,0-.38.38h0l.4.4a.27.27,0,0,0,.38-.38Z"/><path class="cls-4" d="M53.16,104.06l-.4-.4a.27.27,0,0,0-.38.38h0l.41.4a.27.27,0,0,0,.38-.38Z"/><path class="cls-4" d="M55.58,104.46h0l-.4-.4a.27.27,0,0,0-.38.38h0l.41.4a.27.27,0,0,0,.38-.38Z"/><path class="cls-4" d="M54.57,105.47l-.4-.4a.27.27,0,0,0-.38.38h0l.4.4a.27.27,0,0,0,.38-.38Z"/><path class="cls-4" d="M52.75,101.63h0l-.4-.4a.27.27,0,0,0-.38.38h0l.4.4a.27.27,0,0,0,.38-.38Z"/><path class="cls-4" d="M51.74,102.65l-.4-.4a.27.27,0,0,0-.38.38h0l.4.4a.27.27,0,0,0,.38-.38Z"/><path class="cls-4" d="M50.55,100.2l.4.4a.27.27,0,0,0,.38-.38h0l-.4-.4a.27.27,0,0,0-.38.38Z"/><path class="cls-4" d="M49.54,101.21h0l.41.4a.27.27,0,0,0,.38-.38h0l-.4-.4a.27.27,0,0,0-.38.38Z"/><path class="cls-4" d="M48.53,102.22h0l.4.4a.27.27,0,0,0,.38-.38l-.4-.4a.27.27,0,0,0-.38.38Z"/><path class="cls-4" d="M47.52,103.24a.27.27,0,1,0-.08-.19A.27.27,0,0,0,47.52,103.24Z"/><path class="cls-4" d="M57,105.87h0l-.41-.4a.27.27,0,0,0-.38.38h0l.4.4a.27.27,0,0,0,.38-.38Z"/><path class="cls-4" d="M56,106.88h0l-.4-.4a.27.27,0,0,0-.38.38h0l.4.4a.27.27,0,0,0,.38-.38Z"/><path class="cls-4" d="M55,107.89l-.4-.4a.27.27,0,0,0-.38.38h0l.4.4a.27.27,0,0,0,.38-.38Z"/><path class="cls-4" d="M54,109.29a.27.27,0,1,0-.19.08A.27.27,0,0,0,54,109.29Z"/><path class="cls-4" d="M57.63,106.88a.27.27,0,0,0,0,.38h0l.4.4a.27.27,0,0,0,.38-.38h0l-.4-.4A.27.27,0,0,0,57.63,106.88Z"/><path class="cls-4" d="M56.62,108.27l.4.4a.27.27,0,0,0,.38-.38h0l-.4-.4a.27.27,0,0,0-.38.38Z"/><path class="cls-4" d="M55.62,109.28h0l.4.4a.27.27,0,0,0,.38-.38h0l-.41-.4a.27.27,0,0,0-.38.38Z"/><path class="cls-4" d="M54.61,110.29h0l.4.4a.27.27,0,0,0,.38-.38h0l-.41-.4a.27.27,0,0,0-.38.38Z"/><path class="cls-4" d="M53.6,111.31h0l.4.4a.27.27,0,0,0,.38-.38h0l-.4-.4a.27.27,0,0,0-.38.38Z"/><path class="cls-4" d="M52.59,112.32h0l.41.4a.27.27,0,0,0,.38-.38h0l-.4-.4a.27.27,0,0,0-.38.38Z"/><path class="cls-4" d="M49.13,98.79l.4.4a.27.27,0,0,0,.38-.38h0l-.41-.4a.27.27,0,0,0-.38.38Z"/><path class="cls-4" d="M48.12,99.8h0l.4.4a.27.27,0,0,0,.38-.38h0l-.4-.4a.27.27,0,0,0-.38.38Z"/><path class="cls-4" d="M47.11,100.81h0l.41.4a.27.27,0,0,0,.38-.38h0l-.4-.4a.27.27,0,0,0-.38.38Z"/><path class="cls-4" d="M46.1,101.82h0l.4.4a.27.27,0,0,0,.38-.38h0l-.41-.4a.27.27,0,0,0-.38.38Z"/><path class="cls-4" d="M45.09,102.84h0l.4.4a.27.27,0,0,0,.38-.38h0l-.41-.4a.27.27,0,0,0-.38.38Z"/><path class="cls-4" d="M44.09,103.85h0l.4.4a.27.27,0,0,0,.38-.38h0l-.4-.4a.27.27,0,0,0-.38.38Z"/><path class="cls-7" d="M51.75,105.08h0a4.27,4.27,0,0,0-6,6h0a4.27,4.27,0,0,0,6-6Zm-3,6.75a3.71,3.71,0,0,1-2.45-.91l.21-.21a.27.27,0,0,0,0-.38h0a.27.27,0,0,0-.38,0l-.21.21a3.74,3.74,0,0,1,0-4.89l.21.21a.27.27,0,0,0,.38-.38h0l-.21-.21a3.74,3.74,0,0,1,4.89,0l-.21.21a.27.27,0,0,0,0,.38h0a.27.27,0,0,0,.38,0l.21-.21a3.74,3.74,0,0,1,0,4.89l-.21-.21a.27.27,0,0,0-.38.38h0l.21.21A3.71,3.71,0,0,1,48.74,111.83Z"/><path class="cls-7" d="M48.73,112.49a4.4,4.4,0,0,1,0-8.79h0a4.37,4.37,0,0,1,3.1,1.28h0a4.4,4.4,0,0,1-3.1,7.51Zm0-8.54a4.14,4.14,0,1,0,0,8.28h0a4.14,4.14,0,0,0,2.92-7.07h0A4.13,4.13,0,0,0,48.73,104Zm0,8a3.85,3.85,0,0,1-2.52-.94.13.13,0,0,1,0-.19l.21-.21a.14.14,0,0,0-.1-.24h0a.14.14,0,0,0-.1,0l-.21.21a.13.13,0,0,1-.19,0,3.88,3.88,0,0,1,0-5.05.13.13,0,0,1,.09,0,.13.13,0,0,1,.09,0l.21.21a.14.14,0,0,0,.1,0h0a.14.14,0,0,0,.1-.24l-.21-.21a.13.13,0,0,1,0-.19,3.88,3.88,0,0,1,5.05,0,.13.13,0,0,1,0,.19l-.21.21a.14.14,0,1,0,.2.2l.21-.21a.14.14,0,0,1,.09,0,.13.13,0,0,1,.09,0,3.88,3.88,0,0,1,0,5.05.13.13,0,0,1-.09,0,.14.14,0,0,1-.09,0l-.21-.21a.14.14,0,0,0-.1,0h0a.14.14,0,0,0-.1,0,.14.14,0,0,0,0,.2l.21.21a.13.13,0,0,1,0,.09.13.13,0,0,1,0,.09,3.85,3.85,0,0,1-2.53.95Zm-2.25-1a3.6,3.6,0,0,0,2.25.79h0a3.6,3.6,0,0,0,2.25-.8l-.11-.11a.4.4,0,0,1,0-.56.4.4,0,0,1,.28-.12.39.39,0,0,1,.28.12l.11.11a3.62,3.62,0,0,0,0-4.51l-.11.11a.4.4,0,0,1-.56-.56l.11-.11a3.62,3.62,0,0,0-4.51,0l.11.11a.4.4,0,0,1-.28.68h0A.39.39,0,0,1,46,106l-.11-.11a3.62,3.62,0,0,0,0,4.51l.11-.11a.39.39,0,0,1,.28-.12h0a.39.39,0,0,1,.28.12.4.4,0,0,1,0,.56Z"/><path class="cls-4" d="M50.54,109.52h0l-1.06-1.05a.84.84,0,0,0,0-.75l1.05-1.06a.27.27,0,0,0,0-.38h0a.27.27,0,0,0-.38,0l-1.05,1.06a.84.84,0,0,0-1,1.35h0a.84.84,0,0,0,1,.16l1.06,1.05a.27.27,0,0,0,.38-.38Zm-1.81-1.12a.3.3,0,0,1-.21-.09l-.19.19.19-.19a.3.3,0,1,1,.22.09Z"/><path class="cls-7" d="M150.41,90H26.55a.46.46,0,1,1,0-.92H150.41a.46.46,0,1,1,0,.92Z"/><path class="cls-7" d="M143,147.13H55a.46.46,0,0,1,0-.92h88a.46.46,0,1,1,0,.92Z"/><path class="cls-14" d="M136.2,75.69c-3.52,0-6.28,1.86-6.28,4.24s2.76,4.24,6.28,4.24,6.28-1.86,6.28-4.24S139.72,75.69,136.2,75.69Z"/><path class="cls-7" d="M136.2,84.62c-3.78,0-6.74-2.06-6.74-4.7s3-4.7,6.74-4.7a8.5,8.5,0,0,1,4.72,1.31,4.12,4.12,0,0,1,2,3.39C142.94,82.56,140,84.62,136.2,84.62Zm0-8.47c-3.26,0-5.82,1.66-5.82,3.78s2.55,3.78,5.82,3.78S142,82,142,79.92a3.23,3.23,0,0,0-1.61-2.63A7.58,7.58,0,0,0,136.2,76.15Z"/><path class="cls-14" d="M134.3,86.95l-2.84-7.09h0a3.56,3.56,0,1,0-6.23-.28h0l-.65,1.61h0l-2.72-1.36h0L119,86.95h-2.15v1.67h3.29l2.59-6.48h0l2.72,1.36h0l1-2.52h0a3.55,3.55,0,0,0,3.69.13h0l3,7.51h3.16V86.95h-2Z"/><path class="cls-7" d="M136.33,89.08h-3.16a.46.46,0,0,1-.43-.29l-2.82-7.06a4.05,4.05,0,0,1-3.22-.1l-.81,2a.46.46,0,0,1-.63.24L123,82.78l-2.41,6a.46.46,0,0,1-.43.29h-3.29a.46.46,0,0,1-.46-.46V86.95a.46.46,0,0,1,.46-.46h1.84l2.73-6.83a.46.46,0,0,1,.63-.24l2.27,1.14.39-1a4,4,0,0,1,1.14-4.68,4,4,0,0,1,3.35-.84,4,4,0,0,1,3.16,3.27,4.05,4.05,0,0,1-.41,2.55l2.64,6.6h1.71a.46.46,0,0,1,.46.46v1.67A.46.46,0,0,1,136.33,89.08Zm-2.85-.92h2.39v-.75H134.3a.46.46,0,0,1-.43-.29L131,80a.46.46,0,0,1,0-.41A3.1,3.1,0,0,0,129,75a3.1,3.1,0,0,0-3.72,3,3.06,3.06,0,0,0,.32,1.36.46.46,0,0,1,0,.37L125,81.36a.46.46,0,0,1-.63.24l-2.27-1.14-2.66,6.65a.46.46,0,0,1-.43.29h-1.69v.75h2.51L122.32,82a.46.46,0,0,1,.63-.24l2.27,1.14.82-2.05a.46.46,0,0,1,.68-.21,3.14,3.14,0,0,0,3.21.11.46.46,0,0,1,.65.23Z"/><path class="cls-7" d="M123.2,69.14l-1.12-1.87a.84.84,0,0,0-.72-.41h-5.7a.84.84,0,0,1-.84-.84h0a.84.84,0,0,1,.84-.84h6.64a.84.84,0,0,1,.72.41l1.61,2.68a.84.84,0,0,1-.29,1.15h0A.84.84,0,0,1,123.2,69.14Z"/><path class="cls-7" d="M123.92,70a1.31,1.31,0,0,1-.32,0,1.29,1.29,0,0,1-.8-.59l-1.12-1.87a.38.38,0,0,0-.32-.18h-5.7a1.3,1.3,0,0,1,0-2.59h6.64a1.3,1.3,0,0,1,1.11.63L125,68a1.3,1.3,0,0,1-1.11,2Zm-8.25-4.36a.38.38,0,0,0,0,.75h5.7a1.3,1.3,0,0,1,1.11.63l1.12,1.87h0a.38.38,0,1,0,.64-.39l-1.61-2.68a.38.38,0,0,0-.32-.18Z"/><path class="cls-14" d="M128.14,69.74a4.22,4.22,0,0,0-3.43-1.32A9,9,0,0,0,120,70.31a21,21,0,0,0-2.3,1.82h0a.83.83,0,0,0,0,1.22h0a21,21,0,0,0,2.3,1.82,9,9,0,0,0,4.76,1.89,4.22,4.22,0,0,0,3.43-1.32,5.48,5.48,0,0,0,0-6Z"/><path class="cls-7" d="M124.71,77.52a9.39,9.39,0,0,1-5-2,21.21,21.21,0,0,1-2.36-1.87,1.29,1.29,0,0,1,0-1.89,21.32,21.32,0,0,1,2.36-1.87,9.39,9.39,0,0,1,5-2,4.66,4.66,0,0,1,3.78,1.49h0a5.92,5.92,0,0,1,0,6.59A4.66,4.66,0,0,1,124.71,77.52Zm0-8.64a8.54,8.54,0,0,0-4.5,1.81A20.71,20.71,0,0,0,118,72.47a.37.37,0,0,0,0,.55,20.57,20.57,0,0,0,2.25,1.78,8.54,8.54,0,0,0,4.5,1.81,3.79,3.79,0,0,0,3.07-1.16,5,5,0,0,0,0-5.41h0A3.79,3.79,0,0,0,124.71,68.88Z"/><rect class="cls-7" x="123.15" y="71.66" width="1.67" height="1.67" rx="0.84" ry="0.84"/><path class="cls-7" d="M124,73.8a1.3,1.3,0,1,1,1.3-1.3A1.3,1.3,0,0,1,124,73.8Zm0-1.67a.38.38,0,1,0,.38.38A.38.38,0,0,0,124,72.12Z"/><path class="cls-14" d="M141.09,86.58l-3.89-9.82a.58.58,0,0,0-1-.13L134.41,79a.58.58,0,0,0,.09.79l.38.33a.58.58,0,0,0,.85-.1h0a.58.58,0,0,1,1,.13l3.2,8.08a.58.58,0,0,0,.54.37h2.31a.58.58,0,0,0,.58-.58v-.5a.58.58,0,0,0-.58-.58h-1.17A.58.58,0,0,1,141.09,86.58Z"/><path class="cls-7" d="M142.8,89.08h-2.31a1,1,0,0,1-1-.66l-3.2-8.08a.12.12,0,0,0-.1-.08.12.12,0,0,0-.12,0,1,1,0,0,1-1.52.17l-.38-.33a1,1,0,0,1-.16-1.42l1.77-2.39a1,1,0,0,1,1.81.24l3.89,9.82h0a.12.12,0,0,0,.12.08h1.17a1,1,0,0,1,1,1V88A1,1,0,0,1,142.8,89.08Zm-6.59-9.74h.14a1,1,0,0,1,.84.65l3.2,8.08a.12.12,0,0,0,.12.08h2.31a.12.12,0,0,0,.12-.12v-.5a.12.12,0,0,0-.12-.12h-1.17a1,1,0,0,1-1-.66h0l-3.89-9.82a.12.12,0,0,0-.1-.08.12.12,0,0,0-.12,0l-1.77,2.39a.12.12,0,0,0,0,.17l.38.33a.12.12,0,0,0,.18,0A1,1,0,0,1,136.2,79.34Z"/><rect class="cls-5" x="103.2" y="37.18" width="5.8" height="2.43"/><path class="cls-4" d="M109,40h-5.8a.38.38,0,0,1-.38-.38V37.18a.38.38,0,0,1,.38-.38H109a.38.38,0,0,1,.38.38v2.43A.38.38,0,0,1,109,40Zm-5.42-.77h5V37.56h-5Z"/><rect class="cls-5" x="103.2" y="37.18" width="5.8" height="2.43" transform="translate(67.71 144.5) rotate(-90)"/><path class="cls-4" d="M107.32,41.68h-2.43a.38.38,0,0,1-.38-.38v-5.8a.38.38,0,0,1,.38-.38h2.43a.38.38,0,0,1,.38.38v5.8A.38.38,0,0,1,107.32,41.68Zm-2-.77h1.66v-5h-1.66Z"/><rect class="cls-5" x="44.54" y="130.98" width="5.8" height="2.43"/><path class="cls-4" d="M50.34,133.79h-5.8a.38.38,0,0,1-.38-.38V131a.38.38,0,0,1,.38-.38h5.8a.38.38,0,0,1,.38.38v2.43A.38.38,0,0,1,50.34,133.79ZM44.93,133h5v-1.66h-5Z"/><rect class="cls-5" x="44.54" y="130.98" width="5.8" height="2.43" transform="translate(-84.75 179.63) rotate(-90)"/><path class="cls-4" d="M48.66,135.48H46.23a.38.38,0,0,1-.38-.38v-5.8a.38.38,0,0,1,.38-.38h2.43a.38.38,0,0,1,.38.38v5.8A.38.38,0,0,1,48.66,135.48Zm-2-.77h1.66v-5H46.61Z"/><rect class="cls-8" x="135.94" y="98.53" width="5.8" height="2.43"/><path class="cls-7" d="M141.74,101.42h-5.8a.46.46,0,0,1-.46-.46V98.53a.46.46,0,0,1,.46-.46h5.8a.46.46,0,0,1,.46.46V101A.46.46,0,0,1,141.74,101.42Zm-5.34-.92h4.88V99H136.4Z"/><rect class="cls-8" x="135.94" y="98.53" width="5.8" height="2.43" transform="translate(39.1 238.58) rotate(-90)"/><path class="cls-7" d="M140.06,103.1h-2.43a.46.46,0,0,1-.46-.46v-5.8a.46.46,0,0,1,.46-.46h2.43a.46.46,0,0,1,.46.46v5.8A.46.46,0,0,1,140.06,103.1Zm-2-.92h1.51V97.3h-1.51Z"/></svg>