<svg id="Слой_1" data-name="Слой 1" xmlns="http://www.w3.org/2000/svg" viewBox="0 0 8.38 94.89"><defs><style>.cls-1{fill:#23b8d1;}</style></defs><title>Монтажная область 1</title><rect class="cls-1" x="3.19" y="89.2" width="2" height="1.5"/><path class="cls-1" d="M5.19,86.22h-2v-3h2Zm0-6h-2v-3h2Zm0-6h-2v-3h2Zm0-6h-2v-3h2Zm0-6h-2v-3h2Zm0-6h-2v-3h2Zm0-6h-2v-3h2Zm0-6h-2v-3h2Zm0-6h-2v-3h2Zm0-6h-2v-3h2Zm0-6h-2v-3h2Zm0-6h-2v-3h2Zm0-6h-2v-3h2Zm0-6h-2v-3h2Zm0-6h-2V0h2Z"/><circle class="cls-1" cx="4.19" cy="90.7" r="4.19"/></svg>