<svg id="Слой_1" data-name="Слой 1" xmlns="http://www.w3.org/2000/svg" viewBox="0 0 87.88 79.18"><defs><style>.cls-1{fill:#23b8d1;}</style></defs><title>Монтажная область 1</title><rect class="cls-1" x="82.19" y="19.84" width="1.5" height="2"/><path class="cls-1" d="M78.2,21.84h-3v-2h3Zm-6,0h-3v-2h3Zm-6,0h-3v-2h3Zm-6,0h-3v-2h3Zm-6,0h-3v-2h3Zm-6,0h-3v-2h3Zm-6,0h-3v-2h3Zm-6,0h-3v-2h3Zm-6,0h-3v-2h3Zm-6,0h-3v-2h3Zm-6,0h-3v-2h3Zm-6,0h-3v-2h3Zm-6,0h-3v-2h3Z"/><path class="cls-1" d="M0,0H2V1.18H0ZM0,4.18H2v3H0Zm0,6H2v3H0Zm0,6H2v3H0Zm0,6H2v3H0Zm0,6H2v3H0Zm0,6H2v3H0Zm0,6H2v3H0Zm0,6H2v3H0Zm0,6H2v3H0Zm0,6H2v3H0Zm0,6H2v3H0Zm0,6H2v3H0Zm0,6H2v3H0Z"/><circle class="cls-1" cx="83.69" cy="20.84" r="4.19"/></svg>