<svg id="Layer_1" data-name="Layer 1" xmlns="http://www.w3.org/2000/svg" viewBox="0 0 21 21"><defs><style>.cls-1{fill:#f66;}</style></defs><title>1</title><path class="cls-1" d="M7.8,14.24a.91.91,0,0,0,.57.24.73.73,0,0,0,.56-.24l7.41-7.4a.73.73,0,0,1,.56-.24.76.76,0,0,1,.81.8.73.73,0,0,1-.24.57L8.69,16.73a3.36,3.36,0,0,1-4.59,0,3.15,3.15,0,0,1-1-2.25,3,3,0,0,1,1-2.25L13.85,2.5a.8.8,0,0,0,0-1.13L12.72.24A.75.75,0,0,0,12.15,0a.72.72,0,0,0-.56.23L1.84,10A6.4,6.4,0,0,0,0,14.56a6.52,6.52,0,0,0,1.85,4.58A6.38,6.38,0,0,0,6.43,21,6.52,6.52,0,0,0,11,19.14l8.77-8.76A4.06,4.06,0,0,0,21,7.57a4,4,0,0,0-4-4,3.82,3.82,0,0,0-2.82,1.21l-7.41,7.4a.77.77,0,0,0,0,1.12Z"/></svg>