<svg id="Layer_1" data-name="Layer 1" xmlns="http://www.w3.org/2000/svg" xmlns:xlink="http://www.w3.org/1999/xlink" viewBox="0 0 57 44.3"><defs><style>.cls-1{fill:none;}.cls-2{fill:#17bcd3;}.cls-3{fill:#b7e3ec;}.cls-4{clip-path:url(#clip-path);}.cls-5{fill:#0b98a8;}.cls-6{fill:#fff;}.cls-7{fill:#113745;}.cls-8{fill:#fff0cc;}.cls-9{fill:#103845;}</style><clipPath id="clip-path"><path class="cls-1" d="M54.12,20.9V42.15a1.42,1.42,0,0,1-1.42,1.42H4.29a1.42,1.42,0,0,1-1.42-1.42V20.9Z"/></clipPath></defs><title>Монтажная область 1</title><path class="cls-2" d="M54.12,20.9V42.15a1.42,1.42,0,0,1-1.42,1.42H4.29a1.42,1.42,0,0,1-1.42-1.42V20.9Z"/><path class="cls-2" d="M36.14,8a.93.93,0,0,1-.93-.93V3.87a.56.56,0,0,0-.56-.56H22.34a.56.56,0,0,0-.56.56V7.11a.93.93,0,1,1-1.85,0V3.87a2.41,2.41,0,0,1,2.41-2.41H34.66a2.41,2.41,0,0,1,2.41,2.41V7.11A.93.93,0,0,1,36.14,8Z"/><path class="cls-3" d="M12.84,43.16a9.37,9.37,0,0,0-9.37-9.37H2.88v8.36a1.42,1.42,0,0,0,1.42,1.42h8.55Z"/><path class="cls-3" d="M53.93,33.78a9.37,9.37,0,0,0-9.37,9.37v.41h8.15a1.42,1.42,0,0,0,1.42-1.42V33.79Z"/><g class="cls-4"><path class="cls-5" d="M27,35.92,2.78,26.73a2,2,0,0,1-1.31-1.9V15.07a1.49,1.49,0,0,1,1.48-1.48H54.05a1.49,1.49,0,0,1,1.48,1.48v9.77a2,2,0,0,1-1.31,1.9l-24.1,9.19A4.38,4.38,0,0,1,27,35.92Z"/></g><path class="cls-2" d="M27,33.09,2.78,23.9A2,2,0,0,1,1.47,22V12.24a1.49,1.49,0,0,1,1.48-1.48H54.05a1.49,1.49,0,0,1,1.48,1.48V22a2,2,0,0,1-1.31,1.9l-24.1,9.19A4.38,4.38,0,0,1,27,33.09Z"/><path class="cls-6" d="M9.25,18h0a2.6,2.6,0,0,1-2.6-2.6V10.65h5.19v4.76A2.6,2.6,0,0,1,9.25,18Z"/><path class="cls-7" d="M9.25,18.74a3.33,3.33,0,0,1-3.33-3.33V9.92h6.66v5.49A3.33,3.33,0,0,1,9.25,18.74ZM7.39,11.38v4a1.86,1.86,0,1,0,3.72,0v-4Z"/><path id="SVGCleanerId_0" data-name="SVGCleanerId 0" class="cls-8" d="M47.75,18h0a2.6,2.6,0,0,1-2.6-2.6V10.65h5.19v4.76A2.6,2.6,0,0,1,47.75,18Z"/><path id="SVGCleanerId_0-2" data-name="SVGCleanerId 0" class="cls-6" d="M47.75,18h0a2.6,2.6,0,0,1-2.6-2.6V10.65h5.19v4.76A2.6,2.6,0,0,1,47.75,18Z"/><path class="cls-7" d="M47.75,18.74a3.33,3.33,0,0,1-3.33-3.33V9.92h6.66v5.49A3.33,3.33,0,0,1,47.75,18.74Zm-1.86-7.35v4a1.86,1.86,0,1,0,3.72,0v-4Z"/><path class="cls-5" d="M51.2,26.26V43.57h1.52a1.43,1.43,0,0,0,1.43-1.43l0-17.51S51.26,26.32,51.2,26.26Z"/><path class="cls-5" d="M53.39,10.76V24.3l1-.39a1.91,1.91,0,0,0,1.23-1.78V12.32A1.58,1.58,0,0,0,54,10.75Z"/><path class="cls-9" d="M52.71,44.3H4.29a2.15,2.15,0,0,1-2.15-2.15V29.69a.73.73,0,1,1,1.47,0V42.15a.69.69,0,0,0,.69.69H52.71a.69.69,0,0,0,.69-.69V29.69a.73.73,0,0,1,1.47,0V42.15A2.15,2.15,0,0,1,52.71,44.3Z"/><path class="cls-9" d="M34.66,1.47a2.41,2.41,0,0,1,2.41,2.41V7.11a.93.93,0,0,1-1.85,0V3.87a.56.56,0,0,0-.56-.56H22.34a.56.56,0,0,0-.56.56V7.11a.93.93,0,0,1-1.85,0V3.87a2.41,2.41,0,0,1,2.41-2.41H34.66m0-1.47H22.34a3.88,3.88,0,0,0-3.87,3.87V7.11a2.39,2.39,0,0,0,4.78,0V4.78h10.5V7.11a2.39,2.39,0,0,0,4.78,0V3.87A3.88,3.88,0,0,0,34.66,0Z"/><path class="cls-9" d="M54.05,10.75a1.49,1.49,0,0,1,1.48,1.48V22a2,2,0,0,1-1.31,1.9l-24.1,9.19a4.38,4.38,0,0,1-3.11,0L2.78,23.9A2,2,0,0,1,1.47,22V12.24a1.49,1.49,0,0,1,1.48-1.48H54.05m0-1.47H2.95A3,3,0,0,0,0,12.24V22a3.51,3.51,0,0,0,2.26,3.27L26.5,34.46a5.84,5.84,0,0,0,4.15,0l24.1-9.19A3.52,3.52,0,0,0,57,22V12.24a3,3,0,0,0-2.95-2.95Z"/><path class="cls-6" d="M33.13,29.32h0a2.81,2.81,0,0,0-4,0l-.16.16a.51.51,0,0,1-.72,0l-.16-.16a2.81,2.81,0,0,0-4,0h0A2.94,2.94,0,0,0,23.76,33h0a13.28,13.28,0,0,0,3.77,3.62l.83.53a.51.51,0,0,0,.55,0l.83-.53A13.29,13.29,0,0,0,33.49,33h0A2.94,2.94,0,0,0,33.13,29.32Z"/><path class="cls-7" d="M28.63,38a1.23,1.23,0,0,1-.67-.19l-.83-.53a13.93,13.93,0,0,1-4-3.82,3.68,3.68,0,0,1,.45-4.64,3.55,3.55,0,0,1,5,0h0a3.55,3.55,0,0,1,5,0,3.68,3.68,0,0,1,.46,4.63,14,14,0,0,1-4,3.83l-.83.53A1.24,1.24,0,0,1,28.63,38Zm-2.51-8.76a2.07,2.07,0,0,0-1.47.61,2.21,2.21,0,0,0-.28,2.78A12.48,12.48,0,0,0,27.92,36l.71.45.71-.45a12.5,12.5,0,0,0,3.56-3.42,2.21,2.21,0,0,0-.28-2.77h0a2.13,2.13,0,0,0-2.94,0L29.5,30a1.27,1.27,0,0,1-1.75,0l-.16-.16A2.07,2.07,0,0,0,26.12,29.22Z"/></svg>