<svg id="Слой_1" data-name="Слой 1" xmlns="http://www.w3.org/2000/svg" viewBox="0 0 30 30"><defs><style>.cls-1{fill:#e40134;}</style></defs><title>google</title><path class="cls-1" d="M0,0V30H30V0ZM17.49,16.26a6,6,0,0,1-6.28,5.3,6.62,6.62,0,1,1,0-13.24,6.28,6.28,0,0,1,4.45,1.73L13.76,12a3.5,3.5,0,0,0-2.55-1,4,4,0,0,0-3.9,4,3.93,3.93,0,0,0,3.9,3.93,3.33,3.33,0,0,0,3.56-2.62H11.21V13.6h6.26a7.8,7.8,0,0,1,.11,1.34,8.74,8.74,0,0,1-.1,1.32Zm7.95-.82H23.12v2.32H21.47V15.44H19.15V13.79h2.32V11.47h1.65v2.32h2.32Zm0,0"/></svg>