<svg id="Слой_1" data-name="Слой 1" xmlns="http://www.w3.org/2000/svg" viewBox="0 0 22 22.01"><defs><style>.cls-1{fill:#2f4351;}</style></defs><title>Монтажная область 1 копия 2</title><path class="cls-1" d="M21.44,16.23,18.7,13.49a1.94,1.94,0,0,0-2.74,0l-1.24,1.24a1.47,1.47,0,0,1-2.07,0L7.26,9.34a1.46,1.46,0,0,1,0-2.07L8.5,6a1.93,1.93,0,0,0,0-2.74L5.77.57A1.94,1.94,0,0,0,3,.56l-1,1a7,7,0,0,0,0,9.86L10.58,20a7,7,0,0,0,9.86,0l1-1A1.94,1.94,0,0,0,21.44,16.23ZM3.95,1.48a.65.65,0,0,1,.91,0L7.59,4.2a.64.64,0,0,1,0,.91l-.46.46L3.49,1.93ZM11.49,19,3,10.5A5.67,5.67,0,0,1,2.6,2.85L6.23,6.49a2.75,2.75,0,0,0,.12,3.77l5.39,5.39h0a2.75,2.75,0,0,0,3.77.12l3.63,3.63A5.66,5.66,0,0,1,11.49,19Zm9-1-.46.46-3.65-3.65.46-.46a.65.65,0,0,1,.91,0l2.74,2.74A.65.65,0,0,1,20.52,18.05Z"/></svg>