<svg id="Слой_1" data-name="Слой 1" xmlns="http://www.w3.org/2000/svg" viewBox="0 0 22 22.01"><defs><style>.cls-1{fill:#2f4351;}</style></defs><title>Монтажная область 1 копия</title><path class="cls-1" d="M21.37,13.34a10.28,10.28,0,0,0,.24-2.22A10.42,10.42,0,0,0,11.12.77,10.76,10.76,0,0,0,9.32.92,6.11,6.11,0,0,0,6.09,0,6,6,0,0,0,0,6,5.91,5.91,0,0,0,.84,9a10.26,10.26,0,0,0-.21,2.08A10.42,10.42,0,0,0,11.12,21.47,10.69,10.69,0,0,0,13,21.3a6.13,6.13,0,0,0,2.88.71A6,6,0,0,0,22,16,5.91,5.91,0,0,0,21.37,13.34Zm-5.45,7.34a4.74,4.74,0,0,1-2.24-.55l-.42-.22L12.8,20a9.37,9.37,0,0,1-1.68.15,9.1,9.1,0,0,1-9.15-9,9,9,0,0,1,.18-1.82l.1-.5L2,8.37A4.62,4.62,0,0,1,1.34,6,4.72,4.72,0,0,1,6.09,1.33,4.76,4.76,0,0,1,8.61,2L9,2.31l.51-.09a9.44,9.44,0,0,1,1.57-.13,9,9,0,0,1,8.94,11l-.1.45.21.42A4.58,4.58,0,0,1,20.66,16,4.72,4.72,0,0,1,15.92,20.69Zm-.29-10a7.52,7.52,0,0,0-1.8-.81c-.69-.22-1.47-.42-2.32-.6l-1.45-.35a4.71,4.71,0,0,1-.84-.32,1.88,1.88,0,0,1-.63-.47.9.9,0,0,1-.21-.6,1.18,1.18,0,0,1,.65-1,3.31,3.31,0,0,1,1.82-.44,3,3,0,0,1,1.75.4,3.44,3.44,0,0,1,.94,1.15,3.38,3.38,0,0,0,.63.82,1.35,1.35,0,0,0,.9.28,1.45,1.45,0,0,0,1.08-.44,1.4,1.4,0,0,0,.43-1,2.47,2.47,0,0,0-.33-1.18,3.72,3.72,0,0,0-1-1.13,5.44,5.44,0,0,0-1.73-.85A8.47,8.47,0,0,0,11,3.84,9,9,0,0,0,8,4.32a4.42,4.42,0,0,0-2,1.39,3.33,3.33,0,0,0-.71,2.09A3.2,3.2,0,0,0,5.9,9.88a4.53,4.53,0,0,0,1.8,1.3,15.48,15.48,0,0,0,2.75.81c.8.17,1.45.33,1.92.47a2.89,2.89,0,0,1,1.12.61,1.27,1.27,0,0,1,.4,1,1.51,1.51,0,0,1-.78,1.29,3.73,3.73,0,0,1-2.11.54,3.66,3.66,0,0,1-1.52-.27A2.32,2.32,0,0,1,8.61,15,5.18,5.18,0,0,1,8,13.9,2.37,2.37,0,0,0,7.39,13a1.4,1.4,0,0,0-.92-.32,1.55,1.55,0,0,0-1.1.4,1.29,1.29,0,0,0-.44,1,3.27,3.27,0,0,0,.67,1.87,4.88,4.88,0,0,0,1.73,1.51,8.1,8.1,0,0,0,3.76.78,8.65,8.65,0,0,0,3.28-.57,4.77,4.77,0,0,0,2.13-1.6,3.89,3.89,0,0,0,.73-2.31,3.65,3.65,0,0,0-.43-1.82A3.54,3.54,0,0,0,15.63,10.7Z"/></svg>