<svg id="Слой_1" data-name="Слой 1" xmlns="http://www.w3.org/2000/svg" xmlns:xlink="http://www.w3.org/1999/xlink" viewBox="0 0 26 170"><defs><style>.cls-1{fill:none;}.cls-2{fill:#fff;}.cls-3{clip-path:url(#clip-path);}.cls-4{fill:#bd0034;}.cls-5{fill:#1a237b;}.cls-6{clip-path:url(#clip-path-2);}.cls-7{fill:#4d72c0;}.cls-8{fill:#f2dd30;}.cls-9{fill:#c6001e;}.cls-10{clip-path:url(#clip-path-3);}.cls-11{fill:#cb001c;}.cls-12{fill:#2a3560;}.cls-13{clip-path:url(#clip-path-4);}.cls-14{fill:#d03033;}.cls-15{fill:#1f189b;}.cls-16{fill:#f2b126;}.cls-17{fill:#32784c;}</style><clipPath id="clip-path"><rect class="cls-1" y="0.11" width="26" height="17.89"/></clipPath><clipPath id="clip-path-2"><rect class="cls-1" y="38.11" width="26" height="17.89"/></clipPath><clipPath id="clip-path-3"><rect class="cls-1" y="114" width="26" height="18"/></clipPath><clipPath id="clip-path-4"><rect class="cls-2" y="152" width="26" height="18"/></clipPath></defs><title>Монтажная область 1</title><g id="UNITED_KINGDOM" data-name="UNITED KINGDOM"><g class="cls-3"><rect class="cls-2" y="0.11" width="26" height="17.89"/><polygon class="cls-4" points="17.41 6.58 26 0.9 26 0.1 25.41 0.1 15.61 6.58 17.41 6.58"/><polygon class="cls-4" points="17 11.89 26 17.83 26 16.64 18.8 11.89 17 11.89"/><polygon class="cls-4" points="0 1.47 7.7 6.58 9.49 6.58 0 0.28 0 1.47"/><polygon class="cls-4" points="9.09 11.89 0 17.9 0 18 1.64 18 10.88 11.89 9.09 11.89"/><polygon class="cls-5" points="24.22 0.1 15.12 0.1 15.12 6.12 24.22 0.1"/><polygon class="cls-5" points="11.1 0.1 2.03 0.1 11.1 6.12 11.1 0.1"/><polygon class="cls-5" points="26 6.58 26 2.47 19.82 6.58 26 6.58"/><polygon class="cls-5" points="26 15.95 26 11.89 19.82 11.89 26 15.95"/><polygon class="cls-5" points="2.55 18 11.1 18 11.1 12.35 2.55 18"/><polygon class="cls-5" points="15.12 18 23.7 18 15.12 12.35 15.12 18"/><polygon class="cls-5" points="0 11.89 0 16.13 6.39 11.89 0 11.89"/><polygon class="cls-5" points="0 6.58 6.39 6.58 0 2.33 0 6.58"/><polygon class="cls-4" points="11.9 0.1 11.9 7.64 0 7.64 0 10.83 11.9 10.83 11.9 18 14.31 18 14.31 10.83 26 10.83 26 7.64 14.31 7.64 14.31 0.1 11.9 0.1"/></g></g><g id="UKRAINE"><g class="cls-6"><rect class="cls-7" y="38.11" width="26" height="17.89"/><rect class="cls-8" y="47.05" width="26" height="8.95"/></g></g><g id="SWITZERLAND"><rect class="cls-9" y="76" width="26" height="18"/><polygon class="cls-2" points="7.3 83.29 11.29 83.29 11.29 79.3 14.71 79.3 14.71 83.29 18.7 83.29 18.7 86.71 14.71 86.71 14.71 90.7 11.29 90.7 11.29 86.71 7.3 86.71 7.3 83.29"/></g><g id="USA"><g class="cls-10"><rect class="cls-11" y="130.62" width="26" height="1.38"/><rect class="cls-2" y="129.23" width="26" height="1.38"/><rect class="cls-11" y="127.85" width="26" height="1.38"/><rect class="cls-2" y="126.46" width="26" height="1.38"/><rect class="cls-11" y="125.08" width="26" height="1.39"/><rect class="cls-2" y="123.69" width="26" height="1.38"/><rect class="cls-11" y="122.31" width="26" height="1.39"/><rect class="cls-2" y="120.92" width="26" height="1.38"/><rect class="cls-11" y="119.54" width="26" height="1.38"/><rect class="cls-2" y="118.15" width="26" height="1.39"/><rect class="cls-11" y="116.77" width="26" height="1.38"/><rect class="cls-2" y="115.39" width="26" height="1.38"/><rect class="cls-11" y="114" width="26" height="1.39"/><rect class="cls-12" y="114" width="11.87" height="9.69"/><polygon class="cls-2" points="1.07 115.07 1.17 115.44 1.5 115.44 1.24 115.66 1.34 116.03 1.07 115.8 0.81 116.03 0.91 115.66 0.65 115.44 0.97 115.44 1.07 115.07"/><polygon class="cls-2" points="1.07 116.69 1.17 117.05 1.5 117.05 1.24 117.28 1.34 117.65 1.07 117.42 0.81 117.65 0.91 117.28 0.65 117.05 0.97 117.05 1.07 116.69"/><polygon class="cls-2" points="1.07 118.31 1.17 118.67 1.5 118.67 1.24 118.9 1.34 119.26 1.07 119.04 0.81 119.26 0.91 118.9 0.65 118.67 0.97 118.67 1.07 118.31"/><polygon class="cls-2" points="1.07 119.92 1.17 120.29 1.5 120.29 1.24 120.52 1.34 120.88 1.07 120.66 0.81 120.88 0.91 120.52 0.65 120.29 0.97 120.29 1.07 119.92"/><polygon class="cls-2" points="1.07 121.54 1.17 121.91 1.5 121.91 1.24 122.13 1.34 122.5 1.07 122.27 0.81 122.5 0.91 122.13 0.65 121.91 0.97 121.91 1.07 121.54"/><polygon class="cls-2" points="2.02 115.92 2.12 116.29 2.45 116.29 2.19 116.52 2.28 116.88 2.02 116.66 1.76 116.88 1.86 116.52 1.6 116.29 1.92 116.29 2.02 115.92"/><polygon class="cls-2" points="2.02 117.54 2.12 117.91 2.45 117.91 2.19 118.13 2.28 118.5 2.02 118.27 1.76 118.5 1.86 118.13 1.6 117.91 1.92 117.91 2.02 117.54"/><polygon class="cls-2" points="2.02 119.16 2.12 119.52 2.45 119.52 2.19 119.75 2.28 120.12 2.02 119.89 1.76 120.12 1.86 119.75 1.6 119.52 1.92 119.52 2.02 119.16"/><polygon class="cls-2" points="2.02 120.78 2.12 121.14 2.45 121.14 2.19 121.37 2.28 121.73 2.02 121.51 1.76 121.73 1.86 121.37 1.6 121.14 1.92 121.14 2.02 120.78"/><polygon class="cls-2" points="2.98 115.07 3.08 115.44 3.41 115.44 3.15 115.66 3.25 116.03 2.98 115.8 2.72 116.03 2.82 115.66 2.56 115.44 2.88 115.44 2.98 115.07"/><polygon class="cls-2" points="2.98 116.69 3.08 117.05 3.41 117.05 3.15 117.28 3.25 117.65 2.98 117.42 2.72 117.65 2.82 117.28 2.56 117.05 2.88 117.05 2.98 116.69"/><polygon class="cls-2" points="2.98 118.31 3.08 118.67 3.41 118.67 3.15 118.9 3.25 119.26 2.98 119.04 2.72 119.26 2.82 118.9 2.56 118.67 2.88 118.67 2.98 118.31"/><polygon class="cls-2" points="2.98 119.92 3.08 120.29 3.41 120.29 3.15 120.52 3.25 120.88 2.98 120.66 2.72 120.88 2.82 120.52 2.56 120.29 2.88 120.29 2.98 119.92"/><polygon class="cls-2" points="2.98 121.54 3.08 121.91 3.41 121.91 3.15 122.13 3.25 122.5 2.98 122.27 2.72 122.5 2.82 122.13 2.56 121.91 2.88 121.91 2.98 121.54"/><polygon class="cls-2" points="3.93 115.92 4.03 116.29 4.36 116.29 4.09 116.52 4.2 116.88 3.93 116.66 3.67 116.88 3.77 116.52 3.51 116.29 3.83 116.29 3.93 115.92"/><polygon class="cls-2" points="3.93 117.54 4.03 117.91 4.36 117.91 4.09 118.13 4.2 118.5 3.93 118.27 3.67 118.5 3.77 118.13 3.51 117.91 3.83 117.91 3.93 117.54"/><polygon class="cls-2" points="3.93 119.16 4.03 119.52 4.36 119.52 4.09 119.75 4.2 120.12 3.93 119.89 3.67 120.12 3.77 119.75 3.51 119.52 3.83 119.52 3.93 119.16"/><polygon class="cls-2" points="3.93 120.78 4.03 121.14 4.36 121.14 4.09 121.37 4.2 121.73 3.93 121.51 3.67 121.73 3.77 121.37 3.51 121.14 3.83 121.14 3.93 120.78"/><polygon class="cls-2" points="4.89 115.07 5 115.44 5.32 115.44 5.05 115.66 5.16 116.03 4.89 115.8 4.63 116.03 4.73 115.66 4.47 115.44 4.79 115.44 4.89 115.07"/><polygon class="cls-2" points="4.89 116.69 5 117.05 5.32 117.05 5.05 117.28 5.16 117.65 4.89 117.42 4.63 117.65 4.73 117.28 4.47 117.05 4.79 117.05 4.89 116.69"/><polygon class="cls-2" points="4.89 118.31 5 118.67 5.32 118.67 5.05 118.9 5.16 119.26 4.89 119.04 4.63 119.26 4.73 118.9 4.47 118.67 4.79 118.67 4.89 118.31"/><polygon class="cls-2" points="4.89 119.92 5 120.29 5.32 120.29 5.05 120.52 5.16 120.88 4.89 120.66 4.63 120.88 4.73 120.52 4.47 120.29 4.79 120.29 4.89 119.92"/><polygon class="cls-2" points="4.89 121.54 5 121.91 5.32 121.91 5.05 122.13 5.16 122.5 4.89 122.27 4.63 122.5 4.73 122.13 4.47 121.91 4.79 121.91 4.89 121.54"/><polygon class="cls-2" points="5.84 115.92 5.94 116.29 6.27 116.29 6.01 116.52 6.11 116.88 5.84 116.66 5.58 116.88 5.68 116.52 5.42 116.29 5.74 116.29 5.84 115.92"/><polygon class="cls-2" points="5.84 117.54 5.94 117.91 6.27 117.91 6.01 118.13 6.11 118.5 5.84 118.27 5.58 118.5 5.68 118.13 5.42 117.91 5.74 117.91 5.84 117.54"/><polygon class="cls-2" points="5.84 119.16 5.94 119.52 6.27 119.52 6.01 119.75 6.11 120.12 5.84 119.89 5.58 120.12 5.68 119.75 5.42 119.52 5.74 119.52 5.84 119.16"/><polygon class="cls-2" points="5.84 120.78 5.94 121.14 6.27 121.14 6.01 121.37 6.11 121.73 5.84 121.51 5.58 121.73 5.68 121.37 5.42 121.14 5.74 121.14 5.84 120.78"/><polygon class="cls-2" points="6.8 115.07 6.91 115.44 7.23 115.44 6.97 115.66 7.07 116.03 6.8 115.8 6.54 116.03 6.64 115.66 6.38 115.44 6.7 115.44 6.8 115.07"/><polygon class="cls-2" points="6.8 116.69 6.91 117.05 7.23 117.05 6.97 117.28 7.07 117.65 6.8 117.42 6.54 117.65 6.64 117.28 6.38 117.05 6.7 117.05 6.8 116.69"/><polygon class="cls-2" points="6.8 118.31 6.91 118.67 7.23 118.67 6.97 118.9 7.07 119.26 6.8 119.04 6.54 119.26 6.64 118.9 6.38 118.67 6.7 118.67 6.8 118.31"/><polygon class="cls-2" points="6.8 119.92 6.91 120.29 7.23 120.29 6.97 120.52 7.07 120.88 6.8 120.66 6.54 120.88 6.64 120.52 6.38 120.29 6.7 120.29 6.8 119.92"/><polygon class="cls-2" points="6.8 121.54 6.91 121.91 7.23 121.91 6.97 122.13 7.07 122.5 6.8 122.27 6.54 122.5 6.64 122.13 6.38 121.91 6.7 121.91 6.8 121.54"/><polygon class="cls-2" points="7.75 115.92 7.85 116.29 8.18 116.29 7.92 116.52 8.02 116.88 7.75 116.66 7.49 116.88 7.59 116.52 7.33 116.29 7.66 116.29 7.75 115.92"/><polygon class="cls-2" points="7.75 117.54 7.85 117.91 8.18 117.91 7.92 118.13 8.02 118.5 7.75 118.27 7.49 118.5 7.59 118.13 7.33 117.91 7.66 117.91 7.75 117.54"/><polygon class="cls-2" points="7.75 119.16 7.85 119.52 8.18 119.52 7.92 119.75 8.02 120.12 7.75 119.89 7.49 120.12 7.59 119.75 7.33 119.52 7.66 119.52 7.75 119.16"/><polygon class="cls-2" points="7.75 120.78 7.85 121.14 8.18 121.14 7.92 121.37 8.02 121.73 7.75 121.51 7.49 121.73 7.59 121.37 7.33 121.14 7.66 121.14 7.75 120.78"/><polygon class="cls-2" points="8.72 115.07 8.82 115.44 9.14 115.44 8.88 115.66 8.98 116.03 8.72 115.8 8.46 116.03 8.55 115.66 8.29 115.44 8.62 115.44 8.72 115.07"/><polygon class="cls-2" points="8.72 116.69 8.82 117.05 9.14 117.05 8.88 117.28 8.98 117.65 8.72 117.42 8.46 117.65 8.55 117.28 8.29 117.05 8.62 117.05 8.72 116.69"/><polygon class="cls-2" points="8.72 118.31 8.82 118.67 9.14 118.67 8.88 118.9 8.98 119.26 8.72 119.04 8.46 119.26 8.55 118.9 8.29 118.67 8.62 118.67 8.72 118.31"/><polygon class="cls-2" points="8.72 119.92 8.82 120.29 9.14 120.29 8.88 120.52 8.98 120.88 8.72 120.66 8.46 120.88 8.55 120.52 8.29 120.29 8.62 120.29 8.72 119.92"/><polygon class="cls-2" points="8.72 121.54 8.82 121.91 9.14 121.91 8.88 122.13 8.98 122.5 8.72 122.27 8.46 122.5 8.55 122.13 8.29 121.91 8.62 121.91 8.72 121.54"/><polygon class="cls-2" points="9.67 115.92 9.77 116.29 10.09 116.29 9.83 116.52 9.93 116.88 9.67 116.66 9.4 116.88 9.5 116.52 9.24 116.29 9.56 116.29 9.67 115.92"/><polygon class="cls-2" points="9.67 117.54 9.77 117.91 10.09 117.91 9.83 118.13 9.93 118.5 9.67 118.27 9.4 118.5 9.5 118.13 9.24 117.91 9.56 117.91 9.67 117.54"/><polygon class="cls-2" points="9.67 119.16 9.77 119.52 10.09 119.52 9.83 119.75 9.93 120.12 9.67 119.89 9.4 120.12 9.5 119.75 9.24 119.52 9.56 119.52 9.67 119.16"/><polygon class="cls-2" points="9.67 120.78 9.77 121.14 10.09 121.14 9.83 121.37 9.93 121.73 9.67 121.51 9.4 121.73 9.5 121.37 9.24 121.14 9.56 121.14 9.67 120.78"/><polygon class="cls-2" points="10.63 115.07 10.73 115.44 11.05 115.44 10.79 115.66 10.89 116.03 10.63 115.8 10.37 116.03 10.46 115.66 10.2 115.44 10.53 115.44 10.63 115.07"/><polygon class="cls-2" points="10.63 116.69 10.73 117.05 11.05 117.05 10.79 117.28 10.89 117.65 10.63 117.42 10.37 117.65 10.46 117.28 10.2 117.05 10.53 117.05 10.63 116.69"/><polygon class="cls-2" points="10.63 118.31 10.73 118.67 11.05 118.67 10.79 118.9 10.89 119.26 10.63 119.04 10.37 119.26 10.46 118.9 10.2 118.67 10.53 118.67 10.63 118.31"/><polygon class="cls-2" points="10.63 119.92 10.73 120.29 11.05 120.29 10.79 120.52 10.89 120.88 10.63 120.66 10.37 120.88 10.46 120.52 10.2 120.29 10.53 120.29 10.63 119.92"/><polygon class="cls-2" points="10.63 121.54 10.73 121.91 11.05 121.91 10.79 122.13 10.89 122.5 10.63 122.27 10.37 122.5 10.46 122.13 10.2 121.91 10.53 121.91 10.63 121.54"/></g></g><g id="SOUTH_AFRICA" data-name="SOUTH AFRICA"><rect class="cls-2" y="152" width="26" height="18"/><g class="cls-13"><polygon class="cls-14" points="4.56 152 12.14 158 26 158 26 152 4.56 152"/><polygon class="cls-2" points="13.66 159.2 26 159.2 26 158 12.14 158 13.66 159.2"/><polygon class="cls-2" points="12.14 164 26 164 26 162.8 13.66 162.8 12.14 164"/><polygon class="cls-15" points="12.14 164 4.56 170 26 170 26 164 12.14 164"/><polygon points="0 158 3.02 158 0 155.6 0 158"/><polygon points="0 158 0 164 3.02 164 6.82 161 3.02 158 0 158"/><polygon points="0 164 0 166.39 3.02 164 0 164"/><polygon class="cls-16" points="0 155.6 6.82 161 0 166.39 0 167.83 8.64 161 0 154.16 0 155.6"/><polygon class="cls-17" points="0 152 0 154.16 8.64 161 0 167.83 0 170 2.73 170 11.83 162.8 26 162.8 26 159.2 11.83 159.2 2.73 152 0 152"/></g></g></svg>