<?xml version="1.0" encoding="utf-8"?>
<!-- Generator: Adobe Illustrator 21.0.2, SVG Export Plug-In . SVG Version: 6.00 Build 0)  -->
<svg version="1.1" id="Capa_1" xmlns="http://www.w3.org/2000/svg" xmlns:xlink="http://www.w3.org/1999/xlink" x="0px" y="0px"
	 viewBox="0 0 512 512" style="enable-background:new 0 0 512 512;" xml:space="preserve">
<style type="text/css">
	.st0{fill:#E94B4E;}
	.st1{fill:#00BBD3;}
	.st2{fill:#009093;}
	.st3{fill:#FFFFFF;}
	.st4{fill:#1A3947;}
</style>
<rect x="67.7" y="86.3" class="st0" width="331.1" height="103.7"/>
<rect x="349.8" y="193.7" class="st1" width="150" height="40.2"/>
<rect x="350.5" y="416.6" class="st2" width="149.3" height="48.6"/>
<rect x="70.7" y="184" class="st0" width="279.2" height="101.5"/>
<rect x="5" y="333.2" class="st2" width="181.1" height="13.2"/>
<rect x="17" y="346.3" class="st2" width="321.3" height="44.8"/>
<path class="st3" d="M151.9,193.4l53,40.1c2.7,2,6.5,1.5,8.5-1.2c2-2.7,1.5-6.5-1.2-8.5l-46.6-35.2l46.6-35.2
	c2.7-2.1,3.1-5.9,1.1-8.6c-2-2.6-5.8-3.1-8.4-1.2l-53,40.1c-2.7,2-3.2,5.9-1.2,8.5C151.1,192.7,151.5,193.1,151.9,193.4z"/>
<path class="st3" d="M255.5,232.4c2,2.7,5.9,3.2,8.5,1.2l53-40.1c2.7-2,3.2-5.9,1.2-8.5c-0.3-0.4-0.7-0.8-1.2-1.2l-53-40.1
	c-2.7-2-6.5-1.5-8.5,1.1c-2,2.7-1.5,6.5,1.1,8.5c0,0,0,0,0.1,0.1l46.6,35.2l-46.6,35.2C254,225.8,253.5,229.7,255.5,232.4
	C255.5,232.4,255.5,232.4,255.5,232.4L255.5,232.4z"/>
<path class="st3" d="M224.5,254.7c3.3,0.5,6.4-1.8,6.9-5.1v0L249.6,130c0.5-3.3-1.8-6.4-5.1-6.9c-3.3-0.5-6.4,1.8-6.9,5.1
	l-18.1,119.6C218.9,251.1,221.2,254.2,224.5,254.7L224.5,254.7z"/>
<rect x="284" y="333.2" class="st2" width="56.2" height="13.2"/>
<rect x="11.5" y="338.4" class="st2" width="12.5" height="44.8"/>
<path class="st4" d="M482.4,183.9H449V80.3c-0.2-25.2-20.6-45.6-45.8-45.8H65.8c-25,0-45.4,20.7-45.4,45.8V322H5.7
	c-3.2,0-5.8,2.7-5.7,5.9c0,0.1,0,0.2,0,0.2v30.2c-0.1,24.7,19.8,44.9,44.6,45c0.1,0,0.3,0,0.4,0h293.3v43.8
	c0,16.5,13,30.3,29.5,30.3h114.6c16.5,0,29.6-13.8,29.6-30.3V213.9c0.2-16.4-13-29.9-29.5-30C482.5,183.9,482.5,183.9,482.4,183.9
	L482.4,183.9z M397.2,183.9h-29.4c-16.4,0.1-29.6,13.5-29.5,29.9c0,0,0,0.1,0,0.1v71.5H71.1V88.4h326.1V183.9z M350.5,242.8h149.3
	v165.6H350.5V242.8z M499.8,213.9v16.7H350.5v-16.7c0-9.8,7.5-17.8,17.3-17.8h114.6c9.7,0.1,17.5,8,17.4,17.7
	C499.8,213.8,499.8,213.9,499.8,213.9z M32.5,80.3c0-18.3,15-33.6,33.2-33.6h337.5c18.5,0.2,33.4,15.1,33.6,33.6v103.6h-27.4V82.6
	c0-3.4-2.3-6.4-5.7-6.4H65.2c-3.5,0.1-6.2,2.9-6.3,6.4V292c0,3.4,2.9,5.7,6.3,5.7h273V322h-46.2c-1.7,0-3.3,0.7-4.5,2l-8,8.7
	c-6.3,6.8-15.1,10.7-24.4,10.7h-41.5c-9.3,0-18.1-3.9-24.4-10.7l-8-8.7c-1.2-1.3-2.8-2-4.5-2H32.5L32.5,80.3z M45,391.1
	c-18,0.1-32.7-14.3-32.8-32.3c0-0.2,0-0.3,0-0.5v-24.1h162l6.2,6.7c8.6,9.3,20.7,14.6,33.4,14.6h41.5c12.7,0,24.8-5.3,33.4-14.6
	l6.2-6.7h43.5v56.9H45z M482.4,465.3H367.8c-9.8,0-17.3-8.4-17.3-18.1v-26.6h149.3v26.6C499.8,456.9,492.2,465.3,482.4,465.3
	L482.4,465.3z"/>
<path class="st4" d="M404.8,218.4h40.6c3.4,0,6.1-2.7,6.1-6.1c0-3.4-2.7-6.1-6.1-6.1h-40.6c-3.4,0-6.1,2.7-6.1,6.1
	C398.7,215.7,401.5,218.4,404.8,218.4z"/>
<path class="st4" d="M425.1,424.3c-10.3,0-18.6,8.3-18.6,18.6c0,10.3,8.3,18.6,18.6,18.6c10.3,0,18.6-8.3,18.6-18.6v0
	C443.7,432.6,435.4,424.3,425.1,424.3z M425.1,449.3c-3.5,0-6.4-2.9-6.4-6.4c0-3.5,2.9-6.4,6.4-6.4c3.5,0,6.4,2.9,6.4,6.4v0
	C431.5,446.4,428.6,449.3,425.1,449.3L425.1,449.3z"/>
<path class="st4" d="M395,271.2h93c3.4,0,6.1-2.7,6.1-6.1c0-3.4-2.7-6.1-6.1-6.1h-93c-3.4,0-6.1,2.7-6.1,6.1
	C388.9,268.5,391.6,271.2,395,271.2z"/>
<path class="st4" d="M488,289.5h-93c-3.4,0-6.1,2.7-6.1,6.1s2.7,6.1,6.1,6.1h93c3.4,0,6.1-2.7,6.1-6.1S491.3,289.5,488,289.5z"/>
<path class="st4" d="M488,319h-93c-3.4,0-6.1,2.7-6.1,6.1c0,3.4,2.7,6.1,6.1,6.1h93c3.4,0,6.1-2.7,6.1-6.1
	C494.1,321.7,491.3,319,488,319z"/>
<path class="st4" d="M488,349.5h-93c-3.4,0-6.1,2.7-6.1,6.1c0,3.4,2.7,6.1,6.1,6.1h93c3.4,0,6.1-2.7,6.1-6.1
	C494.1,352.2,491.3,349.5,488,349.5z"/>
<path class="st4" d="M488,379.9h-93c-3.4,0-6.1,2.7-6.1,6.1c0,3.4,2.7,6.1,6.1,6.1h93c3.4,0,6.1-2.7,6.1-6.1
	C494.1,382.7,491.3,379.9,488,379.9z"/>
<path class="st4" d="M375.9,259h-13.6c-3.4,0-6.1,2.7-6.1,6.1c0,3.4,2.7,6.1,6.1,6.1h13.6c3.4,0,6.1-2.7,6.1-6.1
	C382,261.8,379.2,259,375.9,259z"/>
<path class="st4" d="M375.9,289.5h-13.6c-3.4,0-6.1,2.7-6.1,6.1s2.7,6.1,6.1,6.1h13.6c3.4,0,6.1-2.7,6.1-6.1
	S379.2,289.5,375.9,289.5z"/>
<path class="st4" d="M375.9,319h-13.6c-3.4,0-6.1,2.7-6.1,6.1c0,3.4,2.7,6.1,6.1,6.1h13.6c3.4,0,6.1-2.7,6.1-6.1
	C382,321.7,379.2,319,375.9,319z"/>
<path class="st4" d="M375.9,349.5h-13.6c-3.4,0-6.1,2.7-6.1,6.1c0,3.4,2.7,6.1,6.1,6.1h13.6c3.4,0,6.1-2.7,6.1-6.1
	C382,352.2,379.2,349.5,375.9,349.5z"/>
<path class="st4" d="M375.9,379.9h-13.6c-3.4,0-6.1,2.7-6.1,6.1c0,3.4,2.7,6.1,6.1,6.1h13.6c3.4,0,6.1-2.7,6.1-6.1
	C382,382.7,379.2,379.9,375.9,379.9z"/>
</svg>
