<?xml version="1.0" encoding="utf-8"?>
<!-- Generator: Adobe Illustrator 21.0.2, SVG Export Plug-In . SVG Version: 6.00 Build 0)  -->
<svg version="1.1" id="Layer_3" xmlns="http://www.w3.org/2000/svg" xmlns:xlink="http://www.w3.org/1999/xlink" x="0px" y="0px"
	 viewBox="0 0 512 512" style="enable-background:new 0 0 512 512;" xml:space="preserve">
<style type="text/css">
	.st0{fill:#FEFEFE;}
</style>
<g>
	<path class="st0" d="M396.4,33h16.5v16.5h-16.5V33z"/>
	<path class="st0" d="M363.4,33h16.5v16.5h-16.5V33z"/>
	<path class="st0" d="M330.3,33h16.5v16.5h-16.5V33z"/>
	<path class="st0" d="M132.1,192.2v-10.5h8.3c4.6,0,8.3-3.7,8.3-8.3v-33c0-4.6-3.7-8.3-8.3-8.3H57.8c-4.6,0-8.3,3.7-8.3,8.3v33
		c0,4.6,3.7,8.3,8.3,8.3h8.3v10.5c-19.7,7.7-33,26.7-33,48.3v81.6c0,13.7,11.1,24.8,24.8,24.8h82.6c13.7,0,24.8-11.1,24.8-24.8
		v-81.6C165.2,218.9,151.9,199.8,132.1,192.2z M66.1,148.6h66.1v16.5H66.1V148.6z M76.3,206.2c3.7-0.9,6.3-4.2,6.3-8v-16.5h33v16.5
		c0,3.8,2.6,7.1,6.3,8c6,1.5,11.3,4.5,15.6,8.5H60.7C65,210.7,70.3,207.7,76.3,206.2z M50.9,231.2h96.4c0.8,3,1.4,6.1,1.4,9.3v56.8
		H49.5v-56.8C49.5,237.3,50.1,234.2,50.9,231.2L50.9,231.2z M140.4,330.3H57.8c-4.6,0-8.3-3.7-8.3-8.3v-8.3h99.1v8.3
		C148.6,326.6,144.9,330.3,140.4,330.3z"/>
	<path class="st0" d="M247.7,247.7c0-18.2-14.8-33-33-33s-33,14.8-33,33s14.8,33,33,33S247.7,266,247.7,247.7z M231.2,247.7
		c0,1.5-0.3,2.9-0.6,4.2l-20.1-20.1c1.4-0.4,2.8-0.6,4.2-0.6C223.8,231.2,231.2,238.6,231.2,247.7L231.2,247.7z M198.2,247.7
		c0-1.5,0.3-2.9,0.6-4.2l20.1,20.1c-1.4,0.4-2.8,0.6-4.2,0.6C205.6,264.3,198.2,256.9,198.2,247.7L198.2,247.7z"/>
	<path class="st0" d="M231.2,165.2c0-18.2-14.8-33-33-33s-33,14.8-33,33s14.8,33,33,33S231.2,183.4,231.2,165.2z M198.2,181.7
		c-1.5,0-2.9-0.3-4.2-0.6l20.1-20.1c0.4,1.4,0.6,2.8,0.6,4.2C214.7,174.3,207.3,181.7,198.2,181.7L198.2,181.7z M198.2,148.6
		c1.5,0,2.9,0.3,4.2,0.6l-20.1,20.1c-0.4-1.4-0.6-2.8-0.6-4.2C181.7,156.1,189.1,148.6,198.2,148.6L198.2,148.6z"/>
	<path class="st0" d="M487.2,264.3h-41.3v-223c0-22.8-18.5-41.3-41.3-41.3H41.3C18.5,0,0,18.5,0,41.3v297.3
		c0,22.8,18.5,41.3,41.3,41.3h173.4v34.6c-9.6,3.4-16.5,12.5-16.5,23.3c0,13.7,11.1,24.8,24.8,24.8h12.8c-2.8,4.9-4.6,10.5-4.6,16.5
		c0,18.2,14.8,33,33,33c18.2,0,33-14.8,33-33c0-6-1.8-11.6-4.6-16.5h58.7c-2.8,4.9-4.6,10.5-4.6,16.5c0,18.2,14.8,33,33,33
		c18.2,0,33-14.8,33-33c0-6-1.8-11.6-4.6-16.5h12.8c3.7,0,7-2.5,8-6l39.6-142.6h18.5c13.7,0,24.8-11.1,24.8-24.8
		C512,275.4,500.9,264.3,487.2,264.3L487.2,264.3z M41.3,16.5h363.4c13.7,0,24.8,11.1,24.8,24.8v24.8H16.5V41.3
		C16.5,27.6,27.6,16.5,41.3,16.5z M16.5,99.1V82.6h49.5v16.5H16.5z M82.6,82.6h49.5v16.5H82.6V82.6z M148.6,82.6h49.5v16.5h-49.5
		V82.6z M214.7,82.6h49.5v16.5h-49.5V82.6z M280.8,82.6h49.5v8.3c0,4.6-3.7,8.3-8.3,8.3h-41.3V82.6z M41.3,363.4
		c-13.7,0-24.8-11.1-24.8-24.8v-223h305.5c13.7,0,24.8-11.1,24.8-24.8v-8.3h82.6v188.8l-7.2,25.9h-60.5l8.4-11.7
		c1.8-2.5,2-5.8,0.6-8.6c-1.4-2.7-4.2-4.5-7.3-4.5h-16.5V223c0-4.6-3.7-8.3-8.3-8.3h-33c-4.6,0-8.3,3.7-8.3,8.3v49.5h-16.5
		c-3.1,0-5.9,1.7-7.3,4.5c-1.4,2.8-1.2,6.1,0.6,8.6l8.4,11.7H223c-4.6,0-8.3,3.7-8.3,8.3v57.8H41.3z M338.6,289h8.7l-25.2,35.3
		L296.8,289h8.7c4.6,0,8.3-3.7,8.3-8.3v-49.5h16.5v49.5C330.3,285.3,334,289,338.6,289z M315.3,343.4c1.6,2.2,4.1,3.5,6.7,3.5
		c2.7,0,5.2-1.3,6.7-3.5l21.1-29.6h67.7l-27.5,99.1H231.2v-99.1h63L315.3,343.4z M280.8,479c0,9.1-7.4,16.5-16.5,16.5
		s-16.5-7.4-16.5-16.5s7.4-16.5,16.5-16.5S280.8,469.9,280.8,479z M396.4,479c0,9.1-7.4,16.5-16.5,16.5c-9.1,0-16.5-7.4-16.5-16.5
		s7.4-16.5,16.5-16.5C389,462.5,396.4,469.9,396.4,479z M487.2,297.3h-24.8c-3.7,0-7,2.5-8,6l-39.6,142.6H223
		c-4.6,0-8.3-3.7-8.3-8.3s3.7-8.3,8.3-8.3h173.4c3.7,0,7-2.5,8-6L444,280.8h43.3c4.6,0,8.3,3.7,8.3,8.3S491.8,297.3,487.2,297.3z"/>
	<path class="st0" d="M297.3,181.7h49.5v16.5h-49.5V181.7z"/>
</g>
</svg>
