<svg width="49" height="36" viewBox="0 0 49 36" fill="none" xmlns="http://www.w3.org/2000/svg">
<path d="M20 3.64C19.936 3.64 19.872 3.672 19.808 3.736C19.808 3.736 19.776 3.736 19.712 3.736C17.088 4.76 14.656 6.36 12.416 8.536C10.24 10.648 9.152 13.272 9.152 16.408C9.152 16.6 9.152 16.792 9.152 16.984C9.152 17.112 9.152 17.24 9.152 17.368C9.152 17.496 9.152 17.656 9.152 17.848C9.216 17.976 9.28 18.136 9.344 18.328C9.984 18.072 10.624 17.88 11.264 17.752C11.904 17.624 12.544 17.56 13.184 17.56C15.616 17.56 17.76 18.392 19.616 20.056C21.536 21.72 22.496 23.832 22.496 26.392C22.496 29.336 21.504 31.672 19.52 33.4C17.6 35.064 15.232 35.896 12.416 35.896C8.64 35.896 5.696 34.456 3.584 31.576C1.536 28.696 0.512 25.496 0.512 21.976C0.512 16.28 2.272 11.704 5.792 8.248C9.376 4.792 13.632 2.2 18.56 0.471998L20 3.64ZM46.208 3.64C46.144 3.64 46.048 3.672 45.92 3.736C45.856 3.8 45.76 3.832 45.632 3.832C43.072 4.856 40.704 6.456 38.528 8.632C36.352 10.808 35.264 13.4 35.264 16.408C35.264 16.6 35.264 16.792 35.264 16.984C35.264 17.112 35.264 17.24 35.264 17.368C35.264 17.496 35.264 17.656 35.264 17.848C35.328 17.976 35.392 18.136 35.456 18.328C36.096 18.072 36.736 17.88 37.376 17.752C38.016 17.624 38.656 17.56 39.296 17.56C41.728 17.56 43.872 18.392 45.728 20.056C47.648 21.72 48.608 23.832 48.608 26.392C48.608 29.336 47.616 31.672 45.632 33.4C43.712 35.064 41.344 35.896 38.528 35.896C34.816 35.896 31.904 34.488 29.792 31.672C27.744 28.792 26.688 25.656 26.624 22.264C26.624 22.2 26.624 22.168 26.624 22.168C26.624 22.104 26.624 22.04 26.624 21.976C26.624 16.28 28.384 11.704 31.904 8.248C35.488 4.792 39.744 2.2 44.672 0.471998L46.208 3.64Z" fill="#0097A7"/>
</svg>
