<?xml version="1.0" encoding="utf-8"?>
<!-- Generator: Adobe Illustrator 21.0.2, SVG Export Plug-In . SVG Version: 6.00 Build 0)  -->
<svg version="1.1" id="Слой_1" xmlns="http://www.w3.org/2000/svg" xmlns:xlink="http://www.w3.org/1999/xlink" x="0px" y="0px"
	 viewBox="0 0 512 512" style="enable-background:new 0 0 512 512;" xml:space="preserve">
<style type="text/css">
	.st0{fill:#00BBD3;}
	.st1{fill:#17BCD3;}
	.st2{fill:#E42238;}
	.st3{fill:#0B98A8;}
	.st4{fill:#1A3947;}
	.st5{fill:#F05656;}
</style>
<g>
	<g>
		<path class="st0" d="M392.5,104C368.2,35.3,292.7-0.8,224,23.6c-50.7,17.9-85.4,64.8-87.9,118.5h0c-45.3-17.7-96.3,4.6-114.1,49.8
			c-12.4,31.7-5.4,67.7,17.9,92.5c0.4,0.4,0.8,0.8,1.1,1.2C57.7,302.5,80.3,312,104,312h288c57.4-0.3,103.8-47.1,103.5-104.5
			C495.2,150.6,449.3,104.5,392.5,104z"/>
		<g>
			<circle class="st1" cx="256" cy="480" r="16"/>
			<circle class="st2" cx="135" cy="424" r="16"/>
			<circle class="st3" cx="377" cy="480" r="16"/>
		</g>
	</g>
	<g>
		<path class="st4" d="M398.1,96.2C369.4,24.3,288-10.7,216.2,17.9c-47.6,19-81,62.5-87.2,113.3C77.8,117.5,25.1,147.8,11.3,199
			c-8.7,32.2,0,66.6,22.8,90.8c0.4,0.5,0.9,1,1.3,1.4c18,18.5,42.8,28.9,68.6,28.8h88v96h-34.4c-4.4-12.5-18.1-19-30.6-14.6
			s-19,18.1-14.6,30.6c4.4,12.5,18.1,19,30.6,14.6c6.8-2.4,12.2-7.8,14.6-14.6H200c4.4,0,8-3.6,8-8V320h40v137.4
			c-12.5,4.4-19,18.1-14.6,30.6c4.4,12.5,18.1,19,30.6,14.6c12.5-4.4,19-18.1,14.6-30.6c-2.4-6.8-7.8-12.2-14.6-14.6V320h40v160
			c0,4.4,3.6,8,8,8h42.4c4.4,12.5,18.1,19,30.6,14.6c12.5-4.4,19-18.1,14.6-30.6c-4.4-12.5-18.1-19-30.6-14.6
			c-6.8,2.4-12.2,7.8-14.6,14.6H320V320h72c61.9,0,112-50.1,112-112C504,148.4,457,99.3,398.1,96.2L398.1,96.2z M135,432
			c-4.4,0-8-3.6-8-8s3.6-8,8-8s8,3.6,8,8C143,428.4,139.4,432,135,432z M377,472c4.4,0,8,3.6,8,8s-3.6,8-8,8s-8-3.6-8-8
			C369,475.6,372.6,472,377,472z M256,488c-4.4,0-8-3.6-8-8s3.6-8,8-8s8,3.6,8,8C264,484.4,260.4,488,256,488z M458.5,277.3
			C440.6,294.5,416.8,304,392,304H104c-21.5,0.1-42.2-8.6-57.2-24.1c-0.3-0.3-0.6-0.6-1-1c-30.3-32.1-28.8-82.8,3.3-113.1
			c22.5-21.2,55.2-27.6,84-16.3c4.1,1.7,8.8-0.3,10.4-4.4c0.3-0.8,0.5-1.7,0.6-2.6C147.2,74,205.2,21,273.6,24.1
			c50.5,2.3,94.5,34.9,111.3,82.5c1.1,3.2,4.1,5.3,7.5,5.3c52.8,0.4,95.4,43.2,95.6,96C488.1,234.2,477.4,259.2,458.5,277.3z"/>
		<path class="st5" d="M168,272h-64c-4.4,0-8,3.6-8,8s3.6,8,8,8h64c4.4,0,8-3.6,8-8S172.4,272,168,272z"/>
		<path class="st5" d="M200,272h-8c-4.4,0-8,3.6-8,8s3.6,8,8,8h8c4.4,0,8-3.6,8-8S204.4,272,200,272z"/>
	</g>
</g>
</svg>
