<?xml version="1.0" encoding="utf-8"?>
<!-- Generator: Adobe Illustrator 21.0.2, SVG Export Plug-In . SVG Version: 6.00 Build 0)  -->
<svg version="1.1" id="Layer_1" xmlns="http://www.w3.org/2000/svg" xmlns:xlink="http://www.w3.org/1999/xlink" x="0px" y="0px"
	 viewBox="0 0 512 512" style="enable-background:new 0 0 512 512;" xml:space="preserve">
<style type="text/css">
	.st0{fill:#0B98A8;}
	.st1{fill:#17BCD3;}
	.st2{fill:#B7E3EC;}
	.st3{fill:#BDBDBD;}
	.st4{fill:#FFFFFF;}
	.st5{fill:#E42238;}
	.st6{fill:#D84C4C;}
	.st7{fill:#1A3947;}
</style>
<path class="st0" d="M503.7,74.7V391c0,17.9-14.5,32.4-32.4,32.4H40.8c-17.9,0-32.4-14.5-32.4-32.4V74.7c0-17.9,14.5-32.4,32.4-32.4
	h430.5C489.2,42.3,503.7,56.8,503.7,74.7z"/>
<path class="st1" d="M503.7,74.7V391c0,17.9-14.5,32.4-32.4,32.4H183.3l23.8-57.9L339.7,42.3h131.6
	C489.2,42.3,503.7,56.8,503.7,74.7z"/>
<path class="st2" d="M503.7,74.7v290.8H8.3V74.7c0-17.9,14.5-32.4,32.4-32.4h430.5C489.2,42.3,503.7,56.8,503.7,74.7z"/>
<path class="st2" d="M503.7,74.7v290.8H207.1L339.7,42.3h131.6C489.2,42.3,503.7,56.8,503.7,74.7z"/>
<polygon class="st3" points="343.5,488.1 168.5,488.1 181,458.8 196.2,423.5 315.8,423.5 331,458.8 "/>
<path class="st4" d="M347.5,326.6c-6.4,0-12.3,2.2-17.1,5.8c-4.7-16.5-19.9-28.6-37.9-28.6c-2.9,0-5.8,0.3-8.5,0.9l0-104.3H228
	v104.3c-2.7-0.6-5.6-0.9-8.5-0.9c-18,0-33.2,12.1-37.9,28.6c-4.7-3.6-10.6-5.8-17-5.8c-15.5,0-28,12.5-28,28c0,4.6,1.1,9,3.1,12.8
	h232.8c2-3.8,3.1-8.2,3.1-12.8C375.5,339.1,363,326.6,347.5,326.6z"/>
<path class="st5" d="M306.1,145.8c0,0,49.7,26.3,24.6,96c0,0-29.2-25.2-74.6-25.2s-74.6,25.2-74.6,25.2c-25.2-69.7,24.6-96,24.6-96"
	/>
<path class="st4" d="M308.7,121.6c0,40.1-21.1,75.3-52.7,95.1c-5.3-3.3-10.3-7-14.9-11.2c-23.2-20.5-37.8-50.5-37.8-83.9
	c0-40.1,21.1-75.3,52.7-95.1C287.7,46.3,308.7,81.5,308.7,121.6z"/>
<path class="st5" d="M294.7,67.2C284.6,76.8,271,82.6,256,82.6c-6.5,0-12.7-1.1-18.5-3.1c-7.6-2.6-14.5-6.9-20.2-12.3
	c0.3-0.5,0.6-1,0.9-1.6c0.3-0.5,0.6-1,0.9-1.5c1.1-1.8,2.2-3.6,3.4-5.4c0.3-0.4,0.5-0.8,0.8-1.2l1-1.5c0.3-0.5,0.7-0.9,1-1.4
	c0.7-0.9,1.4-1.9,2.1-2.8s1.5-1.8,2.2-2.7c0.4-0.4,0.8-0.9,1.1-1.3c0.8-0.9,1.5-1.7,2.3-2.6c0.4-0.4,0.8-0.9,1.2-1.3
	c0.8-0.8,1.6-1.7,2.4-2.5c0.4-0.4,0.8-0.8,1.3-1.2c0.4-0.4,0.8-0.8,1.3-1.2c0.4-0.4,0.9-0.8,1.3-1.2c3.1-2.8,6.4-5.4,9.9-7.9
	c0.3-0.2,0.7-0.5,1.1-0.7c1.4-1,2.9-2,4.4-2.9C272.1,36.5,285.4,50.6,294.7,67.2z"/>
<path class="st6" d="M237.5,79.5c-7.6-2.6-14.5-6.9-20.2-12.3c0.3-0.5,0.6-1,0.9-1.6c0.3-0.5,0.6-1,0.9-1.5c1.1-1.8,2.2-3.6,3.4-5.4
	c0.3-0.4,0.5-0.8,0.8-1.2l1-1.5c0.3-0.5,0.7-0.9,1-1.4c0.7-0.9,1.4-1.9,2.1-2.8s1.5-1.8,2.2-2.7c0.4-0.4,0.8-0.9,1.1-1.3
	c0.8-0.9,1.5-1.7,2.3-2.6c0.4-0.4,0.8-0.9,1.2-1.3c0.8-0.8,1.6-1.7,2.4-2.5c0.4-0.4,0.8-0.8,1.3-1.2c0.4-0.4,0.8-0.8,1.3-1.2
	c0.4-0.4,0.9-0.8,1.3-1.2c3.1-2.8,6.4-5.4,9.9-7.9c0.3-0.2,0.7-0.5,1.1-0.7c1.4-1,2.9-2,4.4-2.9"/>
<circle class="st1" cx="257.5" cy="126.5" r="19.4"/>
<path class="st7" d="M247.7,253.6v83c0,4.6,3.7,8.3,8.3,8.3c4.6,0,8.3-3.7,8.3-8.3v-83c0-4.6-3.7-8.3-8.3-8.3
	C251.4,245.2,247.7,249,247.7,253.6z"/>
<path class="st7" d="M8.3,141c4.6,0,8.3-3.7,8.3-8.3V73.4c0-13.3,10.8-24.1,24.1-24.1h166.1c4.6,0,8.3-3.7,8.3-8.3s-3.7-8.3-8.3-8.3
	H40.8C18.3,32.7,0,50.9,0,73.4v59.2C0,137.2,3.7,141,8.3,141z"/>
<path class="st7" d="M471.3,32.7H305.8c-4.6,0-8.3,3.7-8.3,8.3s3.7,8.3,8.3,8.3h165.5c13.3,0,24.1,10.8,24.1,24.1v284.4h-52.2
	c-4.6,0-8.3,3.7-8.3,8.3c0,4.6,3.7,8.3,8.3,8.3h52.2v15.3c0,13.3-10.8,24.1-24.1,24.1H40.8c-13.3,0-24.1-10.8-24.1-24.1v-15.3h398.7
	c4.6,0,8.3-3.7,8.3-8.3c0-4.6-3.7-8.3-8.3-8.3h-31.8c0.2-1.5,0.3-3,0.3-4.5c0-20-16.3-36.4-36.4-36.4c-4.5,0-8.8,0.8-12.9,2.3
	c-8.2-15.2-24.3-25.2-42.1-25.2c-0.1,0-0.1,0-0.2,0v-40.6c0-4.6-3.7-8.3-8.3-8.3c-4.6,0-8.3,3.7-8.3,8.3v69.6c0,4.6,3.7,8.3,8.3,8.3
	c4.6,0,8.3-3.7,8.3-8.3v-12.3c0.1,0,0.1,0,0.2,0c13.8,0,26.1,9.3,29.9,22.6c0.8,2.7,2.8,4.8,5.4,5.6c2.6,0.9,5.5,0.4,7.7-1.3
	c3.5-2.7,7.6-4.1,12-4.1c10.9,0,19.7,8.8,19.7,19.7c0,1.5-0.2,3-0.5,4.5H145.4c-0.3-1.5-0.5-3-0.5-4.5c0-10.9,8.8-19.7,19.7-19.7
	c4.4,0,8.5,1.4,12,4.1c2.2,1.7,5.1,2.2,7.7,1.3c2.6-0.9,4.6-3,5.4-5.6c3.8-13.3,16.1-22.6,29.9-22.6c0.1,0,0.1,0,0.2,0v12.3
	c0,4.6,3.7,8.3,8.3,8.3s8.3-3.7,8.3-8.3v-69.6c0-4.6-3.7-8.3-8.3-8.3s-8.3,3.7-8.3,8.3v40.6c-0.1,0-0.1,0-0.2,0
	c-17.8,0-33.9,10-42.1,25.2c-4.1-1.5-8.4-2.3-12.9-2.3c-20,0-36.4,16.3-36.4,36.4c0,1.5,0.1,3,0.3,4.5H16.7V160.4
	c0-4.6-3.7-8.3-8.3-8.3S0,155.8,0,160.4v229.3c0,22.5,18.3,40.7,40.8,40.7h142.8L163,478.4h-40c-4.6,0-8.3,3.7-8.3,8.3
	c0,4.6,3.7,8.3,8.3,8.3h266c4.6,0,8.3-3.7,8.3-8.3c0-4.6-3.7-8.3-8.3-8.3h-40l-20.5-47.9h142.8c22.5,0,40.7-18.3,40.7-40.7V73.4
	C512,50.9,493.7,32.7,471.3,32.7z M330.8,478.5H181.2l14.2-33.3h121.2L330.8,478.5z"/>
<path class="st7" d="M247.8,390.8c-0.6,3.5,1.1,7.1,4.3,8.8c3.1,1.7,7.1,1.1,9.7-1.3c2.9-2.8,3.4-7.3,1.2-10.7
	C258.9,381.4,249.1,383.6,247.8,390.8z"/>
<path class="st7" d="M196.7,140.7c-5.2,3.8-13.1,10.7-19.6,21.4c-17.1,28.1-11.3,59.7-3.6,81.3c0.9,2.6,3.1,4.5,5.7,5.2
	c2.6,0.7,5.5,0.1,7.6-1.7c0.3-0.2,27.7-23.2,69.2-23.2c41.5,0,68.9,23,69.2,23.2c1.5,1.3,3.5,2,5.4,2c0.7,0,1.4-0.1,2.1-0.3
	c2.7-0.7,4.8-2.7,5.7-5.2c14.1-39.1,5.9-65.8-3.6-81.3c-6.5-10.7-14.4-17.6-19.6-21.4c1.1-6.7,1.7-13.5,1.7-20.4
	c0-4.6-3.7-8.3-8.3-8.3c-4.6,0-8.3,3.7-8.3,8.3c0,34.2-16.5,65.6-44.4,85.1c-27.9-19.4-44.4-50.9-44.4-85.1c0-14.6,3-28.6,8.6-41.5
	c10.5,7.1,22.9,10.9,35.8,10.9c12.9,0,25.2-3.8,35.8-10.8c2.2,5,4,10.2,5.4,15.6c1.1,4.5,5.7,7.1,10.1,6c4.5-1.1,7.1-5.7,6-10.1
	c-7.7-30-26.5-55.6-52.9-72.1c-2.7-1.7-6.1-1.7-8.8,0c-35.5,22.2-56.6,60.4-56.6,102.1C195,127.2,195.5,134,196.7,140.7z
	 M310.9,158.5c10.4,9.8,25.1,31.1,15.2,68.6c-9.8-6.1-26.3-14.5-47.9-18.2C293.3,195.1,304.5,177.8,310.9,158.5z M256,35.2
	c11.2,7.8,20.6,17.6,27.9,28.9c-8.1,5.8-17.8,9-27.9,9c-10.1,0-19.8-3.2-27.9-9C235.3,52.9,244.7,43.1,256,35.2z M201.1,158.5
	c6.4,19.2,17.6,36.5,32.7,50.4c-21.6,3.7-38.2,12.1-47.9,18.2C176,189.7,190.7,168.3,201.1,158.5z"/>
<path class="st7" d="M229.7,125.3c0,15.3,12.5,27.8,27.8,27.8c15.3,0,27.8-12.5,27.8-27.8s-12.5-27.8-27.8-27.8
	S229.7,109.9,229.7,125.3z M268.6,125.3c0,6.1-5,11.1-11.1,11.1c-6.1,0-11.1-5-11.1-11.1s5-11.1,11.1-11.1
	C263.6,114.2,268.6,119.1,268.6,125.3z"/>
</svg>
