<?xml version="1.0" encoding="utf-8"?>
<!-- Generator: Adobe Illustrator 21.0.2, SVG Export Plug-In . SVG Version: 6.00 Build 0)  -->
<svg version="1.1" id="Capa_1" xmlns="http://www.w3.org/2000/svg" xmlns:xlink="http://www.w3.org/1999/xlink" x="0px" y="0px"
	 viewBox="0 0 496 496" style="enable-background:new 0 0 496 496;" xml:space="preserve">
<style type="text/css">
	.st0{fill:#FEFEFE;}
</style>
<g>
	<g>
		<g>
			<path class="st0" d="M0,408c0,22.1,17.9,40,40,40h104v32h-32v16h272v-16h-32v-32h104c22.1,0,40-17.9,40-40v-24H0V408z M336,480
				H160v-32h176V480z M16,400h464v8c0,13.2-10.8,24-24,24H40c-13.2,0-24-10.8-24-24V400z"/>
			<path class="st0" d="M456,72h-40v16h40c13.2,0,24,10.8,24,24v256h16V112C496,89.9,478.1,72,456,72z"/>
			<path class="st0" d="M16,112c0-13.2,10.8-24,24-24h120V72H40C17.9,72,0,89.9,0,112v256h16V112z"/>
			<path class="st0" d="M160,160H96v144H48v16h400v-16h-48V0h-64v304h-16v-80h-64v80h-16V72h-64v232h-16V160z M352,16h32v288h-32V16
				z M272,240h32v64h-32V240z M192,88h32v216h-32V88z M144,304h-32V176h32V304z"/>
			<rect x="80" y="336" class="st0" width="336" height="16"/>
			<rect x="432" y="336" class="st0" width="16" height="16"/>
			<rect x="48" y="336" class="st0" width="16" height="16"/>
			<rect x="256" y="72" class="st0" width="64" height="16"/>
		</g>
	</g>
</g>
</svg>
