<?xml version="1.0" encoding="utf-8"?>
<!-- Generator: Adobe Illustrator 21.0.2, SVG Export Plug-In . SVG Version: 6.00 Build 0)  -->
<svg version="1.1" id="Capa_1" xmlns="http://www.w3.org/2000/svg" xmlns:xlink="http://www.w3.org/1999/xlink" x="0px" y="0px"
	 viewBox="0 0 508 508" style="enable-background:new 0 0 508 508;" xml:space="preserve">
<style type="text/css">
	.st0{fill:#009093;}
	.st1{fill:#1A3947;}
	.st2{fill:#00BBD3;}
	.st3{fill:#E94B4E;}
</style>
<rect x="115.7" y="438.8" class="st0" width="278.5" height="52.5"/>
<g>
	<g>
		<path class="st1" d="M394.3,270.4v155.7H115.6V270.4H99.2V467c0,22.6,18.4,41,41,41h229.4c22.6,0,41-18.4,41-41V270.4H394.3z
			 M394.3,467c0,13.6-11,24.6-24.6,24.6H140.3c-13.6,0-24.6-11-24.6-24.6v-24.6h278.6L394.3,467L394.3,467z"/>
	</g>
</g>
<rect x="115.6" y="13.5" class="st2" width="278.5" height="52.5"/>
<g>
	<g>
		<path class="st1" d="M369.6,0H140.3c-22.6,0-41,18.4-41,41v180.3h16.4V81.9h278.6v139.3h16.4V41C410.6,18.4,392.3,0,369.6,0z
			 M394.3,65.6H115.6V41c0-13.6,11-24.6,24.6-24.6h229.4c13.6,0,24.6,11,24.6,24.6v24.6H394.3z"/>
	</g>
</g>
<g>
	<g>
		<rect x="205.8" y="32.8" class="st1" width="98.3" height="16.4"/>
	</g>
</g>
<g>
	<g>
		<rect x="238.6" y="458.8" class="st1" width="32.8" height="16.4"/>
	</g>
</g>
<g>
	<g>
		<rect x="173.1" y="32.8" class="st1" width="16.4" height="16.4"/>
	</g>
</g>
<g>
	<g>
		<path class="st3" d="M365.4,237.6c2.7-7.4,4.3-14.7,4.3-21.6c0-37.8-29.4-68.6-65.5-68.6c-18.9,0-36.8,8.7-49.2,23.3
			c-12.3-14.6-30.3-23.3-49.2-23.3c-36.1,0-65.5,30.8-65.5,68.6c0,6.8,1.6,14.1,4.4,21.6h-80V254h87.8
			c27.9,49.2,102.4,108.7,102.4,108.7s75.1-59,102.8-108.7h85.7v-16.4L365.4,237.6L365.4,237.6z M254.9,341.8
			C232.8,323.5,193,287,171.5,254h20.2l23.5-33.6l35,64.7l26.6-32.8l17.1,31.6l29.9-29.9h14.8C317.3,287.3,277.4,323.7,254.9,341.8z
			 M347.8,237.7h-30.6L298,256.9L279.6,223L253,255.8l-36-66.4l-33.8,48.3h-20.9c-3.6-7.8-5.7-15.1-5.7-21.6
			c0-28.8,22.1-52.2,49.2-52.2c17.3,0,33,9.4,42,25.3l7.1,12.5l7.1-12.5c9-15.8,24.7-25.3,42-25.3c27.1,0,49.2,23.4,49.2,52.2
			C353.3,222.7,351.1,230,347.8,237.7z"/>
	</g>
</g>
</svg>
