<?xml version="1.0" encoding="utf-8"?>
<!-- Generator: Adobe Illustrator 21.0.2, SVG Export Plug-In . SVG Version: 6.00 Build 0)  -->
<svg version="1.1" id="Слой_1" xmlns="http://www.w3.org/2000/svg" xmlns:xlink="http://www.w3.org/1999/xlink" x="0px" y="0px"
	 viewBox="0 0 512 512" style="enable-background:new 0 0 512 512;" xml:space="preserve">
<style type="text/css">
	.st0{fill:#FEFEFE;}
</style>
<g id="workflow">
	<path class="st0" d="M145.1,34.1h17.1v17.1h-17.1V34.1z"/>
	<path class="st0" d="M63.1,75.2l12.1-12.1l12.1,12.1L75.1,87.2L63.1,75.2z"/>
	<path class="st0" d="M34.1,145.1h17.1v17.1H34.1V145.1z"/>
	<path class="st0" d="M63.1,232L75.1,220L87.2,232l-12.1,12.1L63.1,232z"/>
	<path class="st0" d="M145.1,256h17.1v17.1h-17.1V256z"/>
	<path class="st0" d="M219.9,232L232,220L244,232L232,244.1L219.9,232z"/>
	<path class="st0" d="M256,145.1h17.1v17.1H256V145.1z"/>
	<path class="st0" d="M219.9,75.2L232,63.1l12.1,12.1L232,87.2L219.9,75.2z"/>
	<path class="st0" d="M153.6,230.4c42.4,0,76.8-34.4,76.8-76.8S196,76.8,153.6,76.8s-76.8,34.4-76.8,76.8
		C76.8,196,111.2,230.4,153.6,230.4z M153.6,93.9c33,0.3,59.5,27.2,59.3,60.2c-0.2,29.3-21.7,54.2-50.7,58.6v-17.2
		c24.6-4.2,42.6-25.5,42.7-50.4h-17.1c0,18.9-15.3,34.1-34.1,34.1s-34.1-15.3-34.1-34.1h-17.1c0,25,18.1,46.3,42.7,50.4v17.2
		c-32.6-5-55-35.4-50.1-68C99.4,115.6,124.3,94.1,153.6,93.9z"/>
	<path class="st0" d="M145.1,145.1h17.1v17.1h-17.1V145.1z"/>
	<path class="st0" d="M264.3,260.1l16-16c2.9-3,3.3-7.6,0.9-11l-19.9-27.9c1.9-3.9,3.5-7.9,5-12l33.8-5.6c4.1-0.7,7.1-4.2,7.1-8.4
		V128c0-4.2-3-7.7-7.1-8.4l-33.8-5.6c-1.4-4.1-3.1-8.1-5-12l19.9-27.9c2.4-3.4,2-8-0.9-11l-36.2-36.2c-2.9-2.9-7.6-3.3-11-0.9
		l-27.9,19.9c-3.9-1.9-7.9-3.5-12-4.9l-5.6-33.8C186.9,3,183.4,0,179.2,0H128c-4.2,0-7.7,3-8.4,7.1L114,40.9
		c-4.2,1.5-8.3,3.2-12.3,5.1c-5.4-4.2-14-10.3-27.6-20c-3.4-2.4-8-2-11,0.9L26.9,63.1c-2.9,3-3.3,7.6-0.9,11l20,28
		c-1.9,3.9-3.5,7.8-4.9,11.9l-33.9,5.7C3,120.3,0,123.8,0,128v51.2c0,4.2,3,7.7,7.1,8.4l33.9,5.7c1.4,4.1,3,8,4.8,11.9L26,233.1
		c-2.4,3.4-2,8,0.9,11l16,16c-0.1,1.5-0.2,2.9-0.2,4.4C41,292.3,53.4,319,75.6,335.7c8.6,5.8,14.8,14.5,17.6,24.5
		c-9.9,3.8-16.4,13.3-16.4,23.8v17.1c0,6.3,2.4,12.4,6.7,17.1c-4.3,4.7-6.6,10.7-6.7,17.1v17.1c0,14.1,11.5,25.6,25.6,25.6v8.5
		c0,14.1,11.5,25.6,25.6,25.6h51.2c14.1,0,25.6-11.5,25.6-25.6v-8.5c14.1,0,25.6-11.5,25.6-25.6v-17.1c0-6.3-2.4-12.4-6.7-17.1
		c4.3-4.7,6.6-10.7,6.7-17.1V384c0-10.6-6.5-20-16.4-23.8c2.8-10,9-18.6,17.6-24.5c22.3-16.7,34.6-43.4,32.9-71.2
		C264.5,263,264.4,261.6,264.3,260.1L264.3,260.1z M62.8,211c1.9-2.6,2.1-6.1,0.6-9c-3.2-6.1-5.8-12.5-7.9-19.1
		c-1-2.9-3.6-5-6.6-5.6L17.1,172v-36.7l31.8-5.3c3.1-0.5,5.6-2.6,6.6-5.6c2.2-6.7,4.9-13.2,8.1-19.5c1.3-2.8,1-6.1-0.8-8.6L44.1,70
		l26-26l26.1,18.7c2.7,1.9,6.2,2.2,9.1,0.6c6-3.2,12.3-5.8,18.8-7.7c3.1-0.9,5.4-3.6,6-6.8l5.3-31.8H172l5.3,31.8
		c0.5,3.2,2.9,5.8,6,6.8c6.5,2,12.8,4.5,18.8,7.7c2.9,1.5,6.3,1.3,9-0.6l26.2-18.7l26,26l-18.7,26.2c-1.9,2.6-2.1,6.1-0.6,9
		c3.2,6,5.8,12.3,7.7,18.8c0.9,3.1,3.6,5.4,6.8,6l31.8,5.3V172l-31.8,5.3c-3.2,0.5-5.8,2.9-6.8,6c-1.9,6.5-4.5,12.8-7.8,18.8
		c-1.5,2.9-1.3,6.4,0.6,9l18.7,26.2l-26,26L211,244.5c-2.6-1.9-6.1-2.1-9-0.6c-6,3.2-12.3,5.8-18.8,7.7c-3.1,0.9-5.4,3.6-6,6.8
		l-5.3,31.7h-36.7l-5.3-31.8c-0.5-3.2-2.9-5.8-6-6.8c-6.5-2-12.8-4.5-18.8-7.7c-2.9-1.5-6.3-1.3-9,0.6L70,263.1l-26-26L62.8,211z
		 M204.8,375.5c4.7,0,8.5,3.8,8.5,8.5v17.1c0,4.7-3.8,8.5-8.5,8.5H102.4c-4.7,0-8.5-3.8-8.5-8.5V384c0-4.7,3.8-8.5,8.5-8.5H204.8z
		 M187.7,486.4c0,4.7-3.8,8.5-8.5,8.5H128c-4.7,0-8.5-3.8-8.5-8.5v-8.5h68.3V486.4z M213.3,452.3c0,4.7-3.8,8.5-8.5,8.5H102.4
		c-4.7,0-8.5-3.8-8.5-8.5v-17.1c0-4.7,3.8-8.5,8.5-8.5h102.4c4.7,0,8.5,3.8,8.5,8.5V452.3z M220.3,323c-12,8.4-20.3,21.1-23.3,35.4
		h-86.7c-3-14.3-11.4-27-23.3-35.4c-14.7-10.7-24.3-27.1-26.4-45.2l2.6,2.6c2.9,2.9,7.6,3.3,11,0.9l27.9-19.9c3.9,1.9,7.9,3.5,12,5
		l5.6,33.8c0.7,4.1,4.2,7.1,8.4,7.1h51.2c4.2,0,7.7-3,8.4-7.1l5.6-33.8c4.1-1.4,8.1-3.1,12-5l27.9,19.9c3.4,2.4,8,2,11-0.9l2.6-2.6
		C244.6,295.8,235,312.2,220.3,323L220.3,323z"/>
	<path class="st0" d="M486.4,324.3H281.6c-14.1,0-25.6,11.5-25.6,25.6v136.5c0,14.1,11.5,25.6,25.6,25.6h204.8
		c14.1,0,25.6-11.5,25.6-25.6V349.9C512,335.7,500.5,324.3,486.4,324.3z M494.9,486.4c0,4.7-3.8,8.5-8.5,8.5H281.6
		c-4.7,0-8.5-3.8-8.5-8.5V349.9c0-4.7,3.8-8.5,8.5-8.5h204.8c4.7,0,8.5,3.8,8.5,8.5V486.4z"/>
	<path class="st0" d="M290.1,358.4h17.1v17.1h-17.1V358.4z"/>
	<path class="st0" d="M324.3,358.4h153.6v17.1H324.3V358.4z"/>
	<path class="st0" d="M290.1,426.7h187.7v17.1H290.1V426.7z"/>
	<path class="st0" d="M290.1,392.5h187.7v17.1H290.1V392.5z"/>
	<path class="st0" d="M290.1,460.8h187.7v17.1H290.1V460.8z"/>
	<path class="st0" d="M324.3,153.6h17.1v17.1h-17.1V153.6z"/>
	<path class="st0" d="M375.5,307.2h17.1V162.1c0-4.7-3.8-8.5-8.5-8.5h-25.6v17.1h17.1V307.2z"/>
</g>
</svg>
