<?xml version="1.0" encoding="utf-8"?>
<!-- Generator: Adobe Illustrator 21.0.2, SVG Export Plug-In . SVG Version: 6.00 Build 0)  -->
<svg version="1.1" id="Слой_1" xmlns="http://www.w3.org/2000/svg" xmlns:xlink="http://www.w3.org/1999/xlink" x="0px" y="0px"
	 viewBox="0 0 504 504" style="enable-background:new 0 0 504 504;" xml:space="preserve">
<style type="text/css">
	.st0{fill:#FEFEFE;}
</style>
<path class="st0" d="M268.4,453.3h-33.6c-4.6,0-8.4,3.8-8.4,8.4c0,4.6,3.8,8.4,8.4,8.4h33.6c4.6,0,8.4-3.8,8.4-8.4
	C276.8,457,273,453.3,268.4,453.3z"/>
<path class="st0" d="M310.3,293.9h-25.2v-25.2c0-9.3-7.5-16.8-16.8-16.8h-33.6c-9.3,0-16.8,7.5-16.8,16.8v25.2h-25.2
	c-9.3,0-16.8,7.5-16.8,16.8v33.5c0,9.3,7.5,16.8,16.8,16.8h25.2v25.2c0,9.3,7.5,16.8,16.8,16.8h33.6c9.3,0,16.8-7.5,16.8-16.8V361
	h25.2c9.3,0,16.8-7.5,16.8-16.8v-33.5C327.1,301.4,319.6,293.9,310.3,293.9z M310.3,344.2h-33.6c-4.6,0-8.4,3.8-8.4,8.4v33.6h-33.6
	v-33.6c0-4.6-3.8-8.4-8.4-8.4h-33.6v-33.5h33.6c4.6,0,8.4-3.8,8.4-8.4v-33.6h33.6v33.6c0,4.6,3.8,8.4,8.4,8.4h33.6V344.2z"/>
<path class="st0" d="M469.3,365.1l33.5-134.8c3.6-17.3-0.8-35.3-11.9-49c-11.1-13.7-27.9-21.7-45.5-21.7h-42.7V42.3
	c0-23.1-18.8-41.9-41.9-41.9H142.6c-11.8,0-23,4.9-30.9,13.6c-0.4,0.5-0.7,1-1,1.6l-1.3-0.6l-5.4-2.5c-11-5-23.7-5-34.7,0.2
	c-11,5.2-19.3,14.8-22.7,26.6L3.1,190.9c-8.8,29.7,1.7,61.7,26.3,80.5l-25,51.1c-0.5,1-0.9,2.1-1.3,3.2c-6,17.9-3,37.6,8.1,52.9
	c11,15.3,28.7,24.4,47.6,24.4h41.9v58.7c0,23.1,18.8,41.9,41.9,41.9h218.1c10.4,0,20.5-3.9,28.2-10.9c35.1,20.8,80.4,9.9,102.2-24.6
	C512.8,433.5,503.2,387.9,469.3,365.1L469.3,365.1z M445.3,176.5c12.6,0,24.5,5.6,32.4,15.3s11.1,22.5,8.7,34.8l-32.5,130.8
	c-5.3-2-10.7-3.3-16.3-4L470,222.9c1.4-7.2-0.5-14.7-5.2-20.4c-4.8-5.9-11.9-9.3-19.5-9.3h-42.7v-16.8H445.3z M352.8,419.7H117.4
	V297.7c19.6-4.2,36.7-15.9,47.6-32.7l40-63.3H302c4.6,0,8.4-3.8,8.4-8.4c0-4.6-3.8-8.4-8.4-8.4h-86.3l15.9-25.2h53.6
	c4.6,0,8.4-3.8,8.4-8.4c0-4.6-3.8-8.4-8.4-8.4h-43l9.5-15c6.6-10.2,8.5-22.7,5.2-34.4c-3.2-11.4-11.2-20.9-21.9-26h150.9v298
	C367.4,377.8,355.3,397.6,352.8,419.7z M74.5,293.9c8.3,3.4,17.2,5.2,26.2,5.4v53.3H58.7c-2.5,0-4.9-1.1-6.5-3
	c-1.6-1.9-2.2-4.5-1.8-6.9L74.5,293.9z M110,33.7l17.1,7.9l0.7,0.3c4.1,2,5.9,6.9,4,11.1s-6.8,6-11,4.2l-4.6-2.1l-3.8-1.8l-0.1-0.1
	l-9.2-4.2L110,33.7z M91.8,62.2l8.8,4V249c-2.9-0.2-5.8-0.9-8.4-2.2l-27.8-12.8c-11.2-5.2-16.8-17.7-13.3-29.5L91.8,62.2z
	 M117.4,73.5c2.2,0.7,4.6,1.1,6.9,1.1c6.6,0,12.9-2.6,17.6-7.2h27.5c-4.4,12.2,1.3,25.8,13.1,31.3l22.1,10.1l-81.3,128.9
	c-1.6,2.4-3.5,4.5-5.8,6.2V73.5z M214,76.2l-7,15.2l-12.2-5.6l-5.4-2.5c-3.5-1.7-5.5-5.5-4.6-9.4c0.8-3.8,4.2-6.6,8.1-6.6h0.1
	c1.2,0,2.4,0.3,3.5,0.8L214,76.2z M402.6,210h42.7c2.5,0,4.9,1.1,6.5,3.1c1.4,1.7,2.1,3.8,1.9,6L420.5,353c-6.1,0.6-12.1,2-17.8,4
	V210z M142.6,17.1h218.1c13.9,0,25.2,11.3,25.2,25.2v8.4H149.5c0.5-10.3-5.3-19.8-14.6-24.1l-8.1-3.7
	C131.2,19.1,136.8,17.1,142.6,17.1z M19.2,195.5L62.6,43.8c2-7.1,7-12.9,13.7-16c5.8-2.7,12.3-3,18.3-0.9l-7.9,17.2
	c-1,0.2-1.9,0.5-2.8,0.9c-3.3,1.5-5.8,4.4-6.9,8L35,200c-5.9,19.8,3.7,40.8,22.4,49.4l27.8,12.8c18.8,8.7,41.1,2.1,52.1-15.4
	l83.9-132.8c2-3.1,2.6-6.9,1.5-10.4c-0.3-1.1-0.8-2.1-1.4-3.1l7.8-17c5.6,3.2,9.8,8.4,11.6,14.6c2,7.1,0.8,14.7-3.2,20.8l-86.6,137
	c-15.5,24.3-46.5,33.4-72.7,21.4l-27.8-12.8C24.3,252.5,11,223.1,19.2,195.5z M58.7,386.2c-13.5,0-26.2-6.5-34.1-17.5
	c-7.9-11-10-25.1-5.6-37.9L43.8,280l15.3,7L35,336.1c-0.2,0.5-0.4,1-0.6,1.5c-2,7.3-0.6,15.2,3.9,21.3c4.7,6.6,12.3,10.5,20.4,10.5
	h41.9v16.8H58.7z M360.7,486.8H142.6c-13.9,0-25.2-11.3-25.2-25.2v-25.2h235.4c1.9,17.3,9.8,33.4,22.3,45.6
	C370.9,485.1,365.9,486.8,360.7,486.8z M427.8,486.8c-31.6,0-57.5-25.1-58.6-56.7c0.5-1.3,0.5-2.7,0-4c1.1-32.2,27.9-57.5,60-56.7
	c32.2,0.7,57.8,27.2,57.4,59.4C486.2,461,460,486.9,427.8,486.8z"/>
<path class="st0" d="M427.8,386.2c-23.2,0-41.9,18.8-41.9,41.9c0,23.2,18.8,41.9,41.9,41.9c23.2,0,41.9-18.8,41.9-41.9
	C469.7,405,450.9,386.2,427.8,386.2z M427.8,453.3c-13.9,0-25.2-11.3-25.2-25.2c0-13.9,11.3-25.2,25.2-25.2
	c13.9,0,25.2,11.3,25.2,25.2C452.9,442,441.7,453.3,427.8,453.3z"/>
<path class="st0" d="M327.1,142.9h-8.4c-4.6,0-8.4,3.8-8.4,8.4c0,4.6,3.8,8.4,8.4,8.4h8.4c4.6,0,8.4-3.8,8.4-8.4
	C335.5,146.7,331.8,142.9,327.1,142.9z"/>
</svg>
