<?xml version="1.0" encoding="utf-8"?>
<!-- Generator: Adobe Illustrator 21.0.2, SVG Export Plug-In . SVG Version: 6.00 Build 0)  -->
<svg version="1.1" id="Слой_1" xmlns="http://www.w3.org/2000/svg" xmlns:xlink="http://www.w3.org/1999/xlink" x="0px" y="0px"
	 viewBox="0 0 32 32" style="enable-background:new 0 0 32 32;" xml:space="preserve">
<style type="text/css">
	.st0{fill:#323F4E;}
	.st1{fill:none;stroke:#323F4E;stroke-width:1.5;}
</style>
<g>
	<path class="st0" d="M9.1,17.1h13.1l-1.2,1.2c-0.3,0.3-0.3,0.7,0,0.9c0.1,0.1,0.3,0.2,0.5,0.2c0.2,0,0.3-0.1,0.5-0.2l2.3-2.3
		c0.3-0.3,0.3-0.7,0-0.9l-2.3-2.3c-0.3-0.3-0.7-0.3-0.9,0c-0.3,0.3-0.3,0.7,0,0.9l1.2,1.2H9.1c-0.4,0-0.7,0.3-0.7,0.7
		C8.4,16.8,8.7,17.1,9.1,17.1L9.1,17.1z"/>
	<circle class="st1" cx="16" cy="16" r="15.3"/>
</g>
</svg>
