<?xml version="1.0" encoding="utf-8"?>
<!-- Generator: Adobe Illustrator 21.0.2, SVG Export Plug-In . SVG Version: 6.00 Build 0)  -->
<svg version="1.1" id="Слой_1" xmlns="http://www.w3.org/2000/svg" xmlns:xlink="http://www.w3.org/1999/xlink" x="0px" y="0px"
	 viewBox="0 0 32 32" style="enable-background:new 0 0 32 32;" xml:space="preserve">
<style type="text/css">
	.st0{fill:#323F4E;}
	.st1{fill:none;stroke:#323F4E;stroke-width:1.5;}
</style>
<g>
	<path class="st0" d="M22.9,15.8H9.9l1.2-1.2c0.3-0.3,0.3-0.7,0-0.9c-0.1-0.1-0.3-0.2-0.5-0.2c-0.2,0-0.3,0.1-0.5,0.2L7.8,16
		c-0.3,0.3-0.3,0.7,0,0.9l2.3,2.3c0.3,0.3,0.7,0.3,0.9,0c0.3-0.3,0.3-0.7,0-0.9l-1.2-1.2h13.1c0.4,0,0.7-0.3,0.7-0.7
		C23.6,16.1,23.3,15.8,22.9,15.8L22.9,15.8z"/>
	<circle class="st1" cx="16" cy="16" r="15.3"/>
</g>
</svg>
