<?xml version="1.0" encoding="utf-8"?>
<!-- Generator: Adobe Illustrator 21.0.2, SVG Export Plug-In . SVG Version: 6.00 Build 0)  -->
<svg version="1.1" id="Layer_1" xmlns="http://www.w3.org/2000/svg" xmlns:xlink="http://www.w3.org/1999/xlink" x="0px" y="0px"
	 viewBox="0 0 496 496" style="enable-background:new 0 0 496 496;" xml:space="preserve">
<style type="text/css">
	.st0{fill:#009093;}
	.st1{fill:#0DBCD4;}
	.st2{fill:#FCEDE3;}
	.st3{fill:#E94B4E;}
	.st4{fill:#00BBD3;}
	.st5{fill:#0F3846;}
</style>
<g>
	<rect x="15.4" y="427.8" class="st0" width="288.6" height="52.5"/>
	<rect x="75.7" y="94" class="st1" width="22" height="22"/>
	<rect x="140.7" y="93" class="st1" width="22" height="22"/>
	<circle class="st2" cx="376" cy="176" r="49.5"/>
	<path class="st1" d="M452,384H299v-54.2c0-45.2,36.6-81.8,81.8-81.8h0c39.3,0,71.2,31.9,71.2,71.2V384z"/>
	<circle class="st3" cx="376.3" cy="296" r="17"/>
	<rect x="14.6" y="11.3" class="st4" width="290.4" height="41.2"/>
	<g>
		<g>
			<rect x="136" y="448" class="st5" width="48" height="16"/>
			<path class="st5" d="M320,80V40c0-22.1-17.9-40-40-40H40C17.9,0,0,17.9,0,40v416c0,22.1,17.9,40,40,40h240c22.1,0,40-17.9,40-40
				v-56h176V80H320z M16,40c0-13.2,10.8-24,24-24h240c13.2,0,24,10.8,24,24v8H16V40z M304,456c0,13.2-10.8,24-24,24H40
				c-13.2,0-24-10.8-24-24v-24h288V456z M304,416H16V64h288v16h-48v272H136c-4.4,0-8-3.6-8-8v-88.4c44.8-4.1,80-41.8,80-87.6v-32
				c0-19.3-13.8-35.5-32-39.2V80h-48v48h48v-14.5c9.3,3.3,16,12.1,16,22.5v32c0,39.7-32.3,72-72,72s-72-32.3-72-72v-32
				c0-10.4,6.7-19.2,16-22.5V128h48V80H64v16.8c-18.2,3.7-32,19.9-32,39.2v32c0,45.8,35.2,83.5,80,87.6V344c0,13.2,10.8,24,24,24
				h120v32h48V416z M272,368h16v16h-16V368z M160,96v16h-16V96H160z M80,112V96h16v16H80z M448,384H304v-16h56c13.2,0,24-10.8,24-24
				v-17.1c13.8-3.6,24-16,24-30.9c0-17.6-14.4-32-32-32s-32,14.4-32,32c0,14.9,10.2,27.3,24,30.9V344c0,4.4-3.6,8-8,8h-56v-24
				c0-39.7,32.3-72,72-72s72,32.3,72,72V384z M376,312c-8.8,0-16-7.2-16-16s7.2-16,16-16c8.8,0,16,7.2,16,16S384.8,312,376,312z
				 M480,384h-16v-56c0-48.5-39.5-88-88-88s-88,39.5-88,88v24h-16V96h208V384z"/>
			<path class="st5" d="M440,176c0-35.3-28.7-64-64-64s-64,28.7-64,64s28.7,64,64,64S440,211.3,440,176z M376,224
				c-26.5,0-48-21.5-48-48s21.5-48,48-48s48,21.5,48,48S402.5,224,376,224z"/>
		</g>
	</g>
</g>
</svg>
