<?xml version="1.0" encoding="utf-8"?>
<!-- Generator: Adobe Illustrator 21.0.2, SVG Export Plug-In . SVG Version: 6.00 Build 0)  -->
<svg version="1.1" id="Capa_1" xmlns="http://www.w3.org/2000/svg" xmlns:xlink="http://www.w3.org/1999/xlink" x="0px" y="0px"
	 viewBox="0 0 496 496" style="enable-background:new 0 0 496 496;" xml:space="preserve">
<style type="text/css">
	.st0{fill:#F05656;}
	.st1{fill:#0E3947;}
	.st2{fill:#17BCD3;stroke:#0E3947;stroke-width:16;stroke-miterlimit:10;}
</style>
<path class="st0" d="M322.9,98.9h-265c-4.3,0-7.8-3.5-7.8-7.8V44.3c0-4.3,3.5-7.8,7.8-7.8h265c4.3,0,7.8,3.5,7.8,7.8v46.8
	C330.7,95.4,327.3,98.9,322.9,98.9z"/>
<rect x="315.2" y="114.5" class="st1" width="15.6" height="15.6"/>
<rect x="315.2" y="145.6" class="st1" width="15.6" height="15.6"/>
<rect x="315.2" y="176.8" class="st1" width="15.6" height="15.6"/>
<path class="st1" d="M3.4,5.3v338.4l113.7,113.7h199v-15.6h-188v-31.2h101.3V270.4H65.7v62.4H18.9V20.9h343v140.3h15.6V5.3H3.4z
	 M112.5,430.8L30,348.3h82.5V430.8z M81.3,285.9h132.5V395h-85.7v-62.4H81.3V285.9z"/>
<rect x="96.9" y="301.5" class="st1" width="101.3" height="15.6"/>
<rect x="143.7" y="332.7" class="st1" width="54.6" height="15.6"/>
<rect x="143.7" y="363.9" class="st1" width="54.6" height="15.6"/>
<rect x="50.1" y="114.5" class="st1" width="249.4" height="15.6"/>
<rect x="50.1" y="145.6" class="st1" width="249.4" height="15.6"/>
<rect x="50.1" y="176.8" class="st1" width="249.4" height="15.6"/>
<rect x="50.1" y="208" class="st1" width="148.1" height="15.6"/>
<rect x="50.1" y="239.2" class="st1" width="148.1" height="15.6"/>
<rect x="213.8" y="208" class="st1" width="15.6" height="15.6"/>
<rect x="213.8" y="239.2" class="st1" width="15.6" height="15.6"/>
<path class="st2" d="M369.7,486.7c-1.3,0-2.7-0.3-3.9-1l-62-35.4c-31.5-18-51.1-51.7-51.1-88V245c0-4.3,3.5-7.8,7.8-7.8h21.7
	c32.6,0,62.8-16.2,80.9-43.3c2.9-4.3,10.1-4.3,13,0c18.1,27.1,48.3,43.3,80.9,43.3h21.7c4.3,0,7.8,3.5,7.8,7.8v117.2
	c0,36.3-19.6,70-51.1,88l-62,35.4C372.4,486.3,371.1,486.7,369.7,486.7z"/>
<path class="st1" d="M420.1,425.1l-7.7-13.5c17-9.7,27.5-27.9,27.5-47.4v-15.9h15.6v15.9C455.5,389.3,441.9,412.6,420.1,425.1z"/>
<rect x="439.9" y="317.1" class="st1" width="15.6" height="15.6"/>
<polygon class="st1" points="330.7,398.3 294.1,361.6 305.1,350.6 330.7,376.3 434.4,272.6 445.4,283.7 "/>
</svg>
