<?xml version="1.0" encoding="utf-8"?>
<!-- Generator: Adobe Illustrator 21.0.2, SVG Export Plug-In . SVG Version: 6.00 Build 0)  -->
<svg version="1.1" id="web" xmlns="http://www.w3.org/2000/svg" xmlns:xlink="http://www.w3.org/1999/xlink" x="0px" y="0px"
	 viewBox="0 0 512 512" style="enable-background:new 0 0 512 512;" xml:space="preserve">
<style type="text/css">
	.st0{fill:#DBF0F2;}
	.st1{fill:#E42238;}
	.st2{fill:#BDBDBD;}
	.st3{fill:#0F3846;}
	.st4{fill:#FFFFFF;}
	.st5{fill:#B7E3EC;}
	.st6{fill:#17BCD3;}
</style>
<g>
	<circle class="st0" cx="194.6" cy="187.7" r="146.8"/>
	<g>
		<circle class="st1" cx="283.6" cy="98.9" r="7.7"/>
		<path class="st1" d="M150.2,75.1c-3.8,0-6.8-3.1-6.8-6.8V47.8c0-3.8,3.1-6.8,6.8-6.8c3.8,0,6.8,3.1,6.8,6.8v20.5
			C157,72,154,75.1,150.2,75.1z"/>
		<path class="st1" d="M150.2,122.9c-3.8,0-6.8-3.1-6.8-6.8V95.6c0-3.8,3.1-6.8,6.8-6.8c3.8,0,6.8,3.1,6.8,6.8v20.5
			C157,119.8,154,122.9,150.2,122.9z"/>
		<path class="st1" d="M136.5,88.7h-20.5c-3.8,0-6.8-3.1-6.8-6.8c0-3.8,3.1-6.8,6.8-6.8h20.5c3.8,0,6.8,3.1,6.8,6.8
			C143.4,85.7,140.3,88.7,136.5,88.7z"/>
		<path class="st1" d="M184.3,88.7h-20.5c-3.8,0-6.8-3.1-6.8-6.8c0-3.8,3.1-6.8,6.8-6.8h20.5c3.8,0,6.8,3.1,6.8,6.8
			C191.1,85.7,188.1,88.7,184.3,88.7z"/>
	</g>
	<g>
		<path class="st2" d="M320.9,464.2H218.5l13.7-47.8h75.1L320.9,464.2z"/>
		<path class="st3" d="M320.9,471H218.5c-2.1,0-4.2-1-5.4-2.7c-1.3-1.7-1.7-3.9-1.1-6l13.7-47.8c0.8-2.9,3.5-4.9,6.6-4.9h75.1
			c3,0,5.7,2,6.6,4.9l13.7,47.8c0.6,2.1,0.2,4.3-1.1,6C325,470,323,471,320.9,471z M227.5,457.4h84.3l-9.7-34.1h-64.8L227.5,457.4z"
			/>
	</g>
	<path class="st3" d="M218.5,471h-75.1c-3.8,0-6.8-3.1-6.8-6.8s3.1-6.8,6.8-6.8h75.1c3.8,0,6.8,3.1,6.8,6.8S222.2,471,218.5,471z"/>
	<path class="st3" d="M395.9,471h-75.1c-3.8,0-6.8-3.1-6.8-6.8s3.1-6.8,6.8-6.8h75.1c3.8,0,6.8,3.1,6.8,6.8S399.7,471,395.9,471z"/>
	<g>
		<path class="st4" d="M457.4,368.6H75.1v16.2c0,17.5,14.2,31.6,31.6,31.6h319.1c17.5,0,31.6-14.2,31.6-31.6V368.6z"/>
		<path class="st3" d="M425.8,423.3H106.7c-21.2,0-38.4-17.2-38.4-38.4v-16.2c0-3.8,3.1-6.8,6.8-6.8h382.3c3.8,0,6.8,3.1,6.8,6.8
			v16.2C464.2,406,447,423.3,425.8,423.3L425.8,423.3z M81.9,375.5v9.3c0,13.7,11.1,24.8,24.8,24.8h319.1
			c13.7,0,24.8-11.1,24.8-24.8v-9.4H81.9z"/>
	</g>
	<g>
		<path class="st5" d="M425.8,136.5H106.7c-17.5,0-31.6,14.2-31.6,31.6v200.5h382.3V168.1C457.4,150.7,443.2,136.5,425.8,136.5z"/>
		<path class="st3" d="M457.4,375.5H75.1c-3.8,0-6.8-3.1-6.8-6.8V168.1c0-21.2,17.2-38.4,38.4-38.4h319.1
			c21.2,0,38.4,17.2,38.4,38.4v200.5C464.2,372.4,461.2,375.5,457.4,375.5z M81.9,361.8h368.6V168.1c0-13.7-11.1-24.8-24.8-24.8
			H106.7c-13.7,0-24.8,11.1-24.8,24.8L81.9,361.8z"/>
	</g>
	<circle class="st3" cx="266.2" cy="392.7" r="10.4"/>
	<g>
		<path class="st1" d="M184.3,204.8h-20.5v-20.5h-27.3v20.5h-20.5v27.3h20.5v20.5h27.3v-20.5h20.5V204.8z"/>
		<path class="st3" d="M163.8,259.4h-27.3c-3.8,0-6.8-3.1-6.8-6.8v-13.7h-13.7c-3.8,0-6.8-3.1-6.8-6.8v-27.3c0-3.8,3.1-6.8,6.8-6.8
			h13.7v-13.7c0-3.8,3.1-6.8,6.8-6.8h27.3c3.8,0,6.8,3.1,6.8,6.8V198h13.7c3.8,0,6.8,3.1,6.8,6.8v27.3c0,3.8-3.1,6.8-6.8,6.8h-13.7
			v13.7C170.7,256.4,167.6,259.4,163.8,259.4z M143.4,245.8H157v-13.7c0-3.8,3.1-6.8,6.8-6.8h13.7v-13.7h-13.7
			c-3.8,0-6.8-3.1-6.8-6.8v-13.7h-13.7v13.7c0,3.8-3.1,6.8-6.8,6.8h-13.7v13.7h13.7c3.8,0,6.8,3.1,6.8,6.8V245.8z"/>
	</g>
	<g>
		<path class="st6" d="M218.5,191.1h177.5v54.6H218.5V191.1z"/>
		<path class="st3" d="M395.9,252.6H218.5c-3.8,0-6.8-3.1-6.8-6.8v-54.6c0-3.8,3.1-6.8,6.8-6.8h177.5c3.8,0,6.8,3.1,6.8,6.8v54.6
			C402.8,249.5,399.7,252.6,395.9,252.6z M225.3,238.9h163.8v-41H225.3V238.9z"/>
	</g>
	<path class="st3" d="M409.6,293.5H122.9c-3.8,0-6.8-3.1-6.8-6.8s3.1-6.8,6.8-6.8h286.7c3.8,0,6.8,3.1,6.8,6.8
		S413.4,293.5,409.6,293.5z"/>
	<path class="st3" d="M334.5,314H122.9c-3.8,0-6.8-3.1-6.8-6.8s3.1-6.8,6.8-6.8h211.6c3.8,0,6.8,3.1,6.8,6.8S338.3,314,334.5,314z"
		/>
	<path class="st3" d="M238.9,334.5H122.9c-3.8,0-6.8-3.1-6.8-6.8c0-3.8,3.1-6.8,6.8-6.8h116.1c3.8,0,6.8,3.1,6.8,6.8
		C245.8,331.5,242.7,334.5,238.9,334.5z"/>
</g>
</svg>
