<?xml version="1.0" encoding="utf-8"?>
<!-- Generator: Adobe Illustrator 21.0.2, SVG Export Plug-In . SVG Version: 6.00 Build 0)  -->
<svg version="1.1" id="Слой_1" xmlns="http://www.w3.org/2000/svg" xmlns:xlink="http://www.w3.org/1999/xlink" x="0px" y="0px"
	 viewBox="0 0 512 512" style="enable-background:new 0 0 512 512;" xml:space="preserve">
<style type="text/css">
	.st0{fill:#B7E3EC;}
	.st1{fill:#F05656;}
	.st2{fill:#0B98A8;}
	.st3{fill:#17BCD3;}
	.st4{fill:#FFFFFF;}
	.st5{fill:#57565C;}
	.st6{fill:#0F3846;}
</style>
<g id="Consult-Talk">
	<path class="st0" d="M451.8,349.2c-2.1,7.2-4.9,14.2-8.6,20.8l21.9,29.2l-33.9,33.9L402,411.2c-6.6,3.6-13.6,6.5-20.8,8.6L376,456
		h-48l-5.2-36.2c-7.2-2.1-14.2-4.9-20.8-8.6l-29.2,21.9l-33.9-33.9l21.9-29.2c-3.6-6.6-6.5-13.6-8.6-20.8L216,344v-48l36.2-5.2
		c2.1-7.2,4.9-14.2,8.6-20.8l-21.9-29.2l33.9-33.9l17.6,13.2l11.6,8.7c3.2-1.8,6.6-3.4,10-4.8c3.5-1.5,7.1-2.7,10.8-3.8L328,184h48
		l5.2,36.2c3.7,1,7.3,2.3,10.8,3.8c3.4,1.4,6.8,3,10,4.8l22-16.5l7.2-5.4l33.9,33.9L443.2,270c3.6,6.6,6.5,13.6,8.6,20.8L488,296v48
		L451.8,349.2z"/>
	<path class="st1" d="M392,270.1c-9.2-7.4-20.3-12.1-32-13.6c-2.7-0.3-5.3-0.5-8-0.5c-35.3,0-64,28.7-64,64
		c0.1,21.5,10.9,41.6,28.9,53.4c10.4,6.9,22.6,10.6,35.1,10.6c5.4,0,10.8-0.7,16-2c34.2-8.8,54.8-43.8,46-78
		C410.5,290.6,402.8,278.7,392,270.1L392,270.1z"/>
	<path class="st2" d="M392,224c-3.5-1.5-7.1-2.7-10.8-3.8L376,184h-16v-66.1c-25.4-17.6-31.6-52.5-14-77.9c5.6-8,13.2-14.4,22-18.6
		V72l24,8l24-8V21.4c27.9,13.2,39.8,46.6,26.6,74.5c-4.2,8.8-10.6,16.4-18.6,22v94.4l-22,16.5C398.8,227,395.4,225.4,392,224z"/>
	<path class="st0" d="M392,224v46.1c-9.2-7.4-20.3-12.1-32-13.6V184h16l5.2,36.2C384.9,221.3,388.5,222.5,392,224z"/>
	<path class="st1" d="M280,168h-16c-2.8,0-5.6,0.7-8,2.2V216c0,1.9-0.1,3.8-0.2,5.7c0.5,0.3,1,0.6,1.5,0.8c2.1,1,4.4,1.5,6.7,1.5h16
		c3.8,0,7.5-1.4,10.4-3.9c3.6-3,5.6-7.4,5.6-12.1v-24C296,175.2,288.8,168,280,168z"/>
	<path class="st3" d="M316.9,373.4c-9-15.2-22.8-27-39.2-33.5L216,315.2l-8-3.2c0,17.7-14.3,32-32,32s-32-14.3-32-32l-69.7,27.9
		C43.9,352,24,381.4,24,414.2V488h304v-73.8C328,399.8,324.2,385.8,316.9,373.4z"/>
	<path class="st4" d="M208,289.3V312c0,17.7-14.3,32-32,32s-32-14.3-32-32v-22.7C164.4,298.2,187.6,298.2,208,289.3z"/>
	<path class="st1" d="M96,216c0,1.9,0.1,3.8,0.2,5.7c-2.5,1.5-5.3,2.4-8.2,2.3H72c-8.8,0-16-7.2-16-16v-24c0-8.8,7.2-16,16-16h16
		c2.8,0,5.6,0.7,8,2.2V216z"/>
	<path class="st5" d="M256,170.2v5.8h-8c-10.1,0-19.6-4.7-25.6-12.8L208,144l-26.9,21.5c-8.5,6.8-19,10.5-29.9,10.5H96v-16
		c0-44.2,35.8-80,80-80s80,35.8,80,80V170.2z"/>
	<path class="st4" d="M248,176c-10.1,0-19.6-4.7-25.6-12.8L208,144l-26.9,21.5c-8.5,6.8-19,10.5-29.9,10.5H96v40
		c0,1.9,0.1,3.8,0.2,5.7c3.1,44,41.3,77.2,85.4,74.1c23.1-1.6,44.4-13.2,58.3-31.8c2.9-3.7,5.4-7.7,7.4-11.9
		c4.5-8.7,7.3-18.2,8.2-27.9v-0.1c0.1-0.8,0.2-1.6,0.2-2.4c0.2-1.8,0.2-3.8,0.2-5.7v-40H248z"/>
	<rect x="128" y="200" class="st6" width="16" height="16"/>
	<rect x="208" y="200" class="st6" width="16" height="16"/>
	<path class="st6" d="M489.1,288.1l-31.3-4.5c-1.5-4.4-3.2-8.6-5.3-12.8l18.9-25.2c2.4-3.2,2.1-7.6-0.7-10.5l-33.9-33.9
		c-1.3-1.3-3-2.1-4.8-2.3v-77c15.2-12.1,24-30.5,24-49.9c0.1-24.8-14.1-47.3-36.6-57.8c-4-1.9-8.8-0.2-10.7,3.8
		c-0.5,1.1-0.8,2.2-0.8,3.4v44.8l-16,5.3l-16-5.3V21.4c0-4.4-3.6-8-8-8c-1.2,0-2.3,0.3-3.4,0.8c-22.4,10.5-36.7,33-36.6,57.8
		c0,19.4,8.8,37.8,24,49.9V176h-24c-4,0-7.4,2.9-7.9,6.9l-5.2,36.2l15.8,2.3l4.2-29.4h34.1l4.2,29.4c0.4,3.1,2.7,5.7,5.7,6.5
		c6.7,1.9,13.1,4.6,19.2,7.9c2.8,1.5,6.1,1.3,8.6-0.6l23.7-17.8l24.1,24.1l-17.8,23.7c-1.9,2.5-2.1,5.9-0.6,8.6
		c3.3,6.1,6,12.5,7.9,19.2c0.9,3,3.4,5.2,6.5,5.7L480,303v34.1l-29.4,4.2c-3.1,0.4-5.7,2.7-6.5,5.7c-1.9,6.7-4.6,13.1-7.9,19.2
		c-1.5,2.8-1.3,6.1,0.6,8.6l17.8,23.7l-24.1,24.1l-23.7-17.8c-2.5-1.9-5.9-2.1-8.6-0.6c-6.1,3.3-12.5,6-19.2,7.9
		c-3,0.9-5.2,3.4-5.7,6.5l-4.2,29.4H336v-33.8c0-8.5-1.2-16.9-3.6-25c38.6,11.3,79.1-10.8,90.4-49.5s-10.8-79.1-49.5-90.4
		c-38.6-11.3-79.1,10.8-90.4,49.5c-3.2,11-3.8,22.6-1.7,33.9c-0.2-0.1-0.4-0.2-0.6-0.2L216,306.6v-12.3
		c10.7-5.5,20.2-13.1,27.8-22.3H264c13.3,0,24-10.7,24-24v-17.5c9.6-3.4,16-12.4,16-22.5v-24c0-10.1-6.4-19.1-16-22.5V152
		c0-61.9-50.1-112-112-112S64,90.1,64,152v9.5c-9.6,3.4-16,12.4-16,22.5v24c0,13.3,10.7,24,24,24h16c0.5,0,1-0.1,1.5-0.1
		c5,26.9,22.2,49.9,46.5,62.4v12.3l-64.7,25.9c-33.5,13.3-55.4,45.7-55.3,81.7V488c0,4.4,3.6,8,8,8h304c4.4,0,8-3.6,8-8v-24h40
		c4,0,7.4-2.9,7.9-6.9l4.5-31.3c4.4-1.5,8.6-3.2,12.8-5.3l25.2,18.9c3.2,2.4,7.6,2.1,10.5-0.7l33.9-33.9c2.8-2.8,3.1-7.3,0.7-10.5
		l-18.9-25.2c2-4.2,3.8-8.4,5.3-12.8l31.3-4.5c3.9-0.6,6.9-3.9,6.9-7.9v-48C496,292,493.1,288.6,489.1,288.1z M401.1,219.4
		c-0.4-0.2-0.8-0.3-1.2-0.5V120h-16v63.4l-0.1-0.6c-0.6-3.9-3.9-6.9-7.9-6.9h-8v-58.1c0-2.6-1.3-5.1-3.4-6.6
		c-21.8-15.1-27.1-45.1-12-66.8c2.1-3.1,4.6-5.9,7.4-8.4V72c0,3.4,2.2,6.5,5.5,7.6l24,8c1.6,0.5,3.4,0.5,5.1,0l24-8
		c3.3-1.1,5.5-4.1,5.5-7.6V36.2c19.8,17.7,21.5,48,3.8,67.8c-2.5,2.8-5.3,5.3-8.4,7.4c-2.1,1.5-3.4,3.9-3.4,6.5v90.3L401.1,219.4z
		 M296,320c-0.2-31.1,24.9-56.6,56-56.8c31.1-0.2,56.6,24.9,56.8,56s-24.9,56.6-56,56.8c-10.6,0.1-21.1-2.9-30.1-8.5
		c-5.5-8.9-12.6-16.7-20.9-23C298,336.9,296,328.5,296,320z M264,256h-9.7c3.9-7.6,6.7-15.7,8.2-24.1c0.5,0,1,0.1,1.5,0.1h8v16
		C272,252.4,268.4,256,264,256z M248,168c-7.5,0-14.7-3.6-19.2-9.6l-14.4-19.2c-1.3-1.7-3.2-2.9-5.4-3.1c-2.1-0.3-4.3,0.3-6,1.7
		l-26.8,21.4c-7.1,5.7-15.9,8.8-25,8.8H104v-8c0-39.8,32.2-72,72-72s72,32.2,72,72V168z M288,208c0,4.4-3.6,8-8,8h-16v-40h16
		c4.4,0,8,3.6,8,8V208z M176,56c53,0.1,95.9,43,96,96v8h-8c0-48.6-39.4-88-88-88s-88,39.4-88,88h-8v-8C80.1,99,123,56.1,176,56z
		 M72,216c-4.4,0-8-3.6-8-8v-24c0-4.4,3.6-8,8-8h16v40H72z M104,216v-32h47.2c12.7,0,25-4.3,35-12.3l20.4-16.3L216,168
		c7.6,10,19.4,16,32,16v32c0,14.2-4.2,28.2-12.2,40H176v16h45.2c-30.9,25-76.2,20.2-101.2-10.7C109.6,248.5,104,232.5,104,216z
		 M176,304c8.1,0,16.2-1.2,24-3.4V312c0,13.3-10.7,24-24,24s-24-10.7-24-24v-11.4C159.8,302.8,167.9,304,176,304z M320,480h-48v-88
		h-16v88H96v-88H80v88H32v-65.8c-0.1-29.5,17.9-56,45.3-66.9l60.5-24.2c6,21.1,28,33.4,49.1,27.4c13.3-3.8,23.6-14.1,27.4-27.4
		l60.5,24.2c27.4,10.9,45.4,37.4,45.3,66.9V480z"/>
	<rect x="344" y="208" class="st6" width="16" height="16"/>
	<rect x="344" y="416" class="st6" width="16" height="16"/>
	
		<rect x="417.5" y="385.5" transform="matrix(0.7071 -0.7071 0.7071 0.7071 -153.64 416.1615)" class="st6" width="16" height="16"/>
	<rect x="448" y="312" class="st6" width="16" height="16"/>
	
		<rect x="417.5" y="238.5" transform="matrix(0.7071 -0.7071 0.7071 0.7071 -49.6405 373.0872)" class="st6" width="16" height="16"/>
</g>
</svg>
