<svg id="Layer_1" data-name="Layer 1" xmlns="http://www.w3.org/2000/svg" viewBox="0 0 480 480"><defs><style>.cls-1,.cls-3{fill:#daf0f4;}.cls-1{opacity:0.5;}.cls-2{fill:#1fbdd4;}.cls-4{fill:#e47c6e;}.cls-5{fill:#0b052b;}</style></defs><title>2</title><path class="cls-1" d="M246.59,342.29h74.08a19.56,19.56,0,0,1,19.7,19.5h0a19.56,19.56,0,0,1-19.7,19.5H246.59a19.56,19.56,0,0,1-19.71-19.5h0A19.56,19.56,0,0,1,246.59,342.29Z"/><ellipse class="cls-1" cx="198.75" cy="363.54" rx="18.9" ry="18.7"/><path class="cls-1" d="M273.64,130.2H199.56a19.56,19.56,0,0,1-19.71-19.5h0a19.56,19.56,0,0,1,19.71-19.5h74.08a19.56,19.56,0,0,1,19.7,19.5h0A19.56,19.56,0,0,1,273.64,130.2Z"/><path class="cls-1" d="M419.13,228.2H167.23a19.56,19.56,0,0,1-19.7-19.5h0a19.56,19.56,0,0,1,19.7-19.5h251.9a19.56,19.56,0,0,1,19.7,19.5h0A19.63,19.63,0,0,1,419.13,228.2Z"/><path class="cls-1" d="M343.68,179.2H124.37a19.56,19.56,0,0,1-19.7-19.5h0a19.56,19.56,0,0,1,19.7-19.5H343.68a19.56,19.56,0,0,1,19.71,19.5h0A19.63,19.63,0,0,1,343.68,179.2Z"/><path class="cls-1" d="M353.11,276.2H101.22a19.56,19.56,0,0,1-19.7-19.5h0a19.56,19.56,0,0,1,19.7-19.5H353.11a19.56,19.56,0,0,1,19.71,19.5h0A19.7,19.7,0,0,1,353.11,276.2Z"/><path class="cls-1" d="M386.12,328.75H134.23a19.56,19.56,0,0,1-19.71-19.5h0a19.56,19.56,0,0,1,19.71-19.5H386.12a19.56,19.56,0,0,1,19.7,19.5h0A19.63,19.63,0,0,1,386.12,328.75Z"/><ellipse class="cls-2" cx="384.33" cy="318.49" rx="9.33" ry="9.25"/><path class="cls-3" d="M342.33,184.42c28.38,0,51.34,22.74,51.34,50.85s-23,50.86-51.34,50.86H179c-30.94,0-56-24.83-56-55.48,0-29.5,23.24-53.54,52.55-55.3a56.82,56.82,0,0,1-1.22-11.74c0-31.9,26.14-57.79,58.34-57.79S291,131.71,291,163.61c0,1-.09,1.9-.14,2.82a23.78,23.78,0,0,1,4.81-.51A23.23,23.23,0,0,1,319,189c0,.37-.09.69-.09,1A51.62,51.62,0,0,1,342.33,184.42Z"/><path class="cls-4" d="M276.58,215.53a41.23,41.23,0,0,1,0,11.74l-10.36,4.21a36.77,36.77,0,0,1-3.31,8l4.29,10.22a47.42,47.42,0,0,1-8.35,8.28l-10.32-4.26a38,38,0,0,1-8,3.29l-4.25,10.26a42,42,0,0,1-11.85,0L220.16,257a38.08,38.08,0,0,1-8-3.29l-10.31,4.26a46.75,46.75,0,0,1-8.35-8.28l4.29-10.22a36.77,36.77,0,0,1-3.31-8l-10.36-4.21a41.23,41.23,0,0,1,0-11.74l10.36-4.21a37.19,37.19,0,0,1,3.31-7.95l-4.29-10.22a46.7,46.7,0,0,1,8.35-8.27l10.31,4.25a38.58,38.58,0,0,1,8-3.28l4.25-10.26a42,42,0,0,1,11.85,0l4.25,10.26a38.5,38.5,0,0,1,8,3.28l10.32-4.25a47.36,47.36,0,0,1,8.35,8.27l-4.29,10.22a37.19,37.19,0,0,1,3.31,7.95ZM249,221.4a18.67,18.67,0,1,0-18.67,18.5A18.58,18.58,0,0,0,249,221.4Z"/><ellipse class="cls-2" cx="146.33" cy="355.48" rx="9.33" ry="9.25"/><ellipse class="cls-2" cx="132.33" cy="318.49" rx="9.33" ry="9.25"/><path class="cls-5" d="M342.33,290.75c30.88,0,56-24.88,56-55.48s-25.12-55.48-56-55.48A55.64,55.64,0,0,0,323,183.21a28,28,0,0,0-27.37-21.91h-.05c-1.23-33.35-29-60.1-63-60.1-34.74,0-63,28-63,62.41a62.93,62.93,0,0,0,.47,7.64c-29.44,4.28-51.81,29.45-51.81,59.4,0,33.14,27.22,60.1,60.67,60.1h37.33v23.12H193v9.25h28a4.65,4.65,0,0,0,4.67-4.63V290.75H235V300h9.33v-9.25h9.34v60.11h-9.34v9.24h14a4.65,4.65,0,0,0,4.67-4.62V290.75h9.33v18.5h9.34v-18.5H291V337a4.65,4.65,0,0,0,4.67,4.62H319v-9.25H300.33V290.75h9.34v27.74a4.65,4.65,0,0,0,4.66,4.63h28v-9.25H319V290.75Zm-214.66-60.1c0-26.78,21.15-49.05,48.16-50.69a4.63,4.63,0,0,0,4.29-5.55,52.24,52.24,0,0,1-1.12-10.8c0-29.31,24.08-53.17,53.67-53.17s53.66,23.86,53.66,53.17c0,.51,0,1-.07,1.53l-.07,1.07a4.62,4.62,0,0,0,1.64,3.74,4.7,4.7,0,0,0,4,1,18.63,18.63,0,0,1,22.51,18c0,.15-.08.76-.09.9a4.64,4.64,0,0,0,2.14,4.11,4.73,4.73,0,0,0,4.66.22,46.44,46.44,0,0,1,21.3-5.14c25.74,0,46.67,20.74,46.67,46.23s-20.93,46.24-46.67,46.24H179C150.7,281.51,127.67,258.69,127.67,230.65Z"/><path class="cls-5" d="M245.89,126.56a39.79,39.79,0,0,0-13.22-2.25v9.25a30.32,30.32,0,0,1,10.1,1.72Z"/><path class="cls-5" d="M222.56,135.28l-3.12-8.72A39.42,39.42,0,0,0,193,163.61h9.33A30.13,30.13,0,0,1,222.56,135.28Z"/><path class="cls-5" d="M278.36,211.27,270,207.88a40.24,40.24,0,0,0-2-4.73l3.47-8.21a4.57,4.57,0,0,0-.62-4.61,51.3,51.3,0,0,0-9.2-9.13,4.74,4.74,0,0,0-4.66-.61L248.76,184a42.7,42.7,0,0,0-4.78-1.95l-3.41-8.25a4.67,4.67,0,0,0-3.73-2.83,45.66,45.66,0,0,0-13,0,4.63,4.63,0,0,0-3.73,2.83l-3.42,8.25a43.49,43.49,0,0,0-4.78,1.95l-8.28-3.44a4.76,4.76,0,0,0-4.66.61,51.63,51.63,0,0,0-9.21,9.12,4.59,4.59,0,0,0-.61,4.62l3.46,8.21a45.73,45.73,0,0,0-2,4.73l-8.32,3.39a4.61,4.61,0,0,0-2.86,3.69,48.08,48.08,0,0,0-.46,6.44,49.54,49.54,0,0,0,.45,6.44,4.63,4.63,0,0,0,2.86,3.7l8.33,3.38a41.11,41.11,0,0,0,2,4.74l-3.47,8.21a4.58,4.58,0,0,0,.62,4.61,51.58,51.58,0,0,0,9.2,9.12,4.69,4.69,0,0,0,4.66.61l8.29-3.43a43.49,43.49,0,0,0,4.78,2L220.1,269a4.67,4.67,0,0,0,3.73,2.83,47.17,47.17,0,0,0,13,0,4.65,4.65,0,0,0,3.73-2.83l3.42-8.25a42.7,42.7,0,0,0,4.78-2l8.29,3.43a4.67,4.67,0,0,0,4.65-.61,51.3,51.3,0,0,0,9.21-9.12,4.6,4.6,0,0,0,.62-4.61l-3.47-8.21a43,43,0,0,0,2-4.74l8.32-3.38a4.64,4.64,0,0,0,2.86-3.7,45.31,45.31,0,0,0,0-12.88,4.62,4.62,0,0,0-2.85-3.69ZM272.23,224l-7.77,3.16a4.65,4.65,0,0,0-2.72,3,31.81,31.81,0,0,1-2.9,7,4.6,4.6,0,0,0-.24,4l3.22,7.64a41.81,41.81,0,0,1-3.78,3.75l-7.71-3.19a4.68,4.68,0,0,0-4.08.23,32.81,32.81,0,0,1-7,2.87,4.68,4.68,0,0,0-3.05,2.69l-3.19,7.7a33.62,33.62,0,0,1-5.31,0l-3.18-7.7a4.68,4.68,0,0,0-3.05-2.69,32.83,32.83,0,0,1-7-2.88,4.75,4.75,0,0,0-4.08-.23l-7.71,3.2a41.81,41.81,0,0,1-3.78-3.75l3.22-7.64a4.56,4.56,0,0,0-.23-4,31.81,31.81,0,0,1-2.9-7,4.67,4.67,0,0,0-2.72-3L188.43,224c-.06-.92-.1-1.79-.1-2.63s0-1.7.11-2.63l7.77-3.16a4.68,4.68,0,0,0,2.72-3,31.89,31.89,0,0,1,2.9-7,4.59,4.59,0,0,0,.23-4L198.84,194a41.81,41.81,0,0,1,3.78-3.75l7.71,3.19a4.71,4.71,0,0,0,4.08-.23,33,33,0,0,1,7-2.88,4.66,4.66,0,0,0,3.05-2.69l3.19-7.7a36.2,36.2,0,0,1,5.31,0l3.19,7.7a4.62,4.62,0,0,0,3,2.69,32.62,32.62,0,0,1,7,2.88,4.71,4.71,0,0,0,4.08.23l7.71-3.19a41.81,41.81,0,0,1,3.78,3.75l-3.22,7.63a4.58,4.58,0,0,0,.23,4,31.41,31.41,0,0,1,2.9,7,4.66,4.66,0,0,0,2.72,3l7.77,3.16c.07.93.1,1.79.1,2.63s0,1.71-.1,2.63Z"/><path class="cls-2" d="M336.37,259.8l4.54,2.6,4.67-8-4.54-2.6a23.75,23.75,0,0,0,.82-2.64H347V239.9h-5.14a21.81,21.81,0,0,0-.82-2.64l4.54-2.6-4.67-8-4.54,2.6a22.31,22.31,0,0,0-1.95-1.94l2.62-4.5L329,218.19l-2.62,4.5a24.93,24.93,0,0,0-2.67-.82v-5.09h-9.34v5.09a22.84,22.84,0,0,0-2.67.82l-2.62-4.5L301,222.81l2.62,4.5a23.68,23.68,0,0,0-1.95,1.93l-4.54-2.59-4.67,8,4.54,2.6a23.91,23.91,0,0,0-.82,2.65H291v9.24h5.14a22,22,0,0,0,.82,2.65l-4.54,2.6,4.67,8,4.54-2.59a23.68,23.68,0,0,0,1.95,1.93l-2.62,4.5,8.08,4.62,2.62-4.5a24.93,24.93,0,0,0,2.67.82v5.09h9.34v-5.09a22.84,22.84,0,0,0,2.67-.82l2.62,4.5,8.08-4.62-2.62-4.5A23.68,23.68,0,0,0,336.37,259.8ZM319,258.39a13.87,13.87,0,1,1,14-13.87A13.95,13.95,0,0,1,319,258.39Z"/><path class="cls-5" d="M230.33,198.29a23.12,23.12,0,1,0,23.34,23.11A23.25,23.25,0,0,0,230.33,198.29Zm0,37a13.87,13.87,0,1,1,14-13.87A13.95,13.95,0,0,1,230.33,235.27Z"/><path class="cls-5" d="M169.67,313.87h14v9.25h-14Z"/><path class="cls-5" d="M244.33,337V309.25H235v23.11H216.33v9.25h23.34A4.64,4.64,0,0,0,244.33,337Z"/><path class="cls-5" d="M193,332.36h14v9.25H193Z"/><path class="cls-5" d="M169.67,332.36h14v9.25h-14Z"/><path class="cls-5" d="M197.67,350.86H235v9.24H197.67Z"/><path class="cls-5" d="M179,369.35h9.33v9.25H179Z"/><path class="cls-5" d="M197.67,369.35H207v9.25h-9.33Z"/><path class="cls-5" d="M216.33,369.35h9.34v9.25h-9.34Z"/><path class="cls-5" d="M272.33,369.35H235v9.25h42a4.65,4.65,0,0,0,4.67-4.63V350.86h-9.34Z"/><path class="cls-5" d="M272.33,318.49h9.34v23.12h-9.34Z"/><path class="cls-5" d="M145.47,323.12h14.86v-9.25H145.47a13.87,13.87,0,1,0,0,9.25Zm-17.8-4.63a4.67,4.67,0,1,1,4.66,4.63A4.65,4.65,0,0,1,127.67,318.49Z"/><path class="cls-5" d="M328.33,332.36h14v9.25h-14Z"/><path class="cls-5" d="M351.67,332.36h14v9.25h-14Z"/><path class="cls-5" d="M384.33,304.62a14,14,0,0,0-13.14,9.25H351.67v9.25h19.52a14,14,0,1,0,13.14-18.5Zm0,18.5a4.63,4.63,0,1,1,4.67-4.63A4.65,4.65,0,0,1,384.33,323.12Z"/><path class="cls-5" d="M146.33,341.61a13.87,13.87,0,1,0,13.14,18.49h28.86v-9.24H159.47A14,14,0,0,0,146.33,341.61Zm0,18.49a4.62,4.62,0,1,1,4.67-4.62A4.64,4.64,0,0,1,146.33,360.1Z"/><ellipse class="cls-1" cx="321.47" cy="108.95" rx="18.9" ry="18.7"/></svg>