<svg id="Layer_1" data-name="Layer 1" xmlns="http://www.w3.org/2000/svg" viewBox="0 0 480 480"><defs><style>.cls-1,.cls-2{fill:#daf0f4;}.cls-1{opacity:0.5;}.cls-3{fill:#e47c6e;}.cls-4{fill:#b6e3ee;}.cls-5{fill:#1fbdd4;}.cls-6{fill:#efbe9a;}</style></defs><title>2</title><path class="cls-1" d="M222.82,342.29h74.07a19.56,19.56,0,0,1,19.71,19.5h0a19.56,19.56,0,0,1-19.71,19.5H222.82a19.56,19.56,0,0,1-19.71-19.5h0A19.56,19.56,0,0,1,222.82,342.29Z"/><path class="cls-1" d="M249.87,130.2H175.79a19.56,19.56,0,0,1-19.71-19.5h0a19.56,19.56,0,0,1,19.71-19.5h74.08a19.56,19.56,0,0,1,19.7,19.5h0A19.56,19.56,0,0,1,249.87,130.2Z"/><path class="cls-1" d="M395.36,228.2H143.46a19.56,19.56,0,0,1-19.7-19.5h0a19.56,19.56,0,0,1,19.7-19.5h251.9a19.56,19.56,0,0,1,19.7,19.5h0A19.63,19.63,0,0,1,395.36,228.2Z"/><path class="cls-1" d="M319.91,179.2H100.6a19.56,19.56,0,0,1-19.7-19.5h0a19.56,19.56,0,0,1,19.7-19.5H319.91a19.56,19.56,0,0,1,19.7,19.5h0A19.63,19.63,0,0,1,319.91,179.2Z"/><path class="cls-1" d="M329.34,276.2H77.45a19.56,19.56,0,0,1-19.7-19.5h0a19.56,19.56,0,0,1,19.7-19.5H329.34a19.57,19.57,0,0,1,19.71,19.5h0A19.7,19.7,0,0,1,329.34,276.2Z"/><path class="cls-1" d="M362.35,328.75H110.45a19.56,19.56,0,0,1-19.7-19.5h0a19.56,19.56,0,0,1,19.7-19.5h251.9a19.56,19.56,0,0,1,19.7,19.5h0A19.63,19.63,0,0,1,362.35,328.75Z"/><ellipse class="cls-1" cx="297.7" cy="108.95" rx="18.9" ry="18.7"/><path class="cls-2" d="M245.06,136.72A114.26,114.26,0,1,0,359.32,251,114.26,114.26,0,0,0,245.06,136.72Zm0,182.81A68.56,68.56,0,1,1,313.62,251,68.56,68.56,0,0,1,245.06,319.53Z"/><path class="cls-3" d="M196.58,299.45l-32.31,32.32a113.88,113.88,0,0,0,80.79,33.47V319.53a68.34,68.34,0,0,1-48.48-20.08Z"/><path class="cls-4" d="M176.5,251H130.8a113.88,113.88,0,0,0,33.47,80.79l32.31-32.32A68.34,68.34,0,0,1,176.5,251Z"/><path class="cls-5" d="M245.06,182.42v-45.7A114.26,114.26,0,0,0,130.8,251h45.7A68.56,68.56,0,0,1,245.06,182.42Z"/><path class="cls-6" d="M336.47,388.09l-8.86-8.86a16.55,16.55,0,0,0-11.71-4.85,16.57,16.57,0,0,1-11.7-4.85L290.77,356.1l-.27-.27h0a114,114,0,0,0,30-19v-1.4a27.32,27.32,0,0,1,8-19.31l-17.34-21.43a9.28,9.28,0,0,1-2.08-5.86v-1.07a9.34,9.34,0,0,1,16.51-6l19.88,23.85a114.78,114.78,0,0,0,5.76-12.23l9.41,11.76a35.9,35.9,0,0,1,7.85,22.4A35.85,35.85,0,0,0,379,352.88l3.21,3.22Z"/><path class="cls-6" d="M108,145.86l3.21,3.21a35.85,35.85,0,0,1,10.5,25.35,35.82,35.82,0,0,0,7.86,22.39l9.41,11.77a112,112,0,0,1,5.76-12.24l19.87,23.85a9.34,9.34,0,0,0,16.52-6v-1.07a9.38,9.38,0,0,0-2.08-5.88l-17.35-21.42a27.34,27.34,0,0,0,8-19.31v-1.41a114.54,114.54,0,0,1,30-19h0l-.27-.26-13.44-13.44a16.55,16.55,0,0,0-11.7-4.85,16.59,16.59,0,0,1-11.71-4.84l-8.86-8.87"/><path d="M196.13,149.09l-13.44-13.44a11.91,11.91,0,0,0-8.47-3.51A21,21,0,0,1,159.28,126l-8.86-8.87,6.46-6.46,8.87,8.86a11.87,11.87,0,0,0,8.47,3.51,21,21,0,0,1,14.94,6.19l13.43,13.43Z"/><path d="M136.37,212.7l-14.66-18.32a21.23,21.23,0,0,1-4.62-13.2V166.42a11.88,11.88,0,0,0-3.51-8.47l-8.86-8.86,6.46-6.47,8.86,8.87a20.93,20.93,0,0,1,6.19,14.93v14.76a12.06,12.06,0,0,0,2.62,7.49L143.51,207Z"/><path d="M333.24,391.32l-8.86-8.86A11.91,11.91,0,0,0,315.9,379,21,21,0,0,1,301,372.76l-13.44-13.43,6.47-6.47,13.43,13.44a11.92,11.92,0,0,0,8.47,3.51A21,21,0,0,1,330.84,376l8.86,8.86Z"/><path d="M378.94,359.33l-8.86-8.87a21,21,0,0,1-6.19-14.93V320.77a12.08,12.08,0,0,0-2.62-7.49L346.61,295l7.14-5.71,14.66,18.32A21.2,21.2,0,0,1,373,320.77v14.76a11.91,11.91,0,0,0,3.51,8.47l8.87,8.86Z"/><path d="M328.67,363.9l-3.43-3.43a31.68,31.68,0,0,1-9.34-22.54v-2.52A31.6,31.6,0,0,1,322.5,316l-14.92-18.43a14,14,0,0,1-3.1-8.75v-1.07a13.91,13.91,0,0,1,24.59-8.91l15.43,18.51A109.7,109.7,0,0,0,172.67,168.57l-6-6.87A118.85,118.85,0,0,1,349.45,307.8a4.57,4.57,0,0,1-7.52.74l-19.88-23.85a4.76,4.76,0,0,0-8.43,3.05v1.07a4.79,4.79,0,0,0,1.06,3L332,313.23a4.57,4.57,0,0,1-.32,6.11A22.59,22.59,0,0,0,325,335.41v2.52A22.63,22.63,0,0,0,331.7,354l3.43,3.42Z"/><path d="M245.06,369.81A118.87,118.87,0,0,1,140.67,194.15a4.58,4.58,0,0,1,3.57-2.36,4.52,4.52,0,0,1,4,1.62l19.87,23.85a4.76,4.76,0,0,0,8.43-3v-1.07a4.74,4.74,0,0,0-1.06-3L158.1,188.72a4.57,4.57,0,0,1,.32-6.1,22.63,22.63,0,0,0,6.66-16.08V164a22.63,22.63,0,0,0-6.66-16.08L155,144.52l6.46-6.47,3.43,3.43A31.68,31.68,0,0,1,174.22,164v2.52a31.6,31.6,0,0,1-6.6,19.42l14.93,18.43a14,14,0,0,1,3.1,8.76v1.07a13.92,13.92,0,0,1-24.6,8.9l-15.42-18.51A109.71,109.71,0,0,0,317.46,333.39l6,6.86a118.71,118.71,0,0,1-78.43,29.56Z"/><path d="M245.06,324.1A73.13,73.13,0,1,1,318.19,251,73.21,73.21,0,0,1,245.06,324.1Zm0-137.11a64,64,0,1,0,64,64A64.05,64.05,0,0,0,245.06,187Z"/><path d="M240.49,136.72h9.14v45.7h-9.14Z"/><path d="M130.8,246.41h45.7v9.14H130.8Z"/><path d="M240.49,319.53h9.14v45.71h-9.14Z"/><path d="M159.53,330l32-32,6.46,6.46-32,32Z"/><path d="M194.79,269.26H295.34v9.14H194.79Z"/><path d="M203.93,260.12h9.14v13.71h-9.14Z"/><path d="M222.21,241.84h9.14v32h-9.14Z"/><path d="M240.49,232.69h9.14v41.14h-9.14Z"/><path d="M258.77,223.55h9.14v50.28h-9.14Z"/><path d="M277.05,214.41h9.15v59.42h-9.15Z"/></svg>