<svg id="Layer_1" data-name="Layer 1" xmlns="http://www.w3.org/2000/svg" viewBox="0 0 480 480"><defs><style>.cls-1{fill:#daf0f4;opacity:0.5;}.cls-2{fill:#b6e3ee;}.cls-3{fill:#e47c6e;}.cls-4{fill:#1fbdd4;}.cls-5{fill:#0b052b;}</style></defs><title>2</title><path class="cls-1" d="M231.26,343.17h74.08a19.56,19.56,0,0,1,19.7,19.5h0a19.56,19.56,0,0,1-19.7,19.5H231.26a19.56,19.56,0,0,1-19.7-19.5h0A19.56,19.56,0,0,1,231.26,343.17Z"/><path class="cls-1" d="M258.31,131.08H184.23a19.56,19.56,0,0,1-19.7-19.5h0a19.56,19.56,0,0,1,19.7-19.5h74.08a19.56,19.56,0,0,1,19.7,19.5h0A19.56,19.56,0,0,1,258.31,131.08Z"/><path class="cls-1" d="M403.8,229.08H151.91a19.56,19.56,0,0,1-19.71-19.5h0a19.56,19.56,0,0,1,19.71-19.5H403.8a19.56,19.56,0,0,1,19.7,19.5h0A19.63,19.63,0,0,1,403.8,229.08Z"/><path class="cls-1" d="M328.36,180.08H109.05a19.56,19.56,0,0,1-19.7-19.5h0a19.56,19.56,0,0,1,19.7-19.5H328.36a19.56,19.56,0,0,1,19.7,19.5h0A19.63,19.63,0,0,1,328.36,180.08Z"/><path class="cls-1" d="M337.79,277.08H85.89a19.56,19.56,0,0,1-19.7-19.5h0a19.56,19.56,0,0,1,19.7-19.5h251.9a19.56,19.56,0,0,1,19.7,19.5h0A19.69,19.69,0,0,1,337.79,277.08Z"/><path class="cls-1" d="M370.79,329.63H118.9a19.56,19.56,0,0,1-19.7-19.5h0a19.56,19.56,0,0,1,19.7-19.5H370.79a19.56,19.56,0,0,1,19.71,19.5h0A19.63,19.63,0,0,1,370.79,329.63Z"/><ellipse class="cls-1" cx="306.14" cy="109.83" rx="18.9" ry="18.7"/><path class="cls-2" d="M327.24,185.38a50.35,50.35,0,0,1,0,100.7H167a54.89,54.89,0,0,1-3.39-109.67,57.22,57.22,0,1,1,113.25-11.63c0,1-.09,1.88-.14,2.8A22.8,22.8,0,0,1,304.35,190c0,.37-.09.69-.09,1A50.2,50.2,0,0,1,327.24,185.38Z"/><path class="cls-3" d="M208.23,190h73.24V263.2H208.23Z"/><path class="cls-4" d="M232.64,128.1a38.81,38.81,0,0,0-13-2.22V135a29.55,29.55,0,0,1,9.92,1.7Z"/><path class="cls-4" d="M206.7,128.1a39,39,0,0,0-25.94,36.68h9.16a29.82,29.82,0,0,1,19.84-28.05Z"/><path class="cls-5" d="M336.39,307.08V289.83a54.9,54.9,0,0,0-9.15-109,54.21,54.21,0,0,0-18.92,3.38,27.51,27.51,0,0,0-26.85-21.69h-.05a61.79,61.79,0,1,0-123.08,9.86,59.44,59.44,0,0,0-5,116.65v18.08l-30.7,30.7a4.55,4.55,0,0,0-1.34,3.23v18.31h9.15V342.91l30.7-30.7a4.59,4.59,0,0,0,1.34-3.24V290.43c1.52.12,3,.23,4.58.23h13.73v25.57l-21.54,21.55a4.55,4.55,0,0,0-1.34,3.23v18.31H167V342.91l21.55-21.55a4.55,4.55,0,0,0,1.34-3.23V290.66h22.89v34.73l-12.4,12.39a4.55,4.55,0,0,0-1.34,3.23v18.31h9.16V342.91l12.39-12.39a4.59,4.59,0,0,0,1.34-3.24V290.66h18.31v68.66h9.15V290.66h18.31v36.62a4.56,4.56,0,0,0,1.35,3.24l12.39,12.39v16.41h9.15V341a4.55,4.55,0,0,0-1.34-3.23l-12.39-12.39V290.66h22.89v27.47a4.55,4.55,0,0,0,1.34,3.23l21.54,21.55v16.41h9.16V341a4.55,4.55,0,0,0-1.34-3.23l-21.55-21.55V290.66h18.31V309a4.59,4.59,0,0,0,1.34,3.24l30.7,30.7v16.41h9.16V341a4.55,4.55,0,0,0-1.34-3.23ZM167,281.51A50.32,50.32,0,0,1,163.92,181a4.58,4.58,0,0,0,4.2-5.49,53.37,53.37,0,0,1-1.09-10.7,52.64,52.64,0,0,1,105.28,0c0,.52,0,1-.07,1.53l-.07,1a4.59,4.59,0,0,0,5.52,4.7,18.36,18.36,0,0,1,22.07,17.83c0,.14-.08.72-.09.85a4.58,4.58,0,0,0,6.67,4.31,45.32,45.32,0,0,1,20.9-5.08,45.78,45.78,0,0,1,0,91.55Z"/><path class="cls-5" d="M359.28,368.48h9.16v9.15h-9.16Z"/><path class="cls-5" d="M322.66,368.48h9.16v9.15h-9.16Z"/><path class="cls-5" d="M281.47,368.48h9.15v9.15h-9.15Z"/><path class="cls-5" d="M121.26,368.48h9.15v9.15h-9.15Z"/><path class="cls-5" d="M157.88,368.48H167v9.15h-9.15Z"/><path class="cls-5" d="M199.07,368.48h9.16v9.15h-9.16Z"/><path class="cls-5" d="M240.27,368.48h9.15v9.15h-9.15Z"/><path class="cls-5" d="M222,203.69h9.15v9.16H222Z"/><path class="cls-5" d="M222,222h9.15v9.16H222Z"/><path class="cls-5" d="M222,240.31h9.15v9.15H222Z"/><path class="cls-5" d="M240.27,203.69h9.15v9.16h-9.15Z"/><path class="cls-5" d="M240.27,222h9.15v9.16h-9.15Z"/><path class="cls-5" d="M240.27,240.31h9.15v9.15h-9.15Z"/><path class="cls-5" d="M258.58,203.69h9.15v9.16h-9.15Z"/><path class="cls-5" d="M258.58,222h9.15v9.16h-9.15Z"/><path class="cls-5" d="M258.58,240.31h9.15v9.15h-9.15Z"/><path class="cls-5" d="M276.89,258.62H258.58v9.15h22.89A4.57,4.57,0,0,0,286,263.2V235.73h-9.15Z"/><path class="cls-5" d="M235.69,185.38H208.23a4.58,4.58,0,0,0-4.58,4.58v27.46h9.16V194.54h22.88Z"/><path class="cls-5" d="M231.11,258.62h18.31v9.15H231.11Z"/><path class="cls-5" d="M244.85,185.38h13.73v9.16H244.85Z"/><path class="cls-5" d="M281.47,185.38H267.73v9.16h9.16v32H286V190A4.57,4.57,0,0,0,281.47,185.38Z"/><path class="cls-5" d="M212.81,226.58h-9.16V263.2a4.58,4.58,0,0,0,4.58,4.57H222v-9.15h-9.15Z"/></svg>