<svg id="Layer_1" data-name="Layer 1" xmlns="http://www.w3.org/2000/svg" viewBox="0 0 480 480"><defs><style>.cls-1,.cls-3{fill:#daf0f4;}.cls-1{opacity:0.5;}.cls-2{fill:#b6e3ee;}.cls-4{fill:#787680;}.cls-5{fill:#1fbdd4;}.cls-6{fill:#e47c6e;}</style></defs><title>2</title><path class="cls-1" d="M229.66,343.17h74.08a19.56,19.56,0,0,1,19.71,19.5h0a19.56,19.56,0,0,1-19.71,19.5H229.66a19.56,19.56,0,0,1-19.7-19.5h0A19.56,19.56,0,0,1,229.66,343.17Z"/><path class="cls-1" d="M256.71,131.08H182.63a19.56,19.56,0,0,1-19.7-19.5h0a19.56,19.56,0,0,1,19.7-19.5h74.08a19.56,19.56,0,0,1,19.71,19.5h0A19.56,19.56,0,0,1,256.71,131.08Z"/><path class="cls-1" d="M402.2,229.08H150.31a19.56,19.56,0,0,1-19.7-19.5h0a19.56,19.56,0,0,1,19.7-19.5H402.2a19.56,19.56,0,0,1,19.71,19.5h0A19.63,19.63,0,0,1,402.2,229.08Z"/><path class="cls-1" d="M326.76,180.08H107.45a19.56,19.56,0,0,1-19.7-19.5h0a19.56,19.56,0,0,1,19.7-19.5H326.76a19.56,19.56,0,0,1,19.7,19.5h0A19.63,19.63,0,0,1,326.76,180.08Z"/><path class="cls-1" d="M336.19,277.08H84.3a19.56,19.56,0,0,1-19.71-19.5h0a19.56,19.56,0,0,1,19.71-19.5H336.19a19.56,19.56,0,0,1,19.7,19.5h0A19.69,19.69,0,0,1,336.19,277.08Z"/><path class="cls-1" d="M369.2,329.63H117.3a19.56,19.56,0,0,1-19.7-19.5h0a19.56,19.56,0,0,1,19.7-19.5H369.2a19.56,19.56,0,0,1,19.7,19.5h0A19.63,19.63,0,0,1,369.2,329.63Z"/><ellipse class="cls-1" cx="304.55" cy="109.83" rx="18.9" ry="18.7"/><path class="cls-2" d="M136.34,155.89H368.63V276.07H136.34Z"/><path class="cls-3" d="M368.54,155.89V276.07H136.34C241.43,262.8,321.29,225.09,368.54,155.89Z"/><path class="cls-4" d="M296.49,340.15a8,8,0,1,1,0,16H208.4a8,8,0,1,1,0-16Z"/><path class="cls-3" d="M284.44,340.15H220.36l4-32h56.1Z"/><path class="cls-5" d="M368.54,276.07V292a16.1,16.1,0,0,1-16,16H152.3a16.1,16.1,0,0,1-16-16V276H368.54Z"/><path class="cls-6" d="M368.54,139.85v16H136.34v-16a16.12,16.12,0,0,1,16-16H352.59A16,16,0,0,1,368.54,139.85Z"/><path class="cls-2" d="M281.49,316.13H223.4l1-8h56.1Z"/><path d="M164.35,205.58v2.34A12,12,0,0,0,176.4,220h4v-8h-4a4,4,0,0,1-4-4v-4a4.07,4.07,0,0,0-1.21-2.86L166,196l5.2-5.2a3.92,3.92,0,0,0,1.21-2.86v-4a4,4,0,0,1,4-4h4v-8h-4A12,12,0,0,0,164.35,184v2.34l-6.85,6.85a4,4,0,0,0,0,5.63Z"/><path d="M212.38,183.9v4a4.09,4.09,0,0,0,1.22,2.86l5.2,5.2-5.2,5.21a3.93,3.93,0,0,0-1.22,2.86v4a4,4,0,0,1-4,4h-4v8h4a12,12,0,0,0,12-12.05v-2.34l6.85-6.85a4,4,0,0,0,0-5.64l-6.85-6.85V183.9a12,12,0,0,0-12-12.05h-4v8h4A4.16,4.16,0,0,1,212.38,183.9Z"/><path d="M180.39,192h8v8h-8Z"/><path d="M196.34,192h8v8h-8Z"/><path d="M244.47,179.91h48v8h-48v-8Z"/><path d="M300.48,179.91h16v8h-16Z"/><path d="M324.5,179.91h24v8h-24Z"/><path d="M244.47,196h24v8h-24Z"/><path d="M276.46,196h24v8h-24Z"/><path d="M308.54,196H348.6v8H308.54Z"/><path d="M228.43,220h24v8h-24Z"/><path d="M260.42,220h88.09v8H260.42Z"/><path d="M156.37,236h80.12v8H156.37v-8Z"/><path d="M244.47,236h24v8h-24Z"/><path d="M276.46,236h72.05v8H276.46Z"/><path d="M156.37,252.05h48v8h-48v-8Z"/><path d="M212.38,252.05h40.06v8H212.38Z"/><path d="M260.42,252.05h56.1v8h-56.1Z"/><path d="M324.5,252.05h24v8h-24Z"/><path d="M352.59,119.82H152.3a20,20,0,0,0-20,20V292a20,20,0,0,0,20,20h67.54l-3,24h-8.5a12.06,12.06,0,0,0,0,24.11H296.4a12.06,12.06,0,1,0,0-24.11H288l-3-24H352.5a20,20,0,0,0,20-20V139.85A20.08,20.08,0,0,0,352.59,119.82ZM152.3,127.89H352.5a12,12,0,0,1,12.05,12V152H140.33V139.94A12,12,0,0,1,152.3,127.89Zm212.25,32V272H140.33V159.88ZM300.48,348.12a4,4,0,0,1-4,4H208.4a4,4,0,0,1-4-4,4,4,0,0,1,4-4h88.09A3.93,3.93,0,0,1,300.48,348.12Zm-20.55-12.05H225l3-24h49Zm72.66-32H152.3A12,12,0,0,1,140.25,292V280H364.47v12A11.89,11.89,0,0,1,352.59,304.08Z"/><path d="M340.54,288h8v8h-8Z"/><path d="M156.37,135.87h8v8h-8Z"/><path d="M172.33,135.87h8v8h-8Z"/><path d="M188.37,135.87h8v8h-8Z"/></svg>