<?xml version="1.0" encoding="utf-8"?>
<!-- Generator: Adobe Illustrator 21.0.2, SVG Export Plug-In . SVG Version: 6.00 Build 0)  -->
<svg version="1.1" id="filled_outline" xmlns="http://www.w3.org/2000/svg" xmlns:xlink="http://www.w3.org/1999/xlink" x="0px"
	 y="0px" viewBox="0 0 512 512" style="enable-background:new 0 0 512 512;" xml:space="preserve">
<style type="text/css">
	.st0{fill:#0DBCD4;}
	.st1{fill:#E5E7E9;}
	.st2{fill:#0B98A8;}
	.st3{fill:#F05656;}
	.st4{fill:#FCEDE3;}
	.st5{fill:#FFFFFF;}
	.st6{fill:#F9D6BB;}
	.st7{fill:#0F3846;}
</style>
<path class="st0" d="M472,382.9c0,21.2-8.4,41.6-23.4,56.6L408,480l-40,8H144l-40-8l-40.6-40.6c-18.6-18.6-26.9-45.3-22.1-71.2
	c0.9-4.8,2.2-9.5,4-14.1l24.7-64c6.4-16.6,19.4-29.8,36-36.4l60.7-24.3L200,216h112l46.7,18.7l47.4,19c16.5,6.6,29.6,19.8,36,36.4
	l24.6,64.1C470.2,363.3,472,373,472,382.9z"/>
<path class="st1" d="M358.7,234.7L328,296H200l-33.3-66.7L200,216h112L358.7,234.7z"/>
<path class="st2" d="M144,392h224v96H144V392z"/>
<path class="st2" d="M224,392h64v96h-64V392z"/>
<path class="st3" d="M279.2,232v40L264,296h-16l-16-24v-40H279.2z"/>
<path class="st4" d="M184,80v88c0,39.8,32.2,72,72,72l0,0l0,0c39.8,0,72-32.2,72-72l0,0V80l-24-32h-88L184,80z"/>
<path class="st5" d="M328,88h-68c-19.9,0-36-16.1-36-36v-4c0-13.3,10.7-24,24-24h24c30.9,0,56,25.1,56,56V88z"/>
<path class="st5" d="M184,88V56c0-13.3,10.7-24,24-24c8.8,0,16,7.2,16,16v9.4c0,16.9-13.7,30.6-30.6,30.6l0,0H184z"/>
<path class="st2" d="M272,296c17.7,0,32-14.3,32-32v-16h64v16c0,17.7-14.3,32-32,32H272z"/>
<path class="st2" d="M144,296h224v96H144V296z"/>
<path class="st2" d="M224,296h64v96h-64V296z"/>
<path class="st6" d="M132.4,426.9l39.2-9.8c2.8-0.7,5.7,0.1,7.8,2.1c2.8,2.8,3.2,7.1,1,10.3L168,448l46.1,13.2
	c5.9,1.7,9.9,7,9.9,13.2c0,7.6-6.1,13.7-13.7,13.7l0,0H144l-40-8l4.6-27.3C110.6,440.1,120,430,132.4,426.9L132.4,426.9z"/>
<path class="st6" d="M379.6,426.9l-39.2-9.8c-2.8-0.7-5.7,0.1-7.8,2.1c-2.8,2.8-3.2,7.1-1,10.3L344,448l-46.1,13.2
	c-5.9,1.7-9.9,7-9.9,13.2c0,7.6,6.1,13.7,13.7,13.7l0,0H368l40-8l-4.6-27.3C401.4,440.1,392,430,379.6,426.9L379.6,426.9z"/>
<path class="st7" d="M449.5,287.2c-7.2-18.7-21.9-33.5-40.5-41l-86-34.4c8.5-13,13.1-28.2,13-43.8V80c0-35.3-28.7-64-64-64h-24
	c-10.1,0-19.6,4.8-25.6,12.8c-4.1-3.1-9.2-4.8-14.4-4.8c-17.7,0-32,14.3-32,32v112c0,15.5,4.5,30.8,13.1,43.8L103,246.2
	c-18.6,7.5-33.2,22.3-40.5,41l-24.6,64.1c-12.5,32.5-4.7,69.2,19.9,93.8l40.6,40.6l0,0c1.1,1.1,2.5,1.9,4.1,2.2l40,8
	c0.5,0.1,1,0.2,1.6,0.2h224c0.5,0,1.1-0.1,1.6-0.2l40-8c1.5-0.3,3-1.1,4.1-2.2l0,0l40.6-40.6c24.6-24.6,32.4-61.4,19.9-93.8
	L449.5,287.2z M342.4,409.4c-5.5-1.4-11.3,0.2-15.3,4.3c-0.7,0.7-1.4,1.5-2,2.4H296v-16h64v13.8L342.4,409.4z M225.3,79
	c8.3,10.7,21.1,17,34.7,17h60v72c0,35.3-28.6,64-64,64s-64-28.6-64-64l0,0V96h1.4C206.2,96,218.1,89.6,225.3,79z M296,368h64v16h-64
	V368z M360,352h-64v-16h64V352z M280,384h-48v-80h48V384z M271.2,269.7L259.6,288h-7.3L240,269.6v-23.2c10.3,2.1,20.9,2.1,31.2,0.2
	V269.7z M224,241.3V272c0,1.6,0.5,3.1,1.3,4.4L233,288h-28.1l-27.2-54.5l22-8.8C206.7,231.7,214.9,237.3,224,241.3z M216,304v16h-48
	v16h48v16h-48v16h48v16h-64v-80H216z M152,400h64v16h-29.1c-0.6-0.9-1.2-1.7-2-2.4c-4-4-9.8-5.6-15.3-4.3l-17.6,4.4L152,400L152,400
	z M186.9,434c0.4-0.6,0.8-1.3,1.1-2h28v16h-18.9l-16.4-4.7L186.9,434z M232,400h48v80h-48V400z M314.9,448H296v-16h27.9
	c0.3,0.7,0.7,1.4,1.1,2l6.2,9.3L314.9,448z M296,320v-16h64v16H296z M360,264c0,13.2-10.8,24-24,24h-32c5.2-6.9,8-15.3,8-24v-8h48
	V264z M304,240c-4.4,0-8,3.6-8,8v16c0,10.5-6.8,19.7-16.7,22.9l6.7-10.6c0.8-1.3,1.2-2.8,1.2-4.3v-30.3c9.4-4,17.9-9.7,25.1-16.9
	l38.1,15.2H304z M248,32h24c26.5,0,48,21.5,48,48h-60c-15.5,0-28-12.5-28-28v-4C232,39.2,239.2,32,248,32z M208,40c4.4,0,8,3.6,8,8
	v9.4c0,12.5-10.1,22.6-22.6,22.6H192V56C192,47.2,199.2,40,208,40z M100.7,451.4l-2,12l-29.6-29.6C49,413.7,42.6,383.6,52.8,357
	l24.6-64.1c5.6-14.5,17-26.1,31.5-31.9l53.9-21.6l24.3,48.5H144c-4.4,0-8,3.6-8,8v121.8l-2.2,0.5l-9.8-14.7c-2.6-3.9-4-8.6-4-13.3
	V360h-16v30.3c0,7.9,2.3,15.6,6.7,22.2l7.9,11.8C109,430.4,102.5,440.2,100.7,451.4z M144.8,480l-31.6-6.3l3.3-19.7
	c1.6-9.4,8.6-17,17.9-19.3l39.2-9.8c0.1,0,0.1,0,0.2,0c0.1,0.1,0.1,0.1,0,0.2l-12.3,18.4c-2.5,3.7-1.5,8.6,2.2,11.1
	c0.7,0.5,1.4,0.8,2.2,1l46.1,13.2c3,0.9,4.8,4,3.9,7c-0.7,2.4-2.9,4.1-5.5,4.1L144.8,480L144.8,480z M367.2,480h-65.5
	c-3.1,0-5.7-2.5-5.7-5.7c0-2.5,1.7-4.8,4.1-5.5l46.1-13.2c4.2-1.2,6.7-5.6,5.5-9.9c-0.2-0.8-0.6-1.6-1-2.2l-12.3-18.4
	c0-0.1,0-0.2,0-0.2h0.1l0,0l39.2,9.8c9.3,2.3,16.3,9.9,17.9,19.3l3.3,19.7L367.2,480z M442.9,433.8l-29.6,29.6l-2-12
	c-1.9-11.2-8.4-21-17.9-27.1l7.9-11.8c4.4-6.6,6.7-14.3,6.7-22.2V352h-16v38.3c0,4.7-1.4,9.4-4,13.3l-9.8,14.7l-2.2-0.5V296
	c0-4.4-3.6-8-8-8l0,0c5.2-6.9,8-15.3,8-24v-13.8l27.1,10.8c14.5,5.8,25.9,17.4,31.5,31.9l24.6,64.1
	C469.4,383.6,463,413.7,442.9,433.8L442.9,433.8z"/>
<circle class="st7" cx="224" cy="144" r="8.8"/>
<circle class="st7" cx="288" cy="144" r="8.8"/>
</svg>
