<?xml version="1.0" encoding="utf-8"?>
<!-- Generator: Adobe Illustrator 21.0.2, SVG Export Plug-In . SVG Version: 6.00 Build 0)  -->
<svg version="1.1" id="Layer_1" xmlns="http://www.w3.org/2000/svg" xmlns:xlink="http://www.w3.org/1999/xlink" x="0px" y="0px"
	 viewBox="0 0 512 512" style="enable-background:new 0 0 512 512;" xml:space="preserve">
<style type="text/css">
	.st0{fill:#DBF0F2;}
	.st1{fill:#0DBCD4;}
	.st2{fill:#0B98A8;}
	.st3{fill:#E5E5E5;}
	.st4{fill:#F05656;}
	.st5{fill:#FFFFFF;}
	.st6{fill:#0F3846;}
</style>
<rect x="59.3" y="8" class="st0" width="85.5" height="145.4"/>
<rect x="59.3" y="8" class="st0" width="29.9" height="145.4"/>
<rect x="42.2" y="8" class="st0" width="119.7" height="34.2"/>
<polygon class="st1" points="55,504 55,196.1 8,196.1 256,8 504,196.1 457,196.1 457,504 "/>
<polygon class="st2" points="8,196.1 55,196.1 55,504 89.8,504 89.8,134.1 "/>
<path class="st3" d="M333,307.3c-7.1,0-12.8-5.7-12.8-12.8v-68.4c0-35.4-28.8-64.1-64.1-64.1S192,190.8,192,226.1v68.4
	c0,7.1-5.7,12.8-12.8,12.8s-12.8-5.7-12.8-12.8v-68.4c0-49.5,40.3-89.8,89.8-89.8s89.8,40.3,89.8,89.8v68.4
	C345.8,301.6,340,307.3,333,307.3z"/>
<path class="st4" d="M375.7,461.2H136.3V297.7c0-8.9,7.2-16,16-16h207.4c8.9,0,16,7.2,16,16V461.2z"/>
<path class="st4" d="M186.5,281.7h-34.2c-8.9,0-16,7.2-16,16v163.5h34.2V297.7C170.5,288.8,177.7,281.7,186.5,281.7z"/>
<path class="st5" d="M221.8,350.1c0-18.9,15.3-34.2,34.2-34.2s34.2,15.3,34.2,34.2c0,12.7-6.9,23.7-17.1,29.6V411
	c0,8.9-7.2,16-16,16H255c-8.9,0-16-7.2-16-16v-31.3C228.7,373.8,221.8,362.7,221.8,350.1z"/>
<path class="st5" d="M256,315.9c3,0,5.8,0.4,8.6,1.1c-14.8,3.8-25.7,17.2-25.7,33.1c0,12.7,6.9,23.7,17.1,29.6V411
	c0,6.2,3.5,11.5,8.6,14.2c-2.2,1.2-4.8,1.9-7.5,1.9H255c-8.9,0-16-7.2-16-16v-31.3c-10.2-5.9-17.1-17-17.1-29.6
	C221.8,331.2,237.1,315.9,256,315.9z"/>
<path class="st6" d="M508.8,189.8L260.8,1.6c-2.9-2.2-6.8-2.2-9.7,0l-98.3,74.6v-26h9.1c4.4,0,8-3.6,8-8V8c0-4.4-3.6-8-8-8H42.2
	c-4.4,0-8,3.6-8,8v34.2c0,4.4,3.6,8,8,8h9.1v103L3.2,189.8c-2.7,2.1-3.9,5.7-2.8,8.9c1.1,3.3,4.2,5.5,7.6,5.5h39v214.3
	c0,4.4,3.6,8,8,8s8-3.6,8-8V196.1c0-4.4-3.6-8-8-8H31.8L256,18.1l224.1,170H457c-4.4,0-8,3.6-8,8V496H63.1v-34.7c0-4.4-3.6-8-8-8
	s-8,3.6-8,8V504c0,4.4,3.6,8,8,8H457c4.4,0,8-3.6,8-8V204.2h39c3.4,0,6.5-2.2,7.6-5.5S511.6,191.8,508.8,189.8z M50.2,16h103.7v18.2
	H50.2V16z M67.3,50.2h69.5v37.9c0,0.1,0,0.1,0,0.2L67.3,141V50.2z"/>
<path class="st6" d="M256,128.3c-53.9,0-97.8,43.9-97.8,97.8v47.6h-5.9c-13.3,0-24.1,10.8-24.1,24v163.5c0,4.4,3.6,8,8,8h239.4
	c4.4,0,8-3.6,8-8v-85.5c0-4.4-3.6-8-8-8s-8,3.6-8,8v77.5H144.3V297.7c0-4.4,3.6-8,8-8h207.4c4.4,0,8,3.6,8,8V333c0,4.4,3.6,8,8,8
	s8-3.6,8-8v-35.3c0-13.3-10.8-24-24-24h-5.9v-47.6C353.8,172.1,309.9,128.3,256,128.3z M174.2,226.1c0-45.1,36.7-81.8,81.8-81.8
	s81.8,36.7,81.8,81.8v47.6h-9.6v-47.6c0-39.8-32.4-72.1-72.1-72.1S184,186.4,184,226.1v47.6h-9.6v-47.6H174.2z M312.1,273.6H199.9
	V226c0-30.9,25.2-56.1,56.1-56.1s56.1,25.2,56.1,56.1V273.6L312.1,273.6z"/>
<path class="st6" d="M254.9,435h2.1c13.3,0,24-10.8,24-24v-27c10.7-7.9,17.1-20.5,17.1-33.9c0-23.3-18.9-42.2-42.2-42.2
	s-42.2,18.9-42.2,42.2c0,13.4,6.4,26,17.1,33.9v27C230.9,424.3,241.7,435,254.9,435z M229.8,350.1c0-14.4,11.7-26.2,26.2-26.2
	c14.4,0,26.2,11.7,26.2,26.2c0,9.3-5,18-13.1,22.7c-2.5,1.4-4,4.1-4,6.9V411c0,4.4-3.6,8-8,8H255c-4.4,0-8-3.6-8-8v-31.3
	c0-2.9-1.5-5.5-4-6.9C234.8,368.1,229.8,359.4,229.8,350.1z"/>
</svg>
