<?xml version="1.0" encoding="utf-8"?>
<!-- Generator: Adobe Illustrator 21.0.2, SVG Export Plug-In . SVG Version: 6.00 Build 0)  -->
<svg version="1.1" id="Layer_1" xmlns="http://www.w3.org/2000/svg" xmlns:xlink="http://www.w3.org/1999/xlink" x="0px" y="0px"
	 viewBox="0 0 512 512" style="enable-background:new 0 0 512 512;" xml:space="preserve">
<style type="text/css">
	.st0{fill:#DBF0F2;}
	.st1{fill:#0DBCD4;}
	.st2{fill:#0B98A8;}
	.st3{fill:#FCEDE3;}
	.st4{fill:#666666;}
	.st5{fill:#FFFFFF;}
	.st6{fill:#F05656;}
	.st7{fill:#0F3846;}
</style>
<path class="st0" d="M10.1,24.9V238c0,8.8,7.1,15.9,15.9,15.9h77.4l59.4,67.8v-67.8h77.4c8.8,0,15.9-7.1,15.9-15.9V24.9
	c0-8.8-7.1-15.9-15.9-15.9H26C17.2,9,10.1,16.1,10.1,24.9z"/>
<polygon class="st1" points="128.8,75.8 61,109.7 61,220 111.8,220 111.8,160.6 145.8,160.6 145.8,220 196.6,220 196.6,109.7 "/>
<polygon class="st2" points="61,109.7 61,220 86.9,220 86.9,96.7 "/>
<g>
	<circle class="st3" cx="480.7" cy="179.7" r="21.2"/>
	<circle class="st3" cx="243.3" cy="179.7" r="21.2"/>
	<circle class="st3" cx="362" cy="154.2" r="110.2"/>
</g>
<path class="st3" d="M281.4,154.2c0-55.9,41.5-102,95.4-109.2c-4.9-0.7-9.8-1-14.8-1c-60.9,0-110.2,49.4-110.2,110.2
	S301.1,264.5,362,264.5c5,0,10-0.3,14.8-1C323,256.2,281.4,210.1,281.4,154.2z"/>
<path id="SVGCleanerId_0" class="st4" d="M362,8c0,0-123,17-123,127.2c0,42.4,20.6,65.9,33.9,84.1v-67.1l76.1-32.6l-8.2,41.1
	l72.9-40.5l37.4,32v67.1c13.3-18.2,33.9-41.7,33.9-84.1C485,24.9,362,8,362,8z"/>
<g>
	<path id="SVGCleanerId_0_1_" class="st5" d="M362,8c0,0-123,17-123,127.2c0,42.4,20.6,65.9,33.9,84.1v-67.1l76.1-32.6l-8.2,41.1
		l72.9-40.5l37.4,32v67.1c13.3-18.2,33.9-41.7,33.9-84.1C485,24.9,362,8,362,8z"/>
</g>
<path class="st5" d="M273,135.2C273,50.7,345.3,21,379,11.7C368.7,8.9,362,8,362,8S239,25,239,135.2c0,42.4,20.6,65.9,33.9,84.1
	v-67.1l1.1-0.5C273.4,146.5,273,141,273,135.2z"/>
<path class="st2" d="M489.2,504H234.8V306.9c0-17.6,14.2-31.8,31.8-31.8h190.8c17.6,0,31.8,14.2,31.8,31.8V504L489.2,504z"/>
<path class="st1" d="M266.6,275.1c-17.6,0-31.8,14.2-31.8,31.8V504h172.9L275.6,275h-9V275.1z"/>
<g>
	<polygon class="st6" points="330.2,275.1 393.8,275.1 381.1,323.8 342.9,323.8 	"/>
	<polygon class="st6" points="391.7,451 362,474.4 332.3,451 342.9,323.8 381.1,323.8 	"/>
</g>
<polygon class="st6" points="381.1,323.8 342.9,323.8 341,347.2 383,347.2 "/>
<path class="st7" d="M145.8,227.9h50.9c4.4,0,7.9-3.6,7.9-7.9V109.7c0-3-1.7-5.8-4.4-7.1l-67.8-33.9c-2.2-1.1-4.9-1.1-7.1,0
	l-67.8,33.9c-2.7,1.3-4.4,4.1-4.4,7.1V220c0,4.4,3.6,7.9,8,7.9H112c4.4,0,7.9-3.6,7.9-7.9v-51.4h18V220
	C137.8,224.4,141.4,227.9,145.8,227.9z M111.8,152.6c-4.4,0-7.9,3.6-7.9,7.9V212h-35v-97.4l59.9-29.9l59.9,29.9V212h-35v-51.4
	c0-4.4-3.6-7.9-7.9-7.9h-34V152.6z"/>
<path class="st7" d="M222.1,100.7c2.8,0,5.5-1.5,7-4.1c2.1-3.9,0.7-8.7-3.2-10.8l-93.3-50.9c-2.4-1.3-5.2-1.3-7.6,0L31.7,85.8
	c-3.9,2.1-5.3,6.9-3.2,10.8s6.9,5.3,10.8,3.2L128.8,51l89.5,48.8C219.5,100.4,220.8,100.7,222.1,100.7z"/>
<path class="st7" d="M455.2,227c0.4-0.5,4.7-6.3,5.9-7.9c2.8-3.8,5.9-7.8,8.9-12.3c3.4,1.3,7.1,2.1,10.8,2.1
	c16.1,0,29.2-13.1,29.2-29.2c0-11.9-7.2-22.5-18.1-27c0.8-5.5,1.2-11.3,1.2-17.5c0-48.1-22.6-86.7-65.4-111.8
	C395.8,4.7,364.4,0.3,363.1,0.1c-0.7-0.1-1.5-0.1-2.2,0c-1.3,0.2-32.7,4.7-64.4,23.3C283.9,30.8,273,39.4,264,49V24.9
	C264,11.7,253.3,1,240.1,1h-26.5c-4.4,0-7.9,3.6-7.9,7.9s3.6,7.9,7.9,7.9h26.5c4.4,0,7.9,3.6,7.9,7.9v44.5c0,0.2,0,0.4,0,0.7
	c-11.2,18.9-17,40.8-17,65.1c0,6.2,0.4,12,1.2,17.5c-10.8,4.4-18.1,15-18.1,27c0,16.1,13.1,29.2,29.2,29.2c1.6,0,3.2-0.1,4.8-0.4
	V238c0,4.4-3.6,7.9-7.9,7.9h-77.4c-4.4,0-7.9,3.6-7.9,7.9v46.7l-45.4-51.9c-1.5-1.7-3.7-2.7-6-2.7H26c-4.4,0-8-3.6-8-7.9V24.9
	c0-4.4,3.6-7.9,8-7.9h145.2c4.4,0,7.9-3.6,7.9-7.9s-3.6-7.9-7.9-7.9H26C12.8,1.1,2.1,11.8,2.1,24.9V238c0,13.2,10.7,23.9,23.9,23.9
	h73.8l57,65.1c4.7,5.4,13.9,1.9,13.9-5.2v-59.9h69.4c13.2,0,23.9-10.7,23.9-23.9v-17.6c0.9,1.2,4.5,6,4.9,6.5
	c15.1,19.3,35.3,33.1,58,40.2h-60.2c-21.9,0-39.8,17.8-39.8,39.8v99.6c0,4.4,3.6,8,7.9,8s7.9-3.6,7.9-8v-99.6
	c0-13.2,10.7-23.9,23.9-23.9h57.5l10.8,41.5l-10.5,125.9c-0.2,2.7,0.9,5.3,3,6.9l29.7,23.3c2.8,2.2,7,2.2,9.8,0l29.7-23.3
	c2.1-1.7,3.2-4.2,3-6.9l-10.5-125.9l10.8-41.5h57.5c13.2,0,23.9,10.7,23.9,23.9v189.2H242.8v-47.2c0-4.4-3.6-8-7.9-8s-7.9,3.6-7.9,8
	V504c0,4.4,3.6,7.9,7.9,7.9h254.4c4.4,0,8-3.6,8-8v-197c0-21.9-17.8-39.8-39.8-39.8h-60.2C419.9,260.1,440.1,246.3,455.2,227z
	 M494,179.7c0,8.1-7.4,14.4-15.4,13.1c3.8-7,7.2-14.9,9.8-23.9C491.8,171.3,494,175.3,494,179.7z M230,179.7c0-4.4,2.2-8.4,5.6-10.8
	c2.6,9,6,16.8,9.8,23.9C237.5,194,230,187.7,230,179.7z M265,152.1v42.5c-9.5-14.7-18-33.1-18-59.4c0-42.5,19.2-75.5,57.1-97.8
	C330,22,356.4,17,362,16c5.6,1,32,6,57.9,21.3c37.9,22.4,57.1,55.3,57.1,97.8c0,26.3-8.5,44.7-18,59.4V152c0-2.3-1-4.5-2.8-6
	l-37.4-32c-2.5-2.1-6.2-2.5-9-0.9L352,145.3l4.8-24.2c1.2-6.2-5.2-11.3-10.9-8.9l-76.1,32.6C266.9,146.1,265,148.9,265,152.1z
	 M362,464.3l-21.4-16.8l9.6-115.6h23.5l9.6,115.6L362,464.3z M374.9,315.9H349l-8.6-32.9h43L374.9,315.9z M362,256.5
	c-31.7,0-61.1-14.3-80.6-39.3c-0.1-0.2-0.3-0.4-0.5-0.5v-59.3l57.3-24.6L333,159c-1.3,6.5,5.8,11.7,11.7,8.5l68.1-37.8l30.4,26v60.9
	c-0.2,0.2-0.3,0.3-0.5,0.5C423.1,242.2,393.7,256.5,362,256.5z"/>
<path class="st7" d="M404.1,190.1h-0.9c-4.3,0-7.9-3.5-7.9-7.9v-0.9c0-4.3,3.5-7.9,7.9-7.9h0.9c4.3,0,7.9,3.5,7.9,7.9v0.9
	C412,186.6,408.4,190.1,404.1,190.1z"/>
<path class="st7" d="M317.8,190.1h-0.9c-4.3,0-7.9-3.5-7.9-7.9v-0.9c0-4.3,3.5-7.9,7.9-7.9h0.9c4.3,0,7.9,3.5,7.9,7.9v0.9
	C325.6,186.6,322.1,190.1,317.8,190.1z"/>
</svg>
