<?xml version="1.0" encoding="utf-8"?>
<!-- Generator: Adobe Illustrator 21.0.2, SVG Export Plug-In . SVG Version: 6.00 Build 0)  -->
<svg version="1.1" id="Слой_1" xmlns="http://www.w3.org/2000/svg" xmlns:xlink="http://www.w3.org/1999/xlink" x="0px" y="0px"
	 viewBox="0 0 512 512" style="enable-background:new 0 0 512 512;" xml:space="preserve">
<style type="text/css">
	.st0{fill:#DBF0F2;}
	.st1{fill:#0DBCD4;}
	.st2{fill:#F3F2F2;}
	.st3{fill:#0F3846;}
	.st4{fill:#F9D6BB;}
	.st5{fill:#0B98A8;}
</style>
<g id="Filledotuline">
	<path class="st0" d="M324.9,119.6v48.7l-13.9,14l13.9,13.9L311,210.1l13.9,13.9L311,238l13.9,13.9v20.9l-34.8,20.9l-34.8-20.9
		V119.6H324.9z"/>
	<path class="st1" d="M227.4,60.2v49.2c0,6.3,3.4,12.1,9,15.2l45.3,25.1c5.3,2.9,11.7,2.9,16.9,0l45.3-25.1c5.5-3.1,9-8.9,9-15.2
		V60.2c0-6.3-3.4-12.1-9-15.2l-45.3-25.1c-5.3-2.9-11.7-2.9-16.9,0L236.4,45C230.8,48.1,227.4,53.9,227.4,60.2L227.4,60.2z"/>
	<circle class="st2" cx="290.1" cy="63.9" r="13.9"/>
	<path class="st3" d="M373.6,109.4c0,0.9,0,1.9-0.1,2.8l13.9,1c0.1-1.3,0.1-2.5,0.1-3.8V98.7h-13.9V109.4z"/>
	<path class="st3" d="M373.6,60.2v24.6h13.9V60.2c0-19-10.3-36.4-26.9-45.7L335.2,0.4l-6.8,12.2l25.5,14.1
		C366.1,33.5,373.6,46.3,373.6,60.2z"/>
	<path class="st3" d="M233,130.7l15.3,8.5v133.6c0,2.4,1.3,4.7,3.4,6l34.8,20.9c2.2,1.3,5,1.3,7.2,0l34.8-20.9
		c2.1-1.3,3.4-3.5,3.4-6v-20.9c0-1.8-0.7-3.6-2-4.9l-9-9l9-9c2.7-2.7,2.7-7.1,0-9.8l0,0l-9-9l9-9c2.7-2.7,2.7-7.1,0-9.8l0,0l-9-9
		l9-9c1.3-1.3,2-3.1,2-4.9v-29.2l15.3-8.5c7.7-4.3,12.5-12.5,12.5-21.3V60.2c0-8.9-4.8-17-12.5-21.3l-45.3-25.2
		c-7.4-4.1-16.3-4.1-23.7,0L233,38.9c-7.7,4.3-12.5,12.5-12.5,21.3v49.2C220.4,118.2,225.2,126.4,233,130.7L233,130.7z M317.9,165.5
		L306,177.4c-2.7,2.7-2.7,7.1,0,9.8l0,0l9,9l-9,9c-2.7,2.7-2.7,7.1,0,9.8l0,0l9,9l-9,9c-2.7,2.7-2.7,7.1,0,9.8l0,0l11.9,11.9v14.1
		L290,285.5l-27.9-16.7v-122l13.9,7.7V231h13.9v-72.1c4.1,0,8.2-1.1,11.8-3.1l16-8.9v18.6H317.9z M234.4,60.2c0-3.8,2.1-7.3,5.4-9.1
		L285,25.9c3.2-1.8,7-1.8,10.1,0L340.4,51c3.3,1.8,5.4,5.3,5.4,9.1v49.2c0,3.8-2.1,7.3-5.4,9.1l-45.3,25.1c-3.2,1.8-7,1.8-10.1,0
		l-45.3-25.1c-3.3-1.8-5.4-5.3-5.4-9.1L234.4,60.2L234.4,60.2z"/>
	<path class="st3" d="M290.1,84.8c11.5,0,20.9-9.4,20.9-20.9S301.6,43,290.1,43s-20.9,9.4-20.9,20.9S278.5,84.8,290.1,84.8z
		 M290.1,56.9c3.8,0,7,3.1,7,7s-3.1,7-7,7s-7-3.1-7-7S286.2,56.9,290.1,56.9z"/>
	<path class="st3" d="M269.2,98.7H311v13.9h-41.8V98.7z"/>
	<path class="st3" d="M276.1,245H290v13.9h-13.9V245z"/>
	<path class="st3" d="M220.4,154.4h13.9V245h-13.9V154.4z"/>
</g>
<path class="st4" d="M461.7,255c-8.4,0-16,4.7-19.8,12.2L440,271l-24,48l-56,24c0-17.7-14.3-32-32-32H212.8
	c-44.8,0-88.4,14-124.8,40v120h188.8c38.7,0,76.5-10.9,109.3-31.4c49.6-31,83.6-81.5,93.8-139l3.5-19.7
	C485.8,267.4,475.4,255,461.7,255z"/>
<path class="st5" d="M80,311H32c-4.4,0-8,3.6-8,8v176c0,4.4,3.6,8,8,8h48c4.4,0,8-3.6,8-8V319C88,314.6,84.4,311,80,311z"/>
<path class="st3" d="M484.7,257.8C479,251,470.6,247,461.6,247c-4.8,0-9.4,1.2-13.5,3.2c-3.1,2.4-5.7,4.5-8,7.9
	c-2.3,3.3-5,6.4-7.4,9.7c-0.6,0.9-1.2,1.8-1.7,2.8c-0.8,2.1-1.7,4.1-2.9,6c-0.3,0.7-0.7,1.5-1,2.3c-0.3,0.6-0.6,1.2-0.9,1.8
	l-16,32.1l-44,18.9c-4.9-16.5-20.1-28.7-38.2-28.7H212.8c-41.6,0-81.7,11.5-116.8,33.2V319c0-8.8-7.2-16-16-16H32
	c-8.8,0-16,7.2-16,16v176c0,8.8,7.2,16,16,16l0,0h48c8.8,0,16-7.2,16-16v-16h180.8c40.2,0,79.5-11.3,113.5-32.6
	c51.4-32.1,86.9-84.8,97.4-144.4l3.5-19.7C492.8,273.5,490.5,264.6,484.7,257.8z M32,495V319h48v176H32z M475.6,279.6l-3.5,19.7
	c-9.8,55.2-42.6,103.9-90.2,133.7c-31.5,19.6-67.9,30-105.1,30H96V355.3c34.6-23.7,74.8-36.3,116.8-36.3H328c13.2,0,24,10.8,24,24
	s-10.8,24-24,24H200v16h128c20.2,0,36.7-15.1,39.4-34.5l51.7-22.2c1.7-0.7,3.2-2.1,4-3.8l25.9-51.8c2.4-4.8,7.2-7.8,12.6-7.8
	c4.2,0,8.1,1.8,10.8,5C475.2,271.2,476.3,275.4,475.6,279.6z"/>
</svg>
