<svg id="Слой_1" data-name="Слой 1" xmlns="http://www.w3.org/2000/svg" viewBox="0 0 33 33"><defs><style>.cls-1{fill:#fff;}</style></defs><title>Be</title><path class="cls-1" d="M12.86,14.72a1.4,1.4,0,0,0,.5-1.21,1.58,1.58,0,0,0-.16-.77,1.21,1.21,0,0,0-.45-.46A1.83,1.83,0,0,0,12.1,12a3.94,3.94,0,0,0-.75-.07H8.6V15.1h3A2.12,2.12,0,0,0,12.86,14.72Z"/><path class="cls-1" d="M11.79,17.1H8.6v3.67h3.13a3.77,3.77,0,0,0,.82-.08,1.94,1.94,0,0,0,.69-.28,1.41,1.41,0,0,0,.48-.53A1.84,1.84,0,0,0,13.9,19a1.74,1.74,0,0,0-.58-1.47A2.48,2.48,0,0,0,11.79,17.1Z"/><path class="cls-1" d="M16.5,0A16.5,16.5,0,1,0,33,16.5,16.5,16.5,0,0,0,16.5,0Zm3.31,10.6h5.4v1.32h-5.4ZM16.44,20.92a3.4,3.4,0,0,1-1.05,1.21,4.63,4.63,0,0,1-1.52.69,6.76,6.76,0,0,1-1.74.22H5.67V9.71h6.28a8.2,8.2,0,0,1,1.74.17,3.79,3.79,0,0,1,1.35.55,2.58,2.58,0,0,1,.87,1,3.58,3.58,0,0,1,.3,1.56,2.92,2.92,0,0,1-.46,1.68,3.32,3.32,0,0,1-1.36,1.1A3.18,3.18,0,0,1,16.22,17a3.7,3.7,0,0,1,.6,2.14A3.69,3.69,0,0,1,16.44,20.92ZM21,20.73a2.7,2.7,0,0,0,3.1.18,1.7,1.7,0,0,0,.71-.86h2.33a4.43,4.43,0,0,1-1.72,2.49,5,5,0,0,1-2.79.75,5.56,5.56,0,0,1-2.06-.37,4.38,4.38,0,0,1-1.56-1,4.74,4.74,0,0,1-1-1.61,5.9,5.9,0,0,1-.35-2.06,5.66,5.66,0,0,1,.36-2,4.68,4.68,0,0,1,2.57-2.69,5,5,0,0,1,2-.39,4.57,4.57,0,0,1,2.14.48,4.28,4.28,0,0,1,1.51,1.28,5.24,5.24,0,0,1,.85,1.83,6.83,6.83,0,0,1,.18,2.15h-7A2.7,2.7,0,0,0,21,20.73Z"/><path class="cls-1" d="M22.56,15.12a2.28,2.28,0,0,0-1.05.22,2.13,2.13,0,0,0-.67.53,1.9,1.9,0,0,0-.36.68,3,3,0,0,0-.12.64h4.31a2.58,2.58,0,0,0-.61-1.53A2,2,0,0,0,22.56,15.12Z"/></svg>