<?xml version="1.0" encoding="utf-8"?>
<!-- Generator: Adobe Illustrator 23.0.1, SVG Export Plug-In . SVG Version: 6.00 Build 0)  -->
<svg version="1.1" id="Layer_1" xmlns="http://www.w3.org/2000/svg" xmlns:xlink="http://www.w3.org/1999/xlink" x="0px" y="0px"
	 viewBox="0 0 600 450" style="enable-background:new 0 0 600 450;" xml:space="preserve">
<style type="text/css">
	.st0{fill:#B6E2EB;}
	.st1{fill:none;stroke:#0D3846;stroke-width:1.5;stroke-linecap:round;stroke-miterlimit:10;stroke-dasharray:3,5;}
	.st2{fill:#DAEFF1;}
	.st3{fill:#FFFFFF;}
	.st4{fill:#EF5455;}
	.st5{fill:none;stroke:#0D3846;stroke-width:1.5;stroke-linecap:round;stroke-miterlimit:10;}
	.st6{opacity:0.2;fill:#B6E2EB;enable-background:new    ;}
	.st7{fill:#F05455;}
	.st8{fill:#0D3846;}
	.st9{fill:#D0D2D3;stroke:#0D3846;stroke-width:1.5;stroke-linecap:round;stroke-miterlimit:10;}
	.st10{fill:#06BBD3;}
	.st11{fill:#B5E1EA;}
	.st12{fill:#06BCD4;stroke:#0D3846;stroke-width:1.5;stroke-miterlimit:10;}
	.st13{fill:#06BCD4;stroke:#0D3846;stroke-miterlimit:10;}
	.st14{fill:#0797A7;stroke:#0D3846;stroke-miterlimit:10;}
	.st15{fill:#06BCD4;}
	.st16{fill:#0797A7;}
	.st17{fill:#B6E2EB;stroke:#0D3846;stroke-miterlimit:10;}
	.st18{fill:#F05455;stroke:#0D3846;stroke-miterlimit:10;}
	.st19{opacity:0.1;fill:#000120;enable-background:new    ;}
	.st20{fill:#F99F23;stroke:#0D3846;stroke-miterlimit:10;}
	.st21{fill:#FDFEFC;stroke:#0D3846;stroke-miterlimit:10;}
	.st22{fill:none;stroke:#0D3846;stroke-width:1.5;stroke-linecap:round;stroke-miterlimit:10;stroke-dasharray:2.97,4.95;}
	.st23{fill:none;stroke:#0D3846;stroke-width:1.5;stroke-linecap:round;stroke-miterlimit:10;stroke-dasharray:3.11,5.19;}
	.st24{fill:#FFCD21;}
	.st25{clip-path:url(#SVGID_2_);}
	.st26{fill:none;stroke:#0D3846;stroke-miterlimit:10;}
</style>
<title>error 404</title>
<path class="st0" d="M36.7,292.4h118.7c5.6,0,10.1,4.5,10.1,10c0,0,0,0,0,0v0.3c0,5.6-4.5,10-10.1,10c0,0,0,0,0,0H86
	c-5.5,0-10,4.5-10,10v0.3c0,5.5,4.5,10,10,10h270.9c5.5,0,10,4.5,10,10v0.3c0,5.5-4.5,10-10,10H36.7c-5.5,0-10,4.5-10,10.1v0.4
	c0,5.5,4.5,10,10,10.1h161.5c5.6,0,10.1,4.5,10.1,10v0.3c0,5.6-4.5,10-10.1,10h-71.9c-5.6,0-10.1,4.5-10.1,10c0,0,0,0,0,0v0.3
	c0,5.6,4.5,10,10.1,10c0,0,0,0,0,0h338.3c5.5,0,10-4.5,10-10v-0.3c0-5.5-4.5-10-10-10h-18.2c-5.6,0-10.1-4.5-10.1-10v-0.3
	c0-5.6,4.5-10,10.1-10h91.1c5.6,0,10.1-4.5,10.1-10c0,0,0,0,0,0v-0.3c0-5.6-4.5-10.1-10.1-10.1h-21.7c-5.5,0-10-4.5-10-10v-0.3
	c0-5.5,4.5-10,10-10h55.8c5.6,0,10.1-4.5,10.1-10c0,0,0,0,0,0v-0.3c0-5.6-4.5-10-10-10c0,0,0,0,0,0H314.2c-5.6,0-10-4.5-10-10v-0.3
	c0-5.6,4.5-10,10-10h223.3c5.6,0,10.1-4.5,10.1-10c0,0,0,0,0,0V282c0-5.5,4.5-10,10-10.1h14c5.5,0,10-4.5,10.1-10v-0.3
	c0-5.5-4.5-10-10.1-10H314.2c-5.5,0-10-4.5-10-10v-0.3c0-5.5,4.5-10,10-10h236c5.6,0,10-4.5,10-10.1v-0.3c0-5.6-4.5-10.1-10-10.1
	h-116c-5.6,0-10-4.5-10-10.1c0,0,0,0,0,0v-0.2c0-5.5,4.5-10,10-10h51.6c5.6,0,10.1-4.5,10.1-10c0,0,0,0,0,0v-0.3
	c-0.1-5.5,4.3-10.2,9.8-10.3c0.1,0,0.1,0,0.2,0H525c5.5,0,10-4.5,10.1-10v-0.3c0-5.5-4.5-10-10.1-10h-90.3c-5.6,0-10-4.5-10-10.1
	c0,0,0,0,0,0l0,0c0-5.6,4.5-10.1,10-10.1h50.5c5.5,0,10-4.5,10-10v-0.3c0-5.5-4.5-10-10-10H217.8c-5.5,0-10,4.5-10,10v0.3
	c0,5.5,4.5,10,10,10h86.5c5.6,0,10,4.5,10,10.1l0,0c0,5.6-4.5,10.1-10,10.1c0,0,0,0,0,0H130.7c-5.5,0-10,4.5-10,10v0.3
	c0,5.5-4.5,10-10.1,10h-7c-5.5,0-10,4.5-10,10.1v0.3c0,5.5,4.5,10,10,10.1h200c5.5,0,10,4.5,10,10v0.2c0,5.6-4.5,10.1-10,10.1
	c0,0,0,0,0,0H61.2c-5.6,0-10.1,4.5-10.1,10.1v0.3c0,5.6,4.5,10.1,10.1,10.1h94.1c5.5,0,10,4.5,10.1,10v0.3c0,5.5-4.5,10-10.1,10
	h-41.1c-5.5,0-10,4.5-10,10v0.3c0,5.5-4.5,10-10.1,10H36.7c-5.6,0-10.1,4.5-10.1,10c0,0.1,0,0.2,0,0.3v0.3
	C26.6,287.9,31.1,292.4,36.7,292.4C36.6,292.4,36.6,292.4,36.7,292.4z M270.9,261.6v0.3c0,5.5-4.5,10-10,10h-39.6
	c-5.5,0-10-4.5-10-10v-0.3c0-5.5,4.5-10,10-10h39.6C266.4,251.6,270.9,256.1,270.9,261.6L270.9,261.6z"/>
<circle class="st0" cx="75" cy="180.3" r="5.9"/>
<circle class="st0" cx="150.4" cy="97.6" r="5.9"/>
<circle class="st0" cx="513.1" cy="186.1" r="5.9"/>
<circle class="st0" cx="507.3" cy="129.1" r="5.9"/>
<circle class="st0" cx="573.3" cy="350.5" r="5.9"/>
<circle class="st0" cx="493" cy="416" r="2.9"/>
<circle class="st0" cx="79" cy="256" r="2.9"/>
<circle class="st0" cx="49" cy="156" r="2.9"/>
<circle class="st0" cx="49" cy="186" r="2.9"/>
<path class="st1" d="M252.8,360.5L252.8,360.5c-26.8,0-48.5-21.7-48.5-48.5v-20.1c0-26.8,21.7-48.5,48.5-48.5h186.4
	c15.8,0,28.7-12.8,28.7-28.7l0,0c0-15.8-12.8-28.7-28.7-28.7c0,0,0,0,0,0h-7.6c-9.5,0-17.3-7.7-17.3-17.2c0,0,0,0,0,0l0,0
	c0-9.5,7.7-17.3,17.2-17.3c0,0,0,0,0,0h50.1c18.6,0,33.8-15.1,33.8-33.8l0,0c0-18.6-15.1-33.7-33.7-33.7c0,0,0,0,0,0H116.8"/>
<path class="st2" d="M368.4,435.7h-142c-6.5,0-11.8-5.3-11.8-11.8V286.7c0-6.5,5.3-11.8,11.8-11.8h142c6.5,0,11.8,5.3,11.8,11.8
	v137.1C380.3,430.4,375,435.7,368.4,435.7z"/>
<path class="st3" d="M368.4,417.1H253.7c-6.5,0-11.8-5.3-11.8-11.8V286.8c0-6.5,5.3-11.8,11.8-11.8h114.7c6.5,0,11.8,5.3,11.8,11.8
	v118.5C380.3,411.8,375,417.1,368.4,417.1z"/>
<path class="st4" d="M214.6,298.3v-13.9c0-5.2,4.2-9.5,9.5-9.5h146.7c5.2,0,9.5,4.2,9.5,9.4v0v13.9H214.6z"/>
<path class="st5" d="M214.6,298.3v-13.9c0-5.2,4.2-9.5,9.5-9.5h146.3c5.5,0,9.9,4.4,9.9,9.9v13.5L214.6,298.3z"/>
<path class="st5" d="M368.4,435.7h-142c-6.5,0-11.8-5.3-11.8-11.8V284.4c0-5.2,4.2-9.5,9.5-9.5h146.4c5.4,0,9.9,4.4,9.9,9.9l0,0
	v139.1C380.3,430.4,375,435.7,368.4,435.7L368.4,435.7z"/>
<path class="st6" d="M217.1,435.7C174.4,316.7,131.7,197.8,89,78.8l52.8-27c84.7,128,169.3,255.9,254,383.9L217.1,435.7z"/>
<path class="st7" d="M173,180.2c-1.7,0-3.3-0.7-4.5-1.9l-20.6-20.6c-2.5-2.5-2.5-6.5,0-9c2.5-2.5,6.5-2.5,9,0c0,0,0,0,0,0l20.6,20.6
	c2.5,2.5,2.5,6.5,0,9C176.3,179.5,174.7,180.2,173,180.2z"/>
<path class="st8" d="M152.4,147.3c1.6,0,3.1,0.6,4.2,1.7l20.6,20.6c2.3,2.3,2.3,6,0,8.3c0,0,0,0,0,0l0,0c-2.3,2.3-6,2.3-8.3,0
	c0,0,0,0,0,0l-20.6-20.6c-2.3-2.3-2.2-6,0.1-8.3C149.4,148,150.9,147.4,152.4,147.3 M152.4,146.4c-3.8,0-6.9,3.1-6.9,6.9
	c0,1.8,0.7,3.6,2,4.9l20.6,20.6c2.7,2.7,7,2.7,9.7,0c0,0,0,0,0,0c2.7-2.7,2.7-7,0-9.7l-20.6-20.6C156,147.1,154.2,146.4,152.4,146.4
	L152.4,146.4z"/>
<rect x="192.8" y="194" transform="matrix(0.7071 -0.7071 0.7071 0.7071 -85.6596 205.6538)" class="st9" width="25.2" height="24.4"/>
<line class="st5" x1="222.9" y1="205.9" x2="187.9" y2="206.5"/>
<line class="st5" x1="205.7" y1="188.7" x2="205.1" y2="223.7"/>
<line class="st5" x1="195.9" y1="245.4" x2="169.8" y2="245.4"/>
<line class="st5" x1="195.9" y1="252.5" x2="169.8" y2="252.5"/>
<line class="st5" x1="195.9" y1="249" x2="176.9" y2="249"/>
<rect x="179.5" y="142.1" transform="matrix(0.7071 -0.7071 0.7071 0.7071 -50.8313 170.9317)" class="st4" width="2.9" height="9.4"/>
<rect x="177.1" y="147.5" transform="matrix(0.7071 -0.7071 0.7071 0.7071 -53.0005 170.0325)" class="st4" width="3.2" height="2.9"/>
<rect x="181.5" y="143.2" transform="matrix(0.7071 -0.7071 0.7071 0.7071 -48.6622 171.8309)" class="st4" width="3.2" height="2.9"/>
<path class="st8" d="M176.2,149.5l2.1,2.1c0.2,0.2,0.6,0.2,0.8,0c0,0,0,0,0,0l1.9-1.9l1.9,1.9c0.2,0.2,0.6,0.2,0.8,0l2.1-2.1
	c0.2-0.2,0.2-0.6,0-0.8c0,0,0,0,0,0l-1.9-1.9l1.9-1.9c0.2-0.2,0.2-0.6,0-0.8c0,0,0,0,0,0l-2.1-2.1c-0.2-0.2-0.6-0.2-0.8,0l-1.9,1.9
	l-1.9-1.9c-0.2-0.2-0.6-0.2-0.8,0c0,0,0,0,0,0l-2.1,2.1c-0.2,0.2-0.2,0.6,0,0.8c0,0,0,0,0,0l1.9,1.9l-1.9,1.9
	C175.9,148.9,175.9,149.3,176.2,149.5C176.2,149.5,176.2,149.5,176.2,149.5z M183,146l-1.2-1.2l1.4-1.4l1.2,1.2L183,146z
	 M183.2,150.3l-5.8-5.8l0,0l1.2-1.2l0,0l5.8,5.8l0,0L183.2,150.3z M177.4,149.1l1.4-1.4l1.3,1.2l-1.4,1.4L177.4,149.1z"/>
<rect x="134.7" y="102.1" transform="matrix(0.7071 -0.7071 0.7071 0.7071 -35.6453 127.5892)" class="st4" width="2.9" height="9.3"/>
<rect x="132.4" y="107.5" transform="matrix(0.7071 -0.7071 0.7071 0.7071 -37.8216 126.687)" class="st4" width="3.2" height="2.9"/>
<rect x="136.7" y="103.2" transform="matrix(0.7071 -0.7071 0.7071 0.7071 -33.4832 128.4854)" class="st4" width="3.2" height="2.9"/>
<path class="st8" d="M131.4,109.5l2.1,2.1c0.2,0.2,0.6,0.2,0.8,0l1.9-1.9l1.9,1.9c0.2,0.2,0.6,0.2,0.8,0c0,0,0,0,0,0l2.1-2.1
	c0.2-0.2,0.2-0.6,0-0.8c0,0,0,0,0,0l-1.9-1.9l1.9-1.9c0.2-0.2,0.2-0.6,0-0.8c0,0,0,0,0,0l-2.1-2.1c-0.2-0.2-0.6-0.2-0.8,0
	c0,0,0,0,0,0l-1.9,1.9l-1.9-1.9c-0.2-0.2-0.6-0.2-0.8,0l-2.1,2.1c-0.2,0.2-0.2,0.6,0,0.8l1.9,1.9l-1.9,1.9
	C131.2,108.9,131.2,109.3,131.4,109.5z M138.3,106l-1.3-1.2l1.4-1.4l1.3,1.2L138.3,106z M138.5,110.3l-5.8-5.8l0,0l1.3-1.2l0,0
	l5.8,5.8l0,0L138.5,110.3z M132.7,109.1l1.4-1.4l1.2,1.2l-1.4,1.4L132.7,109.1z"/>
<rect x="134.7" y="137.2" transform="matrix(0.7071 -0.7071 0.7071 0.7071 -60.4587 137.8692)" class="st10" width="2.9" height="9.4"/>
<rect x="132.4" y="142.6" transform="matrix(0.7071 -0.7071 0.7071 0.7071 -62.6349 136.967)" class="st10" width="3.2" height="2.9"/>
<rect x="136.8" y="138.3" transform="matrix(0.7071 -0.7071 0.7071 0.7071 -58.2966 138.7654)" class="st10" width="3.2" height="2.9"/>
<path class="st8" d="M131.4,144.6l2.1,2.1c0.2,0.2,0.6,0.2,0.8,0l1.9-1.9l1.9,1.9c0.2,0.2,0.6,0.2,0.8,0c0,0,0,0,0,0l2.1-2.1
	c0.2-0.2,0.2-0.6,0-0.8c0,0,0,0,0,0l-1.9-1.9l1.9-1.9c0.2-0.2,0.2-0.6,0-0.8l-2.1-2.1c-0.2-0.2-0.6-0.2-0.8,0c0,0,0,0,0,0l-1.9,1.8
	l-1.9-1.9c-0.2-0.2-0.6-0.2-0.8,0l-2.1,2.1c-0.2,0.2-0.2,0.6,0,0.8l1.9,1.9l-1.9,1.9C131.2,144,131.2,144.4,131.4,144.6
	C131.4,144.6,131.4,144.6,131.4,144.6z M138.3,141.1l-1.3-1.2l1.4-1.4l1.3,1.2L138.3,141.1z M138.5,145.4l-5.8-5.8l0,0l1.3-1.2l0,0
	l5.8,5.8l0,0L138.5,145.4z M132.7,144.2l1.4-1.4l1.2,1.3l-1.4,1.4L132.7,144.2z"/>
<line class="st5" x1="195.9" y1="259.6" x2="169.8" y2="259.6"/>
<line class="st5" x1="195.9" y1="266.6" x2="169.8" y2="266.6"/>
<line class="st5" x1="195.9" y1="263.1" x2="176.9" y2="263.1"/>
<path class="st5" d="M259.6,229.9l29.7,44.9"/>
<path class="st5" d="M238.2,197.5l11.5,17.4"/>
<path class="st5" d="M159.5,275.2c0-0.1-69.4-193.2-70.5-196.3l52.8-27c0.4,0.6,89.9,135.9,89.9,135.9"/>
<path class="st5" d="M165.2,291.2l-1.6-4.4"/>
<path class="st5" d="M173.7,314.8c0,0-5.4-15-5.5-15.3"/>
<path class="st5" d="M183.4,341.7c-0.2-0.4-8.5-23.6-8.5-23.7"/>
<path class="st5" d="M380.3,412.3l15.5,23.4H217.1l-21.7-60.5"/>
<polygon class="st2" points="252.6,263.1 243.8,252 233.6,252 252.6,237.5 "/>
<polygon class="st11" points="252.6,234.9 252.6,237.5 233.6,252 230.1,251.9 "/>
<path class="st8" d="M229.6,252.1c0.1,0.2,0.3,0.4,0.6,0.4h13.4l8.6,10.9c0.1,0.1,0.3,0.2,0.5,0.2h0.2c0.2-0.1,0.4-0.3,0.4-0.6
	v-28.2l0,0c0-0.2-0.1-0.4-0.3-0.5c-0.2-0.1-0.4-0.1-0.6,0.1l-22.4,17.1C229.6,251.6,229.5,251.9,229.6,252.1z M235.3,251.4
	l16.7-12.7v22.7l-7.7-9.8c-0.1-0.1-0.3-0.2-0.5-0.2L235.3,251.4z M231.9,251.4L252,236v1.2l0,0l-18.6,14.2L231.9,251.4z"/>
<path class="st8" d="M250.1,242.3h0.1h0.1c0,0,0.1,0,0.1,0l0.1-0.1c0.1-0.1,0.2-0.3,0.2-0.4c0-0.2-0.1-0.3-0.2-0.4l-0.1-0.1
	c0,0-0.1,0-0.1-0.1h-0.1c-0.1,0-0.2,0-0.2,0h-0.1c0,0-0.1,0-0.1,0.1c0,0-0.1,0-0.1,0.1c-0.1,0.1-0.2,0.3-0.2,0.4
	c0,0.2,0.1,0.3,0.2,0.4c0,0,0.1,0.1,0.1,0.1h0.1h0.1H250.1z"/>
<path class="st8" d="M250.1,255.7c0.3,0,0.6-0.3,0.6-0.6c0,0,0,0,0,0V244c0-0.3-0.3-0.6-0.6-0.6s-0.6,0.3-0.6,0.6l0,0v11.2
	C249.5,255.5,249.8,255.7,250.1,255.7z"/>
<polygon class="st6" points="217.1,435.7 371.6,435.7 398.2,139.7 362.1,129.1 "/>
<polyline class="st5" points="374.3,406.5 375.1,396.4 376.6,380.1 380.3,339.5 388.2,251.5 390.2,229 "/>
<polyline class="st5" points="233.6,400.8 228.9,410.7 225.9,417.1 "/>
<line class="st5" x1="240.2" y1="387" x2="237.9" y2="391.8"/>
<line class="st5" x1="255" y1="355.5" x2="244.3" y2="378.1"/>
<line class="st5" x1="261.5" y1="341.7" x2="258.9" y2="347.3"/>
<polyline class="st5" points="313,232.8 306.1,247.5 303.8,252.4 302.9,254.2 302,256.1 265.2,334.1 "/>
<line class="st5" x1="342.9" y1="169.6" x2="315.3" y2="227.9"/>
<polyline class="st5" points="390.7,223.8 394.1,185.5 395.8,166.6 398.2,139.7 362.1,129.1 345.2,164.7 "/>
<line class="st5" x1="322.5" y1="337" x2="223.3" y2="337"/>
<line class="st5" x1="322.5" y1="343.7" x2="262.6" y2="343.7"/>
<line class="st5" x1="322.5" y1="350.5" x2="223.3" y2="350.5"/>
<line class="st5" x1="322.5" y1="357.2" x2="262.6" y2="357.2"/>
<path class="st7" d="M307.7,360.4c-0.6,0-1.1-0.1-1.6-0.3l-20.6-7.3c-2.6-0.9-3.9-3.7-3-6.3c0.7-2,2.5-3.3,4.6-3.3
	c0.6,0,1.1,0.1,1.6,0.3l20.6,7.3c1.2,0.4,2.2,1.3,2.8,2.5c1.2,2.4,0.1,5.4-2.3,6.5C309.2,360.2,308.5,360.3,307.7,360.4L307.7,360.4
	z"/>
<path class="st8" d="M287.1,343.7c0.5,0,1,0.1,1.5,0.3l20.6,7.3c2.3,0.8,3.5,3.3,2.7,5.6c-0.6,1.8-2.3,2.9-4.2,2.9
	c-0.5,0-1-0.1-1.5-0.3l-20.6-7.3c-2.3-0.8-3.5-3.3-2.7-5.6C283.6,344.9,285.3,343.7,287.1,343.7 M287.1,342.7
	c-2.3,0-4.3,1.5-5.1,3.6c-0.5,1.3-0.4,2.8,0.2,4.1c0.6,1.3,1.7,2.3,3.1,2.8l20.6,7.3c0.6,0.2,1.2,0.3,1.8,0.3c3,0,5.4-2.4,5.4-5.4
	c0-0.8-0.2-1.6-0.5-2.3c-0.6-1.3-1.7-2.3-3.1-2.8L289,343C288.4,342.8,287.8,342.7,287.1,342.7L287.1,342.7z"/>
<rect x="214.6" y="298.3" class="st12" width="165.6" height="26.5"/>
<rect x="343.1" y="306.4" class="st7" width="27.3" height="10.3"/>
<path class="st8" d="M369.9,306.9v9.3h-26.3v-9.3H369.9 M370.9,305.9h-28.3v11.3h28.3V305.9z"/>
<path class="st5" d="M232.6,311.6l-9.3-0.1"/>
<path class="st5" d="M251.1,311.8h-5.6"/>
<path class="st5" d="M332.2,311.5h-18.7"/>
<path class="st5" d="M305.7,311.5H297"/>
<path class="st5" d="M289.2,311.5h-8.7"/>
<path class="st5" d="M272.7,311.5h-8.7"/>
<g id="head">
	<circle class="st8" cx="367.3" cy="286.6" r="2.7"/>
	<circle class="st8" cx="359.4" cy="286.6" r="2.7"/>
	<circle class="st8" cx="351.4" cy="286.6" r="2.7"/>
	<polyline class="st5" points="334.3,292.5 340.1,286.6 334.3,280.8 	"/>
	<polyline class="st5" points="322.9,280.8 317.1,286.6 322.9,292.5 	"/>
	<line class="st5" x1="307.9" y1="286.6" x2="268.7" y2="286.6"/>
	<line class="st5" x1="258.1" y1="286.6" x2="251.1" y2="286.6"/>
	<line class="st5" x1="244.8" y1="286.6" x2="237.9" y2="286.6"/>
	<line class="st5" x1="231.6" y1="286.6" x2="224.6" y2="286.6"/>
</g>
<rect x="329.9" y="317.6" transform="matrix(0.7071 -0.7071 0.7071 0.7071 -136.1573 345.3076)" class="st9" width="37.6" height="38.9"/>
<line class="st5" x1="348.3" y1="310" x2="349.2" y2="364.1"/>
<line class="st5" x1="321.7" y1="336.6" x2="375.8" y2="337.5"/>
<rect x="332.2" y="380.1" class="st9" width="37.6" height="38.9"/>
<line class="st5" x1="369.9" y1="380.1" x2="332.2" y2="419"/>
<line class="st5" x1="332.2" y1="380.1" x2="369.9" y2="419"/>
<line class="st5" x1="322.5" y1="382.9" x2="223.3" y2="382.9"/>
<line class="st5" x1="322.5" y1="389.6" x2="262.6" y2="389.6"/>
<line class="st5" x1="322.5" y1="396.4" x2="223.3" y2="396.4"/>
<line class="st5" x1="322.5" y1="403.1" x2="262.6" y2="403.1"/>
<path class="st7" d="M277.2,403.8c-2.7,0-4.9-2.2-4.9-4.9c0-2,1.2-3.7,3-4.5l20.1-8.6c0.6-0.3,1.3-0.4,1.9-0.4
	c2.7,0,4.9,2.2,4.9,4.9c0,2-1.2,3.7-3,4.5l-20.1,8.6C278.5,403.6,277.9,403.8,277.2,403.8z"/>
<path class="st8" d="M297.3,385.9c2.4,0,4.4,2,4.4,4.4c0,1.8-1,3.3-2.7,4l-20.1,8.6c-0.5,0.2-1.1,0.4-1.7,0.4c-2.4,0-4.4-2-4.4-4.4
	c0-1.8,1-3.3,2.7-4l20.1-8.6C296.1,386,296.7,385.9,297.3,385.9 M297.3,384.9c-0.7,0-1.5,0.2-2.1,0.4l-20.1,8.6
	c-2.8,1.1-4.2,4.2-3.1,7s4.2,4.2,7,3.1c0.1-0.1,0.3-0.1,0.4-0.2l20.1-8.6c2.7-1.2,4-4.4,2.8-7.1
	C301.4,386.2,299.4,384.9,297.3,384.9z"/>
<path class="st3" d="M387.4,161.3l0.5,0.5c0.2,0.2,0.6,0.2,0.8,0c0.2-0.2,0.2-0.6,0-0.8c0,0,0,0,0,0l-1.5-1.5
	c-0.2-0.2-0.4-0.2-0.6-0.1c-0.2,0.1-0.4,0.3-0.4,0.6v4.6c0,0.3,0.3,0.6,0.6,0.6l0,0c0.3,0,0.6-0.3,0.6-0.6c0,0,0,0,0,0V161.3z"/>
<path class="st3" d="M328.1,225.2c0.3,0,0.6-0.2,0.7-0.5s-0.2-0.6-0.5-0.7l0,0l-2.1-0.3c-0.2,0-0.5,0.1-0.6,0.3
	c-0.1,0.2-0.1,0.5,0,0.7l2.9,3.7c0.2,0.3,0.5,0.4,0.8,0.2s0.4-0.5,0.2-0.8c0,0-0.1-0.1-0.1-0.1l-2-2.5L328.1,225.2L328.1,225.2z"/>
<path class="st3" d="M361.5,155c0.3,0,0.6-0.2,0.7-0.5s-0.2-0.6-0.5-0.7l-2.1-0.3c-0.2,0-0.5,0.1-0.6,0.3c-0.1,0.2-0.1,0.5,0,0.7
	l2.9,3.7c0.2,0.3,0.5,0.4,0.8,0.2s0.4-0.5,0.2-0.8c0,0-0.1-0.1-0.1-0.1l-2-2.5L361.5,155L361.5,155z"/>
<path class="st3" d="M340.4,195.5c-0.1,0.2-0.1,0.5,0,0.7l2.9,3.7c0.2,0.3,0.6,0.3,0.8,0.1c0,0,0,0,0,0c0.3-0.2,0.3-0.6,0.1-0.8
	l-2-2.5l0.7,0.1c0.3,0,0.6-0.2,0.7-0.5c0-0.3-0.2-0.6-0.5-0.7l0,0l-2.1-0.3C340.7,195.2,340.5,195.3,340.4,195.5L340.4,195.5z"/>
<path class="st3" d="M373,175.5c-0.2,0.1-0.4,0.3-0.4,0.6v3.2c0,0.3,0.3,0.6,0.7,0.5c0.3,0,0.5-0.2,0.5-0.5v-1.8l0.5,0.5
	c0.2,0.2,0.6,0.2,0.8,0c0.2-0.2,0.2-0.6,0-0.8c0,0,0,0,0,0l-1.5-1.5C373.5,175.4,373.2,175.4,373,175.5L373,175.5z"/>
<path class="st3" d="M349.8,186.1c0.7,0.9,1.9,1.1,2.8,0.4c0,0,0.1,0,0.1-0.1l0,0c0.9-0.7,1.1-1.9,0.4-2.8c0,0,0,0,0-0.1l-1-1.4
	c-0.7-0.9-1.9-1.1-2.8-0.4c0,0-0.1,0-0.1,0.1l0,0c-0.9,0.7-1.1,2-0.4,2.9L349.8,186.1L349.8,186.1z M349.6,184
	c-0.3-0.4-0.2-0.9,0.2-1.2l0,0c0.4-0.3,0.9-0.2,1.2,0.2l1.1,1.4c0.3,0.4,0.2,0.9-0.2,1.2l0,0c-0.4,0.3-0.9,0.2-1.2-0.2L349.6,184z"
	/>
<path class="st3" d="M366.5,168.1c-1.1,0-2,0.9-2,2v1.8c0,1.1,0.9,2,2,2l0,0c1.1,0,2-0.9,2-2v-1.8
	C368.5,169,367.6,168.1,366.5,168.1z M365.7,170.1c0-0.5,0.4-0.9,0.9-0.9l0,0c0.5,0,0.9,0.4,0.9,0.9v1.8c0,0.5-0.4,0.9-0.9,0.9l0,0
	l0,0c-0.5,0-0.9-0.4-0.9-0.8v0V170.1z"/>
<path class="st3" d="M385.9,193c-1.1-0.3-2.2,0.4-2.4,1.4c0,0,0,0.1,0,0.1c-0.1,0.3,0.1,0.6,0.5,0.7c0.3,0.1,0.6-0.1,0.7-0.4
	c0,0,0,0,0,0c0.1-0.4,0.5-0.7,1-0.6l0,0c0.4,0.1,0.7,0.6,0.6,1l-0.4,1.7c-0.1,0.4-0.5,0.7-1,0.6l0,0c-0.3-0.1-0.6,0.1-0.7,0.4
	c-0.1,0.3,0.1,0.6,0.4,0.7c0,0,0,0,0,0l0,0c1.1,0.3,2.2-0.4,2.4-1.4c0,0,0-0.1,0-0.1l0.4-1.7C387.7,194.4,387,193.3,385.9,193
	L385.9,193z"/>
<path class="st3" d="M377,222.2c-1.1-0.3-2.2,0.2-2.5,1.3c0,0,0,0.1,0,0.1l-0.5,1.7c-0.3,1.1,0.2,2.2,1.3,2.5c0,0,0.1,0,0.1,0l0,0
	c1.1,0.3,2.2-0.3,2.5-1.4l0.5-1.7C378.7,223.7,378.1,222.5,377,222.2L377,222.2z M375.6,223.9c0.1-0.5,0.6-0.7,1.1-0.6c0,0,0,0,0,0
	l0,0c0.4,0.1,0.7,0.6,0.6,1c0,0,0,0,0,0l-0.5,1.7c-0.1,0.5-0.6,0.7-1.1,0.6l0,0c-0.5-0.1-0.7-0.6-0.6-1.1L375.6,223.9z"/>
<path class="st3" d="M378.8,175.4c-1.1,0-2,0.9-2,2v1.8c0,1.1,0.9,2,2,2l0,0c1.1,0,2-0.9,2-2v-1.8
	C380.8,176.3,379.9,175.4,378.8,175.4z M378,177.4c0-0.5,0.4-0.9,0.9-0.9l0,0c0.5,0,0.9,0.4,0.9,0.9v1.8c0,0.5-0.4,0.9-0.9,0.9l0,0
	l0,0c-0.5,0-0.9-0.4-0.9-0.8v0V177.4z"/>
<path class="st7" d="M350.6,227.4c-3.5,0-6.4-2.8-6.4-6.4c0-1.7,0.7-3.3,1.9-4.5l20.6-20.6c2.5-2.5,6.5-2.5,9,0c2.5,2.5,2.5,6.5,0,9
	l-20.6,20.6C353.9,226.7,352.3,227.4,350.6,227.4z"/>
<path class="st8" d="M371.2,194.5c1.6,0,3.1,0.6,4.1,1.7l0,0c2.3,2.3,2.3,6,0,8.3c0,0,0,0,0,0l-20.6,20.6c-2.3,2.3-6,2.3-8.3,0l0,0
	c-2.3-2.3-2.3-6,0-8.3l20.6-20.6C368.2,195.1,369.6,194.5,371.2,194.5 M371.2,193.5c-1.8,0-3.6,0.7-4.9,2l-20.6,20.6
	c-2.6,2.8-2.5,7.1,0.3,9.7c2.6,2.5,6.8,2.5,9.4,0l20.6-20.6c2.7-2.7,2.7-7,0-9.7C374.8,194.2,373,193.5,371.2,193.5L371.2,193.5z"/>
<path class="st13" d="M77.6,120.1c-1.1,0.3-2.2-0.3-2.5-1.3c-0.3-1,0.2-2,1.1-2.4l103.7-54.4c1-0.5,2.2-0.1,2.7,0.8
	c0.5,1,0.1,2.2-0.8,2.7L78.1,119.9C78,120,77.8,120,77.6,120.1z"/>
<path class="st14" d="M100.7,11.8c1.6-0.5,3.2-0.9,4.8-1.3l0,0c31.2-6.9,62.4,11.3,71.8,41.8l-95.6,51.7L60.1,88.4
	C50.2,56,68.3,21.8,100.7,11.8C100.7,11.8,100.7,11.8,100.7,11.8z"/>
<path class="st15" d="M64.8,85.1c-7.9-29.1,8.7-59.1,37.4-68c1.4-0.5,2.9-0.8,4.4-1.2c26.7-5.8,53.7,8.5,63.9,33.9L82.1,97.6
	L64.8,85.1z"/>
<polygon class="st8" points="162.1,28 58.5,82.4 50.6,115.3 193.7,40.2 "/>
<polygon class="st16" points="140,39.6 155.2,54.9 178.9,42.3 155.4,31.5 "/>
<polygon class="st17" points="180.9,63.7 77.2,118.1 50.6,115.3 193.7,40.2 "/>
<path class="st18" d="M200.6,37.2c1.4,2.7,0.4,6-2.3,7.4l-146.8,77c-2.7,1.4-6,0.4-7.4-2.3l0,0c-1.4-2.7-0.4-6,2.3-7.4c0,0,0,0,0,0
	l146.8-77C195.9,33.5,199.2,34.5,200.6,37.2C200.6,37.2,200.6,37.2,200.6,37.2L200.6,37.2z"/>
<path class="st19" d="M84.4,104.8c-8.8-4.3-4.6-11.8-4.6-11.8l2.7-23C74.1,54.2,71,34.5,83.7,19.8c-20.1,13.9-30,38.4-25.2,62.4
	l-0.1,0.1L52,108.8l-5.6,3c-2.6,1.5-3.6,4.8-2.1,7.4c1.4,2.5,4.6,3.5,7.2,2.2l9.8-5.2l15.8,1.7l15.2-8L84.4,104.8z"/>
<path class="st0" d="M107.7,17.9c-2.3,4.2,3.9,7.3,8.9,5.4s5.6-5.8,2.8-7.8C116,13.1,109.7,14.3,107.7,17.9z"/>
<path class="st20" d="M116.8,67.7c-1.7,0.4-3.4-0.7-3.8-2.4s0.7-3.4,2.4-3.8s3.4,0.7,3.8,2.4c0.3,1.4-0.4,2.8-1.6,3.5
	C117.4,67.5,117.1,67.6,116.8,67.7z"/>
<path class="st20" d="M73.8,90.3c-1.7,0.4-3.4-0.7-3.8-2.4c-0.3-1.4,0.4-2.8,1.6-3.5c0.2-0.1,0.5-0.2,0.8-0.3
	c1.7-0.4,3.4,0.7,3.8,2.4c0.3,1.4-0.4,2.9-1.6,3.5C74.3,90.1,74.1,90.2,73.8,90.3z"/>
<path class="st20" d="M160.6,44.7c-1.7,0.4-3.4-0.7-3.8-2.4c-0.3-1.4,0.4-2.8,1.6-3.5c0.2-0.1,0.5-0.2,0.8-0.3
	c1.7-0.4,3.4,0.7,3.8,2.4c0.3,1.4-0.4,2.8-1.6,3.5C161.1,44.6,160.8,44.7,160.6,44.7z"/>
<path class="st13" d="M341.2,141.6c-0.4-0.3-0.6-0.8-0.5-1.4c0.2-0.6,0.8-1,1.5-0.8c0,0,0,0,0,0l65.6,20.4c0.6,0.2,1,0.9,0.8,1.5
	c-0.2,0.6-0.9,1-1.5,0.8l-65.6-20.4C341.3,141.7,341.2,141.6,341.2,141.6z"/>
<path class="st14" d="M395.6,106.2c0.9,0.5,1.7,1,2.5,1.5l0,0c15.8,10.1,21.2,30.6,12.4,47.1l-61.1-18.2l-2.5-15.5
	C356.3,103.6,378.1,96.9,395.6,106.2z"/>
<path class="st15" d="M350.4,121.8c8.8-15.3,28.1-21,43.8-12.7c0.8,0.4,1.5,0.9,2.3,1.3c13.5,8.7,18.8,25.8,12.5,40.6l-56.5-16.8
	L350.4,121.8z"/>
<polygon class="st8" points="414.4,138.5 348.8,118 331.9,128.4 422.5,156.6 "/>
<polygon class="st16" points="400.4,134.1 400.4,146.8 415.4,151.3 410.1,137.1 "/>
<polygon class="st17" points="407.4,161 341.8,140.6 331.9,128.4 422.5,156.6 "/>
<path class="st18" d="M426.6,158.2c-0.5,1.7-2.3,2.6-4,2.1l-92.9-28.9c-1.7-0.5-2.6-2.3-2.1-4l0,0c0.5-1.7,2.3-2.6,4-2.1l92.9,28.9
	C426.1,154.7,427.1,156.5,426.6,158.2L426.6,158.2z"/>
<path class="st19" d="M350.3,138.1c-1.9-5.4,3-6.8,3-6.8l10.6-8.4c3.1-10,10-19.4,21.4-20.3c-14.1-2.5-28.4,3.5-36.3,15.5h-0.1
	l-13.7,8.4l-3.6-1.1c-1.7-0.6-3.5,0.2-4.1,1.9c-0.6,1.7,0.2,3.5,1.9,4.1c0.1,0,0.2,0.1,0.3,0.1l6.2,1.9l5.9,7.3l9.6,3L350.3,138.1z"
	/>
<path class="st0" d="M396,111.7c-2.7,0.8-1.4,4.6,1.5,5.9s4.7-0.1,4.4-2.1C401.4,113.1,398.3,111,396,111.7z"/>
<path class="st20" d="M379.2,136.1c-0.7-0.4-1-1.3-0.8-2.1c0.3-1,1.4-1.5,2.3-1.2c0.2,0,0.3,0.1,0.4,0.2c0.9,0.6,1.1,1.7,0.5,2.6
	c-0.5,0.7-1.3,1-2.1,0.8C379.4,136.3,379.3,136.2,379.2,136.1z"/>
<path class="st20" d="M351.9,127.6c-0.9-0.6-1.1-1.7-0.5-2.6c0.5-0.7,1.3-1,2.1-0.8c0.2,0,0.3,0.1,0.4,0.2c0.9,0.6,1.1,1.7,0.5,2.6
	c-0.5,0.7-1.3,1-2.1,0.8C352.2,127.8,352.1,127.7,351.9,127.6z"/>
<path class="st20" d="M406.8,144.7c-0.9-0.6-1.1-1.7-0.6-2.6c0.2-0.3,0.4-0.5,0.7-0.6c0.4-0.2,0.9-0.3,1.4-0.1
	c0.2,0,0.3,0.1,0.4,0.2c0.9,0.6,1.1,1.7,0.5,2.6c-0.5,0.7-1.3,1-2.1,0.8C407.1,144.9,407,144.8,406.8,144.7z"/>
<path class="st21" d="M486.4,435.5c-4.9,0-8.9-4-8.9-8.9V369h-67.4c-4.9,0-8.9-4-8.9-8.9c0-2.4,0.9-4.6,2.6-6.3l76.3-76.3
	c3.5-3.5,9.1-3.5,12.6,0c1.7,1.7,2.6,3.9,2.6,6.3v67.4h17.8c4.9,0,8.9,4,8.9,8.9c0,4.9-4,8.9-8.9,8.9h-17.8v57.5
	C495.3,431.5,491.3,435.5,486.4,435.5C486.4,435.5,486.4,435.5,486.4,435.5z M431.6,351.2h45.8v-45.8L431.6,351.2z"/>
<path class="st5" d="M486.4,426.6v-1.5"/>
<path class="st22" d="M486.4,420.1V287.8"/>
<path class="st5" d="M486.4,285.3v-1.5l-1.1,1.1"/>
<path class="st23" d="M481.6,288.6L413,357.2"/>
<path class="st5" d="M411.2,359l-1.1,1.1h1.5"/>
<path class="st22" d="M416.6,360.1h92.6"/>
<path class="st5" d="M511.6,360.1h1.5"/>
<path class="st8" d="M486.3,356.8L486.3,356.8c1.9,0,3.5,1.6,3.5,3.5l0,0c0,1.9-1.6,3.5-3.5,3.5l0,0c-1.9,0-3.5-1.6-3.5-3.5l0,0
	C482.8,358.3,484.4,356.8,486.3,356.8z"/>
<path class="st8" d="M486.3,280.3L486.3,280.3c1.9,0,3.5,1.6,3.5,3.5l0,0c0,1.9-1.6,3.5-3.5,3.5l0,0c-1.9,0-3.5-1.6-3.5-3.5l0,0
	C482.8,281.9,484.4,280.3,486.3,280.3z"/>
<path class="st8" d="M410.1,356.8L410.1,356.8c1.9,0,3.5,1.6,3.5,3.5l0,0c0,1.9-1.6,3.5-3.5,3.5l0,0c-1.9,0-3.5-1.6-3.5-3.5l0,0
	C406.6,358.3,408.2,356.8,410.1,356.8z"/>
<path class="st8" d="M513.1,356.8L513.1,356.8c1.9,0,3.5,1.6,3.5,3.5l0,0c0,1.9-1.6,3.5-3.5,3.5h0c-1.9,0-3.5-1.6-3.5-3.5l0,0
	C509.6,358.3,511.2,356.8,513.1,356.8z"/>
<path class="st8" d="M486.3,423L486.3,423c1.9,0,3.5,1.6,3.5,3.5l0,0c0,1.9-1.6,3.5-3.5,3.5l0,0c-1.9,0-3.5-1.6-3.5-3.5l0,0
	C482.8,424.6,484.4,423,486.3,423z"/>
<path class="st21" d="M157.2,435.5c-4.9,0-8.9-4-8.9-8.9V369H80.9c-4.9,0-8.9-4-8.9-8.9c0-2.4,0.9-4.6,2.6-6.3l76.3-76.3
	c3.5-3.5,9.1-3.5,12.6,0c1.7,1.7,2.6,3.9,2.6,6.3v67.4h17.9c4.9,0,8.9,4,8.9,8.9c0,4.9-4,8.9-8.9,8.9h-17.9v57.5
	C166.1,431.5,162.1,435.5,157.2,435.5C157.2,435.5,157.2,435.5,157.2,435.5z M102.4,351.2h45.8v-45.8L102.4,351.2z"/>
<path class="st5" d="M157.2,426.6v-1.5"/>
<path class="st22" d="M157.2,420.1V287.8"/>
<path class="st5" d="M157.2,285.3v-1.5c-0.4,0.4-0.7,0.7-1.1,1.1"/>
<path class="st23" d="M152.4,288.6l-68.6,68.6"/>
<path class="st5" d="M82,359c-0.4,0.4-0.7,0.7-1.1,1.1h1.5"/>
<path class="st22" d="M87.4,360.1H180"/>
<path class="st5" d="M182.4,360.1h1.5"/>
<path class="st8" d="M157.1,356.8L157.1,356.8c1.9,0,3.5,1.6,3.5,3.5l0,0c0,1.9-1.6,3.5-3.5,3.5l0,0c-1.9,0-3.5-1.6-3.5-3.5l0,0
	C153.6,358.3,155.2,356.8,157.1,356.8z"/>
<path class="st8" d="M157.1,280.3L157.1,280.3c1.9,0,3.5,1.6,3.5,3.5l0,0c0,1.9-1.6,3.5-3.5,3.5l0,0c-1.9,0-3.5-1.6-3.5-3.5l0,0
	C153.6,281.9,155.2,280.3,157.1,280.3z"/>
<path class="st8" d="M80.9,356.8L80.9,356.8c1.9,0,3.5,1.6,3.5,3.5l0,0c0,1.9-1.6,3.5-3.5,3.5l0,0c-1.9,0-3.5-1.6-3.5-3.5l0,0
	C77.4,358.3,79,356.8,80.9,356.8z"/>
<path class="st8" d="M183.9,356.8L183.9,356.8c1.9,0,3.5,1.6,3.5,3.5l0,0c0,1.9-1.6,3.5-3.5,3.5l0,0c-1.9,0-3.5-1.6-3.5-3.5l0,0
	C180.4,358.3,182,356.8,183.9,356.8z"/>
<path class="st8" d="M157.1,423L157.1,423c1.9,0,3.5,1.6,3.5,3.5l0,0c0,1.9-1.6,3.5-3.5,3.5l0,0c-1.9,0-3.5-1.6-3.5-3.5l0,0
	C153.6,424.6,155.2,423,157.1,423z"/>
<line class="st5" x1="582.9" y1="435.7" x2="12" y2="435.7"/>
<line class="st5" x1="327.4" y1="441.3" x2="185.2" y2="441.3"/>
<line class="st5" x1="265.2" y1="430.3" x2="354.5" y2="430.3"/>
<line class="st5" x1="248.2" y1="430.3" x2="237.5" y2="430.3"/>
<circle class="st24" cx="482" cy="89.2" r="13.7"/>
<path class="st14" d="M476.3,76.7L476.3,76.7c24.4-11.4,46.7-15,49.9-8.1s-14,21.7-38.3,33l0,0c-6.8,3.4-15,0.6-18.4-6.2
	c-3.4-6.8-0.6-15,6.2-18.4C475.8,76.9,476,76.8,476.3,76.7L476.3,76.7z"/>
<path class="st15" d="M477.4,79.4L477.4,79.4c19.3-9,36.9-11.9,39.5-6.4s-11,17.1-30.3,26.1l0,0c-5.4,2.5-11.9,0.2-14.4-5.2
	C469.6,88.4,471.9,81.9,477.4,79.4L477.4,79.4L477.4,79.4z"/>
<path class="st0" d="M478.7,81.2L478.7,81.2c12.2-5.7,23.8-6.8,25.8-2.5s-6.2,12.5-18.4,18.2l0,0c-3.4,1.6-7.9-0.6-9.9-4.9
	S475.2,82.8,478.7,81.2z"/>
<circle class="st21" cx="482" cy="89.2" r="9.5"/>
<g>
	<defs>
		
			<ellipse id="SVGID_1_" transform="matrix(0.7071 -0.7071 0.7071 0.7071 -0.992 445.1852)" cx="536.9" cy="223.8" rx="48.5" ry="48.5"/>
	</defs>
	<clipPath id="SVGID_2_">
		<use xlink:href="#SVGID_1_"  style="overflow:visible;"/>
	</clipPath>
	<g class="st25">
		
			<ellipse transform="matrix(0.7071 -0.7071 0.7071 0.7071 -0.992 445.1852)" class="st17" cx="536.9" cy="223.8" rx="48.5" ry="48.5"/>
		
			<ellipse transform="matrix(0.7071 -0.7071 0.7071 0.7071 -9.722 441.569)" class="st2" cx="528.2" cy="232.5" rx="48.5" ry="48.5"/>
		<ellipse transform="matrix(0.5831 -0.8124 0.8124 0.5831 67.65 532.1992)" class="st0" cx="552.4" cy="200.2" rx="6.3" ry="9.2"/>
		
			<ellipse transform="matrix(0.7797 -0.6262 0.6262 0.7797 -35.7738 402.8437)" class="st0" cx="554.6" cy="252.3" rx="6.5" ry="4.4"/>
		<ellipse class="st0" cx="530.8" cy="262" rx="6.1" ry="4.1"/>
		
			<ellipse transform="matrix(3.559721e-02 -0.9994 0.9994 3.559721e-02 273.0706 767.2872)" class="st0" cx="534.1" cy="242.2" rx="9.3" ry="13.7"/>
	</g>
</g>
<ellipse transform="matrix(0.7071 -0.7071 0.7071 0.7071 -0.992 445.1852)" class="st26" cx="536.9" cy="223.8" rx="48.5" ry="48.5"/>
<path class="st3" d="M139.1,177.2c0.3,0,0.6-0.2,0.7-0.5c0-0.3-0.2-0.6-0.5-0.7l-2.1-0.3c-0.2,0-0.5,0.1-0.6,0.3
	c-0.1,0.2-0.1,0.5,0.1,0.7l2.9,3.7c0.2,0.3,0.5,0.4,0.8,0.2s0.4-0.5,0.2-0.8c0,0-0.1-0.1-0.1-0.1l-2-2.5L139.1,177.2L139.1,177.2z"
	/>
<path class="st3" d="M197.8,174.3c-0.2,0-0.5,0.1-0.6,0.4l-1.3,2.9c-0.1,0.3,0,0.7,0.3,0.8c0.3,0.1,0.6,0,0.8-0.3c0,0,0,0,0,0
	l0.7-1.6l0.3,0.6c0.1,0.3,0.5,0.5,0.8,0.3s0.5-0.5,0.3-0.8l-0.8-2C198.2,174.5,198,174.3,197.8,174.3L197.8,174.3z"/>
<path class="st3" d="M212.5,178.9c-1.1,0.2-1.9,1.2-1.7,2.3l0.3,1.7c0.1,1.1,1.1,1.9,2.2,1.7c0,0,0.1,0,0.1,0l0,0
	c1.1-0.2,1.9-1.2,1.7-2.3l-0.3-1.7C214.7,179.5,213.6,178.7,212.5,178.9C212.5,178.9,212.5,178.9,212.5,178.9L212.5,178.9z
	 M211.9,181c-0.1-0.5,0.2-0.9,0.7-1c0,0,0,0,0,0l0,0c0.5-0.1,0.9,0.2,1,0.7c0,0,0,0,0,0l0.3,1.7c0.1,0.5-0.2,0.9-0.7,1c0,0,0,0,0,0
	l0,0c-0.5,0.1-0.9-0.2-1-0.7c0,0,0,0,0,0L211.9,181z"/>
<path class="st3" d="M126.8,159.2c-0.2,0.1-0.4,0.3-0.3,0.6l0.3,3.2c0,0.3,0.3,0.6,0.6,0.6c0.3,0,0.6-0.3,0.6-0.6l-0.1-1.8l0.5,0.4
	c0.2,0.2,0.6,0.2,0.8-0.1c0,0,0,0,0,0c0.2-0.3,0.2-0.6-0.1-0.8l-1.6-1.4C127.3,159.1,127.1,159.1,126.8,159.2L126.8,159.2z"/>
<path class="st3" d="M179.7,230.6c-1,0.5-1.3,1.8-0.8,2.7c0,0,0,0,0,0.1l0.9,1.5c0.5,1,1.8,1.3,2.7,0.8c0,0,0,0,0.1,0l0,0
	c1-0.5,1.3-1.8,0.7-2.7c0,0,0-0.1,0-0.1l-0.9-1.5C181.9,230.3,180.7,230,179.7,230.6L179.7,230.6L179.7,230.6z M180,232.7
	c-0.2-0.4-0.1-0.9,0.3-1.2c0,0,0,0,0,0l0,0c0.4-0.2,0.9-0.1,1.2,0.3c0,0,0,0,0,0l0.9,1.5c0.2,0.4,0.1,0.9-0.3,1.2c0,0,0,0,0,0l0,0
	c-0.4,0.2-0.9,0.1-1.2-0.3c0,0,0,0,0,0L180,232.7z"/>
<path class="st3" d="M157.4,183.8c-0.2,0.1-0.4,0.3-0.4,0.6v3.2c0,0.3,0.2,0.6,0.6,0.6c0,0,0,0,0,0c0.3,0,0.6-0.3,0.6-0.6v-1.8
	l0.5,0.5c0.2,0.2,0.6,0.2,0.8,0c0.2-0.2,0.2-0.6,0-0.8c0,0,0,0,0,0l-1.5-1.5C157.9,183.7,157.6,183.7,157.4,183.8L157.4,183.8z"/>
<path class="st3" d="M168.9,182.5c-0.2,0.1-0.4,0.3-0.4,0.6v3.2c0,0.3,0.3,0.6,0.6,0.6c0,0,0,0,0,0c0.3,0,0.6-0.3,0.6-0.6v-1.8
	l0.5,0.5c0.2,0.2,0.6,0.2,0.8,0c0.2-0.2,0.2-0.6,0-0.8c0,0,0,0,0,0l-1.5-1.5C169.3,182.5,169.1,182.4,168.9,182.5L168.9,182.5z"/>
<path class="st3" d="M144.4,163.5c-0.2,0.1-0.4,0.3-0.4,0.6v3.2c0,0.3,0.2,0.6,0.6,0.6c0,0,0,0,0,0c0.3,0,0.6-0.3,0.6-0.6v-1.8
	l0.5,0.5c0.2,0.2,0.6,0.2,0.8,0c0,0,0,0,0,0c0.2-0.2,0.2-0.6,0-0.8c0,0,0,0,0,0l-1.5-1.5C144.9,163.5,144.6,163.4,144.4,163.5
	L144.4,163.5z"/>
<path class="st3" d="M161.4,181.6c-1,0.5-1.3,1.8-0.8,2.7c0,0,0,0,0,0.1l0.9,1.5c0.5,1,1.8,1.3,2.7,0.8c0,0,0,0,0.1,0l0,0
	c1-0.5,1.3-1.8,0.7-2.7c0,0,0-0.1,0-0.1l-0.9-1.5C163.7,181.3,162.4,181,161.4,181.6L161.4,181.6L161.4,181.6z M161.8,183.7
	c-0.2-0.4-0.1-0.9,0.3-1.2c0,0,0,0,0,0l0,0c0.4-0.2,0.9-0.1,1.2,0.3c0,0,0,0,0,0l0.9,1.5c0.2,0.4,0.1,0.9-0.3,1.2c0,0,0,0,0,0l0,0
	c-0.4,0.2-0.9,0.1-1.2-0.3c0,0,0,0,0,0L161.8,183.7z"/>
<path class="st3" d="M190.2,218c0.3,0,0.6-0.2,0.6-0.6c0-0.3-0.2-0.6-0.5-0.6l-2.1-0.3c-0.3-0.1-0.6,0.2-0.7,0.5
	c0,0.2,0,0.4,0.2,0.5l2.9,3.7c0.2,0.3,0.6,0.3,0.8,0.1c0.3-0.2,0.3-0.6,0.1-0.8l-2-2.5L190.2,218L190.2,218z"/>
<path class="st3" d="M210.8,237.1c-0.2,0-0.5,0.1-0.6,0.4l-1.3,2.9c-0.1,0.3,0,0.6,0.3,0.8s0.6,0,0.8-0.3l0,0l0.7-1.6l0.2,0.6
	c0.1,0.3,0.4,0.5,0.7,0.4c0.3-0.1,0.5-0.4,0.4-0.7c0,0,0-0.1,0-0.1l-0.8-2C211.2,237.2,211,237.1,210.8,237.1z"/>
<path class="st3" d="M216.1,239.4c-1-0.5-2.2-0.1-2.7,0.9c0,0,0,0,0,0.1l-0.7,1.6c-0.5,1-0.1,2.2,0.9,2.7c0,0,0,0,0.1,0l0,0
	c1,0.5,2.2,0.1,2.7-0.9c0,0,0,0,0-0.1l0.7-1.6C217.6,241.1,217.2,239.9,216.1,239.4C216.1,239.4,216.1,239.4,216.1,239.4
	L216.1,239.4z M214.5,240.9c0.2-0.4,0.7-0.6,1.1-0.4c0,0,0,0,0,0l0,0c0.4,0.2,0.6,0.7,0.4,1.1c0,0,0,0,0,0l-0.7,1.6
	c-0.2,0.4-0.7,0.6-1.1,0.4c0,0,0,0,0,0l0,0c-0.4-0.2-0.6-0.7-0.4-1.1c0,0,0,0,0,0L214.5,240.9z"/>
<path class="st3" d="M187.7,296.3c-0.1,0.2-0.1,0.5,0,0.7l1.6,2.7c0.2,0.3,0.5,0.4,0.8,0.2c0,0,0,0,0,0c0.3-0.2,0.4-0.5,0.2-0.8
	c0,0,0,0,0,0l-0.9-1.5l0.7,0.2c0.3,0.1,0.6-0.1,0.7-0.4c0.1-0.3-0.1-0.6-0.4-0.7l0,0l-2.1-0.5C188.1,296,187.9,296.1,187.7,296.3
	L187.7,296.3z"/>
<path class="st3" d="M192.7,293.3c-1,0.5-1.3,1.8-0.7,2.7c0,0,0,0,0,0.1l0.9,1.5c0.5,1,1.8,1.3,2.7,0.8c0,0,0,0,0.1,0l0,0
	c1-0.5,1.3-1.8,0.7-2.7c0,0,0,0,0-0.1l-0.9-1.5C194.9,293,193.7,292.7,192.7,293.3C192.7,293.3,192.7,293.3,192.7,293.3L192.7,293.3
	z M193,295.5c-0.2-0.4-0.1-0.9,0.3-1.2l0,0c0.4-0.2,0.9-0.1,1.2,0.3c0,0,0,0,0,0l0.9,1.5c0.2,0.4,0.1,0.9-0.3,1.2l0,0
	c-0.4,0.2-0.9,0.1-1.2-0.3c0,0,0,0,0,0L193,295.5z"/>
<path class="st3" d="M170.4,246.5c-0.2,0.1-0.4,0.3-0.4,0.6v3.2c0,0.3,0.3,0.6,0.6,0.6c0.3,0,0.6-0.2,0.6-0.6c0,0,0,0,0,0v-1.8
	l0.5,0.5c0.2,0.2,0.6,0.2,0.8,0s0.2-0.6,0-0.8l0,0l-1.5-1.5C170.9,246.5,170.6,246.4,170.4,246.5L170.4,246.5z"/>
<path class="st3" d="M234,208.9c-0.2,0.1-0.4,0.3-0.4,0.6v3.2c0,0.3,0.3,0.6,0.6,0.6c0.3,0,0.6-0.3,0.6-0.6v-1.8l0.5,0.5
	c0.2,0.2,0.6,0.2,0.8,0c0,0,0,0,0,0c0.2-0.2,0.2-0.6,0-0.8l-1.5-1.5C234.5,208.9,234.2,208.8,234,208.9L234,208.9z"/>
<path class="st3" d="M157.4,226.3c-0.2,0.1-0.4,0.3-0.4,0.6v3.2c0,0.3,0.3,0.6,0.6,0.6c0,0,0,0,0,0c0.3,0,0.6-0.2,0.6-0.6
	c0,0,0,0,0,0v-1.8l0.5,0.5c0.2,0.2,0.6,0.2,0.8,0c0,0,0,0,0,0c0.2-0.2,0.2-0.6,0-0.8l-1.5-1.5C157.9,226.2,157.6,226.2,157.4,226.3
	L157.4,226.3z"/>
<path class="st3" d="M164.6,207.9c-1,0.5-1.3,1.8-0.7,2.7c0,0,0,0.1,0,0.1l0.9,1.5c0.6,1,1.8,1.3,2.8,0.7l0,0c1-0.5,1.3-1.8,0.8-2.7
	c0,0,0,0,0-0.1l-0.9-1.5C166.8,207.7,165.6,207.4,164.6,207.9C164.6,207.9,164.6,207.9,164.6,207.9L164.6,207.9z M164.9,210.1
	c-0.2-0.4-0.1-0.9,0.3-1.2l0,0c0.4-0.2,0.9-0.1,1.2,0.3c0,0,0,0,0,0l0.9,1.5c0.2,0.4,0.1,0.9-0.3,1.2c0,0,0,0,0,0l0,0
	c-0.4,0.2-0.9,0.1-1.2-0.3L164.9,210.1z"/>
<path class="st3" d="M192.7,164.2l0.5,0.2c0.3,0.1,0.6,0,0.7-0.3s0-0.6-0.3-0.7l0,0l-1.7-0.7c-0.2-0.1-0.4,0-0.6,0.1
	c-0.1,0.1-0.2,0.4-0.1,0.6l1.5,3.7c0.1,0.3,0.3,0.4,0.6,0.4c0.3-0.1,0.4-0.3,0.4-0.6c0,0,0-0.1-0.1-0.1L192.7,164.2z"/>
<path class="st3" d="M311.8,264.2c0.2,0.1,0.5,0,0.6-0.2c0,0,0,0,0,0c0.1-0.2,0-0.5-0.3-0.6l-1.5-0.6c-0.2-0.1-0.5,0-0.6,0.2
	c0,0.1,0,0.2,0,0.4l1.4,3.2c0.1,0.2,0.4,0.3,0.6,0.2c0,0,0,0,0,0c0.2-0.1,0.3-0.4,0.2-0.6c0,0,0,0,0,0l-1-2.2L311.8,264.2
	L311.8,264.2z"/>
<path class="st3" d="M339.9,212c-0.2,0-0.3,0.1-0.4,0.3l-1,3.3c-0.1,0.2,0.1,0.5,0.3,0.6c0.2,0.1,0.5-0.1,0.6-0.3l0.7-2.3l0.2,0.5
	c0.1,0.2,0.4,0.3,0.6,0.2c0,0,0,0,0,0c0.2-0.1,0.3-0.4,0.2-0.6c0,0,0,0,0,0l-0.8-1.4C340.2,212.1,340.1,212,339.9,212L339.9,212z"/>
<path class="st3" d="M275.5,266.8c-0.1,0.1-0.2,0.4-0.1,0.5l1,2.5c0.1,0.3,0.4,0.4,0.7,0.3s0.4-0.4,0.3-0.7l0,0l-0.6-1.4l0.5,0.2
	c0.3,0.1,0.5,0,0.7-0.2c0,0,0,0,0,0c0.1-0.3,0-0.6-0.3-0.7c0,0,0,0,0,0l-1.7-0.7C275.9,266.6,275.6,266.7,275.5,266.8L275.5,266.8z"
	/>
<path class="st3" d="M376.5,264.7c-0.3,0.8,0.2,1.7,1,1.9c0,0,0,0,0,0l0,0c0.8,0.2,1.7-0.2,1.9-1l0.4-1.3c0.2-0.8-0.2-1.7-1-1.9l0,0
	c-0.8-0.2-1.7,0.2-1.9,1L376.5,264.7z M377.7,263.7c0.1-0.3,0.5-0.5,0.8-0.4l0,0c0.3,0.1,0.5,0.5,0.4,0.8c0,0,0,0,0,0l-0.4,1.3
	c-0.1,0.3-0.5,0.5-0.8,0.4l0,0c-0.3-0.1-0.5-0.5-0.4-0.8c0,0,0,0,0,0L377.7,263.7z"/>
<path class="st3" d="M353.2,260.2c-0.8,0.2-1.3,1-1.1,1.8l0.3,1.3c0.2,0.8,1,1.3,1.8,1.1l0,0c0.8-0.2,1.3-1,1.1-1.9l-0.3-1.3
	C354.9,260.5,354.1,260,353.2,260.2C353.2,260.2,353.2,260.2,353.2,260.2L353.2,260.2z M353,261.9c-0.1-0.3,0.1-0.7,0.5-0.8
	c0,0,0,0,0,0l0,0c0.3-0.1,0.7,0.1,0.8,0.5c0,0,0,0,0,0l0.3,1.3c0.1,0.3-0.1,0.7-0.5,0.8l0,0c-0.3,0.1-0.7-0.1-0.8-0.5c0,0,0,0,0,0
	L353,261.9z"/>
<path class="st3" d="M307.5,264c-0.8,0.3-1.1,1.2-0.8,2c0.1,0.2,0.4,0.3,0.6,0.2c0,0,0,0,0,0c0.2-0.1,0.3-0.4,0.2-0.6
	c-0.1-0.3,0-0.7,0.3-0.8l0,0c0.3-0.1,0.7,0,0.8,0.3l0.5,1.2c0.1,0.3,0,0.7-0.3,0.8c0,0,0,0,0,0l0,0c-0.2,0.1-0.3,0.4-0.2,0.6
	c0.1,0.2,0.3,0.3,0.5,0.2l0,0c0.8-0.3,1.1-1.2,0.8-2l-0.5-1.2C309.2,264,308.3,263.7,307.5,264L307.5,264z"/>
<path class="st3" d="M338.3,255.2c-0.8-0.2-1.7,0.2-1.9,1l-0.4,1.3c-0.2,0.8,0.2,1.7,1,1.9l0,0c0.8,0.3,1.7-0.2,1.9-1c0,0,0,0,0,0
	l0.4-1.3C339.6,256.3,339.1,255.5,338.3,255.2L338.3,255.2z M337.3,256.5c0.1-0.3,0.4-0.5,0.8-0.4c0,0,0,0,0,0l0,0
	c0.3,0.1,0.5,0.5,0.4,0.8l-0.4,1.3c-0.1,0.3-0.5,0.5-0.8,0.4c0,0,0,0,0,0l0,0c-0.3-0.1-0.5-0.5-0.4-0.8c0,0,0,0,0,0L337.3,256.5z"/>
<path class="st3" d="M230.9,231.9c-0.9,0.3-1.4,1.4-1,2.3c0,0,0,0,0,0l0.6,1.4c0.4,0.9,1.4,1.4,2.3,1c0,0,0,0,0,0l0,0
	c0.9-0.3,1.4-1.3,1-2.2c0,0,0,0,0,0l-0.6-1.4C232.8,232,231.8,231.6,230.9,231.9C230.9,231.9,230.9,231.9,230.9,231.9L230.9,231.9z
	 M230.9,233.8c-0.2-0.4,0-0.8,0.3-1c0,0,0,0,0.1,0l0,0c0.4-0.2,0.8,0,1,0.3c0,0,0,0,0,0.1l0.6,1.4c0.2,0.4,0,0.8-0.3,1
	c0,0,0,0-0.1,0l0,0c-0.4,0.2-0.8,0-1-0.4c0,0,0,0,0,0L230.9,233.8z"/>
</svg>
