<?xml version="1.0" encoding="utf-8"?>
<!-- Generator: Adobe Illustrator 21.0.2, SVG Export Plug-In . SVG Version: 6.00 Build 0)  -->
<svg version="1.1" id="Слой_1" xmlns="http://www.w3.org/2000/svg" xmlns:xlink="http://www.w3.org/1999/xlink" x="0px" y="0px"
	 viewBox="0 0 96 96" style="enable-background:new 0 0 96 96;" xml:space="preserve">
<style type="text/css">
	.st0{fill:#00BCD4;}
	.st1{fill:#FEFEFE;}
</style>
<title>2</title>
<g>
	<circle id="Ellipse_1_copy_3_копия_2" class="st0" cx="48" cy="48" r="48"/>
	<path class="st1" d="M20,66.1c0,2.5,2,4.5,4.5,4.5c0,0,0,0,0,0h11.7v3.6h-3.6V76h30.7v-1.8h-3.6v-3.6h11.7c2.5,0,4.5-2,4.5-4.5
		c0,0,0,0,0,0v-2.7H20V66.1z M57.9,74.2H38.1v-3.6h19.9V74.2z M21.8,65.2h52.4v0.9c0,1.5-1.2,2.7-2.7,2.7h-47
		c-1.5,0-2.7-1.2-2.7-2.7L21.8,65.2z"/>
	<path class="st1" d="M71.5,28.1H67v1.8h4.5c1.5,0,2.7,1.2,2.7,2.7v28.9H76V32.7C76,30.2,74,28.1,71.5,28.1
		C71.5,28.1,71.5,28.1,71.5,28.1z"/>
	<path class="st1" d="M21.8,32.7c0-1.5,1.2-2.7,2.7-2.7h13.5v-1.8H24.5c-2.5,0-4.5,2-4.5,4.5c0,0,0,0,0,0v28.9h1.8V32.7z"/>
	<path class="st1" d="M38.1,38.1h-7.2v16.3h-5.4v1.8h45.2v-1.8h-5.4V20h-7.2v34.3h-1.8v-9h-7.2v9h-1.8V28.1h-7.2v26.2h-1.8V38.1z
		 M59.7,21.8h3.6v32.5h-3.6V21.8z M50.7,47.1h3.6v7.2h-3.6L50.7,47.1z M41.7,29.9h3.6v24.4h-3.7L41.7,29.9z M36.3,54.3h-3.6V39.9
		h3.6L36.3,54.3z"/>
	<rect x="29" y="57.9" class="st1" width="37.9" height="1.8"/>
	<rect x="68.8" y="57.9" class="st1" width="1.8" height="1.8"/>
	<rect x="25.4" y="57.9" class="st1" width="1.8" height="1.8"/>
	<rect x="48.9" y="28.1" class="st1" width="7.2" height="1.8"/>
</g>
</svg>
