<?xml version="1.0" encoding="utf-8"?>
<!-- Generator: Adobe Illustrator 21.0.2, SVG Export Plug-In . SVG Version: 6.00 Build 0)  -->
<svg version="1.1" id="Слой_1" xmlns="http://www.w3.org/2000/svg" xmlns:xlink="http://www.w3.org/1999/xlink" x="0px" y="0px"
	 viewBox="0 0 96 96" style="enable-background:new 0 0 96 96;" xml:space="preserve">
<style type="text/css">
	.st0{fill:#00BCD4;}
	.st1{fill:#FEFEFE;}
</style>
<title>3</title>
<g>
	<circle id="Ellipse_1_copy_3_копия_2" class="st0" cx="48" cy="48" r="48"/>
	<path class="st1" d="M26,23.2c-1.3,0-2.4,1.1-2.4,2.4S24.7,28,26,28s2.4-1.1,2.4-2.4l0,0C28.4,24.3,27.3,23.2,26,23.2z M26,26.4
		c-0.4,0-0.8-0.3-0.8-0.8c0-0.4,0.3-0.8,0.8-0.8c0.4,0,0.8,0.3,0.8,0.8C26.8,26,26.4,26.3,26,26.4z"/>
	<path class="st1" d="M32.2,23.2c-1.3,0-2.4,1.1-2.4,2.4s1.1,2.4,2.4,2.4c1.3,0,2.4-1.1,2.4-2.4l0,0C34.6,24.3,33.5,23.2,32.2,23.2z
		 M32.2,26.4c-0.4,0-0.8-0.3-0.8-0.8c0-0.4,0.3-0.8,0.8-0.8c0.4,0,0.8,0.3,0.8,0.8C32.9,26,32.6,26.3,32.2,26.4z"/>
	<path class="st1" d="M38.3,23.2c-1.3,0-2.4,1.1-2.4,2.4S37,28,38.3,28s2.4-1.1,2.4-2.4l0,0C40.7,24.3,39.6,23.2,38.3,23.2z
		 M38.3,26.4c-0.4,0-0.8-0.3-0.8-0.8s0.3-0.8,0.8-0.8c0.4,0,0.8,0.3,0.8,0.8C39.1,26,38.7,26.3,38.3,26.4
		C38.3,26.4,38.3,26.4,38.3,26.4z"/>
	<path class="st1" d="M75.1,36.2c0.5,0,0.8-0.4,0.8-0.8L76,23.6c0-2-1.6-3.6-3.6-3.6c0,0,0,0,0,0H23.6c-2,0-3.6,1.6-3.6,3.6
		c0,0,0,0,0,0v39.7c0,1.8,1.3,3.3,3.1,3.6c0.2,0,0.4,0,0.5,0h16v2.9h-2.5c-1.7,0-3,1.3-3,3v1.8c0,0.8,0.6,1.4,1.3,1.4c0,0,0,0,0.1,0
		h3.9c0.5,0,0.8-0.4,0.8-0.8c0-0.5-0.4-0.8-0.8-0.8h-3.6v-1.5c0-0.8,0.6-1.4,1.4-1.4l0,0h21.8c0.8,0,1.4,0.6,1.4,1.4l0,0v1.5H44.5
		c-0.5,0-0.8,0.4-0.8,0.8c0,0.5,0.4,0.8,0.8,0.8h16c0.8,0,1.4-0.6,1.4-1.4l0,0v-1.8c0-1.7-1.3-3-3-3h-2.4v-2.9h16c0.2,0,0.4,0,0.6,0
		c1.8-0.3,3.1-1.8,3.1-3.6V40.5c0-0.5-0.4-0.8-0.8-0.8c-0.5,0-0.8,0.4-0.8,0.8v18.1H48.7V31.2h25.6v4.2
		C74.3,35.8,74.7,36.2,75.1,36.2z M21.7,31.2H47v27.3H21.7L21.7,31.2z M54.8,69.8H41.2v-2.9h13.5V69.8z M74.3,60.2v3.1
		c0,1-0.8,1.9-1.8,2H23.4c-1-0.1-1.8-1-1.8-2v-3.1L74.3,60.2z M47.9,29.5H21.7v-5.9c0-1.1,0.9-2,2-2h48.6c1.1,0,2,0.9,2,2v5.9
		L47.9,29.5L47.9,29.5z"/>
	<path class="st1" d="M25.1,34.4h4.2c0.5,0,0.8-0.4,0.8-0.8c0-0.5-0.4-0.8-0.8-0.8h-4.2c-0.5,0-0.8,0.4-0.8,0.8S24.7,34.4,25.1,34.4
		C25.1,34.4,25.1,34.4,25.1,34.4z"/>
	<path class="st1" d="M32.1,34.4h2c0.5,0,0.8-0.4,0.8-0.8c0-0.5-0.4-0.8-0.8-0.8h-2c-0.5,0-0.8,0.4-0.8,0.8S31.7,34.4,32.1,34.4
		C32.1,34.4,32.1,34.4,32.1,34.4z"/>
	<path class="st1" d="M31.4,35.7h-2.7c-0.5,0-0.8,0.4-0.8,0.8s0.4,0.8,0.8,0.8c0,0,0,0,0,0h2.7c0.5,0,0.8-0.4,0.8-0.8
		C32.2,36.1,31.8,35.7,31.4,35.7C31.4,35.7,31.4,35.7,31.4,35.7z"/>
	<path class="st1" d="M44.3,38.7h-2.7c-0.5,0-0.8,0.4-0.8,0.8c0,0.5,0.4,0.8,0.8,0.8h2.7c0.5,0,0.8-0.4,0.8-0.8
		C45.1,39.1,44.7,38.7,44.3,38.7L44.3,38.7z"/>
	<path class="st1" d="M33,36.5c0,0.5,0.4,0.8,0.8,0.8h6.5c0.5,0,0.8-0.4,0.8-0.8c0-0.5-0.4-0.8-0.8-0.8h-6.5
		C33.4,35.7,33,36,33,36.5C33,36.5,33,36.5,33,36.5z"/>
	<path class="st1" d="M30.4,39.5c0,0.5,0.4,0.8,0.8,0.8h1.4c0.5,0,0.8-0.4,0.8-0.8s-0.4-0.8-0.8-0.8c0,0,0,0,0,0h-1.4
		C30.8,38.7,30.4,39.1,30.4,39.5z"/>
	<path class="st1" d="M39,40.3c0.5,0,0.8-0.4,0.8-0.8c0-0.5-0.4-0.8-0.8-0.8h-3.9c-0.5,0-0.8,0.4-0.8,0.8c0,0.5,0.4,0.8,0.8,0.8H39z
		"/>
	<path class="st1" d="M30.1,50.1c0-0.5-0.4-0.8-0.8-0.8h-4.2c-0.5,0-0.8,0.4-0.8,0.8c0,0.5,0.4,0.8,0.8,0.8h4.2
		C29.7,51,30.1,50.6,30.1,50.1z"/>
	<path class="st1" d="M32.1,49.3c-0.5,0-0.8,0.4-0.8,0.8s0.4,0.8,0.8,0.8c0,0,0,0,0,0h2c0.5,0,0.8-0.4,0.8-0.8
		c0-0.5-0.4-0.8-0.8-0.8H32.1z"/>
	<path class="st1" d="M32.2,53c0-0.5-0.4-0.8-0.8-0.8h-2.7c-0.5,0-0.8,0.4-0.8,0.8c0,0.5,0.4,0.8,0.8,0.8h2.7
		C31.8,53.8,32.2,53.5,32.2,53C32.2,53,32.2,53,32.2,53z"/>
	<path class="st1" d="M32.7,55.2h-1.4c-0.5,0-0.8,0.4-0.8,0.8s0.4,0.8,0.8,0.8c0,0,0,0,0,0h1.4c0.5,0,0.8-0.4,0.8-0.8
		C33.5,55.6,33.1,55.2,32.7,55.2L32.7,55.2z"/>
	<path class="st1" d="M44.3,55.2h-2.7c-0.5,0-0.8,0.4-0.8,0.8c0,0.5,0.4,0.8,0.8,0.8h2.7c0.5,0,0.8-0.4,0.8-0.8
		C45.1,55.6,44.7,55.2,44.3,55.2L44.3,55.2z"/>
	<path class="st1" d="M41.3,53c0-0.5-0.4-0.8-0.8-0.8h-6.5c-0.5,0-0.8,0.4-0.8,0.8c0,0.5,0.4,0.8,0.8,0.8h6.5
		C40.9,53.8,41.3,53.5,41.3,53z"/>
	<path class="st1" d="M39,55.2h-3.9c-0.5,0-0.8,0.4-0.8,0.8c0,0.5,0.4,0.8,0.8,0.8H39c0.5,0,0.8-0.4,0.8-0.8
		C39.8,55.6,39.5,55.2,39,55.2z"/>
	<path class="st1" d="M25.1,44.1h2.3c0.5,0,0.8-0.4,0.8-0.8c0-0.5-0.4-0.8-0.8-0.8h-2.3c-0.5,0-0.8,0.4-0.8,0.8S24.7,44.1,25.1,44.1
		C25.1,44.1,25.1,44.1,25.1,44.1z"/>
	<path class="st1" d="M39,43.3c0-0.5-0.4-0.8-0.8-0.8h-8.5c-0.5,0-0.8,0.4-0.8,0.8s0.4,0.8,0.8,0.8c0,0,0,0,0,0h8.4
		C38.6,44.1,39,43.8,39,43.3C39,43.3,39,43.3,39,43.3z"/>
	<path class="st1" d="M37.4,46.2c0-0.5-0.4-0.8-0.8-0.8h-8c-0.5,0-0.8,0.4-0.8,0.8s0.4,0.8,0.8,0.8c0,0,0,0,0,0h8
		C37.1,47,37.4,46.6,37.4,46.2z"/>
	<path class="st1" d="M38.9,47h1.5c0.5,0,0.8-0.4,0.8-0.8c0-0.5-0.4-0.8-0.8-0.8h-1.5c-0.5,0-0.8,0.4-0.8,0.8
		C38.1,46.6,38.4,47,38.9,47z"/>
	<path class="st1" d="M57.5,51.7h-5.3c-0.5,0-0.8,0.4-0.8,0.8c0,0.5,0.4,0.8,0.8,0.8h5.3c0.5,0,0.8-0.4,0.8-0.8
		C58.3,52.1,58,51.7,57.5,51.7C57.5,51.7,57.5,51.7,57.5,51.7z"/>
	<path class="st1" d="M70.8,51.7H60.5c-0.5,0-0.8,0.4-0.8,0.8c0,0.5,0.4,0.8,0.8,0.8h10.4c0.5,0,0.8-0.4,0.8-0.8
		C71.7,52.1,71.3,51.7,70.8,51.7z"/>
	<path class="st1" d="M57.5,54.9h-5.3c-0.5,0-0.8,0.4-0.8,0.8c0,0.5,0.4,0.8,0.8,0.8h5.3c0.5,0,0.8-0.4,0.8-0.8
		C58.3,55.2,58,54.9,57.5,54.9z"/>
	<path class="st1" d="M70.8,54.9H60.5c-0.5,0-0.8,0.4-0.8,0.8c0,0.5,0.4,0.8,0.8,0.8h10.4c0.5,0,0.8-0.4,0.8-0.8
		C71.7,55.2,71.3,54.9,70.8,54.9z"/>
	<path class="st1" d="M71.7,34.9c0-1.2-0.9-2.1-2.1-2.1l0,0h-16c-1.2,0-2.1,0.9-2.1,2.1V46l0,0v2c0,1.2,0.9,2.1,2.1,2.1h16
		c1.2,0,2.1-0.9,2.1-2.1c0,0,0,0,0,0L71.7,34.9L71.7,34.9z M70.1,48c0,0.3-0.2,0.5-0.5,0.5h-16c-0.3,0-0.5-0.2-0.5-0.5v-1.6l6-6
		l4.1,4.6c0.3,0.3,0.8,0.4,1.2,0.1c0.3-0.3,0.4-0.8,0.1-1.2l-0.4-0.4l1.8-1.8l4.1,4.7L70.1,48z M70.1,43.9l-3.2-3.6
		c-0.2-0.3-0.6-0.4-0.9-0.4c-0.4,0-0.7,0.1-1,0.4l-2,2L60.1,39c-0.2-0.3-0.6-0.4-0.9-0.4c-0.4,0-0.7,0.1-1,0.4l-5,5.1v-9.1
		c0-0.3,0.2-0.5,0.5-0.5h16c0.3,0,0.5,0.2,0.5,0.5V43.9L70.1,43.9z"/>
</g>
</svg>
