<svg id="Слой_1" data-name="Слой 1" xmlns="http://www.w3.org/2000/svg" viewBox="0 0 96 96"><defs><style>.cls-1{fill:#00bcd4;}.cls-2{fill:#fefefe;}</style></defs><title>4</title><circle id="Ellipse_1_copy_3_копия_2" data-name="Ellipse 1 copy 3 копия 2" class="cls-1" cx="48" cy="48" r="48"/><g id="workflow"><path class="cls-2" d="M35.87,23.72h1.87v1.87H35.87Z"/><path class="cls-2" d="M26.9,28.22l1.32-1.32,1.32,1.32-1.33,1.31Z"/><path class="cls-2" d="M23.73,35.86H25.6v1.87H23.73Z"/><path class="cls-2" d="M26.9,45.37l1.31-1.31,1.32,1.31-1.32,1.32Z"/><path class="cls-2" d="M35.87,48h1.87v1.87H35.87Z"/><path class="cls-2" d="M44.05,45.37l1.32-1.31,1.31,1.31-1.31,1.32Z"/><path class="cls-2" d="M48,35.86h1.87v1.87H48Z"/><path class="cls-2" d="M44.05,28.22l1.32-1.32,1.32,1.32-1.32,1.31Z"/><path class="cls-2" d="M36.8,45.19a8.4,8.4,0,1,0-8.4-8.4A8.4,8.4,0,0,0,36.8,45.19Zm0-14.93a6.53,6.53,0,0,1,.94,13V41.38a5.62,5.62,0,0,0,4.67-5.51H40.54a3.73,3.73,0,1,1-7.46,0H31.21a5.59,5.59,0,0,0,4.67,5.51v1.88a6.53,6.53,0,0,1,.92-13Z"/><path class="cls-2" d="M35.87,35.86h1.87v1.87H35.87Z"/><path class="cls-2" d="M48.91,48.44l1.75-1.75a.94.94,0,0,0,.1-1.2l-2.18-3.05a13.82,13.82,0,0,0,.55-1.31l3.7-.61a.93.93,0,0,0,.78-.92V34a.93.93,0,0,0-.78-.92l-3.7-.61a11.45,11.45,0,0,0-.55-1.31l2.18-3.05a.94.94,0,0,0-.1-1.2l-4-4a.94.94,0,0,0-1.2-.1L42.44,25a11.39,11.39,0,0,0-1.31-.54l-.61-3.7A.93.93,0,0,0,39.6,20H34a.93.93,0,0,0-.92.78l-.61,3.7a14.5,14.5,0,0,0-1.35.56c-.59-.46-1.53-1.13-3-2.19a.94.94,0,0,0-1.2.1l-4,4a.94.94,0,0,0-.1,1.2L25,31.16a11.22,11.22,0,0,0-.54,1.3l-3.71.62A.91.91,0,0,0,20,34v5.6a.93.93,0,0,0,.78.92l3.71.62a13.48,13.48,0,0,0,.52,1.3l-2.17,3.05a.94.94,0,0,0,.1,1.2l1.75,1.75c0,.16,0,.32,0,.48a9.05,9.05,0,0,0,3.6,7.79,4.78,4.78,0,0,1,1.92,2.68A2.79,2.79,0,0,0,28.4,62v1.87a2.77,2.77,0,0,0,.73,1.87,2.81,2.81,0,0,0-.73,1.87v1.87a2.81,2.81,0,0,0,2.8,2.8v.93A2.81,2.81,0,0,0,34,76h5.6a2.81,2.81,0,0,0,2.8-2.8v-.93a2.81,2.81,0,0,0,2.8-2.8V67.61a2.77,2.77,0,0,0-.73-1.87,2.81,2.81,0,0,0,.73-1.87V62a2.78,2.78,0,0,0-1.79-2.6,4.82,4.82,0,0,1,1.93-2.68,9,9,0,0,0,3.6-7.79c0-.16,0-.32,0-.48Zm-22-5.37a.94.94,0,0,0,.07-1A12.92,12.92,0,0,1,26.07,40a1,1,0,0,0-.72-.61l-3.48-.58v-4l3.48-.58a.9.9,0,0,0,.72-.61A15.12,15.12,0,0,1,27,31.47a.94.94,0,0,0-.09-.94l-2-2.88,2.84-2.84,2.85,2a.94.94,0,0,0,1,.07,10.83,10.83,0,0,1,2.06-.84,1,1,0,0,0,.66-.74l.58-3.48h4l.58,3.48a1,1,0,0,0,.66.74,11.6,11.6,0,0,1,2.06.84.94.94,0,0,0,1-.07l2.87-2,2.84,2.84-2,2.87a.94.94,0,0,0-.07,1,10.83,10.83,0,0,1,.84,2.06,1,1,0,0,0,.74.66l3.48.58v4l-3.48.58a1,1,0,0,0-.74.66,10.2,10.2,0,0,1-.85,2.06.94.94,0,0,0,.07,1l2,2.87-2.84,2.84-2.87-2.06a.94.94,0,0,0-1-.07,10.83,10.83,0,0,1-2.06.84,1,1,0,0,0-.66.74l-.58,3.47h-4l-.58-3.48a1,1,0,0,0-.66-.74,11.6,11.6,0,0,1-2.06-.84.94.94,0,0,0-1,.07l-2.85,2-2.84-2.84Zm15.53,18a.93.93,0,0,1,.93.93v1.87a.93.93,0,0,1-.93.93H31.2a.93.93,0,0,1-.93-.93V62a.93.93,0,0,1,.93-.93ZM40.53,73.19a.93.93,0,0,1-.93.93H34a.93.93,0,0,1-.93-.93v-.93h7.47v.93Zm2.8-3.73a.93.93,0,0,1-.93.93H31.2a.93.93,0,0,1-.93-.93V67.59a.93.93,0,0,1,.93-.93H42.4a.93.93,0,0,1,.93.93Zm.77-14.14a6.31,6.31,0,0,0-2.55,3.87H32.06a6.35,6.35,0,0,0-2.55-3.87,7.14,7.14,0,0,1-2.89-4.94l.28.28a.94.94,0,0,0,1.2.1l3.05-2.18a13.82,13.82,0,0,0,1.31.55l.61,3.7a.93.93,0,0,0,.92.78h5.6a.93.93,0,0,0,.92-.78l.61-3.7a11.45,11.45,0,0,0,1.31-.55l3.05,2.18a.94.94,0,0,0,1.2-.1l.28-.28a7.23,7.23,0,0,1-2.9,4.94Z"/><path class="cls-2" d="M73.2,55.46H50.8a2.81,2.81,0,0,0-2.8,2.8V73.19A2.81,2.81,0,0,0,50.8,76H73.2a2.81,2.81,0,0,0,2.8-2.8V58.26A2.8,2.8,0,0,0,73.2,55.46Zm.93,17.73a.93.93,0,0,1-.93.93H50.8a.93.93,0,0,1-.93-.93V58.26a.93.93,0,0,1,.93-.93H73.2a.93.93,0,0,1,.93.93V73.19Z"/><path class="cls-2" d="M51.73,59.19H53.6v1.87H51.73Z"/><path class="cls-2" d="M55.47,59.19h16.8v1.87H55.47Z"/><path class="cls-2" d="M51.73,66.66H72.26v1.87H51.73Z"/><path class="cls-2" d="M51.73,62.92H72.26v1.87H51.73Z"/><path class="cls-2" d="M51.73,70.39H72.26v1.87H51.73Z"/><path class="cls-2" d="M55.47,36.79h1.87v1.87H55.47Z"/><path class="cls-2" d="M61.07,53.59h1.87V37.72a.93.93,0,0,0-.93-.93h-2.8v1.87h1.87V53.59Z"/></g></svg>