<?xml version="1.0" encoding="utf-8"?>
<!-- Generator: Adobe Illustrator 23.0.1, SVG Export Plug-In . SVG Version: 6.00 Build 0)  -->
<svg version="1.1" id="Слой_1" xmlns="http://www.w3.org/2000/svg" xmlns:xlink="http://www.w3.org/1999/xlink" x="0px" y="0px"
	 viewBox="0 0 33 33" style="enable-background:new 0 0 33 33;" xml:space="preserve">
<style type="text/css">
	.st0{fill:#C4E9F8;}
</style>
<title>Be hover</title>
<g>
	<g>
		<g>
			<path class="st0" d="M16.5,19.8c1.8,0,3.3-1.5,3.3-3.3c0-0.7-0.2-1.4-0.6-1.9c-0.6-0.8-1.6-1.4-2.7-1.4c-1.1,0-2.1,0.5-2.7,1.4
				c-0.4,0.5-0.6,1.2-0.6,1.9C13.2,18.3,14.7,19.8,16.5,19.8z"/>
			<polygon class="st0" points="23.7,12.5 23.7,9.7 23.7,9.3 23.3,9.3 20.5,9.3 20.5,12.5 			"/>
			<path class="st0" d="M16.5,0C7.4,0,0,7.4,0,16.5C0,25.6,7.4,33,16.5,33C25.6,33,33,25.6,33,16.5C33,7.4,25.6,0,16.5,0z
				 M25.9,14.6v7.7c0,2-1.6,3.6-3.6,3.6H10.7c-2,0-3.6-1.6-3.6-3.6v-7.7v-3.8c0-2,1.6-3.6,3.6-3.6h11.5c2,0,3.6,1.6,3.6,3.6V14.6z"
				/>
			<path class="st0" d="M21.6,16.5c0,2.8-2.3,5.1-5.1,5.1s-5.1-2.3-5.1-5.1c0-0.7,0.1-1.3,0.4-1.9H8.9v7.7c0,1,0.8,1.8,1.8,1.8h11.5
				c1,0,1.8-0.8,1.8-1.8v-7.7h-2.8C21.5,15.2,21.6,15.8,21.6,16.5z"/>
		</g>
	</g>
</g>
</svg>
