<?xml version="1.0" encoding="utf-8"?>
<!-- Generator: Adobe Illustrator 21.0.0, SVG Export Plug-In . SVG Version: 6.00 Build 0)  -->
<svg version="1.1" id="Слой_1" xmlns="http://www.w3.org/2000/svg" xmlns:xlink="http://www.w3.org/1999/xlink" x="0px" y="0px"
	   xml:space="preserve"  >
<style type="text/css">
	.st0{fill:#1798A8;}
	.st1{fill:#697280;}
</style>
<path class="st0" id="share-hover" fill="#1798A8"  d="M23.8,24.5c-0.5,0-1,0.2-1.4,0.5l-3.9-2.3c0-0.1,0-0.2,0-0.4c0-0.1,0-0.2,0-0.4l3.9-2.3
	c0.4,0.3,0.9,0.5,1.4,0.5c1.2,0,2.3-1,2.3-2.3s-1-2.3-2.3-2.3s-2.3,1-2.3,2.3c0,0.1,0,0.2,0,0.4l-3.9,2.3c-0.4-0.3-0.9-0.5-1.4-0.5
	C15,20,14,21,14,22.3s1,2.3,2.3,2.3c0.5,0,1-0.2,1.4-0.5l3.9,2.3c0,0.1,0,0.2,0,0.4c0,1.2,1,2.3,2.3,2.3s2.3-1,2.3-2.3
	S25,24.5,23.8,24.5z"/>
<path class="st1" id="share" fill="#697280"  d="M23.8,9c-0.5,0-1,0.2-1.4,0.5l-3.9-2.3c0-0.1,0-0.2,0-0.4c0-0.1,0-0.2,0-0.4L22.4,4c0.4,0.3,0.9,0.5,1.4,0.5
	c1.2,0,2.3-1,2.3-2.3S25,0,23.8,0s-2.3,1-2.3,2.3c0,0.1,0,0.2,0,0.4L17.6,5c-0.4-0.3-0.9-0.5-1.4-0.5c-1.2,0-2.3,1-2.3,2.3
	S15,9,16.3,9c0.5,0,1-0.2,1.4-0.5l3.9,2.3c0,0.1,0,0.2,0,0.4c0,1.2,1,2.3,2.3,2.3s2.3-1,2.3-2.3S25,9,23.8,9z"/>
<path class="st1" id="clock" fill="#697280"  d="M7,4c0-0.2-0.1-0.3-0.2-0.3H6.3C6.1,3.8,6,3.8,6,4v2.7H4.3C4.1,6.8,4,6.8,4,7.1v0.5c0,0.1,0.1,0.2,0.3,0.2h2.5
	C6.9,7.8,7,7.7,7,7.6V4z M10.3,6.8c0,2.3-1.9,4.3-4.3,4.3c-2.3,0-4.3-1.9-4.3-4.3c0-2.3,1.9-4.3,4.3-4.3C8.3,2.5,10.3,4.4,10.3,6.8z
	 M12,6.8c0-3.3-2.7-6-6-6s-6,2.7-6,6s2.7,6,6,6S12,10.1,12,6.8z"/>
<path class="st1" id="eye" fill="#697280"  d="M41,6.8c-1.3,2.1-3.5,3.5-6,3.5s-4.7-1.4-6-3.5c0.7-1.1,1.8-2.1,3-2.8c-0.3,0.6-0.5,1.2-0.5,1.8
	c0,1.9,1.6,3.5,3.5,3.5s3.5-1.6,3.5-3.5c0-0.6-0.2-1.2-0.5-1.8C39.2,4.7,40.3,5.7,41,6.8z M35.4,3.8c0,0.2-0.2,0.4-0.4,0.4
	c-0.9,0-1.6,0.7-1.6,1.6c0,0.2-0.2,0.4-0.4,0.4s-0.4-0.2-0.4-0.4c0-1.3,1.1-2.4,2.4-2.4C35.2,3.3,35.4,3.5,35.4,3.8z M42,6.8
	c0-0.2-0.1-0.4-0.2-0.5c-1.4-2.4-4-4-6.8-4s-5.4,1.6-6.8,4C28.1,6.3,28,6.6,28,6.8s0.1,0.4,0.2,0.5c1.4,2.4,4,4,6.8,4s5.4-1.6,6.8-4
	C41.9,7.2,42,6.9,42,6.8z"/>
</svg>
