<svg id="Слой_1" data-name="Слой 1" xmlns="http://www.w3.org/2000/svg" viewBox="0 0 33 33"><defs><style>.cls-1{fill:#fff;}</style></defs><title>Twitter</title><path class="cls-1" d="M16.5,0A16.5,16.5,0,1,0,33,16.5,16.5,16.5,0,0,0,16.5,0Zm8.31,13.17c0,.18,0,.36,0,.54a11.83,11.83,0,0,1-18.21,10,8.57,8.57,0,0,0,1,.06A8.34,8.34,0,0,0,12.78,22a4.16,4.16,0,0,1-3.88-2.89A4.17,4.17,0,0,0,10.77,19a4.16,4.16,0,0,1-3.34-4.08s0,0,0-.05a4.15,4.15,0,0,0,1.88.52A4.16,4.16,0,0,1,8,9.83a11.8,11.8,0,0,0,8.57,4.34,4.16,4.16,0,0,1,7.09-3.79,8.31,8.31,0,0,0,2.64-1,4.17,4.17,0,0,1-1.83,2.3A8.33,8.33,0,0,0,26.89,11,8.45,8.45,0,0,1,24.81,13.17Z"/></svg>