<?xml version="1.0" encoding="utf-8"?>
<!-- Generator: Adobe Illustrator 23.0.1, SVG Export Plug-In . SVG Version: 6.00 Build 0)  -->
<svg version="1.1" id="Capa_1" xmlns="http://www.w3.org/2000/svg" xmlns:xlink="http://www.w3.org/1999/xlink" x="0px" y="0px"
	 viewBox="0 0 16 16" style="enable-background:new 0 0 16 16;" xml:space="preserve">
<style type="text/css">
	.st0{fill:#2F4351;}
</style>
<title>facebook</title>
<path class="st0" d="M12,0H9.9c-2-0.1-3.7,1.4-3.8,3.4c0,0.2,0,0.3,0,0.5v1.8H4c-0.2,0-0.3,0.1-0.3,0.3v2.6C3.7,8.9,3.8,9,4,9h2.1
	v6.6c0,0.2,0.1,0.3,0.3,0.3c0,0,0,0,0,0h2.7c0.2,0,0.3-0.1,0.3-0.3V9h2.4c0.2,0,0.3-0.1,0.3-0.3V6.1c0-0.2-0.1-0.3-0.3-0.3H9.5V4.2
	c0-0.7,0.2-1.1,1.1-1.1H12c0.2,0,0.3-0.1,0.3-0.3c0,0,0,0,0,0V0.3C12.3,0.2,12.2,0,12,0C12,0,12,0,12,0z"/>
</svg>
