<svg id="Capa_1" data-name="Capa 1" xmlns="http://www.w3.org/2000/svg" viewBox="0 0 17 17"><defs><style>.cls-1{fill:#2f4351;}</style></defs><title>linkedin</title><path class="cls-1" d="M3.85,1.94a1.81,1.81,0,0,1-2,1.81A1.79,1.79,0,0,1,0,1.94,1.81,1.81,0,0,1,1.94.12,1.79,1.79,0,0,1,3.85,1.94ZM.1,16.88V5.19H3.73V16.88Z"/><path class="cls-1" d="M5.91,8.92c0-1.46,0-2.68-.1-3.73H9l.16,1.62h.08a4.18,4.18,0,0,1,3.61-1.88c2.39,0,4.18,1.6,4.18,5v6.91H13.37V10.4c0-1.51-.53-2.53-1.85-2.53A2,2,0,0,0,9.66,9.23a2.51,2.51,0,0,0-.12.91v6.74H5.91Z"/></svg>