<svg id="Capa_1" data-name="Capa 1" xmlns="http://www.w3.org/2000/svg" viewBox="0 0 18 18"><defs><style>.cls-1{fill:#2f4351;}</style></defs><title>twitter</title><path class="cls-1" d="M18,3.42A7.47,7.47,0,0,1,15.88,4,3.69,3.69,0,0,0,17.5,2a7.53,7.53,0,0,1-2.34.9A3.69,3.69,0,0,0,8.77,5.38a3.86,3.86,0,0,0,.09.84A10.48,10.48,0,0,1,1.25,2.36,3.77,3.77,0,0,0,.76,4.22,3.68,3.68,0,0,0,2.4,7.29,3.67,3.67,0,0,1,.72,6.83v0a3.71,3.71,0,0,0,3,3.62,3.93,3.93,0,0,1-1,.13A3.94,3.94,0,0,1,2,10.56a3.69,3.69,0,0,0,3.45,2.56A7.44,7.44,0,0,1,.88,14.7a8.49,8.49,0,0,1-.88,0,10.43,10.43,0,0,0,5.66,1.66A10.44,10.44,0,0,0,16.17,5.81l0-.48A7.3,7.3,0,0,0,18,3.42Z"/></svg>