<?xml version="1.0" standalone="no"?>
<!DOCTYPE svg PUBLIC "-//W3C//DTD SVG 20010904//EN"
 "http://www.w3.org/TR/2001/REC-SVG-20010904/DTD/svg10.dtd">
<svg version="1.0" xmlns="http://www.w3.org/2000/svg"
 width="180.000000pt" height="180.000000pt" viewBox="0 0 180.000000 180.000000"
 preserveAspectRatio="xMidYMid meet">
<metadata>
Created by potrace 1.11, written by Peter Selinger 2001-2013
</metadata>
<g transform="translate(0.000000,180.000000) scale(0.100000,-0.100000)"
fill="#000000" stroke="none">
<path d="M1405 1337 c-52 -24 -70 -53 -70 -111 1 -93 67 -180 180 -236 104
-52 204 -49 256 6 20 21 24 36 24 84 -1 64 -28 116 -93 176 -82 75 -225 114
-297 81z"/>
<path d="M297 1199 c-67 -10 -147 -51 -197 -101 -75 -76 -100 -140 -100 -265
0 -120 24 -186 95 -259 46 -47 76 -65 167 -102 15 -6 65 -10 110 -8 66 2 95 8
140 30 231 110 286 412 109 599 -82 87 -197 124 -324 106z"/>
<path d="M995 1196 c-202 -64 -272 -303 -134 -459 131 -150 380 -111 462 71
29 66 28 170 -3 235 -57 119 -207 190 -325 153z"/>
</g>
</svg>
