<?xml version="1.0" encoding="utf-8"?>
<!-- Generator: Adobe Illustrator 21.0.0, SVG Export Plug-In . SVG Version: 6.00 Build 0)  -->
<svg version="1.1" id="Слой_1" xmlns="http://www.w3.org/2000/svg" xmlns:xlink="http://www.w3.org/1999/xlink" x="0px" y="0px"
	 viewBox="0 0 290 227" style="enable-background:new 0 0 290 227;" xml:space="preserve">
<style type="text/css">
	.st0{fill:#909FB0;}
	.st1{fill:#777677;}
	.st2{fill:#EF5556;}
	.st3{fill:#F89E23;}
	.st4{fill:#13BBD2;}
	.st5{fill:#17BAD1;}
	.st6{fill:#0D3846;}
	.st7{fill:#24B7D4;}
	.st8{fill:#E84B4D;}
	.st9{fill:#F59F06;}
	.st10{fill:#193947;}
	.st11{fill:#0097A7;}
	.st12{fill:#0B3847;}
	.st13{fill:#EF5355;}
	.st14{fill:#FFFFFF;}
	.st15{fill:#00BCD4;}
	.st16{fill:#FF5252;}
	.st17{fill:#0C3847;}
	.st18{fill:none;stroke:#000000;stroke-width:20;stroke-linecap:round;stroke-linejoin:round;stroke-miterlimit:10;}
	.st19{fill:#EF5455;}
	.st20{fill:#D64C4C;}
</style>
<g>
	<g>
		<rect x="38.2" y="19" class="st0" width="1.4" height="1.5"/>
		<polygon class="st0" points="39.6,22 38.2,22 38.2,31.1 36.5,31.1 36.5,32.5 39.6,32.5 		"/>
		<polygon class="st0" points="7.8,32.5 7.8,31.1 3.8,31.1 3.8,25.5 2.4,25.5 2.4,32.5 		"/>
		<g>
			<path class="st0" d="M33.6,12.2l1.3-1.3L36,12l-1.3,1.3L33.6,12.2z M40.6,33.4h-4.5L25.3,22.7l8.4-8.4l1.1,1.1l3.3-3.3l-3.1-3.1
				l-3.3,3.3l1.1,1.1c-2.7,2.7-6.9,6.9-8.4,8.4l-5.7-5.7c0.5-2-0.1-4.2-1.5-5.7c-0.1-0.1-0.1-0.1-0.2-0.2c-0.2-0.1-0.3-0.3-0.5-0.4
				c-1.6-1.2-3.8-1.5-5.8-0.7l-1,0.4l3.9,3.9L13,14.6L11.6,15l-3.9-3.9l-0.4,1c0,0.1-0.1,0.1-0.1,0.2C6.4,14.5,7,17,8.6,18.6
				c0.1,0.1,0.2,0.2,0.3,0.3C9,18.9,9,19,9.1,19.1c0,0,0.1,0,0.1,0.1c0.1,0.1,0.3,0.2,0.4,0.3c0,0,0.1,0,0.1,0.1c0,0,0,0,0.1,0
				c0,0,0,0,0,0c0.1,0,0.1,0.1,0.2,0.1c1.2,0.6,2.6,0.9,4,0.6l3.6,3.6L8,33.4H1.4V7.7h39.1V33.4z M35.3,37.1
				c-0.3,0.3-0.7,0.5-1.2,0.5c-0.5,0-0.9-0.2-1.3-0.5L14.4,18.6L14,18.7c-0.1,0-0.2,0-0.3,0.1c-1.1,0.2-2.2,0-3.1-0.5
				c-0.3-0.2-0.7-0.4-0.9-0.7c-0.7-0.7-1.1-1.6-1.3-2.5c-0.1-0.4-0.1-0.9,0-1.3l2.8,2.8l3.1-0.8l0.8-3.1l-2.8-2.8c0.1,0,0.1,0,0.2,0
				c0.1,0,0.2,0,0.3,0c1.2,0,2.4,0.4,3.3,1.3c0.1,0.1,0.2,0.2,0.2,0.3c1,1.2,1.3,2.9,0.8,4.4C17,16,16.5,17,15.8,17.7l1,1
				c0.5-0.5,0.8-1,1.1-1.4l5.9,5.9l11.5,11.5c0,0,0,0,0,0l0,0c0.3,0.3,0.5,0.7,0.5,1C35.8,36.3,35.7,36.8,35.3,37.1 M19,33.4
				l4.1-4.1l4.1,4.1H19z M8.7,34.7l9.9-9.9l3.5,3.5l-4.9,4.9l-5,5L8.7,34.7z M1.4,1.4h39.1v4.9H1.4V1.4z M0-0.1v7.8v27.2h6.9
				l5.4,5.4l5.4-5.4h11l3.2,3.2c0.6,0.6,1.4,0.9,2.3,1c0,0,0,0,0.1,0c0.8,0,1.6-0.3,2.2-0.9c0.7-0.7,1-1.6,0.9-2.6
				c0-0.2-0.1-0.4-0.2-0.7h5V7.7v-7.8H0z"/>
			<path class="st0" d="M4.3,4.3C4,4.3,3.8,4.1,3.8,3.8S4,3.4,4.3,3.4s0.5,0.2,0.5,0.5S4.6,4.3,4.3,4.3 M4.3,1.9
				c-1.1,0-1.9,0.9-1.9,1.9s0.9,1.9,1.9,1.9s1.9-0.9,1.9-1.9S5.4,1.9,4.3,1.9"/>
			<path class="st0" d="M9.8,4.3c-0.3,0-0.5-0.2-0.5-0.5s0.2-0.5,0.5-0.5c0.3,0,0.5,0.2,0.5,0.5S10.1,4.3,9.8,4.3 M9.8,1.9
				c-1.1,0-1.9,0.9-1.9,1.9s0.9,1.9,1.9,1.9c1.1,0,1.9-0.9,1.9-1.9S10.9,1.9,9.8,1.9"/>
			<path class="st0" d="M15.3,4.3c-0.3,0-0.5-0.2-0.5-0.5s0.2-0.5,0.5-0.5c0.3,0,0.5,0.2,0.5,0.5S15.6,4.3,15.3,4.3 M15.3,1.9
				c-1.1,0-1.9,0.9-1.9,1.9s0.9,1.9,1.9,1.9c1.1,0,1.9-0.9,1.9-1.9S16.4,1.9,15.3,1.9"/>
			<path class="st0" d="M36.6,4.3h-7.5c-0.3,0-0.5-0.2-0.5-0.5s0.2-0.5,0.5-0.5h7.5c0.2,0,0.3,0.1,0.4,0.3c0,0.1,0,0.1,0,0.2
				C37.1,4.1,36.9,4.3,36.6,4.3 M36.6,1.9h-7.5c-1.1,0-1.9,0.9-1.9,1.9s0.9,1.9,1.9,1.9h7.5c1.1,0,1.9-0.9,1.9-1.9
				c0-0.3-0.1-0.6-0.2-0.8C38,2.4,37.3,1.9,36.6,1.9"/>
		</g>
		
			<rect x="16.1" y="30.6" transform="matrix(0.7071 -0.7071 0.7071 0.7071 -17.2414 21.0125)" class="st0" width="1.3" height="1.4"/>
		<polygon class="st0" points="12.2,34.8 11.7,34.4 10.7,35.4 12.2,36.9 15.5,33.6 14.5,32.6 		"/>
	</g>
</g>
<g>
	<path class="st1" d="M36.1,100c-1,1-2.6,0.9-3.5-0.1L14.2,81.7c-0.1,0-3.3,0.5-5.3-1.9c-1.9-2.3-1.1-5-1.1-5.3
		c1.2,1.2,2.5,2.4,3.7,3.6c0.6-0.4,1.2-0.7,1.8-1.1c0.3-0.5,0.7-1.1,1-1.6c-0.9-1.3-1.8-2.7-2.7-4c2.3-0.2,4.4,0.9,5.5,2.7
		c1.2,2,0.6,4.2,0.5,4.6c6.1,6,12.3,11.9,18.4,17.9C37.1,97.5,37.1,99.1,36.1,100z"/>
	<circle class="st2" cx="4.3" cy="65.9" r="1"/>
	<circle class="st3" cx="9.8" cy="65.9" r="1"/>
	<circle class="st4" cx="15.3" cy="65.9" r="1"/>
	<path class="st5" d="M36.9,66.9h-8c-0.4,0-0.8-0.4-0.8-0.8v-0.4c0-0.4,0.4-0.8,0.8-0.8h8c0.4,0,0.8,0.4,0.8,0.8v0.4
		C37.7,66.6,37.3,66.9,36.9,66.9z"/>
	<rect x="33.8" y="72.7" transform="matrix(0.7071 0.7071 -0.7071 0.7071 62.5846 -2.9339)" class="st1" width="2" height="2.8"/>
	
		<rect x="12.6" y="86.3" transform="matrix(0.7071 0.7071 -0.7071 0.7071 70.6896 16.5434)" class="st2" width="5.6" height="14.5"/>
	<g>
		<rect x="38.2" y="81" class="st6" width="1.4" height="1.5"/>
		<polygon class="st6" points="39.6,84 38.2,84 38.2,93.1 36.5,93.1 36.5,94.5 39.6,94.5 		"/>
		<polygon class="st6" points="7.8,94.5 7.8,93.1 3.8,93.1 3.8,87.5 2.4,87.5 2.4,94.5 		"/>
		<g>
			<path class="st6" d="M33.6,74.2l1.3-1.3L36,74l-1.3,1.3L33.6,74.2z M40.6,95.4h-4.5L25.3,84.7l8.4-8.4l1.1,1.1l3.3-3.3l-3.1-3.1
				l-3.3,3.3l1.1,1.1c-2.7,2.7-6.9,6.9-8.4,8.4l-5.7-5.7c0.5-2-0.1-4.2-1.5-5.7c-0.1-0.1-0.1-0.1-0.2-0.2c-0.2-0.1-0.3-0.3-0.5-0.4
				c-1.6-1.2-3.8-1.5-5.8-0.7l-1,0.4l3.9,3.9L13,76.6L11.6,77l-3.9-3.9l-0.4,1c0,0.1-0.1,0.1-0.1,0.2C6.4,76.5,7,79,8.6,80.6
				c0.1,0.1,0.2,0.2,0.3,0.3C9,80.9,9,81,9.1,81.1c0,0,0.1,0,0.1,0.1c0.1,0.1,0.3,0.2,0.4,0.3c0,0,0.1,0,0.1,0.1c0,0,0,0,0.1,0
				c0,0,0,0,0,0c0.1,0,0.1,0.1,0.2,0.1c1.2,0.6,2.6,0.9,4,0.6l3.6,3.6L8,95.4H1.4V69.7h39.1V95.4z M35.3,99.1
				c-0.3,0.3-0.7,0.5-1.2,0.5c-0.5,0-0.9-0.2-1.3-0.5L14.4,80.6L14,80.7c-0.1,0-0.2,0-0.3,0.1c-1.1,0.2-2.2,0-3.1-0.5
				c-0.3-0.2-0.7-0.4-0.9-0.7c-0.7-0.7-1.1-1.6-1.3-2.5c-0.1-0.4-0.1-0.9,0-1.3l2.8,2.8l3.1-0.8l0.8-3.1l-2.8-2.8c0.1,0,0.1,0,0.2,0
				c0.1,0,0.2,0,0.3,0c1.2,0,2.4,0.4,3.3,1.3c0.1,0.1,0.2,0.2,0.2,0.3c1,1.2,1.3,2.9,0.8,4.4C17,78,16.5,79,15.8,79.7l1,1
				c0.5-0.5,0.8-1,1.1-1.4l5.9,5.9l11.5,11.5c0,0,0,0,0,0l0,0c0.3,0.3,0.5,0.7,0.5,1C35.8,98.3,35.7,98.8,35.3,99.1 M19,95.4
				l4.1-4.1l4.1,4.1H19z M8.7,96.7l9.9-9.9l3.5,3.5l-4.9,4.9l-5,5L8.7,96.7z M1.4,63.4h39.1v4.9H1.4V63.4z M0,61.9v7.8v27.2h6.9
				l5.4,5.4l5.4-5.4h11l3.2,3.2c0.6,0.6,1.4,0.9,2.3,1c0,0,0,0,0.1,0c0.8,0,1.6-0.3,2.2-0.9c0.7-0.7,1-1.6,0.9-2.6
				c0-0.2-0.1-0.4-0.2-0.7h5V69.7v-7.8H0z"/>
			<path class="st6" d="M4.3,66.3c-0.3,0-0.5-0.2-0.5-0.5s0.2-0.5,0.5-0.5s0.5,0.2,0.5,0.5S4.6,66.3,4.3,66.3 M4.3,63.9
				c-1.1,0-1.9,0.9-1.9,1.9s0.9,1.9,1.9,1.9s1.9-0.9,1.9-1.9S5.4,63.9,4.3,63.9"/>
			<path class="st6" d="M9.8,66.3c-0.3,0-0.5-0.2-0.5-0.5s0.2-0.5,0.5-0.5c0.3,0,0.5,0.2,0.5,0.5S10.1,66.3,9.8,66.3 M9.8,63.9
				c-1.1,0-1.9,0.9-1.9,1.9s0.9,1.9,1.9,1.9c1.1,0,1.9-0.9,1.9-1.9S10.9,63.9,9.8,63.9"/>
			<path class="st6" d="M15.3,66.3c-0.3,0-0.5-0.2-0.5-0.5s0.2-0.5,0.5-0.5c0.3,0,0.5,0.2,0.5,0.5S15.6,66.3,15.3,66.3 M15.3,63.9
				c-1.1,0-1.9,0.9-1.9,1.9s0.9,1.9,1.9,1.9c1.1,0,1.9-0.9,1.9-1.9S16.4,63.9,15.3,63.9"/>
			<path class="st6" d="M36.6,66.3h-7.5c-0.3,0-0.5-0.2-0.5-0.5s0.2-0.5,0.5-0.5h7.5c0.2,0,0.3,0.1,0.4,0.3c0,0.1,0,0.1,0,0.2
				C37.1,66.1,36.9,66.3,36.6,66.3 M36.6,63.9h-7.5c-1.1,0-1.9,0.9-1.9,1.9s0.9,1.9,1.9,1.9h7.5c1.1,0,1.9-0.9,1.9-1.9
				c0-0.3-0.1-0.6-0.2-0.8C38,64.4,37.3,63.9,36.6,63.9"/>
		</g>
		
			<rect x="16.1" y="92.6" transform="matrix(0.7071 -0.7071 0.7071 0.7071 -61.082 39.1718)" class="st6" width="1.3" height="1.4"/>
		<polygon class="st6" points="12.2,96.8 11.7,96.4 10.7,97.4 12.2,98.9 15.5,95.6 14.5,94.6 		"/>
	</g>
</g>
<g>
	<g>
		<g>
			<path class="st0" d="M84.9,21.1c-1.8,1.8-4.1,2.7-6.7,2.7c-2.5,0-4.9-1-6.7-2.7c-0.4-0.4-0.7-0.7-1-1.1l2.8-2.8
				c0.3,0.2,0.6,0.2,1,0.2c0.7,0,1.4-0.4,1.8-1L81,18c0,0,0,0,0,0c0,1.2,1,2.1,2.2,2.1c1.2,0,2.2-1,2.2-2.1c0-0.4-0.1-0.7-0.3-1
				l2.6-2.5C87.7,17,86.7,19.4,84.9,21.1 M75.3,15.3c0,0.5-0.4,0.9-0.9,0.9c-0.5,0-0.9-0.4-0.9-0.9c0-0.5,0.4-0.9,0.9-0.9
				C74.9,14.3,75.3,14.8,75.3,15.3 M84.1,18c0,0.5-0.4,0.9-0.9,0.9c-0.5,0-0.9-0.4-0.9-0.9c0-0.5,0.4-0.9,0.9-0.9
				C83.7,17.1,84.1,17.5,84.1,18 M71.6,7.9c1.8-1.8,4.1-2.7,6.7-2.7c2.5,0,4.9,1,6.7,2.7c1.4,1.4,2.3,3.2,2.6,5.1l-3.3,3.2
				c-0.3-0.2-0.7-0.3-1.1-0.3c-0.7,0-1.4,0.4-1.8,1l-4.9-1.5c0,0,0,0,0,0c0-1.2-1-2.1-2.2-2.1s-2.2,1-2.2,2.1c0,0.4,0.1,0.7,0.3,1.1
				L69.9,19C68,15.4,68.5,10.9,71.6,7.9 M85.8,7c-2-2-4.7-3.1-7.5-3.1c-2.8,0-5.5,1.1-7.5,3.1c-4.1,4.1-4.1,10.8,0,14.9
				c2,2,4.7,3.1,7.5,3.1c2.8,0,5.5-1.1,7.5-3.1s3.1-4.6,3.1-7.5S87.8,9,85.8,7"/>
			<path class="st0" d="M80.5,8l0.4-1.1c-2.8-1-5.9-0.4-8.1,1.5l0.8,0.9C75.5,7.7,78.2,7.2,80.5,8"/>
			<path class="st0" d="M83.6,8.3c-0.3-0.3-0.7-0.5-1.1-0.8l-0.6,1c0.3,0.2,0.6,0.4,0.9,0.7L83.6,8.3z"/>
			<path class="st0" d="M75.6,20.9L75.2,22c1,0.4,2,0.6,3,0.6c0.6,0,1.1-0.1,1.7-0.2l-0.2-1.2C78.3,21.6,76.9,21.4,75.6,20.9"/>
			<path class="st0" d="M98.3,38.5l-8.9-8.8l3.9-3.9l8.9,8.8L98.3,38.5z M87.5,25.8c0.4-0.3,0.8-0.7,1.1-1c0.4-0.4,0.7-0.7,1-1.1
				l2.1,2.2L89.5,28L87.5,25.8z M68.7,24c-5.2-5.2-5.2-13.7,0-18.9c2.6-2.6,6.1-3.9,9.5-3.9c3.4,0,6.9,1.3,9.5,3.9
				c5.2,5.2,5.2,13.7,0,18.9C82.5,29.2,74,29.2,68.7,24 M64.2,26.7c-0.5,0-0.9-0.4-0.9-0.9c0-0.5,0.4-0.9,0.9-0.9
				c0.5,0,0.9,0.4,0.9,0.9C65.1,26.3,64.7,26.7,64.2,26.7 M95,5.6c0.5,0,0.9,0.4,0.9,0.9c0,0.5-0.4,0.9-0.9,0.9S94,7,94,6.5
				C94,6,94.4,5.6,95,5.6 M93.4,24.2L92.5,25l-2.2-2.3c2.6-3.7,3.2-8.4,1.9-12.6l1.7-1.7c0.3,0.2,0.7,0.3,1,0.3c1.2,0,2.2-1,2.2-2.1
				c0-0.3-0.1-0.7-0.2-1l3.7-3.6v1.9h1.2v-3.9h-3.9v1.2h1.8l-3.7,3.6c-0.3-0.2-0.7-0.3-1.1-0.3c-1.2,0-2.2,1-2.2,2.1
				c0,0.4,0.1,0.7,0.3,1l-1.3,1.3C91,7.2,90,5.6,88.6,4.2c-5.7-5.7-15-5.7-20.8,0c-5.1,5.1-5.7,12.9-1.7,18.6l-1,1
				c-0.3-0.2-0.6-0.2-1-0.2c-1.2,0-2.2,1-2.2,2.1c0,1.2,1,2.1,2.2,2.1c1.2,0,2.2-1,2.2-2.1c0-0.4-0.1-0.7-0.3-1.1l0.9-0.9
				c0.3,0.3,0.6,0.7,0.9,1c2.9,2.8,6.6,4.3,10.4,4.3c2.9,0,5.8-0.8,8.2-2.5l2.2,2.3l-0.9,0.9l10.6,10.5l5.7-5.6L93.4,24.2z"/>
		</g>
		<polygon class="st0" points="91.7,29.3 92.5,30.2 93.4,29.3 96.8,32.6 97.6,31.8 93.4,27.6 		"/>
		<polygon class="st0" points="97.8,33.7 98.6,32.8 99.5,33.7 98.7,34.5 		"/>
		<rect x="68.6" y="29.7" class="st0" width="1.2" height="1.3"/>
		<rect x="68.6" y="37" class="st0" width="1.2" height="1.3"/>
		<rect x="78.5" y="32.2" class="st0" width="1.2" height="1.3"/>
		<rect x="95.9" y="21.4" class="st0" width="1.2" height="1.3"/>
		<rect x="97.3" y="11" class="st0" width="1.2" height="1.3"/>
		<rect x="101.3" y="16.5" class="st0" width="1.2" height="1.3"/>
	</g>
</g>
<g>
	<path class="st7" d="M78.2,86.7c-5.5,0-10-4.5-10-10c0-5.5,4.5-10,10-10c5.5,0,10,4.5,10,10C88.2,82.2,83.7,86.7,78.2,86.7
		 M78.2,62.5c-7.8,0-14.2,6.4-14.2,14.2c0,7.8,6.4,14.2,14.2,14.2s14.2-6.4,14.2-14.2C92.4,68.8,86,62.5,78.2,62.5"/>
	<path class="st8" d="M65.9,87.9c0,1-0.8,1.7-1.7,1.7c-1,0-1.7-0.8-1.7-1.7c0-1,0.8-1.7,1.7-1.7C65.1,86.1,65.9,86.9,65.9,87.9"/>
	<path class="st9" d="M76.1,77.3c0,1-0.8,1.7-1.7,1.7c-1,0-1.7-0.8-1.7-1.7s0.8-1.7,1.7-1.7C75.3,75.6,76.1,76.3,76.1,77.3"/>
	<path class="st8" d="M84.8,80.1c0,1-0.8,1.7-1.7,1.7c-1,0-1.7-0.8-1.7-1.7c0-1,0.8-1.7,1.7-1.7C84.1,78.3,84.8,79.1,84.8,80.1"/>
	<path class="st9" d="M96.8,68.5c0,1-0.8,1.7-1.7,1.7c-1,0-1.7-0.8-1.7-1.7c0-1,0.8-1.7,1.7-1.7C96,66.8,96.8,67.6,96.8,68.5"/>
</g>
<polygon class="st8" points="88.5,92.1 98.2,101.1 103.1,96.5 93.4,87.4 "/>
<g>
	<path class="st10" d="M85.8,69c-2-2-4.7-3.1-7.5-3.1c-2.8,0-5.5,1.1-7.5,3.1c-4.1,4.1-4.1,10.8,0,14.9c2,2,4.7,3.1,7.5,3.1
		c2.8,0,5.5-1.1,7.5-3.1s3.1-4.6,3.1-7.5C88.9,73.7,87.8,71,85.8,69 M71.6,69.9c1.8-1.8,4.1-2.7,6.7-2.7c2.5,0,4.9,1,6.7,2.7
		c1.4,1.4,2.3,3.2,2.6,5.1l-3.3,3.2c-0.3-0.2-0.7-0.3-1.1-0.3c-0.7,0-1.4,0.4-1.8,1l-4.9-1.5c0,0,0,0,0,0c0-1.2-1-2.1-2.2-2.1
		s-2.2,1-2.2,2.1c0,0.4,0.1,0.7,0.3,1.1L69.9,81C68,77.4,68.5,72.9,71.6,69.9 M84.1,80c0,0.5-0.4,0.9-0.9,0.9
		c-0.5,0-0.9-0.4-0.9-0.9c0-0.5,0.4-0.9,0.9-0.9C83.7,79.1,84.1,79.5,84.1,80 M75.3,77.3c0,0.5-0.4,0.9-0.9,0.9s-0.9-0.4-0.9-0.9
		c0-0.5,0.4-0.9,0.9-0.9S75.3,76.8,75.3,77.3 M84.9,83.1c-1.8,1.8-4.1,2.7-6.7,2.7c-2.5,0-4.9-1-6.7-2.7c-0.4-0.4-0.7-0.7-1-1.1
		l2.8-2.8c0.3,0.2,0.6,0.2,1,0.2c0.7,0,1.4-0.4,1.8-1L81,80c0,0,0,0,0,0c0,1.2,1,2.1,2.2,2.1c1.2,0,2.2-1,2.2-2.1
		c0-0.4-0.1-0.7-0.3-1l2.6-2.5C87.7,79,86.7,81.4,84.9,83.1"/>
	<path class="st10" d="M80.5,70l0.4-1.1c-2.8-1-5.9-0.4-8.1,1.5l0.8,0.9C75.5,69.7,78.2,69.2,80.5,70"/>
	<path class="st10" d="M83.6,70.3c-0.3-0.3-0.7-0.5-1.1-0.8l-0.6,1c0.3,0.2,0.6,0.4,0.9,0.7L83.6,70.3z"/>
	<path class="st10" d="M75.6,82.9L75.2,84c1,0.4,2,0.6,3,0.6c0.6,0,1.1-0.1,1.7-0.2l-0.2-1.2C78.3,83.6,76.9,83.4,75.6,82.9"/>
	<path class="st10" d="M93.4,86.2L92.5,87l-2.2-2.3c2.6-3.7,3.2-8.4,1.9-12.6l1.7-1.7c0.3,0.2,0.7,0.3,1,0.3c1.2,0,2.2-1,2.2-2.1
		c0-0.3-0.1-0.7-0.2-1l3.7-3.6v1.9h1.2v-3.9h-3.9v1.2h1.8l-3.7,3.6c-0.3-0.2-0.7-0.3-1.1-0.3c-1.2,0-2.2,1-2.2,2.1
		c0,0.4,0.1,0.7,0.3,1l-1.3,1.3c-0.7-1.7-1.8-3.3-3.1-4.6c-5.7-5.7-15-5.7-20.8,0c-5.1,5.1-5.7,12.9-1.7,18.6l-1,1
		c-0.3-0.2-0.6-0.2-1-0.2c-1.2,0-2.2,1-2.2,2.1c0,1.2,1,2.1,2.2,2.1c1.2,0,2.2-1,2.2-2.1c0-0.4-0.1-0.7-0.3-1.1l0.9-0.9
		c0.3,0.3,0.6,0.7,0.9,1c2.9,2.8,6.6,4.3,10.4,4.3c2.9,0,5.8-0.8,8.2-2.5l2.2,2.3l-0.9,0.9l10.6,10.5l5.7-5.6L93.4,86.2z M95,67.6
		c0.5,0,0.9,0.4,0.9,0.9c0,0.5-0.4,0.9-0.9,0.9S94,69,94,68.5C94,68,94.4,67.6,95,67.6 M64.2,88.7c-0.5,0-0.9-0.4-0.9-0.9
		c0-0.5,0.4-0.9,0.9-0.9c0.5,0,0.9,0.4,0.9,0.9C65.1,88.3,64.7,88.7,64.2,88.7 M68.7,86c-5.2-5.2-5.2-13.7,0-18.9
		c2.6-2.6,6.1-3.9,9.5-3.9c3.4,0,6.9,1.3,9.5,3.9c5.2,5.2,5.2,13.7,0,18.9C82.5,91.2,74,91.2,68.7,86 M87.5,87.8
		c0.4-0.3,0.8-0.7,1.1-1c0.4-0.4,0.7-0.7,1-1.1l2.1,2.2L89.5,90L87.5,87.8z M98.3,100.5l-8.9-8.8l3.9-3.9l8.9,8.8L98.3,100.5z"/>
</g>
<polygon class="st10" points="91.7,91.3 92.5,92.2 93.4,91.3 96.8,94.6 97.6,93.8 93.4,89.6 "/>
<polygon class="st10" points="97.8,95.7 98.6,94.8 99.5,95.7 98.7,96.5 "/>
<rect x="68.6" y="91.7" class="st10" width="1.2" height="1.3"/>
<rect x="68.6" y="99" class="st10" width="1.2" height="1.3"/>
<rect x="78.5" y="94.2" class="st10" width="1.2" height="1.3"/>
<rect x="95.9" y="83.4" class="st10" width="1.2" height="1.3"/>
<rect x="97.3" y="73" class="st10" width="1.2" height="1.3"/>
<rect x="101.3" y="78.5" class="st10" width="1.2" height="1.3"/>
<g>
	<path class="st0" d="M136,7.8c-1.7,0-3.1-1.4-3.1-3.1s1.4-3.1,3.1-3.1s3.1,1.4,3.1,3.1S137.7,7.8,136,7.8z M136,3
		c-1,0-1.7,0.8-1.7,1.7s0.8,1.7,1.7,1.7s1.7-0.8,1.7-1.7S136.9,3,136,3z"/>
	<path class="st0" d="M148.4,5.5h-9.7c-0.5,0-0.8-0.4-0.8-0.8c0-0.5,0.4-0.8,0.8-0.8h9.7c0.5,0,0.8,0.4,0.8,0.8
		C149.3,5.1,148.9,5.5,148.4,5.5z"/>
</g>
<path class="st0" d="M144.8,23.2c-1.7,0-3.1-1.4-3.1-3.1s1.4-3.1,3.1-3.1s3.1,1.4,3.1,3.1S146.6,23.2,144.8,23.2z M144.8,18.3
	c-1,0-1.7,0.8-1.7,1.7s0.8,1.7,1.7,1.7c1,0,1.7-0.8,1.7-1.7S145.8,18.3,144.8,18.3z"/>
<g>
	<path class="st0" d="M154,7.7c-1.1,0-2.2-0.6-2.8-1.6c-0.8-1.5-0.3-3.4,1.3-4.3c1.5-0.8,3.4-0.3,4.3,1.3c0.8,1.5,0.3,3.4-1.3,4.3
		l0,0C155,7.6,154.5,7.7,154,7.7z M154,2.9c-0.3,0-0.6,0.1-0.8,0.2c-0.8,0.5-1.1,1.5-0.7,2.3c0.5,0.8,1.5,1.1,2.3,0.7l0,0
		c0.8-0.5,1.1-1.5,0.7-2.3C155.2,3.2,154.6,2.9,154,2.9z"/>
	<path class="st0" d="M160,16.4c-0.3,0-0.6-0.2-0.7-0.4l-4.7-8.5c-0.2-0.4-0.1-0.9,0.3-1.1c0.4-0.2,0.9-0.1,1.1,0.3l4.7,8.5
		c0.2,0.4,0.1,0.9-0.3,1.1C160.3,16.3,160.1,16.4,160,16.4z"/>
</g>
<g>
	<path class="st0" d="M162.8,23.3c-0.6,0-1.1-0.1-1.6-0.5c-1.5-0.9-2-2.8-1.1-4.3c0.9-1.5,2.8-2,4.3-1.1c1.5,0.9,2,2.8,1.1,4.3
		C165,22.8,163.9,23.3,162.8,23.3z M162.9,18.4c-0.6,0-1.2,0.3-1.5,0.8c-0.5,0.8-0.2,1.9,0.6,2.4c0.4,0.2,0.9,0.3,1.3,0.2
		c0.4-0.1,0.8-0.4,1.1-0.8c0.5-0.8,0.2-1.9-0.6-2.4C163.5,18.5,163.2,18.4,162.9,18.4z"/>
	<path class="st0" d="M156.4,31.7c-0.1,0-0.3,0-0.4-0.1c-0.4-0.2-0.5-0.7-0.3-1.1l5-8.3c0.2-0.4,0.7-0.5,1.1-0.3
		c0.4,0.2,0.5,0.7,0.3,1.1l-5,8.3C157,31.6,156.7,31.7,156.4,31.7z"/>
</g>
<g>
	<path class="st0" d="M154,38.6c-0.8,0-1.6-0.3-2.2-0.9c-0.6-0.6-0.9-1.4-0.9-2.2c0-0.8,0.3-1.6,0.9-2.2c0.6-0.6,1.4-0.9,2.2-0.9h0
		c0.8,0,1.6,0.3,2.2,0.9c0.6,0.6,0.9,1.4,0.9,2.2c0,0.8-0.3,1.6-0.9,2.2C155.6,38.3,154.8,38.6,154,38.6L154,38.6z M154,33.7
		L154,33.7c-1,0-1.7,0.8-1.7,1.7c0,1,0.8,1.7,1.7,1.7h0c0.5,0,0.9-0.2,1.2-0.5c0.3-0.3,0.5-0.8,0.5-1.2
		C155.7,34.5,154.9,33.7,154,33.7z"/>
	<path class="st0" d="M141.5,36.3c-0.5,0-0.8-0.4-0.8-0.8c0-0.5,0.4-0.8,0.8-0.8l9.7,0c0.5,0,0.8,0.4,0.8,0.8c0,0.5-0.4,0.8-0.8,0.8
		L141.5,36.3z"/>
</g>
<g>
	<path class="st0" d="M136.1,38.8c-0.3,0-0.6,0-0.9-0.1c-0.8-0.2-1.5-0.8-1.9-1.5c-0.8-1.5-0.3-3.4,1.2-4.3l0,0
		c1.5-0.8,3.4-0.3,4.3,1.2c0.8,1.5,0.3,3.4-1.2,4.3C137.1,38.7,136.6,38.8,136.1,38.8z M135.2,34.1c-0.8,0.5-1.1,1.5-0.7,2.4
		c0.2,0.4,0.6,0.7,1,0.8c0.4,0.1,0.9,0.1,1.3-0.2c0.8-0.5,1.1-1.5,0.7-2.4C137.1,34,136,33.7,135.2,34.1L135.2,34.1z"/>
	<path class="st0" d="M134.7,34.1c-0.3,0-0.6-0.2-0.7-0.4l-4.7-8.5c-0.2-0.4-0.1-0.9,0.3-1.1c0.4-0.2,0.9-0.1,1.1,0.3l4.7,8.5
		c0.2,0.4,0.1,0.9-0.3,1.1C134.9,34.1,134.8,34.1,134.7,34.1z"/>
</g>
<g>
	<path class="st0" d="M127.1,23.2c-0.6,0-1.2-0.2-1.7-0.5c-0.7-0.5-1.2-1.2-1.4-2c-0.2-0.8,0-1.7,0.4-2.4c0.5-0.7,1.2-1.2,2-1.4
		c0.8-0.2,1.7,0,2.4,0.4l0,0c1.5,0.9,1.9,2.9,1,4.3c-0.5,0.7-1.2,1.2-2,1.4C127.6,23.1,127.4,23.2,127.1,23.2z M127.2,18.3
		c-0.1,0-0.2,0-0.4,0c-0.5,0.1-0.8,0.4-1.1,0.8c-0.2,0.4-0.3,0.9-0.2,1.3c0.1,0.5,0.4,0.8,0.8,1.1c0.4,0.2,0.9,0.3,1.3,0.2
		c0.5-0.1,0.8-0.4,1.1-0.8c0.5-0.8,0.3-1.9-0.5-2.4C127.8,18.4,127.5,18.3,127.2,18.3z"/>
	<path class="st0" d="M128.6,18.5c-0.2,0-0.3,0-0.4-0.1c-0.4-0.2-0.5-0.8-0.3-1.1l5.2-8.2c0.2-0.4,0.8-0.5,1.1-0.3
		c0.4,0.2,0.5,0.8,0.3,1.1l-5.2,8.2C129.1,18.4,128.9,18.5,128.6,18.5z"/>
</g>
<g>
	<path class="st0" d="M139.2,20.8C139.2,20.8,139.2,20.8,139.2,20.8c-0.4,0-0.7-0.4-0.7-0.8c0.4-6.4,6.5-6.3,6.6-6.3
		c0.4,0,0.7,0.3,0.7,0.7c0,0.4-0.3,0.7-0.7,0.7l0,0c-0.2,0-4.8,0-5.1,5C139.9,20.5,139.6,20.8,139.2,20.8z"/>
	<path class="st0" d="M136.1,21.2C136,21.2,136,21.2,136.1,21.2c-0.4,0-0.7-0.3-0.7-0.7c0.1-3.1,1.1-5.6,2.9-7.3
		c2.8-2.7,6.7-2.6,6.8-2.6c0.4,0,0.7,0.3,0.7,0.7c0,0.4-0.3,0.7-0.7,0.7c-0.3,0-8-0.1-8.3,8.5C136.8,20.8,136.4,21.2,136.1,21.2z"/>
</g>
<g>
	<path class="st0" d="M144.8,26.4C144.8,26.4,144.8,26.4,144.8,26.4c-0.4,0-0.7-0.3-0.7-0.7c0-0.4,0.3-0.7,0.7-0.7c0,0,0,0,0,0
		c0.2,0,4.8-0.1,5.1-5c0-0.4,0.4-0.7,0.7-0.7c0.4,0,0.7,0.4,0.7,0.7C151,26.4,145,26.4,144.8,26.4z"/>
	<path class="st0" d="M144.9,29.6C144.9,29.6,144.8,29.6,144.9,29.6c-0.5,0-0.8-0.3-0.8-0.7c0-0.4,0.3-0.7,0.7-0.7l0,0
		c0.3,0,8,0.1,8.2-8.5c0-0.4,0.3-0.7,0.7-0.7c0,0,0,0,0,0c0.4,0,0.7,0.3,0.7,0.7c-0.1,3.1-1,5.6-2.9,7.3
		C149,29.5,145.5,29.6,144.9,29.6z"/>
</g>
<circle class="st11" cx="136" cy="66.7" r="2.4"/>
<g>
	<path class="st12" d="M136,69.8c-1.7,0-3.1-1.4-3.1-3.1s1.4-3.1,3.1-3.1s3.1,1.4,3.1,3.1S137.7,69.8,136,69.8z M136,64.9
		c-1,0-1.7,0.8-1.7,1.7c0,1,0.8,1.7,1.7,1.7s1.7-0.8,1.7-1.7C137.7,65.7,136.9,64.9,136,64.9z"/>
	<path class="st12" d="M148.4,67.4h-9.7c-0.5,0-0.8-0.4-0.8-0.8s0.4-0.8,0.8-0.8h9.7c0.5,0,0.8,0.4,0.8,0.8S148.9,67.4,148.4,67.4z"
		/>
</g>
<circle class="st13" cx="144.8" cy="82" r="2.4"/>
<circle class="st11" cx="154" cy="97.6" r="2.4"/>
<circle class="st11" cx="162.9" cy="82" r="2.4"/>
<circle class="st11" cx="154" cy="66.5" r="2.4"/>
<circle class="st11" cx="127.2" cy="82.1" r="2.4"/>
<circle class="st11" cx="136.1" cy="97.4" r="2.4"/>
<path class="st12" d="M144.8,85.2c-1.7,0-3.1-1.4-3.1-3.1s1.4-3.1,3.1-3.1s3.1,1.4,3.1,3.1S146.6,85.2,144.8,85.2z M144.8,80.3
	c-1,0-1.7,0.8-1.7,1.7s0.8,1.7,1.7,1.7c1,0,1.7-0.8,1.7-1.7S145.8,80.3,144.8,80.3z"/>
<g>
	<path class="st12" d="M154,69.7c-1.1,0-2.2-0.6-2.8-1.6c-0.8-1.5-0.3-3.4,1.3-4.3c1.5-0.8,3.4-0.3,4.3,1.3c0.8,1.5,0.3,3.4-1.3,4.3
		l0,0C155,69.6,154.5,69.7,154,69.7z M154,64.8c-0.3,0-0.6,0.1-0.8,0.2c-0.8,0.5-1.1,1.5-0.7,2.3c0.5,0.8,1.5,1.1,2.3,0.7l0,0
		c0.8-0.5,1.1-1.5,0.7-2.3C155.2,65.1,154.6,64.8,154,64.8z"/>
	<path class="st12" d="M160,78.3c-0.3,0-0.6-0.2-0.7-0.4l-4.7-8.5c-0.2-0.4-0.1-0.9,0.3-1.1c0.4-0.2,0.9-0.1,1.1,0.3l4.7,8.5
		c0.2,0.4,0.1,0.9-0.3,1.1C160.3,78.3,160.1,78.3,160,78.3z"/>
</g>
<g>
	<path class="st12" d="M162.8,85.3c-0.6,0-1.1-0.1-1.6-0.5c-1.5-0.9-2-2.8-1.1-4.3c0.9-1.5,2.8-2,4.3-1.1c1.5,0.9,2,2.8,1.1,4.3
		C165,84.7,163.9,85.3,162.8,85.3z M162.9,80.4c-0.6,0-1.2,0.3-1.5,0.8c-0.5,0.8-0.2,1.9,0.6,2.4c0.4,0.2,0.9,0.3,1.3,0.2
		c0.4-0.1,0.8-0.4,1.1-0.8c0.5-0.8,0.2-1.9-0.6-2.4C163.5,80.5,163.2,80.4,162.9,80.4z"/>
	<path class="st12" d="M156.4,93.7c-0.1,0-0.3,0-0.4-0.1c-0.4-0.2-0.5-0.7-0.3-1.1l5-8.3c0.2-0.4,0.7-0.5,1.1-0.3
		c0.4,0.2,0.5,0.7,0.3,1.1l-5,8.3C157,93.5,156.7,93.7,156.4,93.7z"/>
</g>
<g>
	<path class="st12" d="M154,100.6c-0.8,0-1.6-0.3-2.2-0.9c-0.6-0.6-0.9-1.4-0.9-2.2c0-0.8,0.3-1.6,0.9-2.2c0.6-0.6,1.4-0.9,2.2-0.9
		h0c0.8,0,1.6,0.3,2.2,0.9c0.6,0.6,0.9,1.4,0.9,2.2c0,0.8-0.3,1.6-0.9,2.2C155.6,100.2,154.8,100.6,154,100.6L154,100.6z M154,95.7
		L154,95.7c-1,0-1.7,0.8-1.7,1.7c0,1,0.8,1.7,1.7,1.7h0c0.5,0,0.9-0.2,1.2-0.5c0.3-0.3,0.5-0.8,0.5-1.2
		C155.7,96.5,154.9,95.7,154,95.7z"/>
	<path class="st12" d="M141.5,98.3c-0.5,0-0.8-0.4-0.8-0.8c0-0.5,0.4-0.8,0.8-0.8l9.7,0c0.5,0,0.8,0.4,0.8,0.8
		c0,0.5-0.4,0.8-0.8,0.8L141.5,98.3z"/>
</g>
<g>
	<path class="st12" d="M136.1,100.8c-0.3,0-0.6,0-0.9-0.1c-0.8-0.2-1.5-0.8-1.9-1.5c-0.8-1.5-0.3-3.4,1.2-4.3l0,0
		c1.5-0.8,3.4-0.3,4.3,1.2c0.8,1.5,0.3,3.4-1.2,4.3C137.1,100.6,136.6,100.8,136.1,100.8z M135.2,96.1c-0.8,0.5-1.1,1.5-0.7,2.4
		c0.2,0.4,0.6,0.7,1,0.8c0.4,0.1,0.9,0.1,1.3-0.2c0.8-0.5,1.1-1.5,0.7-2.4C137.1,95.9,136,95.6,135.2,96.1L135.2,96.1z"/>
	<path class="st12" d="M134.7,96.1c-0.3,0-0.6-0.2-0.7-0.4l-4.7-8.5c-0.2-0.4-0.1-0.9,0.3-1.1c0.4-0.2,0.9-0.1,1.1,0.3l4.7,8.5
		c0.2,0.4,0.1,0.9-0.3,1.1C134.9,96,134.8,96.1,134.7,96.1z"/>
</g>
<g>
	<path class="st12" d="M127.1,85.1c-0.6,0-1.2-0.2-1.7-0.5c-0.7-0.5-1.2-1.2-1.4-2c-0.2-0.8,0-1.7,0.4-2.4s1.2-1.2,2-1.4
		c0.8-0.2,1.7,0,2.4,0.4l0,0c1.5,0.9,1.9,2.9,1,4.3c-0.5,0.7-1.2,1.2-2,1.4C127.6,85.1,127.4,85.1,127.1,85.1z M127.2,80.2
		c-0.1,0-0.2,0-0.4,0c-0.5,0.1-0.8,0.4-1.1,0.8c-0.2,0.4-0.3,0.9-0.2,1.3c0.1,0.5,0.4,0.8,0.8,1.1c0.4,0.2,0.9,0.3,1.3,0.2
		c0.5-0.1,0.8-0.4,1.1-0.8c0.5-0.8,0.3-1.9-0.5-2.4C127.8,80.3,127.5,80.2,127.2,80.2z"/>
	<path class="st12" d="M128.6,80.5c-0.2,0-0.3,0-0.4-0.1c-0.4-0.2-0.5-0.8-0.3-1.1l5.2-8.2c0.2-0.4,0.8-0.5,1.1-0.3
		c0.4,0.2,0.5,0.8,0.3,1.1l-5.2,8.2C129.1,80.3,128.9,80.5,128.6,80.5z"/>
</g>
<g>
	<path class="st12" d="M139.2,82.7C139.2,82.7,139.2,82.7,139.2,82.7c-0.4,0-0.7-0.4-0.7-0.8c0.4-6.4,6.5-6.3,6.6-6.3
		c0.4,0,0.7,0.3,0.7,0.7c0,0.4-0.3,0.7-0.7,0.7l0,0c-0.2,0-4.8,0-5.1,5C139.9,82.5,139.6,82.7,139.2,82.7z"/>
	<path class="st12" d="M136.1,83.1C136,83.1,136,83.1,136.1,83.1c-0.4,0-0.7-0.3-0.7-0.7c0.1-3.1,1.1-5.6,2.9-7.3
		c2.8-2.7,6.7-2.6,6.8-2.6c0.4,0,0.7,0.3,0.7,0.7c0,0.4-0.3,0.7-0.7,0.7c-0.3,0-8-0.1-8.3,8.5C136.8,82.8,136.4,83.1,136.1,83.1z"/>
</g>
<g>
	<path class="st12" d="M144.8,88.4C144.8,88.4,144.8,88.4,144.8,88.4c-0.4,0-0.7-0.3-0.7-0.7c0-0.4,0.3-0.7,0.7-0.7c0,0,0,0,0,0
		c0.2,0,4.8-0.1,5.1-5c0-0.4,0.4-0.7,0.7-0.7c0.4,0,0.7,0.4,0.7,0.7C151,88.3,145,88.4,144.8,88.4z"/>
	<path class="st12" d="M144.9,91.6C144.9,91.6,144.8,91.6,144.9,91.6c-0.5,0-0.8-0.3-0.8-0.7c0-0.4,0.3-0.7,0.7-0.7l0,0
		c0.3,0,8,0.1,8.2-8.5c0-0.4,0.3-0.7,0.7-0.7c0,0,0,0,0,0c0.4,0,0.7,0.3,0.7,0.7c-0.1,3.1-1,5.6-2.9,7.3
		C149,91.5,145.5,91.6,144.9,91.6z"/>
</g>
<g>
	<rect x="195.2" y="2.4" class="st0" width="1.3" height="1.3"/>
	<rect x="197.8" y="2.4" class="st0" width="1.3" height="1.3"/>
	<rect x="200.4" y="2.4" class="st0" width="1.3" height="1.3"/>
	<rect x="203.1" y="2.4" class="st0" width="1.3" height="1.3"/>
	<rect x="224.1" y="18.2" class="st0" width="1.3" height="1.3"/>
	<rect x="224.1" y="20.8" class="st0" width="1.3" height="1.3"/>
	<rect x="192.6" y="2.4" class="st0" width="1.3" height="1.3"/>
	<rect x="192.6" y="5" class="st0" width="1.3" height="1.3"/>
	<rect x="200.4" y="26" class="st0" width="1.3" height="1.3"/>
	<path class="st0" d="M216.2,23.4v-6.6h9.2V2.4h-19.7v5.3H186v15.8v1.3V30h10.5v2.4l-1.9,2.8h13l-1.9-2.8V30h2.6v7.9H228V23.4H216.2
		z M207,3.7h17.1v11.8H207V3.7z M187.3,9h18.4v3.3h-3.3v1.3h3.3v1.3h-3.3v1.3h3.3v0.7h9.2v6.6h-6.6h-21V9z M205.1,33.9h-8l0.7-1.1
		V30h6.6v2.8L205.1,33.9z M205.7,28.7h-1.3h-6.6h-1.3h-9.2v-3.9h21v3.9H205.7z M226.7,36.5h-17.1V24.7h17.1V36.5z"/>
</g>
<g>
	<path class="st0" d="M194.5,10.3c-3.3,0-5.9,2.6-5.9,5.9s2.6,5.9,5.9,5.9s5.9-2.6,5.9-5.9S197.8,10.3,194.5,10.3z M199.1,15.5h-1.3
		c-0.3-1.3-1.3-2.3-2.6-2.6v-1.3C197.2,11.9,198.8,13.5,199.1,15.5z M192.6,16.2c0-1.1,0.9-2,2-2s2,0.9,2,2s-0.9,2-2,2
		S192.6,17.3,192.6,16.2z M193.9,11.6V13c-1.5,0.3-2.6,1.6-2.6,3.2c0,0.7,0.2,1.3,0.5,1.8l-0.9,0.9c-0.6-0.8-0.9-1.7-0.9-2.7
		C189.9,13.9,191.7,12,193.9,11.6z M194.5,20.8c-1,0-2-0.3-2.7-0.9l0.9-0.9c0.5,0.3,1.1,0.5,1.8,0.5c1.6,0,2.9-1.1,3.2-2.6h1.3
		C198.8,19.1,196.8,20.8,194.5,20.8z"/>
	<rect x="202.4" y="17.5" class="st0" width="8.5" height="1.3"/>
	<rect x="202.4" y="20.1" class="st0" width="4.6" height="1.3"/>
	<polygon class="st0" points="211.9,11.6 215.3,11.6 216.6,9 219.7,9 222.4,6.3 221.4,5.4 219.2,7.7 215.8,7.7 214.5,10.3 
		211.3,10.3 209.6,12 209.6,5 208.3,5 208.3,14.2 222.8,14.2 222.8,12.9 210.6,12.9 	"/>
</g>
<polygon class="st0" points="221.5,27.7 221,28.2 223.4,30.6 221,33 221.5,33.6 224.5,30.6 "/>
<polygon class="st0" points="215.4,28.2 214.8,27.7 211.8,30.6 214.8,33.6 215.4,33 212.9,30.6 "/>
<rect x="214" y="30.2" transform="matrix(0.3711 -0.9286 0.9286 0.3711 108.7624 221.8385)" class="st0" width="8.3" height="0.8"/>
<path class="st14" d="M199.8,78.1c0,2.9-2.3,5.2-5.2,5.2c-1.4,0-2.8-0.6-3.7-1.5l1.9-1.9c0.5,0.5,1.1,0.8,1.9,0.8
	c1.4,0,2.6-1.2,2.6-2.6H199.8z"/>
<path class="st15" d="M194.5,72.9v2.6c-1.4,0-2.6,1.2-2.6,2.6c0,0.7,0.3,1.4,0.8,1.9l-1.9,1.9c-0.9-1-1.5-2.3-1.5-3.7
	C189.3,75.2,191.6,72.9,194.5,72.9z"/>
<path class="st16" d="M199.8,78.1h-2.6c0-1.4-1.2-2.6-2.6-2.6v-2.6C197.4,72.9,199.8,75.2,199.8,78.1z"/>
<rect x="209" y="86" class="st16" width="18.4" height="13.1"/>
<polygon class="st14" points="222.1,68.3 222.1,75.5 209.6,75.5 212.2,72.9 215.5,72.9 216.8,70.3 220.1,70.3 "/>
<g>
	<rect x="195.2" y="64.4" class="st17" width="1.3" height="1.3"/>
	<rect x="197.8" y="64.4" class="st17" width="1.3" height="1.3"/>
	<rect x="200.4" y="64.4" class="st17" width="1.3" height="1.3"/>
	<rect x="203.1" y="64.4" class="st17" width="1.3" height="1.3"/>
	<rect x="224.1" y="80.1" class="st17" width="1.3" height="1.3"/>
	<rect x="224.1" y="82.7" class="st17" width="1.3" height="1.3"/>
	<rect x="192.6" y="64.4" class="st17" width="1.3" height="1.3"/>
	<rect x="192.6" y="67" class="st17" width="1.3" height="1.3"/>
	<rect x="200.4" y="88" class="st17" width="1.3" height="1.3"/>
	<path class="st17" d="M216.2,85.4v-6.6h9.2V64.4h-19.7v5.2H186v15.7v1.3v5.2h10.5v2.4l-1.9,2.8h12.9l-1.9-2.8v-2.4h2.6v7.9H228
		V85.4H216.2z M207,65.7h17.1v11.8H207V65.7z M187.3,70.9h18.4v3.3h-3.3v1.3h3.3v1.3h-3.3v1.3h3.3v0.7h9.2v6.6h-6.6h-21V70.9z
		 M205.1,95.9h-8l0.7-1.1v-2.8h6.6v2.8L205.1,95.9z M205.7,90.6h-1.3h-6.6h-1.3h-9.2v-3.9h21v3.9H205.7z M226.7,98.5h-17.1V86.7
		h17.1V98.5z"/>
</g>
<g>
	<path class="st17" d="M194.5,72.2c-3.3,0-5.9,2.6-5.9,5.9s2.6,5.9,5.9,5.9s5.9-2.6,5.9-5.9S197.8,72.2,194.5,72.2z M199.1,77.5
		h-1.3c-0.3-1.3-1.3-2.3-2.6-2.6v-1.3C197.2,73.9,198.8,75.5,199.1,77.5z M192.6,78.1c0-1.1,0.9-2,2-2s2,0.9,2,2c0,1.1-0.9,2-2,2
		S192.6,79.2,192.6,78.1z M193.9,73.6v1.3c-1.5,0.3-2.6,1.6-2.6,3.2c0,0.7,0.2,1.3,0.5,1.8l-0.9,0.9c-0.6-0.8-0.9-1.7-0.9-2.7
		C189.9,75.8,191.7,73.9,193.9,73.6z M194.5,82.7c-1,0-2-0.3-2.7-0.9l0.9-0.9c0.5,0.3,1.1,0.5,1.8,0.5c1.6,0,2.9-1.1,3.2-2.6h1.3
		C198.8,81,196.8,82.7,194.5,82.7z"/>
	<rect x="202.4" y="79.5" class="st17" width="8.5" height="1.3"/>
	<rect x="202.4" y="82.1" class="st17" width="4.6" height="1.3"/>
	<polygon class="st17" points="211.9,73.6 215.3,73.6 216.6,70.9 219.7,70.9 222.4,68.3 221.4,67.4 219.2,69.6 215.8,69.6 
		214.5,72.2 211.3,72.2 209.6,73.9 209.6,67 208.3,67 208.3,76.2 222.7,76.2 222.7,74.9 210.6,74.9 	"/>
</g>
<polygon class="st14" points="221.5,89.6 221,90.2 223.4,92.6 221,95 221.5,95.5 224.5,92.6 "/>
<polygon class="st14" points="215.3,90.2 214.8,89.6 211.8,92.6 214.8,95.5 215.3,95 212.9,92.6 "/>
<rect x="214" y="92.2" transform="matrix(0.3711 -0.9286 0.9286 0.3711 51.229 260.8004)" class="st14" width="8.3" height="0.8"/>
<path class="st0" d="M268.1,23.2c-0.1-0.2-0.3-0.4-0.5-0.4c-0.1,0-0.2,0-0.2,0h-1.4v-4.1c0-0.5-0.4-0.9-0.9-0.9h-4.4
	c-0.5,0-0.9,0.4-0.9,0.9v4.1h-1.4c-0.3,0-0.6,0.2-0.8,0.5c-0.1,0.3-0.1,0.6,0.1,0.9l4.5,5.8c0.2,0.2,0.4,0.3,0.7,0.3
	s0.5-0.1,0.7-0.3l4.5-5.8c0.1-0.2,0.2-0.4,0.2-0.6C268.2,23.4,268.2,23.3,268.1,23.2z M262.9,28l-2.8-3.6h0.6c0.5,0,0.9-0.4,0.9-0.9
	v-4.1h2.7v4.1c0,0.5,0.4,0.9,0.9,0.9h0.6L262.9,28z"/>
<path class="st0" d="M282.5,17.6c0-0.2,0-0.4,0-0.5c0-3.1-2.5-5.5-5.5-5.5c-0.9,0-1.7,0.2-2.5,0.6c-0.8-3.2-3.7-5.6-7.2-5.6
	c-4,0-7.2,3.1-7.4,7.1c-0.6-0.1-1.2-0.2-1.8-0.2c-5.6,0-10.1,4.5-10.1,10.1s4.5,10.1,10.1,10.1H282c4.4,0,8-3.6,8-8
	C290,21.4,286.7,17.9,282.5,17.6z M282,32h-23.9c-4.6,0-8.4-3.8-8.4-8.4s3.8-8.4,8.4-8.4c0.8,0,1.7,0.1,2.5,0.4
	c0.3,0.1,0.6,0,0.8-0.2c0.2-0.2,0.3-0.5,0.3-0.8c0-0.2,0-0.5,0-0.7c0-3.1,2.6-5.7,5.7-5.7c3,0,5.5,2.4,5.7,5.4
	c0,0.3,0.2,0.6,0.5,0.7c0.3,0.1,0.7,0.1,0.9-0.2c0.7-0.6,1.6-1,2.6-1c2.1,0,3.8,1.7,3.8,3.8c0,0.4-0.1,0.8-0.2,1.1
	c-0.1,0.3,0,0.6,0.1,0.8c0.2,0.2,0.4,0.3,0.7,0.3c0.2,0,0.3,0,0.4,0c3.5,0,6.3,2.8,6.3,6.3C288.3,29.1,285.5,32,282,32z"/>
<path class="st0" d="M275.8,18.1c-0.2-0.2-0.4-0.3-0.7-0.3c-0.2,0-0.5,0.1-0.6,0.3c0,0,0,0-0.1,0.1l-4.5,5.8
	c-0.2,0.3-0.2,0.6-0.1,0.9c0.1,0.3,0.4,0.5,0.8,0.5h1.4v4.1c0,0.5,0.4,0.9,0.9,0.9h4.4c0.5,0,0.9-0.4,0.9-0.9v-4.1h1.4
	c0.3,0,0.6-0.2,0.8-0.5c0.1-0.3,0.1-0.6-0.1-0.9L275.8,18.1z M277.3,23.6c-0.5,0-0.9,0.4-0.9,0.9v4.1h-2.7v-4.1
	c0-0.5-0.4-0.9-0.9-0.9h-0.6l2.8-3.6l2.8,3.6H277.3z"/>
<path class="st0" d="M253.7,26.1c-0.2-0.4-0.7-0.6-1.2-0.4c-0.4,0.2-0.6,0.7-0.4,1.2c0.3,0.7,0.8,1.3,1.3,1.8
	c0.2,0.2,0.4,0.3,0.6,0.3s0.4-0.1,0.6-0.3c0.3-0.3,0.3-0.9,0-1.2C254.3,27.1,253.9,26.6,253.7,26.1z"/>
<path class="st0" d="M253.5,18.1c-1.7,1.7-2.5,4.2-2.1,6.6c0.1,0.4,0.4,0.7,0.8,0.7c0,0,0.1,0,0.1,0c0.5-0.1,0.8-0.5,0.7-1
	c-0.3-1.8,0.3-3.7,1.6-5.1c0.3-0.3,0.3-0.9,0-1.2C254.4,17.8,253.8,17.8,253.5,18.1z"/>
<path class="st15" d="M282,80.4c4,0,7.2,3.2,7.2,7.2c0,4-3.2,7.2-7.2,7.2h-23.9c-5.1,0-9.2-4.1-9.2-9.2c0-5.1,4.1-9.2,9.2-9.2
	c0.9,0,1.9,0.1,2.7,0.4c0-0.3,0-0.5,0-0.8c0-3.6,2.9-6.5,6.5-6.5c3.5,0,6.4,2.7,6.5,6.2c0.8-0.7,1.9-1.2,3.1-1.2
	c2.6,0,4.7,2.1,4.7,4.7c0,0.5-0.1,0.9-0.2,1.4C281.6,80.4,281.8,80.4,282,80.4L282,80.4z"/>
<path class="st11" d="M282,90.5h-23.9c-4.4,0-8-3-9-7.1c-0.2,0.7-0.2,1.4-0.2,2.1c0,5.1,4.1,9.2,9.2,9.2H282c4,0,7.2-3.2,7.2-7.2
	c0-0.7-0.1-1.5-0.3-2.1C287.9,88.4,285.2,90.5,282,90.5z"/>
<g>
	<polygon class="st14" points="279.6,86.5 275.1,80.6 270.6,86.5 272.9,86.5 272.9,91.4 277.3,91.4 277.3,86.5 	"/>
	<polygon class="st14" points="262.9,91.4 267.4,85.5 265.1,85.5 265.1,80.6 260.7,80.6 260.7,85.5 258.4,85.5 	"/>
</g>
<path class="st18" d="M262.9,91.4"/>
<path class="st17" d="M268.1,85.1c-0.1-0.2-0.3-0.4-0.5-0.4c-0.1,0-0.2,0-0.2,0h-1.4v-4.1c0-0.5-0.4-0.9-0.9-0.9h-4.4
	c-0.5,0-0.9,0.4-0.9,0.9v4.1h-1.4c-0.3,0-0.6,0.2-0.8,0.5s-0.1,0.6,0.1,0.9l4.5,5.8c0.2,0.2,0.4,0.3,0.7,0.3s0.5-0.1,0.7-0.3
	l4.5-5.8c0.1-0.2,0.2-0.4,0.2-0.6C268.2,85.4,268.2,85.3,268.1,85.1z M262.9,90l-2.8-3.6h0.6c0.5,0,0.9-0.4,0.9-0.9v-4.1h2.7v4.1
	c0,0.5,0.4,0.9,0.9,0.9h0.6L262.9,90z"/>
<path class="st17" d="M282.5,79.6c0-0.2,0-0.4,0-0.5c0-3.1-2.5-5.5-5.5-5.5c-0.9,0-1.7,0.2-2.5,0.6c-0.8-3.2-3.7-5.6-7.2-5.6
	c-4,0-7.2,3.1-7.4,7.1c-0.6-0.1-1.2-0.2-1.8-0.2c-5.6,0-10.1,4.5-10.1,10.1s4.5,10.1,10.1,10.1H282c4.4,0,8-3.6,8-8
	C290,83.4,286.7,79.9,282.5,79.6z M282,93.9h-23.9c-4.6,0-8.4-3.8-8.4-8.4c0-4.6,3.8-8.4,8.4-8.4c0.8,0,1.7,0.1,2.5,0.4
	c0.3,0.1,0.6,0,0.8-0.2c0.2-0.2,0.3-0.5,0.3-0.8c0-0.2,0-0.5,0-0.7c0-3.1,2.6-5.7,5.7-5.7c3,0,5.5,2.4,5.7,5.4
	c0,0.3,0.2,0.6,0.5,0.7c0.3,0.1,0.7,0.1,0.9-0.2c0.7-0.6,1.6-1,2.6-1c2.1,0,3.8,1.7,3.8,3.8c0,0.4-0.1,0.8-0.2,1.1
	c-0.1,0.3,0,0.6,0.1,0.8c0.2,0.2,0.4,0.3,0.7,0.3c0.2,0,0.3,0,0.4,0c3.5,0,6.3,2.8,6.3,6.3C288.3,91.1,285.5,93.9,282,93.9z"/>
<path class="st17" d="M275.8,80.1c-0.2-0.2-0.4-0.3-0.7-0.3c-0.2,0-0.5,0.1-0.6,0.3c0,0,0,0-0.1,0.1l-4.5,5.8
	c-0.2,0.3-0.2,0.6-0.1,0.9s0.4,0.5,0.8,0.5h1.4v4.1c0,0.5,0.4,0.9,0.9,0.9h4.4c0.5,0,0.9-0.4,0.9-0.9v-4.1h1.4
	c0.3,0,0.6-0.2,0.8-0.5c0.1-0.3,0.1-0.6-0.1-0.9L275.8,80.1z M277.3,85.6c-0.5,0-0.9,0.4-0.9,0.9v4.1h-2.7v-4.1
	c0-0.5-0.4-0.9-0.9-0.9h-0.6l2.8-3.6l2.8,3.6H277.3z"/>
<path class="st17" d="M253.7,88.1c-0.2-0.4-0.7-0.6-1.2-0.4c-0.4,0.2-0.6,0.7-0.4,1.2c0.3,0.7,0.8,1.3,1.3,1.8
	c0.2,0.2,0.4,0.3,0.6,0.3s0.4-0.1,0.6-0.3c0.3-0.3,0.3-0.9,0-1.2C254.3,89.1,253.9,88.6,253.7,88.1z"/>
<path class="st17" d="M253.5,80.1c-1.7,1.7-2.5,4.2-2.1,6.6c0.1,0.4,0.4,0.7,0.8,0.7c0,0,0.1,0,0.1,0c0.5-0.1,0.8-0.5,0.7-1
	c-0.3-1.8,0.3-3.7,1.6-5.1c0.3-0.3,0.3-0.9,0-1.2C254.4,79.8,253.8,79.8,253.5,80.1z"/>
<g>
	<path class="st0" d="M3.6,123.1c-2,0-3.6,1.6-3.6,3.6v34.8c0,2,1.6,3.6,3.6,3.6h34.8c2,0,3.6-1.6,3.6-3.6v-34.8
		c0-2-1.6-3.6-3.6-3.6H3.6z M3.6,124.5h34.8c1.2,0,2.2,1,2.2,2.2v34.8c0,1.2-1,2.2-2.2,2.2H3.6c-1.2,0-2.2-1-2.2-2.2v-34.8
		C1.4,125.5,2.4,124.5,3.6,124.5L3.6,124.5z M5.1,126c-1.2,0-2.2,1-2.2,2.2v7.2c0,1.2,1,2.2,2.2,2.2h31.9c1.2,0,2.2-1,2.2-2.2v-7.2
		c0-1.2-1-2.2-2.2-2.2H5.1z M5.1,127.4h31.9c0.4,0,0.7,0.3,0.7,0.7v7.2c0,0.4-0.3,0.7-0.7,0.7H5.1c-0.4,0-0.7-0.3-0.7-0.7v-7.2
		C4.3,127.7,4.7,127.4,5.1,127.4L5.1,127.4z M5.8,128.5c-0.2,0-0.4,0.2-0.4,0.4v4.3c0,0.2,0.2,0.4,0.4,0.4c0.2,0,0.4-0.2,0.4-0.4v-4
		h3.3c0.2,0,0.4-0.2,0.4-0.4c0-0.2-0.2-0.4-0.4-0.4H5.8z M13.8,131c-0.4,0-0.7,0.3-0.7,0.7c0,0.4,0.3,0.7,0.7,0.7c0,0,0,0,0,0h14.5
		c0.4,0,0.7-0.3,0.7-0.7c0-0.4-0.3-0.7-0.7-0.7c0,0,0,0,0,0H13.8z M5.1,138.3c-1.2,0-2.2,1-2.2,2.2v7.2c0,1.2,1,2.2,2.2,2.2h31.9
		c1.2,0,2.2-1,2.2-2.2v-7.2c0-1.2-1-2.2-2.2-2.2H5.1z M5.1,139.7h31.9c0.4,0,0.7,0.3,0.7,0.7v7.2c0,0.4-0.3,0.7-0.7,0.7H5.1
		c-0.4,0-0.7-0.3-0.7-0.7v-7.2C4.3,140,4.7,139.7,5.1,139.7L5.1,139.7z M5.8,140.8c-0.2,0-0.4,0.2-0.4,0.4v4.3
		c0,0.2,0.2,0.4,0.4,0.4c0.2,0,0.4-0.2,0.4-0.4v-4h3.3c0.2,0,0.4-0.2,0.4-0.4c0-0.2-0.2-0.4-0.4-0.4H5.8z M13.8,143.4
		c-0.4,0-0.7,0.3-0.7,0.7c0,0.4,0.3,0.7,0.7,0.7c0,0,0,0,0,0h14.5c0.4,0,0.7-0.3,0.7-0.7c0-0.4-0.3-0.7-0.7-0.7c0,0,0,0,0,0H13.8z
		 M5.1,150.6c-1.2,0-2.2,1-2.2,2.2v7.2c0,1.2,1,2.2,2.2,2.2h31.9c1.2,0,2.2-1,2.2-2.2v-7.2c0-1.2-1-2.2-2.2-2.2H5.1z M5.1,152h31.9
		c0.4,0,0.7,0.3,0.7,0.7v7.2c0,0.4-0.3,0.7-0.7,0.7H5.1c-0.4,0-0.7-0.3-0.7-0.7v-7.2C4.3,152.4,4.7,152,5.1,152L5.1,152z M5.8,153.1
		c-0.2,0-0.4,0.2-0.4,0.4v4.3c0,0.2,0.2,0.4,0.4,0.4c0.2,0,0.4-0.2,0.4-0.4v-4h3.3c0.2,0,0.4-0.2,0.4-0.4c0-0.2-0.2-0.4-0.4-0.4H5.8
		z M13.8,155.7c-0.4,0-0.7,0.3-0.7,0.7c0,0.4,0.3,0.7,0.7,0.7c0,0,0,0,0,0h14.5c0.4,0,0.7-0.3,0.7-0.7c0-0.4-0.3-0.7-0.7-0.7
		c0,0,0,0,0,0H13.8z M13.8,155.7"/>
</g>
<rect x="1.2" y="186.2" class="st11" width="39.7" height="39.7"/>
<rect x="3.8" y="201" class="st13" width="34.3" height="10"/>
<rect x="3.8" y="188.8" class="st14" width="34.3" height="10"/>
<rect x="3.8" y="213.4" class="st14" width="34.3" height="10"/>
<path class="st12" d="M3.6,185.1c-2,0-3.6,1.6-3.6,3.6v34.8c0,2,1.6,3.6,3.6,3.6h34.8c2,0,3.6-1.6,3.6-3.6v-34.8
	c0-2-1.6-3.6-3.6-3.6H3.6z M3.6,186.5h34.8c1.2,0,2.2,1,2.2,2.2v34.8c0,1.2-1,2.2-2.2,2.2H3.6c-1.2,0-2.2-1-2.2-2.2v-34.8
	C1.4,187.5,2.4,186.5,3.6,186.5L3.6,186.5z M5.1,188c-1.2,0-2.2,1-2.2,2.2v7.2c0,1.2,1,2.2,2.2,2.2h31.9c1.2,0,2.2-1,2.2-2.2v-7.2
	c0-1.2-1-2.2-2.2-2.2H5.1z M5.1,189.4h31.9c0.4,0,0.7,0.3,0.7,0.7v7.2c0,0.4-0.3,0.7-0.7,0.7H5.1c-0.4,0-0.7-0.3-0.7-0.7v-7.2
	C4.3,189.7,4.7,189.4,5.1,189.4L5.1,189.4z M5.8,190.5c-0.2,0-0.4,0.2-0.4,0.4v4.3c0,0.2,0.2,0.4,0.4,0.4c0.2,0,0.4-0.2,0.4-0.4v-4
	h3.3c0.2,0,0.4-0.2,0.4-0.4c0-0.2-0.2-0.4-0.4-0.4H5.8z M13.8,193c-0.4,0-0.7,0.3-0.7,0.7c0,0.4,0.3,0.7,0.7,0.7c0,0,0,0,0,0h14.5
	c0.4,0,0.7-0.3,0.7-0.7c0-0.4-0.3-0.7-0.7-0.7c0,0,0,0,0,0H13.8z M5.1,200.3c-1.2,0-2.2,1-2.2,2.2v7.2c0,1.2,1,2.2,2.2,2.2h31.9
	c1.2,0,2.2-1,2.2-2.2v-7.2c0-1.2-1-2.2-2.2-2.2H5.1z M5.1,201.7h31.9c0.4,0,0.7,0.3,0.7,0.7v7.2c0,0.4-0.3,0.7-0.7,0.7H5.1
	c-0.4,0-0.7-0.3-0.7-0.7v-7.2C4.3,202,4.7,201.7,5.1,201.7L5.1,201.7z M5.8,202.8c-0.2,0-0.4,0.2-0.4,0.4v4.3c0,0.2,0.2,0.4,0.4,0.4
	c0.2,0,0.4-0.2,0.4-0.4v-4h3.3c0.2,0,0.4-0.2,0.4-0.4c0-0.2-0.2-0.4-0.4-0.4H5.8z M13.8,205.4c-0.4,0-0.7,0.3-0.7,0.7
	c0,0.4,0.3,0.7,0.7,0.7c0,0,0,0,0,0h14.5c0.4,0,0.7-0.3,0.7-0.7c0-0.4-0.3-0.7-0.7-0.7c0,0,0,0,0,0H13.8z M5.1,212.6
	c-1.2,0-2.2,1-2.2,2.2v7.2c0,1.2,1,2.2,2.2,2.2h31.9c1.2,0,2.2-1,2.2-2.2v-7.2c0-1.2-1-2.2-2.2-2.2H5.1z M5.1,214h31.9
	c0.4,0,0.7,0.3,0.7,0.7v7.2c0,0.4-0.3,0.7-0.7,0.7H5.1c-0.4,0-0.7-0.3-0.7-0.7v-7.2C4.3,214.4,4.7,214,5.1,214L5.1,214z M5.8,215.1
	c-0.2,0-0.4,0.2-0.4,0.4v4.3c0,0.2,0.2,0.4,0.4,0.4c0.2,0,0.4-0.2,0.4-0.4v-4h3.3c0.2,0,0.4-0.2,0.4-0.4c0-0.2-0.2-0.4-0.4-0.4H5.8z
	 M13.8,217.7c-0.4,0-0.7,0.3-0.7,0.7c0,0.4,0.3,0.7,0.7,0.7c0,0,0,0,0,0h14.5c0.4,0,0.7-0.3,0.7-0.7c0-0.4-0.3-0.7-0.7-0.7
	c0,0,0,0,0,0H13.8z M13.8,217.7"/>
<g>
	<g>
		<path class="st0" d="M68.8,139.3c0-0.5-0.1-1-0.3-1.4l12.2-8.9c0.6,0.5,1.4,0.9,2.2,0.9c0.6,0,1.2-0.2,1.7-0.5l4.2,4
			c-0.3,0.5-0.6,1.2-0.6,1.8c0,1.8,1.5,3.4,3.4,3.4c1.8,0,3.4-1.5,3.4-3.4c0-0.7-0.2-1.3-0.6-1.8l4.2-4c0.5,0.3,1.1,0.5,1.7,0.5
			c1.8,0,3.4-1.5,3.4-3.4c0-1.8-1.5-3.4-3.4-3.4c-1.8,0-3.4,1.5-3.4,3.4c0,0.7,0.3,1.4,0.7,2l-4.2,3.9c-0.5-0.4-1.2-0.6-1.9-0.6
			c-0.7,0-1.3,0.2-1.9,0.6l-4.2-3.9c0.4-0.6,0.7-1.2,0.7-2c0-1.8-1.5-3.4-3.4-3.4s-3.4,1.5-3.4,3.4c0,0.5,0.1,1,0.3,1.4l-12.2,8.9
			c-0.6-0.5-1.4-0.9-2.2-0.9c-1.8,0-3.4,1.5-3.4,3.4s1.5,3.4,3.4,3.4C67.3,142.6,68.8,141.1,68.8,139.3z M100.3,124.5
			c1.1,0,2,0.9,2,2c0,1.1-0.9,2-2,2c-1.1,0-2-0.9-2-2C98.3,125.4,99.2,124.5,100.3,124.5z M91.6,133.3c1.1,0,2,0.9,2,2s-0.9,2-2,2
			c-1.1,0-2-0.9-2-2S90.5,133.3,91.6,133.3z M82.9,124.5c1.1,0,2,0.9,2,2c0,1.1-0.9,2-2,2c-1.1,0-2-0.9-2-2
			C80.9,125.4,81.8,124.5,82.9,124.5z M65.5,141.3c-1.1,0-2-0.9-2-2s0.9-2,2-2c1.1,0,2,0.9,2,2S66.6,141.3,65.5,141.3z"/>
		<path class="st0" d="M93.2,139.7c1.7,1.8,2.9,4,3.5,6.5l1.3-0.3c-0.6-2.6-1.9-5.1-3.8-7.1L93.2,139.7z"/>
		<path class="st0" d="M85,163.3c1.1-1,2.6-2.6,3.7-4.9c0.4,0.2,0.8,0.3,1.2,0.5l0.6-1.2c-0.4-0.2-0.8-0.4-1.2-0.5
			c0.9-2,1.5-4.4,1.6-7.2h1.4v-1.3h-1.4c-0.1-2.8-0.7-5.2-1.6-7.2c0.8-0.3,1.5-0.6,2.1-1l-0.7-1.2c-0.5,0.3-1.2,0.6-2,0.9
			c-1.2-2.2-2.6-3.8-3.7-4.9c0.7,0.1,1.4,0.3,2.1,0.5l0.4-1.3c-1.5-0.5-3-0.7-4.6-0.7c-8.5,0-15.4,6.9-15.4,15.4
			c0,8.5,6.9,15.4,15.4,15.4c2.7,0,5.4-0.7,7.8-2.1l-0.7-1.2C88.5,162.4,86.8,163,85,163.3z M82.2,136v5.3c-1.5-0.1-2.7-0.3-3.8-0.6
			C79.7,138.4,81.2,136.8,82.2,136z M77.1,140.3c-1.6-0.6-2.6-1.3-3.2-1.7c1.9-1.6,4.3-2.7,6.9-3.1
			C79.7,136.5,78.2,138.1,77.1,140.3z M82.2,142.6v6.1h-6c0.1-2.6,0.7-4.9,1.6-6.7C79,142.3,80.5,142.6,82.2,142.6z M82.2,150v6.1
			c-1.7,0.1-3.2,0.3-4.5,0.7c-0.8-1.9-1.5-4.1-1.6-6.7L82.2,150L82.2,150z M82.2,157.4v5.3c-1-0.9-2.6-2.4-3.8-4.8
			C79.5,157.7,80.8,157.5,82.2,157.4z M80.8,163.3c-2.6-0.4-5-1.5-6.9-3.1c0.6-0.4,1.7-1.1,3.2-1.7
			C78.2,160.6,79.7,162.2,80.8,163.3z M83.6,162.7v-5.3c1.3,0,2.6,0.2,3.8,0.6C86.1,160.3,84.6,161.9,83.6,162.7z M88,156.8
			c-1.4-0.4-2.9-0.6-4.5-0.7V150h6C89.5,152.7,88.9,154.9,88,156.8z M89.6,148.7h-6v-6.1c1.7-0.1,3.2-0.3,4.5-0.7
			C88.9,143.8,89.5,146,89.6,148.7z M87.4,140.7c-1.1,0.3-2.4,0.5-3.8,0.6V136C84.6,136.8,86.1,138.4,87.4,140.7z M72.8,139.5
			c0.6,0.5,1.8,1.3,3.6,2c-0.9,2-1.5,4.4-1.6,7.2h-6C69,145.1,70.5,141.9,72.8,139.5z M68.9,150h6c0.1,2.8,0.7,5.2,1.6,7.2
			c-1.8,0.7-3,1.5-3.6,2C70.5,156.8,69,153.6,68.9,150z"/>
	</g>
	<path class="st0" d="M98.8,148.3L98.8,148.3H97c-3,0.4-5.3,3.1-5.3,6.1v4.4c0,3.4,2.8,6.2,6.2,6.2s6.2-2.8,6.2-6.2v-4.4
		C104.1,151.3,101.8,148.7,98.8,148.3z M97.9,157.2c1,0,1.8-0.8,1.8-1.8V155h3v3.7c0,2.6-2.2,4.8-4.8,4.8c-2.6,0-4.8-2.2-4.8-4.8
		V155h3v0.4C96.2,156.4,97,157.2,97.9,157.2z M97.5,153.3c0-0.2,0.2-0.4,0.4-0.4s0.4,0.2,0.4,0.4v2.2c0,0.2-0.2,0.4-0.4,0.4
		s-0.4-0.2-0.4-0.4V153.3z M99.7,153.7v-0.4c0-1-0.8-1.8-1.8-1.8c-1,0-1.8,0.8-1.8,1.8v0.4h-3c0.3-2.4,2.4-4.1,4.8-4.1
		c2.4,0,4.4,1.8,4.8,4.1H99.7z"/>
</g>
<g>
	<circle class="st19" cx="65.3" cy="201.3" r="2.5"/>
	<circle class="st19" cx="91.7" cy="197.4" r="2.5"/>
	<circle class="st3" cx="82.8" cy="188.6" r="2.3"/>
	<circle class="st3" cx="100.3" cy="188.6" r="2.3"/>
	<rect x="96.8" y="214.5" class="st4" width="2.1" height="3.8"/>
	<g>
		<path class="st4" d="M75.4,211.6c0-2.1,0-5.8,2.5-9.5c2.1-3.1,4.8-4.6,6.1-5.2c-0.1,0-0.2,0-0.3,0c0,0-0.2,0-0.3,0
			c-0.1,0-4.5,0.1-7.7,1.9c-3.4,1.8-7.6,6.5-7.7,12.5c-0.1,9,9,15.5,15.4,15.3c0.2,0,0.4,0,0.6,0c-0.7-0.2-1.5-0.6-2.5-1.2
			C75.9,221.6,75.4,213.9,75.4,211.6z"/>
	</g>
	<g>
		<path class="st6" d="M68.7,201.3c0-0.5-0.1-1-0.3-1.4l12.2-8.9c0.6,0.5,1.4,0.9,2.2,0.9c0.6,0,1.2-0.2,1.7-0.5l4.2,4
			c-0.3,0.5-0.6,1.2-0.6,1.8c0,1.8,1.5,3.4,3.4,3.4c1.8,0,3.4-1.5,3.4-3.4c0-0.7-0.2-1.3-0.6-1.8l4.2-4c0.5,0.3,1.1,0.5,1.7,0.5
			c1.8,0,3.4-1.5,3.4-3.4s-1.5-3.4-3.4-3.4s-3.4,1.5-3.4,3.4c0,0.7,0.3,1.4,0.7,2l-4.2,3.9c-0.5-0.4-1.2-0.6-1.9-0.6
			c-0.7,0-1.3,0.2-1.9,0.6l-4.2-3.9c0.4-0.6,0.7-1.2,0.7-2c0-1.8-1.5-3.4-3.4-3.4c-1.8,0-3.4,1.5-3.4,3.4c0,0.5,0.1,1,0.3,1.4
			l-12.2,8.9c-0.6-0.5-1.4-0.9-2.2-0.9c-1.8,0-3.4,1.5-3.4,3.4c0,1.8,1.5,3.4,3.4,3.4S68.7,203.2,68.7,201.3z M100.2,186.6
			c1.1,0,2,0.9,2,2s-0.9,2-2,2c-1.1,0-2-0.9-2-2S99.1,186.6,100.2,186.6z M91.5,195.3c1.1,0,2,0.9,2,2c0,1.1-0.9,2-2,2
			c-1.1,0-2-0.9-2-2C89.5,196.2,90.4,195.3,91.5,195.3z M82.8,186.6c1.1,0,2,0.9,2,2s-0.9,2-2,2c-1.1,0-2-0.9-2-2
			S81.7,186.6,82.8,186.6z M65.4,203.3c-1.1,0-2-0.9-2-2c0-1.1,0.9-2,2-2c1.1,0,2,0.9,2,2C67.4,202.4,66.5,203.3,65.4,203.3z"/>
		<path class="st6" d="M93,201.7c1.7,1.8,2.9,4,3.5,6.5l1.3-0.3c-0.6-2.6-1.9-5.1-3.8-7.1L93,201.7z"/>
		<path class="st6" d="M84.9,225.3c1.1-1,2.6-2.6,3.7-4.9c0.4,0.2,0.8,0.3,1.2,0.5l0.6-1.2c-0.4-0.2-0.8-0.4-1.2-0.5
			c0.9-2,1.5-4.4,1.6-7.2h1.4v-1.3h-1.4c-0.1-2.8-0.7-5.2-1.6-7.2c0.8-0.3,1.5-0.6,2.1-1l-0.7-1.2c-0.5,0.3-1.2,0.6-2,0.9
			c-1.2-2.2-2.6-3.8-3.7-4.9c0.7,0.1,1.4,0.3,2.1,0.5l0.4-1.3c-1.5-0.5-3-0.7-4.6-0.7c-8.5,0-15.4,6.9-15.4,15.4s6.9,15.4,15.4,15.4
			c2.7,0,5.4-0.7,7.8-2.1l-0.7-1.2C88.4,224.5,86.7,225,84.9,225.3z M82.1,198v5.3c-1.5-0.1-2.7-0.3-3.8-0.6
			C79.6,200.4,81.1,198.9,82.1,198z M77,202.3c-1.6-0.6-2.6-1.3-3.2-1.7c1.9-1.6,4.3-2.7,6.9-3.1C79.6,198.5,78.1,200.1,77,202.3z
			 M82.1,204.7v6.1h-6c0.1-2.6,0.7-4.9,1.6-6.7C78.9,204.3,80.4,204.6,82.1,204.7z M82.1,212.1v6.1c-1.7,0.1-3.2,0.3-4.5,0.7
			c-0.8-1.9-1.5-4.1-1.6-6.7L82.1,212.1L82.1,212.1z M82.1,219.5v5.3c-1-0.9-2.6-2.4-3.8-4.8C79.4,219.7,80.7,219.5,82.1,219.5z
			 M80.7,225.3c-2.6-0.4-5-1.5-6.9-3.1c0.6-0.4,1.7-1.1,3.2-1.7C78.1,222.7,79.6,224.3,80.7,225.3z M83.5,224.8v-5.3
			c1.3,0,2.6,0.2,3.8,0.6C86,222.3,84.5,223.9,83.5,224.8z M87.9,218.8c-1.4-0.4-2.9-0.6-4.5-0.7v-6.1h6
			C89.4,214.7,88.8,216.9,87.9,218.8z M89.5,210.7h-6v-6.1c1.7-0.1,3.2-0.3,4.5-0.7C88.8,205.8,89.4,208.1,89.5,210.7z M87.3,202.7
			c-1.1,0.3-2.4,0.5-3.8,0.6V198C84.5,198.9,86,200.4,87.3,202.7z M72.7,201.5c0.6,0.5,1.8,1.3,3.6,2c-0.9,2-1.5,4.4-1.6,7.2h-6
			C68.9,207.1,70.4,203.9,72.7,201.5z M68.7,212.1h6c0.1,2.8,0.7,5.2,1.6,7.2c-1.8,0.7-3,1.5-3.6,2
			C70.4,218.8,68.9,215.6,68.7,212.1z"/>
	</g>
	<path class="st6" d="M98.7,210.3L98.7,210.3h-1.8c-3,0.4-5.3,3.1-5.3,6.1v4.4c0,3.4,2.8,6.2,6.2,6.2c3.4,0,6.2-2.8,6.2-6.2v-4.4
		C104,213.3,101.7,210.7,98.7,210.3z M97.8,219.3c1,0,1.8-0.8,1.8-1.8v-0.4h3v3.7c0,2.6-2.2,4.8-4.8,4.8c-2.6,0-4.8-2.2-4.8-4.8
		v-3.7h3v0.4C96,218.5,96.8,219.3,97.8,219.3z M97.4,215.3c0-0.2,0.2-0.4,0.4-0.4c0.2,0,0.4,0.2,0.4,0.4v2.2c0,0.2-0.2,0.4-0.4,0.4
		c-0.2,0-0.4-0.2-0.4-0.4V215.3z M99.6,215.7v-0.4c0-1-0.8-1.8-1.8-1.8c-1,0-1.8,0.8-1.8,1.8v0.4h-3c0.3-2.4,2.4-4.1,4.8-4.1
		c2.4,0,4.4,1.8,4.8,4.1H99.6z"/>
</g>
<g>
	<path class="st0" d="M150.9,123.1c-8.3,0-15.1,6.8-15.1,15.1c0,3.9,1.5,7.5,4,10.2l-1.9,1.9c0,0-0.1,0.1-0.1,0.1
		c-0.4-0.3-0.9-0.4-1.4-0.4c-0.7,0-1.3,0.3-1.8,0.8l-9.9,9.9c-0.5,0.5-0.8,1.1-0.8,1.8c0,0.7,0.3,1.3,0.8,1.8
		c0.5,0.5,1.1,0.8,1.8,0.8c0.7,0,1.3-0.3,1.8-0.8l9.9-9.9c0.5-0.5,0.8-1.1,0.8-1.8c0-0.5-0.1-1-0.4-1.4c0,0,0.1-0.1,0.1-0.1l1.9-1.9
		c2.7,2.5,6.3,4,10.2,4c8.3,0,15.1-6.8,15.1-15.1C166,129.8,159.2,123.1,150.9,123.1L150.9,123.1z M127.5,163.5
		c-0.3,0.3-0.6,0.4-1,0.4c-0.4,0-0.7-0.1-1-0.4c-0.3-0.3-0.4-0.6-0.4-1c0-0.4,0.1-0.7,0.4-1l8.8-8.8l1.9,1.9L127.5,163.5z
		 M137.4,153.6l-0.2,0.2l-1.9-1.9l0.2-0.2c0.3-0.3,0.6-0.4,1-0.4c0.4,0,0.7,0.1,1,0.4c0.3,0.3,0.4,0.6,0.4,1
		C137.8,153,137.7,153.3,137.4,153.6L137.4,153.6z M150.9,152c-7.6,0-13.8-6.2-13.8-13.8c0-7.6,6.2-13.8,13.8-13.8
		c7.6,0,13.8,6.2,13.8,13.8C164.8,145.8,158.6,152,150.9,152L150.9,152z M150.9,152"/>
	<path class="st0" d="M162.9,134.7c-0.8-2.8-2.6-5.3-5-6.9c-0.3-0.2-0.7-0.1-0.9,0.2c-0.2,0.3-0.1,0.7,0.2,0.9
		c2.2,1.5,3.8,3.7,4.5,6.2c0.1,0.3,0.3,0.4,0.6,0.4c0.1,0,0.1,0,0.2,0C162.8,135.4,163,135,162.9,134.7L162.9,134.7z M162.9,134.7"
		/>
	<path class="st0" d="M149.7,149.3c-2.5-0.3-4.7-1.3-6.5-3c-0.2-0.2-0.6-0.2-0.9,0c-0.2,0.2-0.2,0.6,0,0.9c2,1.9,4.5,3.1,7.2,3.4
		c0,0,0,0,0.1,0c0.3,0,0.6-0.2,0.6-0.5C150.3,149.7,150,149.4,149.7,149.3L149.7,149.3z M149.7,149.3"/>
	<path class="st0" d="M140.9,143.3c-0.2-0.3-0.5-0.4-0.8-0.3c-0.3,0.2-0.4,0.5-0.3,0.8c0.2,0.4,0.5,0.8,0.7,1.2
		c0.1,0.2,0.3,0.3,0.5,0.3c0.1,0,0.2,0,0.3-0.1c0.3-0.2,0.4-0.6,0.2-0.9C141.4,144,141.1,143.7,140.9,143.3L140.9,143.3z
		 M140.9,143.3"/>
	<path class="st0" d="M153.4,127.2c0.4,0.1,0.8,0.2,1.2,0.3c0.1,0,0.1,0,0.2,0c0.3,0,0.5-0.2,0.6-0.4c0.1-0.3-0.1-0.7-0.4-0.8
		c-0.4-0.2-0.9-0.3-1.3-0.4c-0.3-0.1-0.7,0.1-0.7,0.5C152.9,126.8,153.1,127.1,153.4,127.2L153.4,127.2z M153.4,127.2"/>
	<path class="st0" d="M158.1,137.4c0-0.2-0.1-0.3-0.3-0.4c-0.2-0.1-0.3-0.1-0.5-0.1l-1.3,0.4c-0.1-0.5-0.2-1-0.4-1.5l0.9-0.4
		c0.1-0.1,0.2-0.2,0.3-0.3l1.3-2.6c0.2-0.3,0-0.7-0.3-0.8c-0.3-0.2-0.7,0-0.8,0.3l-1.2,2.4l-0.7,0.4c-0.5-0.8-1.2-1.5-2-2l1.1-2.3
		c0.2-0.3,0-0.7-0.3-0.8c-0.3-0.2-0.7,0-0.8,0.3l-1.2,2.4c-0.3-0.1-0.6-0.1-0.9-0.1s-0.6,0-0.9,0.1l-1.2-2.4
		c-0.2-0.3-0.5-0.4-0.8-0.3c-0.3,0.2-0.4,0.5-0.3,0.8l1.1,2.3c-0.8,0.4-1.5,1.1-2,2l-0.7-0.4l-1.2-2.4c-0.2-0.3-0.5-0.4-0.8-0.3
		c-0.3,0.2-0.4,0.5-0.3,0.8l1.3,2.6c0.1,0.1,0.2,0.2,0.3,0.3l0.9,0.4c-0.2,0.5-0.3,1-0.4,1.5l-1.3-0.4c-0.2-0.1-0.4,0-0.5,0.1
		c-0.2,0.1-0.3,0.2-0.3,0.4l-0.7,3.3c-0.1,0.3,0.1,0.7,0.5,0.7c0,0,0.1,0,0.1,0c0.3,0,0.5-0.2,0.6-0.5l0.5-2.6l0.9,0.3
		c0,0.1,0,0.1,0,0.2c0,0.7,0.1,1.4,0.3,2.1c0,0-0.1,0.1-0.1,0.1l-1.3,1.3c-0.2,0.2-0.2,0.5-0.1,0.8l2,3.3c0.1,0.2,0.3,0.3,0.5,0.3
		c0.1,0,0.2,0,0.3-0.1c0.3-0.2,0.4-0.6,0.2-0.8l-1.7-2.9l0.7-0.7c0.9,1.9,2.6,3.2,4.5,3.2c1.9,0,3.6-1.3,4.5-3.2l0.7,0.7l-1.7,2.9
		c-0.2,0.3-0.1,0.7,0.2,0.8c0.1,0.1,0.2,0.1,0.3,0.1c0.2,0,0.4-0.1,0.5-0.3l2-3.3c0.1-0.2,0.1-0.6-0.1-0.8L156,141
		c0,0-0.1-0.1-0.1-0.1c0.2-0.7,0.3-1.4,0.3-2.1c0-0.1,0-0.1,0-0.2l0.9-0.3l0.5,2.6c0.1,0.3,0.3,0.5,0.6,0.5c0,0,0.1,0,0.1,0
		c0.3-0.1,0.6-0.4,0.5-0.7L158.1,137.4z M150.3,144.1c-1.9-0.4-3.4-2.6-3.4-5.2c0-0.8,0.1-1.6,0.4-2.3c0.9,0.5,1.9,0.8,3,0.9V144.1z
		 M147.9,135.4c0.7-1.2,1.8-1.9,3-1.9s2.3,0.7,3,1.9c-0.8,0.5-1.9,0.8-3,0.8C149.8,136.2,148.7,135.9,147.9,135.4L147.9,135.4z
		 M151.5,144.1v-6.6c1.1-0.1,2.1-0.4,3-0.9c0.3,0.7,0.4,1.5,0.4,2.3C154.9,141.5,153.4,143.7,151.5,144.1L151.5,144.1z M151.5,144.1
		"/>
</g>
<path class="st11" d="M137.8,213.3c0,0-1.5-1.8-3.7,0.7l-9.2,9.5c0,0-0.2,1.9,0.2,2.3c0,0,1.7,1.1,3,0l10.3-10.5
	C138.4,215.4,138.9,213.9,137.8,213.3z"/>
<path class="st12" d="M150.9,185.1c-8.3,0-15.1,6.8-15.1,15.1c0,3.9,1.5,7.5,4,10.2l-1.9,1.9c0,0-0.1,0.1-0.1,0.1
	c-0.4-0.3-0.9-0.4-1.4-0.4c-0.7,0-1.3,0.3-1.8,0.8l-9.9,9.9c-0.5,0.5-0.8,1.1-0.8,1.8c0,0.7,0.3,1.3,0.8,1.8
	c0.5,0.5,1.1,0.8,1.8,0.8c0.7,0,1.3-0.3,1.8-0.8l9.9-9.9c0.5-0.5,0.8-1.1,0.8-1.8c0-0.5-0.1-1-0.4-1.4c0,0,0.1-0.1,0.1-0.1l1.9-1.9
	c2.7,2.5,6.3,4,10.2,4c8.3,0,15.1-6.8,15.1-15.1C166,191.8,159.2,185.1,150.9,185.1L150.9,185.1z M127.5,225.5
	c-0.3,0.3-0.6,0.4-1,0.4c-0.4,0-0.7-0.1-1-0.4c-0.3-0.3-0.4-0.6-0.4-1c0-0.4,0.1-0.7,0.4-1l8.8-8.8l1.9,1.9L127.5,225.5z
	 M137.4,215.6l-0.2,0.2l-1.9-1.9l0.2-0.2c0.3-0.3,0.6-0.4,1-0.4c0.4,0,0.7,0.1,1,0.4c0.3,0.3,0.4,0.6,0.4,1
	C137.8,215,137.7,215.3,137.4,215.6L137.4,215.6z M150.9,214c-7.6,0-13.8-6.2-13.8-13.8c0-7.6,6.2-13.8,13.8-13.8
	s13.8,6.2,13.8,13.8C164.8,207.8,158.6,214,150.9,214L150.9,214z M150.9,214"/>
<path class="st12" d="M162.9,196.7c-0.8-2.8-2.6-5.3-5-6.9c-0.3-0.2-0.7-0.1-0.9,0.2c-0.2,0.3-0.1,0.7,0.2,0.9
	c2.2,1.5,3.8,3.7,4.5,6.2c0.1,0.3,0.3,0.4,0.6,0.4c0.1,0,0.1,0,0.2,0C162.8,197.4,163,197,162.9,196.7L162.9,196.7z M162.9,196.7"/>
<path class="st12" d="M149.7,211.3c-2.5-0.3-4.7-1.3-6.5-3c-0.2-0.2-0.6-0.2-0.9,0c-0.2,0.2-0.2,0.6,0,0.9c2,1.9,4.5,3.1,7.2,3.4
	c0,0,0,0,0.1,0c0.3,0,0.6-0.2,0.6-0.5C150.3,211.7,150,211.4,149.7,211.3L149.7,211.3z M149.7,211.3"/>
<path class="st12" d="M140.9,205.3c-0.2-0.3-0.5-0.4-0.8-0.3c-0.3,0.2-0.4,0.5-0.3,0.8c0.2,0.4,0.5,0.8,0.7,1.2
	c0.1,0.2,0.3,0.3,0.5,0.3c0.1,0,0.2,0,0.3-0.1c0.3-0.2,0.4-0.6,0.2-0.9C141.4,206,141.1,205.7,140.9,205.3L140.9,205.3z
	 M140.9,205.3"/>
<path class="st12" d="M153.4,189.2c0.4,0.1,0.8,0.2,1.2,0.3c0.1,0,0.1,0,0.2,0c0.3,0,0.5-0.2,0.6-0.4c0.1-0.3-0.1-0.7-0.4-0.8
	c-0.4-0.2-0.9-0.3-1.3-0.4c-0.3-0.1-0.7,0.1-0.7,0.5C152.9,188.8,153.1,189.1,153.4,189.2L153.4,189.2z M153.4,189.2"/>
<ellipse class="st13" cx="151" cy="200.9" rx="4.4" ry="6"/>
<path class="st12" d="M158.1,199.4c0-0.2-0.1-0.3-0.3-0.4c-0.2-0.1-0.3-0.1-0.5-0.1l-1.3,0.4c-0.1-0.5-0.2-1-0.4-1.5l0.9-0.4
	c0.1-0.1,0.2-0.2,0.3-0.3l1.3-2.6c0.2-0.3,0-0.7-0.3-0.8c-0.3-0.2-0.7,0-0.8,0.3l-1.2,2.4l-0.7,0.4c-0.5-0.8-1.2-1.5-2-2l1.1-2.3
	c0.2-0.3,0-0.7-0.3-0.8c-0.3-0.2-0.7,0-0.8,0.3l-1.2,2.4c-0.3-0.1-0.6-0.1-0.9-0.1s-0.6,0-0.9,0.1l-1.2-2.4
	c-0.2-0.3-0.5-0.4-0.8-0.3c-0.3,0.2-0.4,0.5-0.3,0.8l1.1,2.3c-0.8,0.4-1.5,1.1-2,2l-0.7-0.4l-1.2-2.4c-0.2-0.3-0.5-0.4-0.8-0.3
	c-0.3,0.2-0.4,0.5-0.3,0.8l1.3,2.6c0.1,0.1,0.2,0.2,0.3,0.3l0.9,0.4c-0.2,0.5-0.3,1-0.4,1.5l-1.3-0.4c-0.2-0.1-0.4,0-0.5,0.1
	c-0.2,0.1-0.3,0.2-0.3,0.4l-0.7,3.3c-0.1,0.3,0.1,0.7,0.5,0.7c0,0,0.1,0,0.1,0c0.3,0,0.5-0.2,0.6-0.5l0.5-2.6l0.9,0.3
	c0,0.1,0,0.1,0,0.2c0,0.7,0.1,1.4,0.3,2.1c0,0-0.1,0.1-0.1,0.1l-1.3,1.3c-0.2,0.2-0.2,0.5-0.1,0.8l2,3.3c0.1,0.2,0.3,0.3,0.5,0.3
	c0.1,0,0.2,0,0.3-0.1c0.3-0.2,0.4-0.6,0.2-0.8l-1.7-2.9l0.7-0.7c0.9,1.9,2.6,3.2,4.5,3.2s3.6-1.3,4.5-3.2l0.7,0.7l-1.7,2.9
	c-0.2,0.3-0.1,0.7,0.2,0.8c0.1,0.1,0.2,0.1,0.3,0.1c0.2,0,0.4-0.1,0.5-0.3l2-3.3c0.1-0.2,0.1-0.6-0.1-0.8L156,203
	c0,0-0.1-0.1-0.1-0.1c0.2-0.7,0.3-1.4,0.3-2.1c0-0.1,0-0.1,0-0.2l0.9-0.3l0.5,2.6c0.1,0.3,0.3,0.5,0.6,0.5c0,0,0.1,0,0.1,0
	c0.3-0.1,0.6-0.4,0.5-0.7L158.1,199.4z M150.3,206.1c-1.9-0.4-3.4-2.6-3.4-5.2c0-0.8,0.1-1.6,0.4-2.3c0.9,0.5,1.9,0.8,3,0.9V206.1z
	 M147.9,197.4c0.7-1.2,1.8-1.9,3-1.9s2.3,0.7,3,1.9c-0.8,0.5-1.9,0.8-3,0.8C149.8,198.2,148.7,197.9,147.9,197.4L147.9,197.4z
	 M151.5,206.1v-6.6c1.1-0.1,2.1-0.4,3-0.9c0.3,0.7,0.4,1.5,0.4,2.3C154.9,203.5,153.4,205.7,151.5,206.1L151.5,206.1z M151.5,206.1"
	/>
<path class="st0" d="M216,123.1h-17.4c-2.5,0-4.5,2-4.5,4.5v1.6v29.7v1.8c0,2.5,2,4.5,4.5,4.5H216c2.5,0,4.5-2,4.5-4.5v-1.8v-29.7
	v-1.6C220.4,125.1,218.4,123.1,216,123.1z M195.8,130h23v28h-23V130z M195.8,127.6c0-1.5,1.2-2.8,2.8-2.8H216c1.5,0,2.8,1.2,2.8,2.8
	v0.7h-23V127.6z M218.7,160.6c0,1.5-1.2,2.8-2.8,2.8h-17.4c-1.5,0-2.8-1.2-2.8-2.8v-0.9h23V160.6z"/>
<path class="st0" d="M207.2,163.2c0.9,0,1.7-0.8,1.7-1.7c0-0.9-0.8-1.7-1.7-1.7s-1.7,0.8-1.7,1.7
	C205.6,162.4,206.3,163.2,207.2,163.2z M207.2,161.5C207.3,161.5,207.3,161.5,207.2,161.5C207.3,161.5,207.3,161.6,207.2,161.5
	C207.2,161.6,207.2,161.5,207.2,161.5C207.2,161.5,207.2,161.5,207.2,161.5z"/>
<path class="st0" d="M208.6,135.6c-0.5-0.1-0.9,0.2-1,0.7l-2.7,13.5c-0.1,0.5,0.2,0.9,0.7,1c0.1,0,0.1,0,0.2,0
	c0.4,0,0.8-0.3,0.8-0.7l2.7-13.5C209.4,136.2,209.1,135.7,208.6,135.6z"/>
<path class="st0" d="M215.3,143.2C215.3,143.2,215.3,143.2,215.3,143.2C215.3,143.2,215.3,143.2,215.3,143.2c0-0.1,0-0.1,0-0.1
	c0,0,0,0,0,0c0,0,0,0,0,0c0,0,0,0,0,0c0,0,0,0,0,0c0,0,0,0,0,0c0,0,0,0,0,0c0,0,0,0,0,0c0,0,0,0,0,0c0,0,0,0,0,0c0,0,0,0,0,0
	c0,0,0,0,0,0c0,0,0,0,0,0l-4-4c-0.3-0.3-0.9-0.3-1.2,0c-0.3,0.3-0.3,0.9,0,1.2l3.4,3.4l-3.3,3.3c-0.3,0.3-0.3,0.9,0,1.2
	c0.2,0.2,0.4,0.3,0.6,0.3c0.2,0,0.4-0.1,0.6-0.3l3.9-3.9c0,0,0,0,0,0c0,0,0,0,0,0c0,0,0,0,0,0c0,0,0,0,0,0c0,0,0,0,0,0c0,0,0,0,0,0
	c0,0,0,0,0,0c0,0,0,0,0,0c0,0,0,0,0,0c0,0,0,0,0,0s0,0,0,0c0,0,0,0,0,0c0,0,0,0,0,0c0,0,0,0,0,0
	C215.3,143.3,215.3,143.3,215.3,143.2C215.3,143.3,215.3,143.3,215.3,143.2C215.3,143.3,215.3,143.3,215.3,143.2z"/>
<path class="st0" d="M200.9,143.2l3.3-3.3c0.3-0.3,0.3-0.9,0-1.2c-0.3-0.3-0.9-0.3-1.2,0l-3.9,3.9c0,0,0,0,0,0c0,0,0,0,0,0
	c0,0,0,0,0,0c0,0,0,0,0,0c0,0,0,0,0,0c0,0,0,0,0,0c0,0,0,0,0,0c0,0,0,0,0,0c0,0,0,0,0,0c0,0,0,0,0,0c0,0,0,0,0,0c0,0,0,0,0,0
	c0,0,0,0,0,0c0,0,0,0,0,0c0,0,0,0,0,0c0,0,0,0,0,0s0,0,0,0c0,0,0,0,0,0c0,0,0,0,0,0c0,0,0,0,0,0c0,0,0,0,0,0c0,0,0,0,0,0
	c0,0,0,0,0,0c0,0,0,0,0,0c0,0,0,0,0,0c0,0,0,0,0,0c0,0,0,0,0,0c0,0,0,0,0,0c0,0,0,0,0,0c0,0,0,0,0,0c0,0,0,0,0,0c0,0,0,0,0,0l4,4
	c0.2,0.2,0.4,0.3,0.6,0.3c0.2,0,0.4-0.1,0.6-0.3c0.3-0.3,0.3-0.9,0-1.2L200.9,143.2z"/>
<path class="st16" d="M219.6,189.6v1.6h-24.7v-1.6c0-2,1.6-3.6,3.6-3.6H216C218,185.9,219.6,187.6,219.6,189.6L219.6,189.6z"/>
<path class="st16" d="M198.7,220.8h20.9v1.8c0,2-1.6,3.6-3.6,3.6h-17.4c-2,0-3.6-1.6-3.6-3.6v-1.8L198.7,220.8L198.7,220.8z"/>
<rect x="194.9" y="191.1" class="st14" width="24.7" height="29.7"/>
<path class="st20" d="M216,223.6h-17.4c-1.7,0-3.2-1.2-3.5-2.8h-0.1v1.8c0,2,1.6,3.6,3.6,3.6H216c2,0,3.6-1.6,3.6-3.6v-1.8h-0.1
	C219.1,222.4,217.7,223.6,216,223.6z"/>
<g>
	<path class="st18" d="M203.3,209.4"/>
	<path class="st18" d="M211.2,209.4"/>
</g>
<path class="st17" d="M216,185.1h-17.4c-2.5,0-4.5,2-4.5,4.5v1.6v29.7v1.8c0,2.5,2,4.5,4.5,4.5H216c2.5,0,4.5-2,4.5-4.5v-1.8v-29.7
	v-1.6C220.4,187.1,218.4,185.1,216,185.1z M195.8,192h23v28h-23V192z M195.8,189.6c0-1.5,1.2-2.8,2.8-2.8H216c1.5,0,2.8,1.2,2.8,2.8
	v0.7h-23V189.6z M218.7,222.6c0,1.5-1.2,2.8-2.8,2.8h-17.4c-1.5,0-2.8-1.2-2.8-2.8v-0.9h23V222.6z"/>
<path class="st17" d="M207.2,225.2c0.9,0,1.7-0.8,1.7-1.7c0-0.9-0.8-1.7-1.7-1.7s-1.7,0.8-1.7,1.7
	C205.6,224.4,206.3,225.2,207.2,225.2z M207.2,223.5C207.3,223.5,207.3,223.5,207.2,223.5C207.3,223.5,207.3,223.6,207.2,223.5
	C207.2,223.6,207.2,223.5,207.2,223.5C207.2,223.5,207.2,223.5,207.2,223.5z"/>
<path class="st17" d="M208.6,197.6c-0.5-0.1-0.9,0.2-1,0.7l-2.7,13.5c-0.1,0.5,0.2,0.9,0.7,1c0.1,0,0.1,0,0.2,0
	c0.4,0,0.8-0.3,0.8-0.7l2.7-13.5C209.4,198.2,209.1,197.7,208.6,197.6z"/>
<path class="st17" d="M215.3,205.2C215.3,205.2,215.3,205.2,215.3,205.2C215.3,205.2,215.3,205.2,215.3,205.2c0-0.1,0-0.1,0-0.1
	c0,0,0,0,0,0c0,0,0,0,0,0c0,0,0,0,0,0c0,0,0,0,0,0c0,0,0,0,0,0c0,0,0,0,0,0c0,0,0,0,0,0c0,0,0,0,0,0c0,0,0,0,0,0c0,0,0,0,0,0
	c0,0,0,0,0,0c0,0,0,0,0,0l-4-4c-0.3-0.3-0.9-0.3-1.2,0c-0.3,0.3-0.3,0.9,0,1.2l3.4,3.4l-3.3,3.3c-0.3,0.3-0.3,0.9,0,1.2
	c0.2,0.2,0.4,0.3,0.6,0.3c0.2,0,0.4-0.1,0.6-0.3l3.9-3.9c0,0,0,0,0,0c0,0,0,0,0,0c0,0,0,0,0,0c0,0,0,0,0,0c0,0,0,0,0,0c0,0,0,0,0,0
	c0,0,0,0,0,0c0,0,0,0,0,0c0,0,0,0,0,0c0,0,0,0,0,0c0,0,0,0,0,0c0,0,0,0,0,0c0,0,0,0,0,0c0,0,0,0,0,0
	C215.3,205.3,215.3,205.3,215.3,205.2C215.3,205.3,215.3,205.3,215.3,205.2C215.3,205.3,215.3,205.3,215.3,205.2z"/>
<path class="st17" d="M200.9,205.2l3.3-3.3c0.3-0.3,0.3-0.9,0-1.2c-0.3-0.3-0.9-0.3-1.2,0l-3.9,3.9c0,0,0,0,0,0c0,0,0,0,0,0
	c0,0,0,0,0,0c0,0,0,0,0,0c0,0,0,0,0,0c0,0,0,0,0,0c0,0,0,0,0,0c0,0,0,0,0,0c0,0,0,0,0,0c0,0,0,0,0,0c0,0,0,0,0,0c0,0,0,0,0,0
	c0,0,0,0,0,0c0,0,0,0,0,0c0,0,0,0,0,0c0,0,0,0,0,0s0,0,0,0c0,0,0,0,0,0s0,0,0,0c0,0,0,0,0,0c0,0,0,0,0,0c0,0,0,0,0,0c0,0,0,0,0,0
	c0,0,0,0,0,0c0,0,0,0,0,0c0,0,0,0,0,0c0,0,0,0,0,0c0,0,0,0,0,0c0,0,0,0,0,0c0,0,0,0,0,0c0,0,0,0,0,0c0,0,0,0,0,0l4,4
	c0.2,0.2,0.4,0.3,0.6,0.3c0.2,0,0.4-0.1,0.6-0.3c0.3-0.3,0.3-0.9,0-1.2L200.9,205.2z"/>
<g>
	
		<rect x="254.4" y="203.4" transform="matrix(0.259 -0.9659 0.9659 0.259 -7.3425 398.7654)" class="st17" width="3.6" height="1.6"/>
	
		<rect x="250.4" y="201.1" transform="matrix(0.7071 -0.7071 0.7071 0.7071 -68.8661 237.4869)" class="st17" width="3.6" height="1.6"/>
	
		<rect x="248.1" y="197.1" transform="matrix(0.966 -0.2586 0.2586 0.966 -42.6727 71.3646)" class="st17" width="3.6" height="1.6"/>
	
		<rect x="249.1" y="191.5" transform="matrix(0.2586 -0.966 0.966 0.2586 -1.4173 384.752)" class="st17" width="1.6" height="3.6"/>
	
		<rect x="251.4" y="187.5" transform="matrix(0.7067 -0.7075 0.7075 0.7067 -59.9656 233.9872)" class="st17" width="1.6" height="3.6"/>
	
		<rect x="255.4" y="185.2" transform="matrix(0.9658 -0.2591 0.2591 0.9658 -39.7094 72.7761)" class="st17" width="1.6" height="3.6"/>
	<rect x="259" y="186.2" transform="matrix(0.2586 -0.966 0.966 0.2586 12.7032 390.597)" class="st17" width="3.6" height="1.6"/>
	
		<rect x="263" y="188.5" transform="matrix(0.7071 -0.7071 0.7071 0.7071 -56.3142 242.6835)" class="st17" width="3.6" height="1.6"/>
	
		<rect x="265.3" y="192.5" transform="matrix(0.966 -0.2586 0.2586 0.966 -40.9016 75.642)" class="st17" width="3.6" height="1.6"/>
	<path class="st17" d="M286.3,227.1l-25-25l3.7-3.7l25,25L286.3,227.1z M263.6,202.1l22.7,22.7l1.4-1.4L265,200.7L263.6,202.1z"/>
	<path class="st17" d="M266,206.8l-4.7-4.7l3.7-3.7l4.7,4.7L266,206.8z M263.6,202.1l2.4,2.4l1.4-1.4l-2.4-2.4L263.6,202.1z"/>
</g>
<circle class="st16" cx="258.5" cy="195.6" r="4.2"/>
<g>
	
		<rect x="254.5" y="141.4" transform="matrix(0.259 -0.9659 0.9659 0.259 52.5606 352.8473)" class="st0" width="3.6" height="1.6"/>
	
		<rect x="250.5" y="139.1" transform="matrix(0.7071 -0.7071 0.7071 0.7071 -25.0181 219.3453)" class="st0" width="3.6" height="1.6"/>
	
		<rect x="248.2" y="135.1" transform="matrix(0.966 -0.2586 0.2586 0.966 -26.6389 69.2622)" class="st0" width="3.6" height="1.6"/>
	
		<rect x="249.2" y="129.5" transform="matrix(0.2586 -0.966 0.966 0.2586 58.4925 338.8093)" class="st0" width="1.6" height="3.6"/>
	
		<rect x="251.5" y="125.5" transform="matrix(0.7067 -0.7075 0.7075 0.7067 -16.0928 215.8208)" class="st0" width="1.6" height="3.6"/>
	
		<rect x="255.4" y="123.2" transform="matrix(0.9658 -0.2591 0.2591 0.9658 -23.6436 70.6651)" class="st0" width="1.6" height="3.6"/>
	<rect x="259" y="124.2" transform="matrix(0.2586 -0.966 0.966 0.2586 72.613 344.6542)" class="st0" width="3.6" height="1.6"/>
	
		<rect x="263" y="126.5" transform="matrix(0.7071 -0.7071 0.7071 0.7071 -12.4662 224.542)" class="st0" width="3.6" height="1.6"/>
	
		<rect x="265.3" y="130.5" transform="matrix(0.966 -0.2586 0.2586 0.966 -24.8678 73.5396)" class="st0" width="3.6" height="1.6"/>
	<path class="st0" d="M286.4,165.1l-25-25l3.7-3.7l25,25L286.4,165.1z M263.7,140.1l22.7,22.7l1.4-1.4L265,138.7L263.7,140.1z"/>
	<path class="st0" d="M266.1,144.8l-4.7-4.7l3.7-3.7l4.7,4.7L266.1,144.8z M263.7,140.1l2.4,2.4l1.4-1.4l-2.4-2.4L263.7,140.1z"/>
</g>
<circle class="st0" cx="258.5" cy="133.6" r="4.2"/>
</svg>
